<?xml version="1.0" standalone="no"?> <!DOCTYPE svg PUBLIC "-//W3C//DTD SVG 1.0//EN" "http://www.w3.org/TR/2001/REC-SVG-20010904/DTD/svg10.dtd" > <svg xmlns="http://www.w3.org/2000/svg" width="100%" height="100%">
<defs >
<font id="GMGlobalSans-8_ExtraBold" horiz-adv-x="603" ><font-face
    font-family="GM Global Sans"
    units-per-em="1000"
    panose-1="2 11 8 2 5 3 2 2 2 3"
    ascent="980"
    descent="-320"
    alphabetic="0" />
<missing-glyph horiz-adv-x="550" d="M150 150V400H200V200H300V150H150ZM50 50V500H500V50H50ZM250 350V400H400V150H350V250H250V300H350V350H250ZM450 100V450H100V100H450Z" />
<glyph unicode="&#xd;" glyph-name="CR" horiz-adv-x="500" />
<glyph unicode=" " glyph-name="space" horiz-adv-x="218" />
<glyph unicode="!" glyph-name="exclam" horiz-adv-x="323" d="M258 74Q258 38 232 13T168 -12Q130 -12 104 13T78 74Q78 111 104 136T168 161Q206 161 232 136T258 74ZM237 201H104L80 711H259L237 201Z" />
<glyph unicode="&quot;" glyph-name="quotedbl" horiz-adv-x="430" d="M171 434H57L38 704H189L171 434ZM374 434H260L241 704H392L374 434Z" />
<glyph unicode="#" glyph-name="numbersign" horiz-adv-x="586" d="M480 399L467 279H539V171H456L438 0H317L335 171H217L199 0H78L96 171H25V279H107L120 399H48V507H131L149 675H270L252 507H370L387 675H508L490 507H562V399H480ZM241 399L228 279H346L359 399H241Z" />
<glyph unicode="$" glyph-name="dollar" horiz-adv-x="497" d="M457 220Q457 185 446 155T413 99T362 55T293 26V-91H185V18Q153 19 125 22T67 30L77 166Q108 155 140 151T201 146Q244 146 269 160T295 206Q295 230 276 243T229 268T167 292T106 326T58 380T39
466Q39 499 50 529T81 583T130 624T194 649V746H301V657Q326 656 351 654T402 645L391 517Q361 525 333 529T281 533Q236 533 217 518T198 480Q198 458 217 445T265 421T327 396T390 361T438 306T457 220Z" />
<glyph unicode="%" glyph-name="percent" horiz-adv-x="767" d="M237 527Q237 567 226 581T193 595Q174 595 161 578T147 528Q147 487 160 473T193 459Q210 459 223 476T237 527ZM621 149Q621 190 609 203T576 217Q557 217 544 200T530 150Q530 109 543 95T576
81Q594 81 607 98T621 149ZM349 533Q349 495 336 464T301 411T250 377T188 365Q114 365 75 407T35 524Q35 561 47 591T82 642T133 676T195 688Q229 688 257 679T305 650T337 602T349 533ZM177 -24L82 45L586 697L681 629L177 -24ZM732 156Q732 118 719 87T684 33T633
-1T571 -13Q497 -13 458 30T418 146Q418 183 430 213T465 265T516 299T579 311Q646 311 689 273T732 156Z" />
<glyph unicode="&amp;" glyph-name="ampersand" horiz-adv-x="798" d="M667 -28Q651 -17 633 -4T596 23T561 48T531 70Q484 35 421 11T275 -13Q213 -13 169 3T97 48T55 112T42 188Q42 220 50 247T74 299T110 346T158 389Q119 436 100 478T80 565Q80 600 94 632T135
687T201 725T293 739Q386 739 434 698T483 584Q483 557 476 533T454 484T417 438T365 391Q381 376 400 361T439 328T481 295T524 262Q553 307 566 360T577 465H729Q729 389 707 315T639 179Q668 158 701 135T762 92L667 -28ZM333 575Q333 596 321 611T283 626Q260
626 246 611T231 573Q231 564 233 553T240 531T253 505T275 477Q301 500 317 524T333 575ZM299 118Q334 118 363 128T417 154Q395 172 372 191T326 229T284 265T249 297Q224 273 212 251T200 206Q200 172 225 145T299 118Z" />
<glyph unicode="&apos;" glyph-name="quotesingle" horiz-adv-x="227" d="M171 434H57L38 704H189L171 434Z" />
<glyph unicode="(" glyph-name="parenleft" horiz-adv-x="308" d="M189 -218Q149 -155 121 -92T74 33T48 159T40 285Q40 348 48 411T75 537T121 664T190 791L303 740Q249 642 220 528T191 290Q191 163 220 49T306 -167L189 -218Z" />
<glyph unicode=")" glyph-name="parenright" horiz-adv-x="308" d="M5 -168Q60 -69 89 44T118 282Q118 409 89 523T4 739L121 791Q160 727 188 664T234 539T260 413T268 287Q268 225 260 162T234 35T187 -92T118 -218L5 -168Z" />
<glyph unicode="*" glyph-name="asterisk" horiz-adv-x="391" d="M310 437L229 506L248 401H141L160 506L78 438L26 529L127 565L26 602L79 693L161 624L141 730H248L229 624L311 693L364 602L263 565L364 529L310 437Z" />
<glyph unicode="+" glyph-name="plus" horiz-adv-x="550" d="M348 234V57H202V234H37V362H202V537H348V362H513V234H348Z" />
<glyph unicode="," glyph-name="comma" horiz-adv-x="277" d="M138 172Q165 172 186 158T220 119T232 60T219 -14T174 -97T91 -185L29 -130Q55 -102 69 -79T88 -37T88 -2T68 30Q52 49 49 73T55 120T85 157T138 172Z" />
<glyph unicode="-" glyph-name="hyphen" horiz-adv-x="337" d="M42 210V332H294V210H42Z" />
<glyph unicode="." glyph-name="period" horiz-adv-x="277" d="M233 82Q233 62 226 45T205 16T175 -4T138 -12Q119 -12 102 -5T72 15T52 45T44 82Q44 101 51 118T72 149T102 169T138 177Q157 177 174 170T205 149T225 119T233 82Z" />
<glyph unicode="/" glyph-name="slash" horiz-adv-x="480" d="M132 -161H-20L331 757H482L132 -161Z" />
<glyph unicode="0" glyph-name="zero" horiz-adv-x="609" d="M572 349Q572 269 554 203T501 88T414 15T297 -11Q227 -11 177 12T96 78T51 184T37 326Q37 406 55 472T108 587T195 660T311 686Q382 686 432 663T513 597T558 491T572 349ZM409 337Q409 452 384 504T305
556Q281 556 262 544T229 507T208 439T200 338Q200 223 225 172T304 120Q328 120 347 131T380 168T401 236T409 337Z" />
<glyph unicode="1" glyph-name="one" horiz-adv-x="369" d="M149 0V516L34 476L11 615L187 677H307V0H149Z" />
<glyph unicode="2" glyph-name="two" horiz-adv-x="501" d="M42 0V136L127 230Q171 277 200 313T246 378T270 427T277 468Q277 502 255 523T193 544Q163 544 131 534T74 508L51 646Q88 664 134 675T234 686Q287 686 327 672T395 631T435 569T448 493Q448 431 408
357T284 192L242 145L243 144Q294 147 342 147T465 148V0H42Z" />
<glyph unicode="3" glyph-name="three" horiz-adv-x="485" d="M451 214Q451 163 431 121T373 50T283 5T169 -11Q106 -11 38 1L55 136Q85 128 114 124T172 120Q225 120 255 141T285 203Q285 221 277 238T245 268T180 284T78 280V401Q135 400 172 407T229 426T258
455T266 488Q266 520 243 538T176 556Q147 556 118 550T62 532L48 657Q84 670 127 678T214 686Q267 686 307 674T374 639T413 587T427 520Q427 468 399 429T319 371V370Q381 355 416 312T451 214Z" />
<glyph unicode="4" glyph-name="four" horiz-adv-x="562" d="M451 148V0H301V148H29L17 269L248 675H451V282H545V148H451ZM303 535H302L159 278Q174 278 201 278T253 279T303 279V535Z" />
<glyph unicode="5" glyph-name="five" horiz-adv-x="470" d="M445 225Q445 173 426 130T371 55T283 6T167 -11Q134 -11 100 -8T40 2L56 138Q83 130 112 126T173 121Q223 121 251 143T280 207Q280 251 246 275T137 300Q113 300 92 299T61 297V675H406V530L205 531V424Q321
421 383 368T445 225Z" />
<glyph unicode="6" glyph-name="six" horiz-adv-x="573" d="M478 543Q458 547 446 548T416 551T378 553Q332 553 300 542T245 509Q228 492 219 474T206 438T199 406T194 386H195Q218 408 253 421T334 435Q383 435 422 421T488 379T529 315T543 233Q543 176 524
131T470 53T389 4T287 -13Q178 -13 114 51Q79 86 58 145T37 298Q37 489 125 587T387 686Q407 686 425 685T459 683T489 680L478 543ZM382 212Q382 256 359 282T294 308Q251 308 228 283T204 215Q204 192 211 173T231 141Q254 118 293 118Q335 118 358 144T382 212Z"
/>
<glyph unicode="7" glyph-name="seven" horiz-adv-x="466" d="M446 544Q419 484 394 416T348 276T308 134T277 0H104Q118 67 138 141T183 286T230 420T274 528Q258 527 232 527T173 526T106 525T20 525V675H446V544Z" />
<glyph unicode="8" glyph-name="eight" horiz-adv-x="574" d="M535 188Q535 139 516 101T461 38T378 0T275 -13Q161 -13 100 35T39 168Q39 196 47 219T69 263T104 302T153 339Q103 370 77 408T51 499Q51 543 68 579T118 639T197 677T299 690Q353 690 394 678T465
644T508 590T523 520Q523 468 497 429T421 358Q477 325 506 285T535 188ZM367 507Q367 532 347 549T287 566Q249 566 229 550T208 507Q208 481 228 461T295 418Q332 438 349 460T367 507ZM376 180Q376 211 353 233T280 279Q237 254 217 231T197 178Q197 148 220
130T288 111Q330 111 353 129T376 180Z" />
<glyph unicode="9" glyph-name="nine" horiz-adv-x="573" d="M88 137Q111 130 144 126T209 122Q287 122 330 165Q346 181 355 199T368 235T374 267T379 289H378Q355 267 320 254T239 240Q190 240 151 254T85 296T44 360T30 442Q30 499 49 544T103 622T183 671T285
688Q395 688 459 624Q494 589 515 530T536 377Q536 271 511 197T436 73Q394 32 335 11T198 -11Q169 -11 137 -8T77 0L88 137ZM368 460Q368 509 342 533Q318 557 278 557Q236 557 213 531T190 463Q190 420 213 394T279 367Q322 367 345 392T368 460Z" />
<glyph unicode=":" glyph-name="colon" horiz-adv-x="306" d="M257 82Q257 63 250 46T229 16T199 -4T163 -12Q144 -12 127 -5T96 16T76 46T68 82Q68 101 75 118T96 149T126 169T163 177Q182 177 199 170T229 149T249 119T257 82ZM257 388Q257 369 250 352T229
321T199 301T163 293Q144 293 127 300T96 321T76 351T68 388Q68 407 75 424T96 455T126 475T163 483Q182 483 199 476T229 455T249 425T257 388Z" />
<glyph unicode=";" glyph-name="semicolon" horiz-adv-x="306" d="M162 172Q203 172 230 141T257 59Q257 9 225 -55T115 -185L53 -130Q80 -102 94 -79T113 -37T113 -2T93 30Q76 49 74 73T80 120T110 157T162 172ZM257 388Q257 368 250 351T229 321T199 301T163
293Q143 293 126 300T96 321T76 351T68 388Q68 407 75 424T96 455T126 475T163 483Q182 483 199 476T229 455T249 425T257 388Z" />
<glyph unicode="&lt;" glyph-name="less" horiz-adv-x="550" d="M379 -3L58 299L377 601L478 500L254 300L479 101L379 -3Z" />
<glyph unicode="=" glyph-name="equal" horiz-adv-x="550" d="M52 134V256H498V134H52ZM52 338V460H498V338H52Z" />
<glyph unicode="&gt;" glyph-name="greater" horiz-adv-x="550" d="M173 -3L72 98L296 298L71 498L171 601L492 299L173 -3Z" />
<glyph unicode="?" glyph-name="question" horiz-adv-x="455" d="M284 74Q284 38 258 13T194 -12Q156 -12 130 13T104 74Q104 111 130 136T194 161Q232 161 258 136T284 74ZM416 510Q416 468 402 439T368 387T325 346T286 307T262 262T266 201H117Q101 247 104
280T123 338T159 383T201 419T235 454T250 494Q250 536 200 558T56 583L75 721Q166 719 230 701T336 654T396 587T416 510Z" />
<glyph unicode="@" glyph-name="at" horiz-adv-x="1024" d="M742 -148Q683 -168 616 -179T496 -190Q389 -190 309 -162T174 -82T93 43T66 208Q66 319 104 412T209 573T366 679T561 717Q659 717 733 690T858 615T934 503T960 363Q960 287 941 227T886 125T801 61T692
38Q633 38 601 66T568 138H566Q543 98 504 68T410 38Q355 38 318 80T280 210Q280 272 297 326T348 420T434 484T554 508Q587 508 616 504T668 494Q694 488 716 481L678 273Q667 217 675 190T714 162Q759 162 792 210T825 356Q825 401 811 445T764 523T681 578T555
599Q482 599 417 572T304 496T227 376T199 221Q199 153 217 99T273 7T371 -51T514 -71Q564 -71 618 -62T724 -35L742 -148ZM560 385Q554 386 548 387Q543 388 536 389T521 390Q497 390 479 375T448 336T429 284T422 230Q422 195 428 180T452 165Q478 165 506 206T551
341L560 385Z" />
<glyph unicode="A" glyph-name="A" horiz-adv-x="633" d="M336 436Q328 460 322 485T310 540H308Q304 515 298 489T283 436L227 256H392L336 436ZM466 0L425 133H193L152 0H-3L212 675H418L636 0H466Z" />
<glyph unicode="B" glyph-name="B" horiz-adv-x="588" d="M389 206Q389 244 361 265T271 287Q235 287 216 286V125Q225 124 244 123T280 122Q334 122 361 144T389 206ZM371 482Q371 518 347 537T273 557Q256 557 216 554V403Q229 402 266 402Q317 402 344 422T371
482ZM558 212Q558 169 541 131T488 63T399 15T276 -2Q261 -2 189 -1T60 0V674Q89 676 152 678T282 680Q407 680 471 636T535 504Q535 458 512 419T446 361V360Q498 344 528 305T558 212Z" />
<glyph unicode="C" glyph-name="C" horiz-adv-x="555" d="M517 23Q480 8 436 0T348 -9Q259 -9 197 18T99 92T48 196T32 317Q32 400 55 468T122 584T230 658T374 684Q409 684 446 678T514 662L491 517Q430 542 369 542Q289 542 246 486T203 336Q203 237 245 186T374
135Q402 135 435 142T495 161L517 23Z" />
<glyph unicode="D" glyph-name="D" horiz-adv-x="660" d="M461 339Q461 389 452 427T423 492T367 533T280 548Q233 548 216 546V133Q227 131 242 130T274 129Q315 129 349 142T408 181T447 246T461 339ZM628 351Q628 266 602 199T527 87T411 18T260 -5Q212 -5
166 -4T60 1V673Q105 676 166 677T290 679Q368 679 430 661T536 604T604 502T628 351Z" />
<glyph unicode="E" glyph-name="E" horiz-adv-x="508" d="M60 0V675H457V544H216V410H436V283H216V134H457V0H60Z" />
<glyph unicode="F" glyph-name="F" horiz-adv-x="470" d="M216 542V395H427V267H216V0H60V675H442V542H216Z" />
<glyph unicode="G" glyph-name="G" horiz-adv-x="670" d="M612 33Q561 12 500 1T375 -11Q291 -11 227 11T119 76T54 179T32 314Q32 398 57 466T131 584T251 659T414 685Q466 685 517 678T609 657L578 515Q540 530 497 538T407 546Q303 546 252 488T200 333Q200
237 249 184T392 130Q429 130 456 139V360H612V33Z" />
<glyph unicode="H" glyph-name="H" horiz-adv-x="679" d="M463 0V281H216V0H60V675H216V416H463V675H619V0H463Z" />
<glyph unicode="I" glyph-name="I" horiz-adv-x="276" d="M60 0V675H216V0H60Z" />
<glyph unicode="J" glyph-name="J" horiz-adv-x="349" d="M290 201Q290 157 280 119T246 52T184 7T91 -10Q63 -10 42 -8T0 -2V130Q11 126 28 124T64 121Q99 121 117 140T135 202V675H290V201Z" />
<glyph unicode="K" glyph-name="K" horiz-adv-x="605" d="M399 0L216 317V0H60V675H216V377L401 675H588L366 351L601 0H399Z" />
<glyph unicode="L" glyph-name="L" horiz-adv-x="430" d="M60 0V675H216V136H420V0H60Z" />
<glyph unicode="M" glyph-name="M" horiz-adv-x="898" d="M718 0L686 290Q680 348 676 411T672 527H669Q658 472 645 419T615 309L514 0H369L271 302Q255 356 238 420T213 527H211Q211 477 208 413T198 289L170 0H21L98 675H315L413 375Q424 340 433 301T448 227H450Q458
272 466 309T484 375L581 675H799L877 0H718Z" />
<glyph unicode="N" glyph-name="N" horiz-adv-x="688" d="M464 0L276 307Q252 345 234 380T202 449H199Q203 402 206 330T210 181V0H60V675H239L413 390Q438 352 455 317T486 250H489Q484 300 481 369T478 515V675H628V0H464Z" />
<glyph unicode="O" glyph-name="O" horiz-adv-x="715" d="M518 336Q518 437 478 491T358 546Q322 546 293 533T242 493T210 428T198 339Q198 238 238 184T358 129Q394 129 423 142T474 182T506 247T518 336ZM684 352Q684 266 658 198T585 82T477 11T347 -13Q269
-13 210 9T111 74T51 179T31 323Q31 409 57 477T131 593T239 664T369 688Q446 688 505 666T604 601T664 496T684 352Z" />
<glyph unicode="P" glyph-name="P" horiz-adv-x="555" d="M538 458Q538 406 520 361T466 281T378 227T257 207Q236 207 216 208V0H60V675Q160 680 265 680Q398 680 468 622T538 458ZM378 443Q378 493 349 522T259 552Q240 552 216 550V338Q239 334 265 334Q318
334 348 363T378 443Z" />
<glyph unicode="Q" glyph-name="Q" horiz-adv-x="715" d="M706 -66Q646 -75 605 -70T511 -46T438 -20T376 -13H347Q269 -13 210 9T111 74T51 179T31 323Q31 409 57 477T131 593T239 664T369 688Q446 688 505 666T604 601T664 496T684 352Q684 312 678 275T661
206T634 149T598 105T556 75Q572 76 581 75T614 68T658 62T706 64V-66ZM518 336Q518 437 478 491T358 546Q322 546 293 533T242 493T209 428T197 339Q197 239 238 184T358 129Q394 129 423 142T474 182T506 247T518 336Z" />
<glyph unicode="R" glyph-name="R" horiz-adv-x="580" d="M367 464Q367 505 342 528T264 552Q241 552 216 550V375Q238 374 260 374Q310 374 338 397T367 464ZM389 0L242 259H216V0H60V675Q156 680 273 680Q335 680 382 669T463 633T513 569T531 477Q531 404 495
357T396 288Q424 249 445 214L578 0H389Z" />
<glyph unicode="S" glyph-name="S" horiz-adv-x="502" d="M475 205Q475 157 458 118T405 49T320 4T206 -12Q162 -12 122 -8T46 6L60 154Q95 140 135 132T214 124Q257 124 282 140T308 189Q308 215 290 232T239 263T168 295T101 334T52 392T33 480Q33 526 51 564T103
630T188 672T300 687Q328 687 361 684T423 674L409 538Q352 558 290 558Q243 558 220 542T197 495Q197 471 215 455T266 424T338 392T407 352T456 293T475 205Z" />
<glyph unicode="T" glyph-name="T" horiz-adv-x="507" d="M331 542V0H176V542H14V675H493V542H331Z" />
<glyph unicode="U" glyph-name="U" horiz-adv-x="673" d="M613 265Q613 125 539 56T327 -13Q249 -13 197 6T115 60T73 138T60 238V675H216V247Q216 216 221 193T241 153T278 127T337 118Q403 118 431 149T459 256V675H613V265Z" />
<glyph unicode="V" glyph-name="V" horiz-adv-x="635" d="M422 0H216L-2 675H169L284 293Q296 251 306 213T322 143H324Q331 178 341 219T361 294L478 675H637L422 0Z" />
<glyph unicode="W" glyph-name="W" horiz-adv-x="959" d="M781 0H588L502 320Q492 362 480 456H478Q469 368 456 320L371 0H179L18 675H184L256 351Q277 241 285 169H287Q300 270 321 350L407 675H563L651 348Q679 242 688 169H691Q704 275 719 351L788 675H941L781 0Z" />
<glyph unicode="X" glyph-name="X" horiz-adv-x="648" d="M446 0L318 228L190 0H6L217 344L18 675H198L321 456L442 675H619L424 343L642 0H446Z" />
<glyph unicode="Y" glyph-name="Y" horiz-adv-x="578" d="M365 242V0H210V241L-4 675H165L245 505Q270 452 289 400H291Q300 425 311 451T341 517L417 675H582L365 242Z" />
<glyph unicode="Z" glyph-name="Z" horiz-adv-x="536" d="M44 0V122L261 485Q287 523 297 537Q261 535 191 535H51V675H488V548L259 180Q245 160 233 142Q246 144 364 144H492V0H44Z" />
<glyph unicode="[" glyph-name="bracketleft" horiz-adv-x="331" d="M62 -208V781H297V659H205V-85H297V-208H62Z" />
<glyph unicode="\" glyph-name="backslash" horiz-adv-x="504" d="M354 -161L4 757H156L506 -161H354Z" />
<glyph unicode="]" glyph-name="bracketright" horiz-adv-x="331" d="M35 -208V-85H126V659H35V781H270V-208H35Z" />
<glyph unicode="^" glyph-name="asciicircum" horiz-adv-x="550" d="M389 333L267 568L150 333L49 385L212 675H327L497 387L389 333Z" />
<glyph unicode="_" glyph-name="underscore" horiz-adv-x="550" d="M0 -244V-121H550V-244H0Z" />
<glyph unicode="`" glyph-name="grave" horiz-adv-x="350" d="M231 551L54 680L134 770L296 624L231 551Z" />
<glyph unicode="a" glyph-name="a" horiz-adv-x="526" d="M312 214Q273 214 247 210T206 197T185 178T178 152Q178 132 191 119T227 105Q245 105 261 113T288 134T306 164T312 199V214ZM326 0Q326 50 330 75H329Q311 36 270 13T177 -11Q142 -11 115 0T70 31T42
78T32 136Q32 182 52 215T110 270T198 301T312 311V327Q312 362 294 377T234 393Q201 393 160 384T83 361L60 475Q104 490 155 499T251 509Q312 509 353 498T419 464T454 410T465 334V118Q465 88 466 58T469 0H326Z" />
<glyph unicode="b" glyph-name="b" horiz-adv-x="559" d="M367 260Q367 322 351 351T299 381Q260 381 236 342T211 242V119Q234 111 264 111Q287 111 305 119T338 144T359 191T367 260ZM528 275Q528 214 510 162T457 71T371 11T253 -11Q187 -11 134 -2T59 14V730H211V534Q211
511 209 483T204 435L205 434Q223 468 260 488T346 508Q434 508 481 447T528 275Z" />
<glyph unicode="c" glyph-name="c" horiz-adv-x="418" d="M391 11Q333 -11 258 -11Q145 -11 88 51T30 233Q30 291 45 340T93 428T175 487T290 508Q341 508 391 492L368 360Q326 377 289 377Q239 377 214 342T189 245Q189 187 214 155T289 122Q338 122 373 139L391 11Z" />
<glyph unicode="d" glyph-name="d" horiz-adv-x="559" d="M347 380Q322 386 295 386Q272 386 253 378T220 353T199 306T191 237Q191 175 208 145T260 115Q279 115 295 125T322 155T340 201T347 258V380ZM360 0Q360 22 360 38T364 71H362Q341 33 303 11T212 -12Q124
-12 78 50T31 221Q31 282 49 334T101 425T186 485T298 507Q323 507 347 504V730H500V0H360Z" />
<glyph unicode="e" glyph-name="e" horiz-adv-x="519" d="M336 308Q337 352 318 374T265 397Q232 397 210 373T184 308H336ZM485 292Q485 250 480 207H184Q186 158 214 132T301 106Q375 106 453 132L468 20Q382 -11 284 -11Q159 -11 95 51T30 243Q30 299 46 347T94
432T171 488T273 508Q327 508 367 492T434 447T472 378T485 292Z" />
<glyph unicode="f" glyph-name="f" horiz-adv-x="357" d="M359 607Q330 616 301 616Q268 616 253 598T237 537V497H339V380H237V0H85V380H9V497H85V525Q85 635 137 687T295 739Q332 739 369 733L359 607Z" />
<glyph unicode="g" glyph-name="g" horiz-adv-x="559" d="M347 380Q336 382 324 384T295 386Q273 386 254 379T221 354T199 308T191 237Q191 174 207 146T259 117Q298 117 322 156T347 261V380ZM500 -2Q500 -50 487 -94T443 -171T355 -225T216 -245Q174 -245 137
-241T59 -227L72 -88Q106 -102 145 -109T223 -117Q286 -116 318 -92T350 -13V7Q350 21 350 35T354 69H352Q333 32 297 11T216 -10Q125 -10 79 49T31 221Q31 282 48 334T100 425T187 486T307 508Q365 508 411 504T500 492V-2V-2Z" />
<glyph unicode="h" glyph-name="h" horiz-adv-x="568" d="M356 0V316Q356 348 346 364T310 380Q290 380 272 369T241 338T219 293T211 240V0H59V730H211V531Q211 506 209 478T203 429H204Q227 466 267 487T361 508Q401 508 429 496T475 463T500 413T508 350V0H356Z" />
<glyph unicode="i" glyph-name="i" horiz-adv-x="271" d="M59 0V497H211V0H59ZM229 645Q229 627 222 611T202 582T172 562T135 555Q116 555 99 562T69 581T49 610T42 645Q42 663 49 679T69 708T99 728T135 735Q154 735 171 728T202 709T222 680T229 645Z" />
<glyph unicode="j" glyph-name="j" horiz-adv-x="273" d="M214 -25Q214 -77 203 -117T167 -185T104 -229T12 -244Q-12 -244 -33 -241T-65 -236L-56 -107Q-49 -109 -31 -112T8 -116Q36 -116 49 -99T62 -42V497H214V-25ZM231 645Q231 627 224 611T204 582T174 562T138
555Q119 555 102 562T71 581T51 610T44 645Q44 663 51 679T72 708T102 728T138 735Q157 735 174 728T204 709T224 680T231 645Z" />
<glyph unicode="k" glyph-name="k" horiz-adv-x="542" d="M346 0L211 239V0H59V730H211V297L337 497H517L358 277L536 0H346Z" />
<glyph unicode="l" glyph-name="l" horiz-adv-x="271" d="M59 0V730H211V0H59Z" />
<glyph unicode="m" glyph-name="m" horiz-adv-x="858" d="M646 0V311Q646 345 636 362T601 380Q584 380 567 370T535 340T513 294T504 239V0H354V312Q354 345 344 362T309 380Q291 380 274 369T242 339T219 294T211 239V0H59V497H202Q202 482 201 460T196 418H197Q221
460 262 484T356 508Q411 508 445 484T492 418Q513 457 554 482T649 508Q722 508 760 466T799 340V0H646Z" />
<glyph unicode="n" glyph-name="n" horiz-adv-x="568" d="M356 0V316Q356 348 346 364T310 380Q290 380 272 369T241 338T219 293T211 241V0H59V497H201Q201 478 200 457T195 419L196 418Q221 459 262 483T361 508Q401 508 429 496T475 463T500 413T508 350V0H356Z" />
<glyph unicode="o" glyph-name="o" horiz-adv-x="558" d="M371 248Q371 311 348 344T280 378Q259 378 242 370T212 346T194 305T187 249Q187 186 210 153T278 120Q321 120 346 152T371 248ZM529 262Q529 203 512 153T461 67T379 10T269 -11Q214 -11 170 3T94 48T46
125T29 235Q29 294 46 344T97 430T179 487T289 508Q402 508 465 447T529 262Z" />
<glyph unicode="p" glyph-name="p" horiz-adv-x="559" d="M367 260Q367 382 299 382Q280 382 264 372T236 342T218 296T211 239V117Q235 111 264 111Q287 111 305 119T338 144T359 191T367 260ZM528 276Q528 212 512 160T462 70T379 12T262 -8Q232 -8 211 -4V-237H59V497H199Q199
480 198 462T195 426H197Q218 466 255 487T347 508Q434 508 481 447T528 276Z" />
<glyph unicode="q" glyph-name="q" horiz-adv-x="559" d="M347 381Q322 386 295 386Q272 386 253 378T220 353T199 306T191 237Q191 175 207 145T259 115Q298 115 322 155T347 261V381ZM347 -237V-34Q347 21 354 67L352 68Q333 30 298 9T216 -12Q126 -12 79 47T31
220Q31 282 48 334T101 426T189 486T308 508Q400 508 500 492V-237H347Z" />
<glyph unicode="r" glyph-name="r" horiz-adv-x="356" d="M338 358Q275 372 243 335T211 205V0H59V497H201Q201 479 199 455T194 409H196Q217 457 254 484T345 509L338 358Z" />
<glyph unicode="s" glyph-name="s" horiz-adv-x="411" d="M379 157Q379 121 365 91T323 37T253 2T156 -11Q92 -11 44 1L51 126Q103 106 161 106Q190 106 205 115T220 143Q220 159 208 169T176 187T128 208T80 237T47 280T34 346Q34 380 47 409T87 461T156 496T252
509Q301 509 341 500L335 382Q294 395 248 395Q220 395 206 386T191 360Q191 345 203 335T234 317T283 295T332 265T366 222T379 157Z" />
<glyph unicode="t" glyph-name="t" horiz-adv-x="377" d="M348 4Q293 -11 237 -11Q193 -11 164 -3T117 24T92 74T84 154V380H9V497H84V644L236 685V497H344V380H236V179Q236 143 247 130T285 116Q309 116 339 123L348 4Z" />
<glyph unicode="u" glyph-name="u" horiz-adv-x="566" d="M366 0Q366 49 372 78L370 79Q346 38 305 14T206 -11Q166 -11 137 1T91 35T66 85T58 147V497H211V181Q211 149 221 133T257 117Q277 117 295 128T326 159T347 204T355 256V497H508V0H366Z" />
<glyph unicode="v" glyph-name="v" horiz-adv-x="519" d="M351 0H167L3 497H166L228 299Q248 232 263 160H265Q278 230 296 298L356 497H516L351 0Z" />
<glyph unicode="w" glyph-name="w" horiz-adv-x="798" d="M641 0H473L420 181Q412 210 405 242T392 306H391Q385 273 378 239T361 172L313 0H153L7 497H173L216 335Q224 300 233 260T250 181H252Q258 221 267 260T285 335L331 497H477L524 335Q529 315 534 296T543
258T552 220T559 181H561Q567 221 576 259T594 335L637 497H791L641 0Z" />
<glyph unicode="x" glyph-name="x" horiz-adv-x="534" d="M340 0L263 152L186 0H5L169 252L15 497H196L274 348L353 497H521L376 252L530 0H340Z" />
<glyph unicode="y" glyph-name="y" horiz-adv-x="566" d="M91 -90Q125 -102 164 -109T243 -117Q303 -117 331 -91T359 -13V4Q359 19 361 40T369 81H367Q345 42 305 18T206 -7Q165 -7 136 5T90 39T66 88T58 149V497H211V183Q211 153 220 137T257 120Q277 120 295
131T326 162T347 206T355 258V497H508V3Q508 -63 489 -109T433 -186T346 -231T231 -245Q193 -245 154 -241T79 -228L91 -90Z" />
<glyph unicode="z" glyph-name="z" horiz-adv-x="452" d="M44 0V109L218 362Q190 360 128 360H50V497H404V388L235 139Q251 140 332 140H407V0H44Z" />
<glyph unicode="{" glyph-name="braceleft" horiz-adv-x="376" d="M319 -208Q267 -208 229 -195T167 -153T132 -78T120 33V141Q120 174 114 195T95 229T64 247T24 254V368Q46 369 64 373T95 390T114 422T120 476V542Q120 604 131 649T166 723T228 766T319 781H343V659Q319
659 304 655T279 638T266 603T262 543V477Q262 433 255 403T236 354T207 325T171 312V310Q190 307 207 297T236 266T255 215T262 140V33Q262 -5 266 -28T279 -63T303 -80T343 -85V-208H319Z" />
<glyph unicode="|" glyph-name="bar" horiz-adv-x="290" d="M82 -237V763H203V-237H82Z" />
<glyph unicode="}" glyph-name="braceright" horiz-adv-x="376" d="M33 -85Q56 -85 71 -81T96 -64T109 -28T113 33V140Q113 184 120 214T139 265T168 296T205 310V312Q185 315 169 324T140 353T120 402T113 476V543Q113 580 109 603T96 638T72 654T33 659V781H57Q109
781 147 767T209 724T244 650T255 542V477Q255 443 261 423T280 390T310 374T352 368V254Q329 253 312 248T281 229T262 195T255 141V33Q255 -32 244 -77T209 -152T147 -195T57 -208H33V-85Z" />
<glyph unicode="~" glyph-name="asciitilde" horiz-adv-x="550" d="M516 590V567Q516 490 473 444T354 398Q325 398 305 405T270 424T245 448T226 472T208 491T186 499Q166 499 157 481T148 423H34V447Q34 524 77 570T196 616Q239 616 264 600T305 565T334 531T365
515Q385 515 394 533T403 590H516Z" />
<glyph unicode="&#xa0;" glyph-name="uni00A0" horiz-adv-x="218" />
<glyph unicode="&#xa1;" glyph-name="exclamdown" horiz-adv-x="323" d="M244 423Q244 404 237 388T218 361T190 343T154 336Q135 336 119 342T90 360T71 388T64 423Q64 441 71 456T90 483T118 502T154 509Q173 509 189 502T218 484T237 457T244 423ZM64 -214L86
296H218L243 -214H64Z" />
<glyph unicode="&#xa2;" glyph-name="cent" horiz-adv-x="452" d="M214 -23V101Q169 107 136 127T82 177T50 248T39 335Q39 381 50 422T84 496T139 551T214 583V692H328V591Q346 589 368 586T411 576L391 449Q372 458 351 463T305 468Q254 468 226 436T197 344Q197
317 203 296T222 260T255 237T303 228Q330 228 352 233T396 249L415 121Q395 114 372 108T328 100V-23H214Z" />
<glyph unicode="&#xa3;" glyph-name="sterling" horiz-adv-x="480" d="M41 0V106Q83 133 102 163T122 237Q122 269 119 287H29V404H106Q101 440 99 458T96 496Q96 591 151 639T309 688Q375 688 425 674L399 549Q359 563 322 563Q289 563 270 546T251 493Q251 478
253 460T259 404H383V287H273Q274 280 274 251Q274 175 217 126Q251 133 328 133H458V0H41Z" />
<glyph unicode="&#xa4;" glyph-name="currency" horiz-adv-x="550" d="M405 39L331 139Q299 128 265 128Q252 128 241 129T219 133L151 40L32 124L97 206Q82 229 75 258T67 325Q67 396 102 445L32 535L150 618L220 524Q235 528 251 530T285 533Q299 533 312 532T339
526L406 619L523 534L458 450Q470 428 476 401T483 337Q483 302 474 273T449 219L523 124L405 39ZM352 334Q352 356 348 373T334 400T310 417T275 423Q260 423 247 418T223 400T205 371T198 330Q198 310 202 293T216 264T240 245T274 238Q288 238 302 243T327 259T345
289T352 334Z" />
<glyph unicode="&#xa5;" glyph-name="yen" horiz-adv-x="607" d="M379 324V316H528V224H379V161H528V69H379V0H225V69H77V161H225V224H77V316H225V324L11 675H183L254 550Q280 504 304 452H306Q333 510 358 553L429 675H596L379 324Z" />
<glyph unicode="&#xa6;" glyph-name="brokenbar" horiz-adv-x="290" d="M82 395V763H203V395H82ZM82 -237V141H203V-237H82Z" />
<glyph unicode="&#xa7;" glyph-name="section" horiz-adv-x="536" d="M474 255Q474 209 453 171T398 108Q414 88 424 63T435 3Q435 -28 422 -58T379 -113T302 -153T185 -169Q167 -169 143 -167T99 -159L109 -32Q127 -38 147 -40T186 -43Q231 -43 250 -28T270 7Q270
27 254 45T213 82T161 122T109 171T68 234T51 317Q51 363 71 400T127 463Q109 485 100 509T90 567Q90 601 102 632T142 687T213 725T320 739Q342 739 364 738T406 732L399 605Q381 610 364 612T327 615Q288 615 271 604T254 570Q254 550 270 533T311 495T364 453T416
402T457 337T474 255ZM338 234Q338 257 329 274T303 309T263 345T213 389Q201 379 195 365T188 336Q188 318 194 302T216 269T255 231T313 182Q326 192 332 206T338 234Z" />
<glyph unicode="&#xa8;" glyph-name="dieresis" horiz-adv-x="475" d="M212 645Q212 612 189 589T133 566Q101 566 78 589T54 645Q54 677 77 700T133 724Q166 724 189 701T212 645ZM421 645Q421 612 398 589T342 566Q310 566 287 589T263 645Q263 677 286 700T342
724Q375 724 398 701T421 645Z" />
<glyph unicode="&#xa9;" glyph-name="copyright" horiz-adv-x="765" d="M728 333Q728 261 701 198T627 89T517 15T382 -13Q310 -13 247 14T137 88T63 198T36 333Q36 405 63 468T137 577T247 651T382 679Q454 679 517 652T627 578T701 468T728 333ZM615 333Q615
381 597 423T547 497T473 548T382 566Q334 566 292 548T218 498T168 424T149 333Q149 285 167 243T217 168T291 118T382 99Q430 99 472 117T547 168T597 242T615 333ZM483 178Q460 167 435 162T379 156Q343 156 313 168T262 202T229 257T217 330Q217 367 227 400T259
458T314 497T393 512Q420 512 440 508T478 495L460 397Q451 405 436 409T403 413Q387 413 376 408T356 393T345 367T341 332Q341 295 356 278T398 260Q415 260 431 263T462 274L483 178Z" />
<glyph unicode="&#xaa;" glyph-name="ordfeminine" horiz-adv-x="413" d="M243 313Q243 323 244 335T247 360H246Q233 333 205 318T145 303Q87 303 61 332T34 407Q34 444 50 469T94 511T157 534T235 541V554Q235 560 234 567T226 579T210 588T181 592Q153 592
123 585T69 567L57 663Q86 674 123 680T200 686Q245 686 274 676T321 649T346 610T354 562V397Q354 358 355 313H243ZM42 152V262H369V152H42ZM235 466Q213 466 196 464T168 457T152 444T146 424Q146 411 154 403T178 395Q191 395 202 400T220 415T231 435T235
456V466Z" />
<glyph unicode="&#xab;" glyph-name="guillemotleft" horiz-adv-x="550" d="M383 94L268 292L386 491L501 439L413 292L503 148L383 94ZM138 88L34 292L140 497L260 446L179 292L262 140L138 88Z" />
<glyph unicode="&#xac;" glyph-name="logicalnot" horiz-adv-x="550" d="M358 90V234H37V362H494V90H358Z" />
<glyph unicode="&#xad;" glyph-name="uni00AD" horiz-adv-x="337" d="M42 210V332H294V210H42Z" />
<glyph unicode="&#xae;" glyph-name="registered" horiz-adv-x="565" d="M525 532Q525 481 506 438T454 363T377 312T282 293Q231 293 187 311T110 362T58 437T39 532Q39 582 58 625T111 701T188 751T282 770Q332 770 377 752T454 702T506 626T525 532ZM436 531Q436
563 424 591T391 640T342 674T282 686Q251 686 223 674T174 641T141 592T128 532Q128 500 140 472T173 423T222 390T282 377Q314 377 342 389T391 422T424 471T436 531ZM300 423L272 501H263V423H196V642H297Q339 642 358 625T377 579Q377 554 367 539T339 517Q343
513 346 508T352 493L380 423H300ZM263 547H273Q286 547 293 553T301 570Q301 581 295 586T276 591H263V547Z" />
<glyph unicode="&#xaf;" glyph-name="macron" horiz-adv-x="389" d="M54 588V698H335V588H54Z" />
<glyph unicode="&#xb0;" glyph-name="degree" horiz-adv-x="396" d="M243 597Q243 621 230 635T194 650Q173 650 160 635T146 596Q146 571 159 557T194 543Q215 543 229 558T243 597ZM354 599Q354 563 341 535T304 487T252 458T191 448Q117 448 76 487T35 594Q35
630 48 658T85 706T137 735T197 745Q234 745 263 735T313 706T343 660T354 599Z" />
<glyph unicode="&#xb1;" glyph-name="plusminus" horiz-adv-x="550" d="M348 353V179H202V353H37V479H202V653H348V479H513V353H348ZM42 0V127H508V0H42Z" />
<glyph unicode="&#xb2;" glyph-name="twosuperior" horiz-adv-x="390" d="M33 346V456L120 539Q140 558 154 573T176 600T187 623T191 644Q191 664 178 677T137 690Q117 690 95 684T55 668L37 773Q66 785 104 793T177 802Q258 802 300 768T343 667Q343 619 321
582T253 503L205 459Q235 461 278 462T357 463V346H33Z" />
<glyph unicode="&#xb3;" glyph-name="threesuperior" horiz-adv-x="383" d="M38 443Q56 438 79 435T121 432Q162 432 181 445T200 480Q200 508 166 520T55 525V615Q121 615 155 629T189 670Q189 708 133 708Q114 708 90 704T43 691L30 781Q45 786 62 790T96 796T130
800T164 802Q245 802 288 773T331 687Q331 652 314 629T266 591Q306 577 325 550T345 488Q345 418 288 378T129 337Q104 337 74 339T24 347L38 443Z" />
<glyph unicode="&#xb4;" glyph-name="acute" horiz-adv-x="350" d="M119 551L54 623L216 770L296 682L119 551Z" />
<glyph unicode="&#xb5;" glyph-name="mu1" horiz-adv-x="580" d="M560 -3Q530 -11 501 -11Q466 -11 443 -4T407 15T387 42T379 75L378 76Q361 38 329 16T248 -7Q216 -7 197 9L215 -237H59V497H211V179Q211 117 258 117Q301 117 328 156T356 259V497H508V184Q508
163 510 150T518 130T534 119T560 116V-3V-3Z" />
<glyph unicode="&#xb6;" glyph-name="paragraph" horiz-adv-x="607" d="M295 219Q229 219 182 237T105 287T61 360T47 447Q47 500 65 542T117 614T195 659T295 675V219V219ZM501 552V-96H307V27H374V675H563V552H501Z" />
<glyph unicode="&#xb7;" glyph-name="periodcentered" horiz-adv-x="292" d="M241 298Q241 278 234 261T213 230T183 210T146 203Q126 203 109 210T79 230T59 260T51 298Q51 317 58 334T78 365T108 385T146 393Q165 393 182 386T213 365T233 335T241 298Z" />
<glyph unicode="&#xb8;" glyph-name="cedilla" horiz-adv-x="271" d="M185 -39Q224 -95 216 -144T165 -234H54Q89 -193 92 -157T61 -75L185 -39V-39Z" />
<glyph unicode="&#xb9;" glyph-name="onesuperior" horiz-adv-x="314" d="M114 346V673L31 646L10 749L133 792H256V346H114Z" />
<glyph unicode="&#xba;" glyph-name="ordmasculine" horiz-adv-x="430" d="M397 506Q397 462 385 426T348 362T288 319T207 304Q128 304 81 347T33 485Q33 529 45 566T82 630T142 672T223 687Q302 687 349 644T397 506ZM47 152V262H383V152H47ZM277 496Q277 539
261 561T215 584Q187 584 170 562T152 495Q152 452 168 430T214 407Q243 407 260 429T277 496Z" />
<glyph unicode="&#xbb;" glyph-name="guillemotright" horiz-adv-x="550" d="M410 88L290 139L371 294L289 445L413 497L517 294L410 88ZM165 94L49 147L137 294L47 438L168 491L283 294L165 94Z" />
<glyph unicode="&#xbc;" glyph-name="onequarter" horiz-adv-x="849" d="M114 346V673L31 646L10 749L133 792H256V346H114ZM114 -142L22 -78L672 814L763 749L114 -142ZM775 -31V-120H635V-31H436L427 64L568 326H775V75H827V-31H775ZM636 246L546 73Q568 74
636 74V246Z" />
<glyph unicode="&#xbd;" glyph-name="onehalf" horiz-adv-x="869" d="M114 346V673L31 646L10 749L133 792H256V346H114ZM114 -142L22 -78L672 814L763 749L114 -142ZM512 -120V-10L599 73Q619 92 633 107T655 134T666 157T670 178Q670 198 657 211T616 224Q596
224 574 218T534 202L516 307Q545 319 583 327T656 336Q737 336 779 302T822 201Q822 153 800 116T732 37L684 -7Q714 -5 757 -4T836 -3V-120H512Z" />
<glyph unicode="&#xbe;" glyph-name="threequarters" horiz-adv-x="885" d="M150 -142L58 -78L708 814L799 749L150 -142ZM38 443Q56 438 79 435T121 432Q162 432 181 445T200 480Q200 508 166 520T55 525V615Q121 615 155 629T189 670Q189 708 133 708Q114 708
90 704T43 691L30 781Q45 786 62 790T96 796T130 800T164 802Q245 802 288 773T331 687Q331 652 314 629T266 591Q306 577 325 550T345 488Q345 418 288 378T129 337Q104 337 74 339T24 347L38 443ZM811 -31V-120H671V-31H472L463 64L604 326H811V75H863V-31H811ZM672
246L582 73Q604 74 672 74V246Z" />
<glyph unicode="&#xbf;" glyph-name="questiondown" horiz-adv-x="455" d="M351 423Q351 404 344 388T325 361T297 343T261 336Q242 336 226 342T197 360T178 388T171 423Q171 441 178 456T197 483T225 502T261 509Q280 509 296 502T325 484T344 457T351 423ZM380
-224Q289 -223 225 -205T119 -157T58 -91T38 -13Q38 30 52 59T86 110T129 151T169 190T192 235T189 296H338Q354 251 351 218T332 159T296 115T254 78T220 43T205 3Q205 -18 218 -34T256 -61T316 -79T398 -86L380 -224Z" />
<glyph unicode="&#xc0;" glyph-name="Agrave" horiz-adv-x="633" d="M336 436Q328 460 322 485T310 540H308Q304 515 298 489T283 436L227 256H392L336 436ZM466 0L425 133H193L152 0H-3L212 675H418L636 0H466ZM385 710L152 761L184 867L408 792L385 710Z" />
<glyph unicode="&#xc1;" glyph-name="Aacute" horiz-adv-x="633" d="M336 436Q328 460 322 485T310 540H308Q304 515 298 489T283 436L227 256H392L336 436ZM466 0L425 133H193L152 0H-3L212 675H418L636 0H466ZM237 710L214 792L438 867L470 761L237 710Z" />
<glyph unicode="&#xc2;" glyph-name="Acircumflex" horiz-adv-x="633" d="M336 436Q328 460 322 485T310 540H308Q304 515 298 489T283 436L227 256H392L336 436ZM466 0L425 133H193L152 0H-3L212 675H418L636 0H466ZM450 710L313 762L175 710L143 785L316 870L484
787L450 710Z" />
<glyph unicode="&#xc3;" glyph-name="Atilde" horiz-adv-x="633" d="M336 436Q328 460 322 485T310 540H308Q304 515 298 489T283 436L227 256H392L336 436ZM466 0L425 133H193L152 0H-3L212 675H418L636 0H466ZM508 811Q483 768 450 746T374 723Q348 723 331
730T300 745T275 760T249 767Q231 767 218 757T194 726L120 776Q169 864 254 864Q280 864 297 857T328 842T353 827T379 820Q396 820 409 830T434 861L508 811V811Z" />
<glyph unicode="&#xc4;" glyph-name="Adieresis" horiz-adv-x="633" d="M336 436Q328 460 322 485T310 540H308Q304 515 298 489T283 436L227 256H392L336 436ZM466 0L425 133H193L152 0H-3L212 675H418L636 0H466ZM499 791Q499 759 476 736T420 712Q388 712 365
735T341 791Q341 824 364 847T420 870Q453 870 476 847T499 791ZM283 791Q283 759 260 736T204 712Q171 712 148 735T125 791Q125 824 148 847T204 870Q236 870 259 847T283 791Z" />
<glyph unicode="&#xc5;" glyph-name="Aring" horiz-adv-x="633" d="M336 436Q328 460 322 485T310 540H308Q304 515 298 489T283 436L227 256H392L336 436ZM466 0L425 133H193L152 0H-3L212 675H418L636 0H466ZM460 832Q460 803 449 780T417 741T370 715T310 706Q244
706 208 734T172 822Q172 851 183 874T215 914T262 939T321 948Q387 948 423 920T460 832ZM361 827Q361 854 350 865T317 877Q297 877 284 864T271 828Q271 801 282 789T315 777Q335 777 348 790T361 827Z" />
<glyph unicode="&#xc6;" glyph-name="AE" horiz-adv-x="809" d="M373 545H364Q347 502 333 469T303 401L236 261H373V545ZM373 0V140H185L123 0H-35L283 675H757V544H525V410H737V283H525V134H758V0H373Z" />
<glyph unicode="&#xc7;" glyph-name="Ccedilla" horiz-adv-x="555" d="M517 23Q480 8 436 0T348 -9Q259 -9 197 18T99 92T48 196T32 317Q32 400 55 468T122 584T230 658T374 684Q409 684 446 678T514 662L491 517Q430 542 369 542Q289 542 246 486T203 336Q203
237 245 186T374 135Q402 135 435 142T495 161L517 23ZM366 -39Q405 -95 397 -144T346 -234H235Q270 -193 273 -157T242 -75L366 -39V-39Z" />
<glyph unicode="&#xc8;" glyph-name="Egrave" horiz-adv-x="508" d="M60 0V675H457V544H216V410H436V283H216V134H457V0H60ZM327 710L94 761L126 867L350 792L327 710Z" />
<glyph unicode="&#xc9;" glyph-name="Eacute" horiz-adv-x="508" d="M60 0V675H457V544H216V410H436V283H216V134H457V0H60ZM180 710L157 792L381 867L413 761L180 710Z" />
<glyph unicode="&#xca;" glyph-name="Ecircumflex" horiz-adv-x="508" d="M60 0V675H457V544H216V410H436V283H216V134H457V0H60ZM394 710L257 762L119 710L87 785L260 870L428 787L394 710Z" />
<glyph unicode="&#xcb;" glyph-name="Edieresis" horiz-adv-x="508" d="M60 0V675H457V544H216V410H436V283H216V134H457V0H60ZM442 791Q442 759 419 736T363 712Q331 712 308 735T284 791Q284 824 307 847T363 870Q396 870 419 847T442 791ZM226 791Q226 759
203 736T147 712Q114 712 91 735T68 791Q68 824 91 847T147 870Q179 870 202 847T226 791Z" />
<glyph unicode="&#xcc;" glyph-name="Igrave" horiz-adv-x="276" d="M60 0V675H216V0H60ZM466 710L233 761L265 867L489 792L466 710Z" />
<glyph unicode="&#xcd;" glyph-name="Iacute" horiz-adv-x="276" d="M60 0V675H216V0H60ZM322 710L299 792L523 867L555 761L322 710Z" />
<glyph unicode="&#xce;" glyph-name="Icircumflex" horiz-adv-x="276" d="M60 0V675H216V0H60ZM530 710L393 762L255 710L223 785L396 870L564 787L530 710Z" />
<glyph unicode="&#xcf;" glyph-name="Idieresis" horiz-adv-x="276" d="M60 0V675H216V0H60ZM575 791Q575 759 552 736T496 712Q464 712 441 735T417 791Q417 824 440 847T496 870Q529 870 552 847T575 791ZM371 791Q371 759 348 736T292 712Q259 712 236 735T213
791Q213 824 236 847T292 870Q324 870 347 847T371 791Z" />
<glyph unicode="&#xd0;" glyph-name="Eth" horiz-adv-x="669" d="M470 339Q470 389 461 427T432 492T376 533T288 548Q263 548 249 548T223 546V405H331V288H223V133Q235 131 250 130T282 129Q323 129 357 142T417 181T456 246T470 339ZM638 351Q638 268 613 202T540
90T423 20T269 -5Q223 -5 176 -4T70 1V288H5V405H70V673Q113 676 174 677T299 679Q377 679 439 661T545 604T614 502T638 351Z" />
<glyph unicode="&#xd1;" glyph-name="Ntilde" horiz-adv-x="688" d="M464 0L276 307Q252 345 234 380T202 449H199Q203 402 206 330T210 181V0H60V675H239L413 390Q438 352 455 317T486 250H489Q484 300 481 369T478 515V675H628V0H464ZM541 811Q516 768 483 746T407
723Q381 723 364 730T333 745T308 760T282 767Q264 767 251 757T227 726L153 776Q202 864 287 864Q313 864 330 857T361 842T386 827T412 820Q429 820 442 830T467 861L541 811V811Z" />
<glyph unicode="&#xd2;" glyph-name="Ograve" horiz-adv-x="715" d="M518 336Q518 437 478 491T358 546Q322 546 293 533T242 493T210 428T198 339Q198 238 238 184T358 129Q394 129 423 142T474 182T506 247T518 336ZM684 352Q684 266 658 198T585 82T477 11T347
-13Q269 -13 210 9T111 74T51 179T31 323Q31 409 57 477T131 593T239 664T369 688Q446 688 505 666T604 601T664 496T684 352ZM431 710L198 761L230 867L454 792L431 710Z" />
<glyph unicode="&#xd3;" glyph-name="Oacute" horiz-adv-x="715" d="M518 336Q518 437 478 491T358 546Q322 546 293 533T242 493T210 428T198 339Q198 238 238 184T358 129Q394 129 423 142T474 182T506 247T518 336ZM684 352Q684 266 658 198T585 82T477 11T347
-13Q269 -13 210 9T111 74T51 179T31 323Q31 409 57 477T131 593T239 664T369 688Q446 688 505 666T604 601T664 496T684 352ZM292 710L269 792L493 867L525 761L292 710Z" />
<glyph unicode="&#xd4;" glyph-name="Ocircumflex" horiz-adv-x="715" d="M518 336Q518 437 478 491T358 546Q322 546 293 533T242 493T210 428T198 339Q198 238 238 184T358 129Q394 129 423 142T474 182T506 247T518 336ZM684 352Q684 266 658 198T585 82T477
11T347 -13Q269 -13 210 9T111 74T51 179T31 323Q31 409 57 477T131 593T239 664T369 688Q446 688 505 666T604 601T664 496T684 352ZM503 710L366 762L228 710L196 785L369 870L537 787L503 710Z" />
<glyph unicode="&#xd5;" glyph-name="Otilde" horiz-adv-x="715" d="M518 336Q518 437 478 491T358 546Q322 546 293 533T242 493T210 428T198 339Q198 238 238 184T358 129Q394 129 423 142T474 182T506 247T518 336ZM684 352Q684 266 658 198T585 82T477 11T347
-13Q269 -13 210 9T111 74T51 179T31 323Q31 409 57 477T131 593T239 664T369 688Q446 688 505 666T604 601T664 496T684 352ZM553 811Q528 768 495 746T419 723Q393 723 376 730T345 745T320 760T294 767Q276 767 263 757T239 726L165 776Q214 864 299 864Q325
864 342 857T373 842T398 827T424 820Q441 820 454 830T479 861L553 811V811Z" />
<glyph unicode="&#xd6;" glyph-name="Odieresis" horiz-adv-x="715" d="M518 336Q518 437 478 491T358 546Q322 546 293 533T242 493T210 428T198 339Q198 238 238 184T358 129Q394 129 423 142T474 182T506 247T518 336ZM684 352Q684 266 658 198T585 82T477
11T347 -13Q269 -13 210 9T111 74T51 179T31 323Q31 409 57 477T131 593T239 664T369 688Q446 688 505 666T604 601T664 496T684 352ZM547 791Q547 759 524 736T468 712Q436 712 413 735T389 791Q389 824 412 847T468 870Q501 870 524 847T547 791ZM331 791Q331
759 308 736T252 712Q219 712 196 735T173 791Q173 824 196 847T252 870Q284 870 307 847T331 791Z" />
<glyph unicode="&#xd7;" glyph-name="multiply" horiz-adv-x="550" d="M415 63L269 209L125 63L41 147L186 292L41 437L135 531L280 386L425 531L509 447L363 303L509 157L415 63Z" />
<glyph unicode="&#xd8;" glyph-name="Oslash" horiz-adv-x="715" d="M684 352Q684 266 658 198T585 82T477 11T347 -13Q321 -13 296 -10T248 0L196 -100L90 -50L140 47Q87 88 59 156T31 323Q31 409 57 477T131 593T239 664T369 688Q394 688 420 685T467 675L519
775L626 725L575 628Q628 587 656 519T684 352ZM525 336Q525 383 516 420T499 484L315 131Q323 128 335 126T358 124Q396 124 426 137T479 178T513 245T525 336ZM401 545Q393 548 381 550T358 552Q320 552 289 538T236 497T202 430T190 339Q190 291 200 253T217
191L401 545Z" />
<glyph unicode="&#xd9;" glyph-name="Ugrave" horiz-adv-x="673" d="M613 265Q613 125 539 56T327 -13Q249 -13 197 6T115 60T73 138T60 238V675H216V247Q216 216 221 193T241 153T278 127T337 118Q403 118 431 149T459 256V675H613V265ZM383 710L150 761L182
867L406 792L383 710Z" />
<glyph unicode="&#xda;" glyph-name="Uacute" horiz-adv-x="673" d="M613 265Q613 125 539 56T327 -13Q249 -13 197 6T115 60T73 138T60 238V675H216V247Q216 216 221 193T241 153T278 127T337 118Q403 118 431 149T459 256V675H613V265ZM310 710L287 792L511
867L543 761L310 710Z" />
<glyph unicode="&#xdb;" glyph-name="Ucircumflex" horiz-adv-x="673" d="M613 265Q613 125 539 56T327 -13Q249 -13 197 6T115 60T73 138T60 238V675H216V247Q216 216 221 193T241 153T278 127T337 118Q403 118 431 149T459 256V675H613V265ZM476 710L339 762L201
710L169 785L342 870L510 787L476 710Z" />
<glyph unicode="&#xdc;" glyph-name="Udieresis" horiz-adv-x="673" d="M613 265Q613 125 539 56T327 -13Q249 -13 197 6T115 60T73 138T60 238V675H216V247Q216 216 221 193T241 153T278 127T337 118Q403 118 431 149T459 256V675H613V265ZM523 791Q523 759 500
736T444 712Q412 712 389 735T365 791Q365 824 388 847T444 870Q477 870 500 847T523 791ZM307 791Q307 759 284 736T228 712Q195 712 172 735T149 791Q149 824 172 847T228 870Q260 870 283 847T307 791Z" />
<glyph unicode="&#xdd;" glyph-name="Yacute" horiz-adv-x="578" d="M365 242V0H210V241L-4 675H165L245 505Q270 452 289 400H291Q300 425 311 451T341 517L417 675H582L365 242ZM253 710L230 792L454 867L486 761L253 710Z" />
<glyph unicode="&#xde;" glyph-name="Thorn" horiz-adv-x="551" d="M378 353Q378 402 349 431T259 461Q248 461 238 461T216 459V248Q230 246 240 245T265 244Q316 244 347 272T378 353ZM538 368Q538 278 492 219T387 138T257 116Q246 116 236 116T216 118V0H60V675H216V588Q234
589 238 589T265 589Q351 589 408 565T492 509T528 441T538 368Z" />
<glyph unicode="&#xdf;" glyph-name="germandbls" horiz-adv-x="617" d="M592 162Q592 123 577 91T533 35T465 -1T380 -13Q347 -13 318 -9T269 4L276 127Q297 116 321 110T368 104Q402 104 417 116T433 148Q433 165 422 177T392 202T349 229T309 261T280 305T268
367Q268 406 281 432T319 485T356 529T367 572Q367 595 351 607T304 620Q260 620 236 589T211 497V0H59V490Q59 555 78 603T132 680T212 724T309 738Q357 738 397 728T466 697T511 648T527 581Q527 539 513 513T471 461T433 423T423 387Q423 370 434 357T465 331T508
303T550 269T580 224T592 162Z" />
<glyph unicode="&#xe0;" glyph-name="agrave" horiz-adv-x="526" d="M312 214Q273 214 247 210T206 197T185 178T178 152Q178 132 191 119T227 105Q245 105 261 113T288 134T306 164T312 199V214ZM326 0Q326 50 330 75H329Q311 36 270 13T177 -11Q142 -11 115
0T70 31T42 78T32 136Q32 182 52 215T110 270T198 301T312 311V327Q312 362 294 377T234 393Q201 393 160 384T83 361L60 475Q104 490 155 499T251 509Q312 509 353 498T419 464T454 410T465 334V118Q465 88 466 58T469 0H326ZM290 551L113 680L193 770L355 624L290
551Z" />
<glyph unicode="&#xe1;" glyph-name="aacute" horiz-adv-x="526" d="M312 214Q273 214 247 210T206 197T185 178T178 152Q178 132 191 119T227 105Q245 105 261 113T288 134T306 164T312 199V214ZM326 0Q326 50 330 75H329Q311 36 270 13T177 -11Q142 -11 115
0T70 31T42 78T32 136Q32 182 52 215T110 270T198 301T312 311V327Q312 362 294 377T234 393Q201 393 160 384T83 361L60 475Q104 490 155 499T251 509Q312 509 353 498T419 464T454 410T465 334V118Q465 88 466 58T469 0H326ZM245 551L180 623L342 770L422 682L245
551Z" />
<glyph unicode="&#xe2;" glyph-name="acircumflex" horiz-adv-x="526" d="M312 214Q273 214 247 210T206 197T185 178T178 152Q178 132 191 119T227 105Q245 105 261 113T288 134T306 164T312 199V214ZM326 0Q326 50 330 75H329Q311 36 270 13T177 -11Q142 -11
115 0T70 31T42 78T32 136Q32 182 52 215T110 270T198 301T312 311V327Q312 362 294 377T234 393Q201 393 160 384T83 361L60 475Q104 490 155 499T251 509Q312 509 353 498T419 464T454 410T465 334V118Q465 88 466 58T469 0H326ZM375 553L270 632L162 553L107
621L271 760L432 623L375 553Z" />
<glyph unicode="&#xe3;" glyph-name="atilde" horiz-adv-x="526" d="M312 214Q273 214 247 210T206 197T185 178T178 152Q178 132 191 119T227 105Q245 105 261 113T288 134T306 164T312 199V214ZM326 0Q326 50 330 75H329Q311 36 270 13T177 -11Q142 -11 115
0T70 31T42 78T32 136Q32 182 52 215T110 270T198 301T312 311V327Q312 362 294 377T234 393Q201 393 160 384T83 361L60 475Q104 490 155 499T251 509Q312 509 353 498T419 464T454 410T465 334V118Q465 88 466 58T469 0H326ZM455 663Q409 567 326 567Q303 567
287 573T251 593T224 611T206 615Q190 615 178 604T153 571L82 625Q105 673 137 697T211 722Q234 722 250 716T286 696T312 679T332 674Q348 674 360 684T384 718L455 663Z" />
<glyph unicode="&#xe4;" glyph-name="adieresis" horiz-adv-x="526" d="M312 214Q273 214 247 210T206 197T185 178T178 152Q178 132 191 119T227 105Q245 105 261 113T288 134T306 164T312 199V214ZM326 0Q326 50 330 75H329Q311 36 270 13T177 -11Q142 -11 115
0T70 31T42 78T32 136Q32 182 52 215T110 270T198 301T312 311V327Q312 362 294 377T234 393Q201 393 160 384T83 361L60 475Q104 490 155 499T251 509Q312 509 353 498T419 464T454 410T465 334V118Q465 88 466 58T469 0H326ZM243 645Q243 612 220 589T164 566Q132
566 109 589T85 645Q85 677 108 700T164 724Q197 724 220 701T243 645ZM452 645Q452 612 429 589T373 566Q341 566 318 589T294 645Q294 677 317 700T373 724Q406 724 429 701T452 645Z" />
<glyph unicode="&#xe5;" glyph-name="aring" horiz-adv-x="526" d="M312 214Q273 214 247 210T206 197T185 178T178 152Q178 132 191 119T227 105Q245 105 261 113T288 134T306 164T312 199V214ZM326 0Q326 50 330 75H329Q311 36 270 13T177 -11Q142 -11 115 0T70
31T42 78T32 136Q32 182 52 215T110 270T198 301T312 311V327Q312 362 294 377T234 393Q201 393 160 384T83 361L60 475Q104 490 155 499T251 509Q312 509 353 498T419 464T454 410T465 334V118Q465 88 466 58T469 0H326ZM412 678Q412 648 401 623T370 581T323
555T265 545Q199 545 165 575T130 667Q130 697 141 722T171 764T218 791T276 801Q342 801 377 771T412 678ZM316 672Q316 701 305 713T272 726Q252 726 239 713T226 673Q226 644 237 632T270 619Q290 619 303 632T316 672Z" />
<glyph unicode="&#xe6;" glyph-name="ae" horiz-adv-x="796" d="M312 214Q273 214 247 210T206 197T185 178T178 152Q178 132 191 119T227 105Q245 105 261 113T288 134T306 164T312 199V214ZM613 308Q614 352 596 374T543 397Q509 397 487 373T461 308H613ZM762
293Q762 267 761 244T757 207H461Q463 158 491 132T579 106Q616 106 654 112T730 132L745 20Q703 5 655 -3T561 -11Q484 -11 435 12T362 77H361Q332 35 288 12T190 -11Q150 -11 121 0T72 31T42 78T32 136Q32 182 52 215T110 270T198 301T312 311V327Q312 362 294
377T234 393Q201 393 160 384T83 361L60 475Q104 490 155 499T251 509Q302 509 341 498T407 457H408Q431 481 468 494T550 508Q604 508 644 492T711 447T749 379T762 293Z" />
<glyph unicode="&#xe7;" glyph-name="ccedilla" horiz-adv-x="418" d="M391 11Q333 -11 258 -11Q145 -11 88 51T30 233Q30 291 45 340T93 428T175 487T290 508Q341 508 391 492L368 360Q326 377 289 377Q239 377 214 342T189 245Q189 187 214 155T289 122Q338
122 373 139L391 11ZM281 -39Q320 -95 312 -144T261 -234H150Q185 -193 188 -157T157 -75L281 -39V-39Z" />
<glyph unicode="&#xe8;" glyph-name="egrave" horiz-adv-x="519" d="M336 308Q337 352 318 374T265 397Q232 397 210 373T184 308H336ZM485 292Q485 250 480 207H184Q186 158 214 132T301 106Q375 106 453 132L468 20Q382 -11 284 -11Q159 -11 95 51T30 243Q30
299 46 347T94 432T171 488T273 508Q327 508 367 492T434 447T472 378T485 292ZM291 551L114 680L194 770L356 624L291 551Z" />
<glyph unicode="&#xe9;" glyph-name="eacute" horiz-adv-x="519" d="M336 308Q337 352 318 374T265 397Q232 397 210 373T184 308H336ZM485 292Q485 250 480 207H184Q186 158 214 132T301 106Q375 106 453 132L468 20Q382 -11 284 -11Q159 -11 95 51T30 243Q30
299 46 347T94 432T171 488T273 508Q327 508 367 492T434 447T472 378T485 292ZM247 551L182 623L344 770L424 682L247 551Z" />
<glyph unicode="&#xea;" glyph-name="ecircumflex" horiz-adv-x="519" d="M336 308Q337 352 318 374T265 397Q232 397 210 373T184 308H336ZM485 292Q485 250 480 207H184Q186 158 214 132T301 106Q375 106 453 132L468 20Q382 -11 284 -11Q159 -11 95 51T30 243Q30
299 46 347T94 432T171 488T273 508Q327 508 367 492T434 447T472 378T485 292ZM375 553L270 632L162 553L107 621L271 760L432 623L375 553Z" />
<glyph unicode="&#xeb;" glyph-name="edieresis" horiz-adv-x="519" d="M336 308Q337 352 318 374T265 397Q232 397 210 373T184 308H336ZM485 292Q485 250 480 207H184Q186 158 214 132T301 106Q375 106 453 132L468 20Q382 -11 284 -11Q159 -11 95 51T30 243Q30
299 46 347T94 432T171 488T273 508Q327 508 367 492T434 447T472 378T485 292ZM244 645Q244 612 221 589T165 566Q133 566 110 589T86 645Q86 677 109 700T165 724Q198 724 221 701T244 645ZM453 645Q453 612 430 589T374 566Q342 566 319 589T295 645Q295 677
318 700T374 724Q407 724 430 701T453 645Z" />
<glyph unicode="&#xec;" glyph-name="igrave" horiz-adv-x="271" d="M59 0V497H211V0H59ZM379 548L261 720L369 778L468 596L379 548Z" />
<glyph unicode="&#xed;" glyph-name="iacute" horiz-adv-x="271" d="M59 0V497H211V0H59ZM136 550L54 608L173 777L273 708L136 550Z" />
<glyph unicode="&#xee;" glyph-name="icircumflex" horiz-adv-x="271" d="M59 0V497H211V0H59ZM482 553L391 632L298 553L246 621L392 760L536 623L482 553Z" />
<glyph unicode="&#xef;" glyph-name="idieresis" horiz-adv-x="271" d="M59 0V497H211V0H59ZM566 645Q566 612 543 589T487 566Q455 566 432 589T408 645Q408 677 431 700T487 724Q520 724 543 701T566 645ZM374 645Q374 612 351 589T295 566Q262 566 239 588T216
645Q216 677 239 700T295 724Q328 724 351 701T374 645Z" />
<glyph unicode="&#xf0;" glyph-name="eth" horiz-adv-x="560" d="M369 260Q369 314 347 346T278 378Q241 378 214 347T187 250Q187 185 212 153T281 121Q322 121 345 154T369 260ZM527 282Q527 208 507 153T452 62T371 7T272 -11Q219 -11 174 4T97 49T47 126T29
237Q29 299 48 349T100 433T177 486T273 505Q291 505 308 500T335 484Q330 494 325 502T314 518Q298 545 268 576L182 538L122 607L198 640Q181 654 164 666T126 692L274 754Q291 741 307 728T338 699L420 734L480 666L400 632Q463 555 495 467T527 282Z" />
<glyph unicode="&#xf1;" glyph-name="ntilde" horiz-adv-x="568" d="M356 0V316Q356 348 346 364T310 380Q290 380 272 369T241 338T219 293T211 241V0H59V497H201Q201 478 200 457T195 419L196 418Q221 459 262 483T361 508Q401 508 429 496T475 463T500 413T508
350V0H356ZM472 663Q426 567 343 567Q320 567 304 573T268 593T241 611T223 615Q207 615 195 604T170 571L99 625Q122 673 154 697T228 722Q251 722 267 716T303 696T329 679T349 674Q365 674 377 684T401 718L472 663Z" />
<glyph unicode="&#xf2;" glyph-name="ograve" horiz-adv-x="558" d="M371 248Q371 311 348 344T280 378Q259 378 242 370T212 346T194 305T187 249Q187 186 210 153T278 120Q321 120 346 152T371 248ZM529 262Q529 203 512 153T461 67T379 10T269 -11Q214 -11
170 3T94 48T46 125T29 235Q29 294 46 344T97 430T179 487T289 508Q402 508 465 447T529 262ZM303 551L126 680L206 770L368 624L303 551Z" />
<glyph unicode="&#xf3;" glyph-name="oacute" horiz-adv-x="558" d="M371 248Q371 311 348 344T280 378Q259 378 242 370T212 346T194 305T187 249Q187 186 210 153T278 120Q321 120 346 152T371 248ZM529 262Q529 203 512 153T461 67T379 10T269 -11Q214 -11
170 3T94 48T46 125T29 235Q29 294 46 344T97 430T179 487T289 508Q402 508 465 447T529 262ZM257 551L192 623L354 770L434 682L257 551Z" />
<glyph unicode="&#xf4;" glyph-name="ocircumflex" horiz-adv-x="558" d="M371 248Q371 311 348 344T280 378Q259 378 242 370T212 346T194 305T187 249Q187 186 210 153T278 120Q321 120 346 152T371 248ZM529 262Q529 203 512 153T461 67T379 10T269 -11Q214
-11 170 3T94 48T46 125T29 235Q29 294 46 344T97 430T179 487T289 508Q402 508 465 447T529 262ZM393 553L288 632L180 553L125 621L289 760L450 623L393 553Z" />
<glyph unicode="&#xf5;" glyph-name="otilde" horiz-adv-x="558" d="M371 248Q371 311 348 344T280 378Q259 378 242 370T212 346T194 305T187 249Q187 186 210 153T278 120Q321 120 346 152T371 248ZM529 262Q529 203 512 153T461 67T379 10T269 -11Q214 -11
170 3T94 48T46 125T29 235Q29 294 46 344T97 430T179 487T289 508Q402 508 465 447T529 262ZM475 663Q429 567 346 567Q323 567 307 573T271 593T244 611T226 615Q210 615 198 604T173 571L102 625Q125 673 157 697T231 722Q254 722 270 716T306 696T332 679T352
674Q368 674 380 684T404 718L475 663Z" />
<glyph unicode="&#xf6;" glyph-name="odieresis" horiz-adv-x="558" d="M371 248Q371 311 348 344T280 378Q259 378 242 370T212 346T194 305T187 249Q187 186 210 153T278 120Q321 120 346 152T371 248ZM529 262Q529 203 512 153T461 67T379 10T269 -11Q214 -11
170 3T94 48T46 125T29 235Q29 294 46 344T97 430T179 487T289 508Q402 508 465 447T529 262ZM261 645Q261 612 238 589T182 566Q150 566 127 589T103 645Q103 677 126 700T182 724Q215 724 238 701T261 645ZM470 645Q470 612 447 589T391 566Q359 566 336 589T312
645Q312 677 335 700T391 724Q424 724 447 701T470 645Z" />
<glyph unicode="&#xf7;" glyph-name="divide" horiz-adv-x="550" d="M364 498Q364 480 358 464T339 435T310 415T275 408Q256 408 240 415T211 434T192 463T185 498Q185 516 192 532T211 561T239 581T275 588Q293 588 309 581T338 562T357 533T364 498ZM37 234V362H513V234H37ZM364
97Q364 79 358 63T339 34T310 14T275 7Q256 7 240 14T211 33T192 62T185 97Q185 116 192 132T211 160T239 180T275 187Q293 187 309 180T338 161T357 132T364 97Z" />
<glyph unicode="&#xf8;" glyph-name="oslash" horiz-adv-x="558" d="M444 466Q529 403 529 262Q529 203 512 154T461 67T380 10T269 -11Q227 -11 196 -2L146 -96L65 -62L114 31Q29 94 29 235Q29 293 46 343T97 430T178 487T289 508Q330 508 362 499L412 593L493
559L444 466ZM256 110Q260 109 265 109T276 109Q328 109 356 144T385 249Q385 281 381 302T376 337L256 110ZM302 387Q298 388 293 388T282 388Q230 388 202 353T173 248Q173 216 177 195T182 160L302 387Z" />
<glyph unicode="&#xf9;" glyph-name="ugrave" horiz-adv-x="566" d="M366 0Q366 49 372 78L370 79Q346 38 305 14T206 -11Q166 -11 137 1T91 35T66 85T58 147V497H211V181Q211 149 221 133T257 117Q277 117 295 128T326 159T347 204T355 256V497H508V0H366ZM298
551L121 680L201 770L363 624L298 551Z" />
<glyph unicode="&#xfa;" glyph-name="uacute" horiz-adv-x="566" d="M366 0Q366 49 372 78L370 79Q346 38 305 14T206 -11Q166 -11 137 1T91 35T66 85T58 147V497H211V181Q211 149 221 133T257 117Q277 117 295 128T326 159T347 204T355 256V497H508V0H366ZM271
551L206 623L368 770L448 682L271 551Z" />
<glyph unicode="&#xfb;" glyph-name="ucircumflex" horiz-adv-x="566" d="M366 0Q366 49 372 78L370 79Q346 38 305 14T206 -11Q166 -11 137 1T91 35T66 85T58 147V497H211V181Q211 149 221 133T257 117Q277 117 295 128T326 159T347 204T355 256V497H508V0H366ZM389
553L284 632L176 553L121 621L285 760L446 623L389 553Z" />
<glyph unicode="&#xfc;" glyph-name="udieresis" horiz-adv-x="566" d="M366 0Q366 49 372 78L370 79Q346 38 305 14T206 -11Q166 -11 137 1T91 35T66 85T58 147V497H211V181Q211 149 221 133T257 117Q277 117 295 128T326 159T347 204T355 256V497H508V0H366ZM258
645Q258 612 235 589T179 566Q147 566 124 589T100 645Q100 677 123 700T179 724Q212 724 235 701T258 645ZM467 645Q467 612 444 589T388 566Q356 566 333 589T309 645Q309 677 332 700T388 724Q421 724 444 701T467 645Z" />
<glyph unicode="&#xfd;" glyph-name="yacute" horiz-adv-x="566" d="M91 -90Q125 -102 164 -109T243 -117Q303 -117 331 -91T359 -13V4Q359 19 361 40T369 81H367Q345 42 305 18T206 -7Q165 -7 136 5T90 39T66 88T58 149V497H211V183Q211 153 220 137T257 120Q277
120 295 131T326 162T347 206T355 258V497H508V3Q508 -63 489 -109T433 -186T346 -231T231 -245Q193 -245 154 -241T79 -228L91 -90ZM279 551L214 623L376 770L456 682L279 551Z" />
<glyph unicode="&#xfe;" glyph-name="thorn" horiz-adv-x="559" d="M367 260Q367 382 299 382Q279 382 263 372T236 342T218 297T211 239V117Q235 111 264 111Q286 111 305 118T337 143T359 189T367 260ZM528 276Q528 212 512 160T462 71T379 13T262 -8Q248 -8
236 -7T211 -4V-237H59V730H211V536Q211 515 211 489T207 440L209 439Q227 469 260 488T347 508Q436 508 482 447T528 276Z" />
<glyph unicode="&#xff;" glyph-name="ydieresis" horiz-adv-x="566" d="M91 -90Q125 -102 164 -109T243 -117Q303 -117 331 -91T359 -13V4Q359 19 361 40T369 81H367Q345 42 305 18T206 -7Q165 -7 136 5T90 39T66 88T58 149V497H211V183Q211 153 220 137T257 120Q277
120 295 131T326 162T347 206T355 258V497H508V3Q508 -63 489 -109T433 -186T346 -231T231 -245Q193 -245 154 -241T79 -228L91 -90ZM258 645Q258 612 235 589T179 566Q147 566 124 589T100 645Q100 677 123 700T179 724Q212 724 235 701T258 645ZM467 645Q467
612 444 589T388 566Q356 566 333 589T309 645Q309 677 332 700T388 724Q421 724 444 701T467 645Z" />
<glyph unicode="&#x100;" glyph-name="Amacron" horiz-adv-x="633" d="M336 436Q328 460 322 485T310 540H308Q304 515 298 489T283 436L227 256H392L336 436ZM466 0L425 133H193L152 0H-3L212 675H418L636 0H466ZM158 737V830H462V737H158Z" />
<glyph unicode="&#x101;" glyph-name="amacron" horiz-adv-x="526" d="M312 214Q273 214 247 210T206 197T185 178T178 152Q178 132 191 119T227 105Q245 105 261 113T288 134T306 164T312 199V214ZM326 0Q326 50 330 75H329Q311 36 270 13T177 -11Q142 -11 115
0T70 31T42 78T32 136Q32 182 52 215T110 270T198 301T312 311V327Q312 362 294 377T234 393Q201 393 160 384T83 361L60 475Q104 490 155 499T251 509Q312 509 353 498T419 464T454 410T465 334V118Q465 88 466 58T469 0H326ZM129 588V698H410V588H129Z" />
<glyph unicode="&#x102;" glyph-name="Abreve" horiz-adv-x="633" d="M336 436Q328 460 322 485T310 540H308Q304 515 298 489T283 436L227 256H392L336 436ZM466 0L425 133H193L152 0H-3L212 675H418L636 0H466ZM462 863Q462 833 453 807T424 761T376 730T311
718Q275 718 247 729T200 761T172 807T162 863H250Q250 840 267 825T312 809Q340 809 357 824T374 863H462Z" />
<glyph unicode="&#x103;" glyph-name="abreve" horiz-adv-x="526" d="M312 214Q273 214 247 210T206 197T185 178T178 152Q178 132 191 119T227 105Q245 105 261 113T288 134T306 164T312 199V214ZM326 0Q326 50 330 75H329Q311 36 270 13T177 -11Q142 -11 115
0T70 31T42 78T32 136Q32 182 52 215T110 270T198 301T312 311V327Q312 362 294 377T234 393Q201 393 160 384T83 361L60 475Q104 490 155 499T251 509Q312 509 353 498T419 464T454 410T465 334V118Q465 88 466 58T469 0H326ZM415 722Q415 688 407 659T380 606T335
570T270 557Q232 557 205 570T160 607T135 659T127 722H223Q223 695 235 680T271 664Q293 664 305 678T318 722H415Z" />
<glyph unicode="&#x104;" glyph-name="Aogonek" horiz-adv-x="633" d="M675 -185Q644 -212 608 -225T532 -239Q470 -239 434 -211T397 -130Q397 -94 414 -62T466 0L425 133H193L152 0H-3L212 675H418L636 0Q583 -19 561 -44T538 -97Q538 -111 546 -119T570 -127Q600
-127 635 -104L675 -185ZM336 436Q328 460 322 485T310 540H308Q304 515 298 489T283 436L227 256H392L336 436Z" />
<glyph unicode="&#x105;" glyph-name="aogonek" horiz-adv-x="526" d="M529 -185Q498 -212 462 -225T386 -239Q325 -239 288 -211T251 -130Q251 -90 271 -56T332 11Q330 25 329 40T328 71H327Q307 33 267 11T177 -11Q142 -11 115 0T70 31T42 78T32 136Q32 182
52 215T110 270T198 301T312 311V327Q312 362 294 377T234 393Q201 393 160 384T83 361L60 475Q104 490 155 499T251 509Q312 509 353 498T419 464T454 410T465 334V156Q465 66 475 0Q430 -25 411 -49T392 -97Q392 -127 424 -127Q439 -127 455 -121T489 -104L529
-185ZM312 214Q273 214 247 210T206 197T185 178T178 152Q178 132 191 119T227 105Q245 105 261 113T288 134T306 164T312 199V214Z" />
<glyph unicode="&#x106;" glyph-name="Cacute" horiz-adv-x="555" d="M517 23Q480 8 436 0T348 -9Q259 -9 197 18T99 92T48 196T32 317Q32 400 55 468T122 584T230 658T374 684Q409 684 446 678T514 662L491 517Q430 542 369 542Q289 542 246 486T203 336Q203
237 245 186T374 135Q402 135 435 142T495 161L517 23ZM268 710L245 792L469 867L501 761L268 710Z" />
<glyph unicode="&#x107;" glyph-name="cacute" horiz-adv-x="418" d="M391 11Q333 -11 258 -11Q145 -11 88 51T30 233Q30 291 45 340T93 428T175 487T290 508Q341 508 391 492L368 360Q326 377 289 377Q239 377 214 342T189 245Q189 187 214 155T289 122Q338 122
373 139L391 11ZM216 551L151 623L313 770L393 682L216 551Z" />
<glyph unicode="&#x108;" glyph-name="Ccircumflex" horiz-adv-x="555" d="M517 23Q480 8 436 0T348 -9Q259 -9 197 18T99 92T48 196T32 317Q32 400 55 468T122 584T230 658T374 684Q409 684 446 678T514 662L491 517Q430 542 369 542Q289 542 246 486T203 336Q203
237 245 186T374 135Q402 135 435 142T495 161L517 23ZM472 710L335 762L197 710L165 785L338 870L506 787L472 710Z" />
<glyph unicode="&#x109;" glyph-name="ccircumflex" horiz-adv-x="418" d="M391 11Q333 -11 258 -11Q145 -11 88 51T30 233Q30 291 45 340T93 428T175 487T290 508Q341 508 391 492L368 360Q326 377 289 377Q239 377 214 342T189 245Q189 187 214 155T289 122Q338
122 373 139L391 11ZM349 553L244 632L136 553L81 621L245 760L406 623L349 553Z" />
<glyph unicode="&#x10a;" glyph-name="Cdotaccent" horiz-adv-x="555" d="M517 23Q480 8 436 0T348 -9Q259 -9 197 18T99 92T48 196T32 317Q32 400 55 468T122 584T230 658T374 684Q409 684 446 678T514 662L491 517Q430 542 369 542Q289 542 246 486T203 336Q203
237 245 186T374 135Q402 135 435 142T495 161L517 23ZM431 799Q431 762 405 737T342 711Q305 711 280 736T254 799Q254 836 279 862T342 888Q379 888 405 862T431 799Z" />
<glyph unicode="&#x10b;" glyph-name="cdotaccent" horiz-adv-x="418" d="M391 11Q333 -11 258 -11Q145 -11 88 51T30 233Q30 291 45 340T93 428T175 487T290 508Q341 508 391 492L368 360Q326 377 289 377Q239 377 214 342T189 245Q189 187 214 155T289 122Q338
122 373 139L391 11ZM345 643Q345 625 338 609T319 581T291 562T256 555Q238 555 222 561T194 580T175 609T168 643Q168 661 175 677T194 706T222 725T256 732Q274 732 290 725T319 706T338 678T345 643Z" />
<glyph unicode="&#x10c;" glyph-name="Ccaron" horiz-adv-x="555" d="M517 23Q480 8 436 0T348 -9Q259 -9 197 18T99 92T48 196T32 317Q32 400 55 468T122 584T230 658T374 684Q409 684 446 678T514 662L491 517Q430 542 369 542Q289 542 246 486T203 336Q203
237 245 186T374 135Q402 135 435 142T495 161L517 23ZM333 710L165 793L199 870L335 818L474 870L506 795L333 710Z" />
<glyph unicode="&#x10d;" glyph-name="ccaron" horiz-adv-x="418" d="M391 11Q333 -11 258 -11Q145 -11 88 51T30 233Q30 291 45 340T93 428T175 487T290 508Q341 508 391 492L368 360Q326 377 289 377Q239 377 214 342T189 245Q189 187 214 155T289 122Q338 122
373 139L391 11ZM248 553L87 690L144 760L250 681L357 760L412 692L248 553Z" />
<glyph unicode="&#x10e;" glyph-name="Dcaron" horiz-adv-x="660" d="M461 339Q461 389 452 427T423 492T367 533T280 548Q233 548 216 546V133Q227 131 242 130T274 129Q315 129 349 142T408 181T447 246T461 339ZM628 351Q628 266 602 199T527 87T411 18T260
-5Q212 -5 166 -4T60 1V673Q105 676 166 677T290 679Q368 679 430 661T536 604T604 502T628 351ZM287 710L119 793L153 870L289 818L428 870L460 795L287 710Z" />
<glyph unicode="&#x10f;" glyph-name="dcaron" horiz-adv-x="626" d="M347 380Q322 386 295 386Q272 386 253 378T220 353T199 306T191 237Q191 175 208 145T260 115Q279 115 295 125T322 155T340 201T347 258V380ZM360 0Q360 22 360 38T364 71H362Q341 33 303
11T212 -12Q124 -12 78 50T31 221Q31 282 49 334T101 425T186 485T298 507Q323 507 347 504V730H500V0H360ZM623 545L526 565L573 786L693 762L623 545Z" />
<glyph unicode="&#x110;" glyph-name="Dcroat" horiz-adv-x="669" d="M470 339Q470 389 461 427T432 492T376 533T288 548Q263 548 249 548T223 546V405H331V288H223V133Q235 131 250 130T282 129Q323 129 357 142T417 181T456 246T470 339ZM638 351Q638 268 613
202T540 90T423 20T269 -5Q223 -5 176 -4T70 1V288H5V405H70V673Q113 676 174 677T299 679Q377 679 439 661T545 604T614 502T638 351Z" />
<glyph unicode="&#x111;" glyph-name="dcroat" horiz-adv-x="559" d="M500 577V0H359Q359 16 360 34T364 71H362Q342 35 305 12T211 -12Q122 -12 77 51T31 221Q31 282 49 334T101 425T184 485T297 507Q323 507 347 504V577H250V670H347V730H500V670H554V577H500ZM347
380Q321 386 295 386Q273 386 254 379T221 354T199 308T191 237Q191 115 260 115Q279 115 295 125T322 155T340 200T347 258V380Z" />
<glyph unicode="&#x112;" glyph-name="Emacron" horiz-adv-x="508" d="M60 0V675H457V544H216V410H436V283H216V134H457V0H60ZM102 737V830H406V737H102Z" />
<glyph unicode="&#x113;" glyph-name="emacron" horiz-adv-x="519" d="M336 308Q337 352 318 374T265 397Q232 397 210 373T184 308H336ZM485 292Q485 250 480 207H184Q186 158 214 132T301 106Q375 106 453 132L468 20Q382 -11 284 -11Q159 -11 95 51T30 243Q30
299 46 347T94 432T171 488T273 508Q327 508 367 492T434 447T472 378T485 292ZM126 588V698H407V588H126Z" />
<glyph unicode="&#x114;" glyph-name="Ebreve" horiz-adv-x="508" d="M60 0V675H457V544H216V410H436V283H216V134H457V0H60ZM409 863Q409 833 400 807T371 761T323 730T258 718Q222 718 194 729T147 761T119 807T109 863H197Q197 840 214 825T259 809Q287 809
304 824T321 863H409Z" />
<glyph unicode="&#x115;" glyph-name="ebreve" horiz-adv-x="519" d="M336 308Q337 352 318 374T265 397Q232 397 210 373T184 308H336ZM485 292Q485 250 480 207H184Q186 158 214 132T301 106Q375 106 453 132L468 20Q382 -11 284 -11Q159 -11 95 51T30 243Q30
299 46 347T94 432T171 488T273 508Q327 508 367 492T434 447T472 378T485 292ZM407 722Q407 688 399 659T372 606T327 570T262 557Q224 557 197 570T152 607T127 659T119 722H215Q215 695 227 680T263 664Q285 664 297 678T310 722H407Z" />
<glyph unicode="&#x116;" glyph-name="Edotaccent" horiz-adv-x="508" d="M60 0V675H457V544H216V410H436V283H216V134H457V0H60ZM345 799Q345 762 319 737T256 711Q219 711 194 736T168 799Q168 836 193 862T256 888Q293 888 319 862T345 799Z" />
<glyph unicode="&#x117;" glyph-name="edotaccent" horiz-adv-x="519" d="M336 308Q337 352 318 374T265 397Q232 397 210 373T184 308H336ZM485 292Q485 250 480 207H184Q186 158 214 132T301 106Q375 106 453 132L468 20Q382 -11 284 -11Q159 -11 95 51T30 243Q30
299 46 347T94 432T171 488T273 508Q327 508 367 492T434 447T472 378T485 292ZM358 651Q358 633 351 617T332 589T304 570T269 563Q251 563 235 569T207 588T188 617T181 651Q181 669 188 685T207 714T235 733T269 740Q287 740 303 733T332 714T351 686T358 651Z"
/>
<glyph unicode="&#x118;" glyph-name="Eogonek" horiz-adv-x="508" d="M488 -185Q457 -212 421 -225T344 -239Q283 -239 247 -211T210 -130Q210 -94 229 -59T284 0H60V675H457V544H216V410H436V283H216V134H457V2Q405 -10 378 -39T351 -97Q351 -111 359 -119T383
-127Q413 -127 448 -104L488 -185Z" />
<glyph unicode="&#x119;" glyph-name="eogonek" horiz-adv-x="519" d="M493 -185Q463 -212 427 -225T351 -239Q289 -239 252 -211T215 -130Q215 -97 231 -64T279 -5Q269 -8 255 -8Q214 -8 175 3T103 43T50 121T30 243Q30 299 46 347T94 432T171 488T273 508Q327
508 367 492T434 447T472 378T485 292Q485 266 483 242T480 207H184Q186 158 214 132T301 106Q338 106 376 112T453 132L468 21Q441 9 420 -5T385 -35T363 -66T356 -97Q356 -111 364 -119T388 -127Q419 -127 453 -104L493 -185ZM336 308Q337 352 318 374T265 397Q232
397 210 373T184 308H336Z" />
<glyph unicode="&#x11a;" glyph-name="Ecaron" horiz-adv-x="508" d="M60 0V675H457V544H216V410H436V283H216V134H457V0H60ZM254 710L86 793L120 870L256 818L395 870L427 795L254 710Z" />
<glyph unicode="&#x11b;" glyph-name="ecaron" horiz-adv-x="519" d="M336 308Q337 352 318 374T265 397Q232 397 210 373T184 308H336ZM485 292Q485 250 480 207H184Q186 158 214 132T301 106Q375 106 453 132L468 20Q382 -11 284 -11Q159 -11 95 51T30 243Q30
299 46 347T94 432T171 488T273 508Q327 508 367 492T434 447T472 378T485 292ZM267 553L106 690L163 760L269 681L376 760L431 692L267 553Z" />
<glyph unicode="&#x11c;" glyph-name="Gcircumflex" horiz-adv-x="670" d="M612 33Q561 12 500 1T375 -11Q291 -11 227 11T119 76T54 179T32 314Q32 398 57 466T131 584T251 659T414 685Q466 685 517 678T609 657L578 515Q540 530 497 538T407 546Q303 546 252
488T200 333Q200 237 249 184T392 130Q429 130 456 139V360H612V33ZM518 710L381 762L243 710L211 785L384 870L552 787L518 710Z" />
<glyph unicode="&#x11d;" glyph-name="gcircumflex" horiz-adv-x="559" d="M347 380Q336 382 324 384T295 386Q273 386 254 379T221 354T199 308T191 237Q191 174 207 146T259 117Q298 117 322 156T347 261V380ZM500 -2Q500 -50 487 -94T443 -171T355 -225T216
-245Q174 -245 137 -241T59 -227L72 -88Q106 -102 145 -109T223 -117Q286 -116 318 -92T350 -13V7Q350 21 350 35T354 69H352Q333 32 297 11T216 -10Q125 -10 79 49T31 221Q31 282 48 334T100 425T187 486T307 508Q365 508 411 504T500 492V-2V-2ZM403 553L298
632L190 553L135 621L299 760L460 623L403 553Z" />
<glyph unicode="&#x11e;" glyph-name="Gbreve" horiz-adv-x="670" d="M612 33Q561 12 500 1T375 -11Q291 -11 227 11T119 76T54 179T32 314Q32 398 57 466T131 584T251 659T414 685Q466 685 517 678T609 657L578 515Q540 530 497 538T407 546Q303 546 252 488T200
333Q200 237 249 184T392 130Q429 130 456 139V360H612V33ZM543 863Q543 833 534 807T505 761T457 730T392 718Q356 718 328 729T281 761T253 807T243 863H331Q331 840 348 825T393 809Q421 809 438 824T455 863H543Z" />
<glyph unicode="&#x11f;" glyph-name="gbreve" horiz-adv-x="559" d="M347 380Q336 382 324 384T295 386Q273 386 254 379T221 354T199 308T191 237Q191 174 207 146T259 117Q298 117 322 156T347 261V380ZM500 -2Q500 -50 487 -94T443 -171T355 -225T216 -245Q174
-245 137 -241T59 -227L72 -88Q106 -102 145 -109T223 -117Q286 -116 318 -92T350 -13V7Q350 21 350 35T354 69H352Q333 32 297 11T216 -10Q125 -10 79 49T31 221Q31 282 48 334T100 425T187 486T307 508Q365 508 411 504T500 492V-2V-2ZM442 722Q442 688 434 659T407
606T362 570T297 557Q259 557 232 570T187 607T162 659T154 722H250Q250 695 262 680T298 664Q320 664 332 678T345 722H442Z" />
<glyph unicode="&#x120;" glyph-name="Gdotaccent" horiz-adv-x="670" d="M612 33Q561 12 500 1T375 -11Q291 -11 227 11T119 76T54 179T32 314Q32 398 57 466T131 584T251 659T414 685Q466 685 517 678T609 657L578 515Q540 530 497 538T407 546Q303 546 252
488T200 333Q200 237 249 184T392 130Q429 130 456 139V360H612V33ZM474 807Q474 770 448 745T385 719Q348 719 323 744T297 807Q297 844 322 870T385 896Q422 896 448 870T474 807Z" />
<glyph unicode="&#x121;" glyph-name="gdotaccent" horiz-adv-x="559" d="M347 380Q336 382 324 384T295 386Q273 386 254 379T221 354T199 308T191 237Q191 174 207 146T259 117Q298 117 322 156T347 261V380ZM500 -2Q500 -50 487 -94T443 -171T355 -225T216
-245Q174 -245 137 -241T59 -227L72 -88Q106 -102 145 -109T223 -117Q286 -116 318 -92T350 -13V7Q350 21 350 35T354 69H352Q333 32 297 11T216 -10Q125 -10 79 49T31 221Q31 282 48 334T100 425T187 486T307 508Q365 508 411 504T500 492V-2V-2ZM387 651Q387
633 380 617T361 589T333 570T298 563Q280 563 264 569T236 588T217 617T210 651Q210 669 217 685T236 714T264 733T298 740Q316 740 332 733T361 714T380 686T387 651Z" />
<glyph unicode="&#x122;" glyph-name="Gcommaaccent" horiz-adv-x="670" d="M612 33Q561 12 500 1T375 -11Q291 -11 227 11T119 76T54 179T32 314Q32 398 57 466T131 584T251 659T414 685Q466 685 517 678T609 657L578 515Q540 530 497 538T407 546Q303 546 252
488T200 333Q200 237 249 184T392 130Q429 130 456 139V360H612V33ZM391 -46Q422 -46 440 -66T458 -117Q458 -138 449 -158T421 -195T370 -225T298 -243L278 -189Q308 -178 319 -168T331 -143Q331 -136 328 -126T325 -108Q325 -82 342 -64T391 -46Z" />
<glyph unicode="&#x123;" glyph-name="gcommaaccent" horiz-adv-x="559" d="M347 380Q336 382 324 384T295 386Q273 386 254 379T221 354T199 308T191 237Q191 174 207 146T259 117Q298 117 322 156T347 261V380ZM500 -2Q500 -50 487 -94T443 -171T355 -225T216
-245Q174 -245 137 -241T59 -227L72 -88Q106 -102 145 -109T223 -117Q286 -116 318 -92T350 -13V7Q350 21 350 35T354 69H352Q333 32 297 11T216 -10Q125 -10 79 49T31 221Q31 282 48 334T100 425T187 486T307 508Q365 508 411 504T500 492V-2V-2ZM285 558Q255
558 237 579T218 631Q218 650 226 669T254 707T304 738T378 756L398 701Q369 691 357 680T345 657Q345 649 348 639T351 621Q351 593 333 576T285 558Z" />
<glyph unicode="&#x124;" glyph-name="Hcircumflex" horiz-adv-x="679" d="M463 0V281H216V0H60V675H216V416H463V675H619V0H463ZM477 710L340 762L202 710L170 785L343 870L511 787L477 710Z" />
<glyph unicode="&#x125;" glyph-name="hcircumflex" horiz-adv-x="568" d="M356 0V316Q356 348 346 364T310 380Q290 380 272 369T241 338T219 293T211 240V0H59V730H211V531Q211 506 209 478T203 429H204Q227 466 267 487T361 508Q401 508 429 496T475 463T500
413T508 350V0H356ZM414 748L277 800L139 748L107 823L280 908L448 825L414 748Z" />
<glyph unicode="&#x126;" glyph-name="Hbar" horiz-adv-x="699" d="M226 474V387H473V474H226ZM687 601V474H629V0H473V260H226V0H70V474H12V601H70V675H226V601H473V675H629V601H687Z" />
<glyph unicode="&#x127;" glyph-name="hbar" horiz-adv-x="576" d="M364 0V312Q364 344 354 360T318 376Q298 376 280 365T248 334T227 289T219 236V0H67V550H0V667H67V730H219V667H328V550H219V514Q219 489 217 466T210 425H212Q235 462 275 483T368 504Q409
504 437 492T483 459T508 409T516 347V0H364Z" />
<glyph unicode="&#x128;" glyph-name="Itilde" horiz-adv-x="276" d="M60 0V675H216V0H60ZM588 811Q563 768 530 746T454 723Q428 723 411 730T380 745T355 760T329 767Q311 767 298 757T274 726L200 776Q249 864 334 864Q360 864 377 857T408 842T433 827T459
820Q476 820 489 830T514 861L588 811V811Z" />
<glyph unicode="&#x129;" glyph-name="itilde" horiz-adv-x="271" d="M59 0V497H211V0H59ZM560 664Q543 619 514 593T439 567Q420 567 405 574T379 590T358 606T339 614Q324 614 312 600T294 572L225 623Q236 663 268 692T345 722Q364 722 380 715T407 699T427
683T445 675Q461 675 472 688T491 716L560 664Z" />
<glyph unicode="&#x12a;" glyph-name="Imacron" horiz-adv-x="276" d="M60 0V675H216V0H60ZM242 737V830H546V737H242Z" />
<glyph unicode="&#x12b;" glyph-name="imacron" horiz-adv-x="271" d="M59 0V497H211V0H59ZM257 588V698H526V588H257Z" />
<glyph unicode="&#x12c;" glyph-name="Ibreve" horiz-adv-x="276" d="M60 0V675H216V0H60ZM543 863Q543 833 534 807T505 761T457 730T392 718Q356 718 328 729T281 761T253 807T243 863H331Q331 840 348 825T393 809Q421 809 438 824T455 863H543Z" />
<glyph unicode="&#x12d;" glyph-name="ibreve" horiz-adv-x="271" d="M59 0V497H211V0H59ZM529 722Q529 643 494 600T391 557Q323 557 290 600T256 722H352Q352 698 362 681T392 664Q411 664 421 679T432 722H529Z" />
<glyph unicode="&#x12e;" glyph-name="Iogonek" horiz-adv-x="276" d="M276 -185Q246 -212 210 -225T134 -239Q72 -239 35 -211T-2 -130Q-2 -94 14 -63T60 1V675H216V0Q174 -26 157 -50T139 -97Q139 -111 147 -119T171 -127Q187 -127 203 -121T236 -104L276 -185Z" />
<glyph unicode="&#x12f;" glyph-name="iogonek" horiz-adv-x="271" d="M229 645Q229 627 222 611T202 582T172 562T135 555Q116 555 99 562T69 581T49 610T42 645Q42 663 49 679T69 708T99 728T135 735Q154 735 171 728T202 709T222 680T229 645ZM274 -185Q243
-212 207 -225T131 -239Q70 -239 33 -211T-4 -130Q-4 -94 12 -62T59 1V497H211V0Q171 -26 154 -50T137 -97Q137 -111 145 -119T169 -127Q184 -127 200 -121T234 -104L274 -185Z" />
<glyph unicode="&#x130;" glyph-name="Idotaccent" horiz-adv-x="276" d="M60 0V675H216V0H60ZM483 799Q483 762 457 737T394 711Q357 711 332 736T306 799Q306 836 331 862T394 888Q431 888 457 862T483 799Z" />
<glyph unicode="&#x131;" glyph-name="dotlessi" horiz-adv-x="271" d="M59 0V497H211V0H59Z" />
<glyph unicode="&#x132;" glyph-name="IJ" horiz-adv-x="616" d="M60 0V675H216V0H60ZM557 201Q557 157 547 119T513 52T451 7T358 -10Q330 -10 309 -8T267 -2V130Q278 126 295 124T331 121Q366 121 384 140T402 202V675H557V201Z" />
<glyph unicode="&#x133;" glyph-name="ij" horiz-adv-x="544" d="M59 0V497H211V0H59ZM229 645Q229 627 222 611T202 582T172 562T135 555Q116 555 99 562T69 581T49 610T42 645Q42 663 49 679T69 708T99 728T135 735Q154 735 171 728T202 709T222 680T229 645ZM485
-25Q485 -77 474 -117T438 -185T375 -229T283 -244Q259 -244 238 -241T206 -236L215 -107Q222 -109 240 -112T279 -116Q307 -116 320 -99T333 -42V497H485V-25ZM502 645Q502 627 495 611T475 582T445 562T409 555Q390 555 373 562T342 581T322 610T315 645Q315
663 322 679T343 708T373 728T409 735Q428 735 445 728T475 709T495 680T502 645Z" />
<glyph unicode="&#x134;" glyph-name="Jcircumflex" horiz-adv-x="349" d="M290 201Q290 157 280 119T246 52T184 7T91 -10Q63 -10 42 -8T0 -2V130Q11 126 28 124T64 121Q99 121 117 140T135 202V675H290V201ZM605 710L468 762L330 710L298 785L471 870L639 787L605 710Z" />
<glyph unicode="&#x135;" glyph-name="jcircumflex" horiz-adv-x="274" d="M214 -25Q214 -77 203 -117T167 -185T104 -229T12 -244Q-12 -244 -33 -241T-65 -236L-56 -107Q-49 -109 -31 -112T8 -116Q36 -116 49 -99T62 -42V497H214V-25ZM486 553L395 632L302 553L250
621L396 760L540 623L486 553Z" />
<glyph unicode="&#x136;" glyph-name="Kcommaaccent" horiz-adv-x="605" d="M399 0L216 317V0H60V675H216V377L401 675H588L366 351L601 0H399ZM303 -46Q334 -46 352 -66T370 -117Q370 -138 361 -158T333 -195T282 -225T210 -243L190 -189Q220 -178 231 -168T243
-143Q243 -136 240 -126T237 -108Q237 -82 254 -64T303 -46Z" />
<glyph unicode="&#x137;" glyph-name="kcommaaccent" horiz-adv-x="542" d="M346 0L211 239V0H59V730H211V297L337 497H517L358 277L536 0H346ZM277 -46Q308 -46 326 -66T344 -117Q344 -138 335 -158T307 -195T256 -225T184 -243L164 -189Q194 -178 205 -168T217
-143Q217 -136 214 -126T211 -108Q211 -82 228 -64T277 -46Z" />
<glyph unicode="&#x138;" glyph-name="kgreenlandic" horiz-adv-x="542" d="M344 0L211 230V0H59V497H211V289L344 497H523L358 272L531 0H344Z" />
<glyph unicode="&#x139;" glyph-name="Lacute" horiz-adv-x="430" d="M60 0V675H216V136H420V0H60ZM107 710L84 792L308 867L340 761L107 710Z" />
<glyph unicode="&#x13a;" glyph-name="lacute" horiz-adv-x="271" d="M59 0V730H211V0H59ZM81 770L58 852L282 927L314 821L81 770Z" />
<glyph unicode="&#x13b;" glyph-name="Lcommaaccent" horiz-adv-x="430" d="M60 0V675H216V136H420V0H60ZM249 -46Q280 -46 298 -66T316 -117Q316 -138 307 -158T279 -195T228 -225T156 -243L136 -189Q166 -178 177 -168T189 -143Q189 -136 186 -126T183 -108Q183
-82 200 -64T249 -46Z" />
<glyph unicode="&#x13c;" glyph-name="lcommaaccent" horiz-adv-x="271" d="M59 0V730H211V0H59ZM140 -46Q171 -46 189 -66T207 -117Q207 -138 198 -158T170 -195T119 -225T47 -243L27 -189Q57 -178 68 -168T80 -143Q80 -136 77 -126T74 -108Q74 -82 91 -64T140 -46Z" />
<glyph unicode="&#x13d;" glyph-name="Lcaron" horiz-adv-x="438" d="M60 0V675H216V136H420V0H60ZM349 545L252 565L299 786L419 762L349 545Z" />
<glyph unicode="&#x13e;" glyph-name="lcaron" horiz-adv-x="338" d="M59 0V730H211V0H59ZM335 545L238 565L285 786L405 762L335 545Z" />
<glyph unicode="&#x13f;" glyph-name="Ldot" horiz-adv-x="579" d="M60 0V675H216V136H420V0H60ZM539 348Q539 328 532 311T511 280T481 260T444 253Q424 253 407 260T377 280T357 310T349 348Q349 367 356 384T376 415T406 435T444 443Q463 443 480 436T511 415T531
385T539 348Z" />
<glyph unicode="&#x140;" glyph-name="ldot" horiz-adv-x="460" d="M59 0V730H211V0H59ZM460 298Q460 278 453 261T432 230T402 210T365 203Q345 203 328 210T298 230T278 260T270 298Q270 317 277 334T297 365T327 385T365 393Q384 393 401 386T432 365T452 335T460
298Z" />
<glyph unicode="&#x141;" glyph-name="Lslash" horiz-adv-x="440" d="M70 0V293L12 266L-15 386L70 426V675H225V498L314 539L341 418L225 365V136H429V0H70Z" />
<glyph unicode="&#x142;" glyph-name="lslash" horiz-adv-x="305" d="M229 381V0H77V301L33 278L6 392L77 430V730H229V509L275 534L303 420L229 381Z" />
<glyph unicode="&#x143;" glyph-name="Nacute" horiz-adv-x="688" d="M464 0L276 307Q252 345 234 380T202 449H199Q203 402 206 330T210 181V0H60V675H239L413 390Q438 352 455 317T486 250H489Q484 300 481 369T478 515V675H628V0H464ZM309 710L286 792L510
867L542 761L309 710Z" />
<glyph unicode="&#x144;" glyph-name="nacute" horiz-adv-x="568" d="M356 0V316Q356 348 346 364T310 380Q290 380 272 369T241 338T219 293T211 241V0H59V497H201Q201 478 200 457T195 419L196 418Q221 459 262 483T361 508Q401 508 429 496T475 463T500 413T508
350V0H356ZM287 551L222 623L384 770L464 682L287 551Z" />
<glyph unicode="&#x145;" glyph-name="Ncommaaccent" horiz-adv-x="688" d="M464 0L276 307Q252 345 234 380T202 449H199Q203 402 206 330T210 181V0H60V675H239L413 390Q438 352 455 317T486 250H489Q484 300 481 369T478 515V675H628V0H464ZM348 -46Q379 -46
397 -66T415 -117Q415 -138 406 -158T378 -195T327 -225T255 -243L235 -189Q265 -178 276 -168T288 -143Q288 -136 285 -126T282 -108Q282 -82 299 -64T348 -46Z" />
<glyph unicode="&#x146;" glyph-name="ncommaaccent" horiz-adv-x="568" d="M356 0V316Q356 348 346 364T310 380Q290 380 272 369T241 338T219 293T211 241V0H59V497H201Q201 478 200 457T195 419L196 418Q221 459 262 483T361 508Q401 508 429 496T475 463T500
413T508 350V0H356ZM288 -46Q319 -46 337 -66T355 -117Q355 -138 346 -158T318 -195T267 -225T195 -243L175 -189Q205 -178 216 -168T228 -143Q228 -136 225 -126T222 -108Q222 -82 239 -64T288 -46Z" />
<glyph unicode="&#x147;" glyph-name="Ncaron" horiz-adv-x="688" d="M464 0L276 307Q252 345 234 380T202 449H199Q203 402 206 330T210 181V0H60V675H239L413 390Q438 352 455 317T486 250H489Q484 300 481 369T478 515V675H628V0H464ZM343 710L175 793L209
870L345 818L484 870L516 795L343 710Z" />
<glyph unicode="&#x148;" glyph-name="ncaron" horiz-adv-x="568" d="M356 0V316Q356 348 346 364T310 380Q290 380 272 369T241 338T219 293T211 241V0H59V497H201Q201 478 200 457T195 419L196 418Q221 459 262 483T361 508Q401 508 429 496T475 463T500 413T508
350V0H356ZM277 553L116 690L173 760L279 681L386 760L441 692L277 553Z" />
<glyph unicode="&#x149;" glyph-name="napostrophe" horiz-adv-x="694" d="M482 0V316Q482 348 472 364T436 380Q416 380 398 369T367 338T345 293T337 241V0H185V497H327Q327 478 326 457T321 419L322 418Q347 459 388 483T487 508Q527 508 555 496T601 463T626
413T634 350V0H482ZM14 491Q37 515 49 534T66 571T65 602T49 629Q35 645 33 665T38 705T63 737T108 750Q142 750 165 724T188 654T160 556T66 444L14 491Z" />
<glyph unicode="&#x14a;" glyph-name="Eng" horiz-adv-x="688" d="M628 -5Q628 -61 615 -103T576 -174T509 -222T413 -248L379 -125Q427 -119 451 -96T476 -28L261 326Q226 385 202 444Q203 425 204 394T207 326T209 251T210 179V0H60V675H233L428 359Q445 331
461 302T487 247Q485 269 484 301T481 369T479 441T478 507V675H628V-5Z" />
<glyph unicode="&#x14b;" glyph-name="eng" horiz-adv-x="568" d="M513 175Q513 94 509 39T497 -53T475 -114T440 -160Q416 -183 383 -199T304 -227L267 -107Q307 -96 325 -78Q336 -67 342 -55T353 -19T359 42T361 145V165Q361 236 358 278T347 343T330 372T303
380Q286 380 270 370T240 340T219 297T211 247V0H59V497H201Q201 477 200 455T195 420H196Q220 461 261 484T350 508Q396 508 427 493T477 442T504 348T513 200V175Z" />
<glyph unicode="&#x14c;" glyph-name="Omacron" horiz-adv-x="715" d="M518 336Q518 437 478 491T358 546Q322 546 293 533T242 493T210 428T198 339Q198 238 238 184T358 129Q394 129 423 142T474 182T506 247T518 336ZM684 352Q684 266 658 198T585 82T477 11T347
-13Q269 -13 210 9T111 74T51 179T31 323Q31 409 57 477T131 593T239 664T369 688Q446 688 505 666T604 601T664 496T684 352ZM208 737V830H512V737H208Z" />
<glyph unicode="&#x14d;" glyph-name="omacron" horiz-adv-x="558" d="M371 248Q371 311 348 344T280 378Q259 378 242 370T212 346T194 305T187 249Q187 186 210 153T278 120Q321 120 346 152T371 248ZM529 262Q529 203 512 153T461 67T379 10T269 -11Q214 -11
170 3T94 48T46 125T29 235Q29 294 46 344T97 430T179 487T289 508Q402 508 465 447T529 262ZM147 588V698H428V588H147Z" />
<glyph unicode="&#x14e;" glyph-name="Obreve" horiz-adv-x="715" d="M518 336Q518 437 478 491T358 546Q322 546 293 533T242 493T210 428T198 339Q198 238 238 184T358 129Q394 129 423 142T474 182T506 247T518 336ZM684 352Q684 266 658 198T585 82T477 11T347
-13Q269 -13 210 9T111 74T51 179T31 323Q31 409 57 477T131 593T239 664T369 688Q446 688 505 666T604 601T664 496T684 352ZM509 863Q509 833 500 807T471 761T423 730T358 718Q322 718 294 729T247 761T219 807T209 863H297Q297 840 314 825T359 809Q387 809
404 824T421 863H509Z" />
<glyph unicode="&#x14f;" glyph-name="obreve" horiz-adv-x="558" d="M371 248Q371 311 348 344T280 378Q259 378 242 370T212 346T194 305T187 249Q187 186 210 153T278 120Q321 120 346 152T371 248ZM529 262Q529 203 512 153T461 67T379 10T269 -11Q214 -11
170 3T94 48T46 125T29 235Q29 294 46 344T97 430T179 487T289 508Q402 508 465 447T529 262ZM424 722Q424 688 416 659T389 606T344 570T279 557Q241 557 214 570T169 607T144 659T136 722H232Q232 695 244 680T280 664Q302 664 314 678T327 722H424Z" />
<glyph unicode="&#x150;" glyph-name="Ohungarumlaut" horiz-adv-x="715" d="M518 336Q518 437 478 491T358 546Q322 546 293 533T242 493T210 428T198 339Q198 238 238 184T358 129Q394 129 423 142T474 182T506 247T518 336ZM684 352Q684 266 658 198T585 82T477
11T347 -13Q269 -13 210 9T111 74T51 179T31 323Q31 409 57 477T131 593T239 664T369 688Q446 688 505 666T604 601T664 496T684 352ZM473 706L408 767L562 919L640 841L473 706ZM272 706L203 766L338 928L422 855L272 706Z" />
<glyph unicode="&#x151;" glyph-name="ohungarumlaut" horiz-adv-x="558" d="M371 248Q371 311 348 344T280 378Q259 378 242 370T212 346T194 305T187 249Q187 186 210 153T278 120Q321 120 346 152T371 248ZM529 262Q529 203 512 153T461 67T379 10T269 -11Q214
-11 170 3T94 48T46 125T29 235Q29 294 46 344T97 430T179 487T289 508Q402 508 465 447T529 262ZM199 553L130 612L266 777L351 705L199 553ZM400 553L335 613L487 767L566 690L400 553Z" />
<glyph unicode="&#x152;" glyph-name="OE" horiz-adv-x="870" d="M443 535Q405 546 358 546Q322 546 293 533T242 493T209 428T197 339Q197 239 238 184T358 129Q378 129 401 132T443 141V535ZM463 0Q437 -6 406 -9T347 -13Q269 -13 210 9T111 74T51 179T31 323Q31
409 57 477T131 593T239 664T369 688Q397 688 427 685T486 675H822V544H598V410H811V283H598V134H822V0H463Z" />
<glyph unicode="&#x153;" glyph-name="oe" horiz-adv-x="851" d="M371 248Q371 311 348 344T280 378Q259 378 242 370T212 346T194 305T187 249Q187 186 210 153T278 120Q321 120 346 152T371 248ZM668 308Q669 352 651 374T598 397Q564 397 543 374T517 308H668ZM818
292Q818 267 817 247T813 207H517Q518 158 546 132T634 106Q671 106 709 112T786 132L800 20Q758 5 711 -3T617 -11Q552 -11 508 6T436 56Q412 25 367 7T269 -11Q214 -11 170 3T94 48T46 125T29 235Q29 294 46 344T97 430T179 487T289 508Q342 508 383 493T453
447Q477 474 516 491T606 508Q660 508 700 492T767 447T805 378T818 292Z" />
<glyph unicode="&#x154;" glyph-name="Racute" horiz-adv-x="580" d="M367 464Q367 505 342 528T264 552Q241 552 216 550V375Q238 374 260 374Q310 374 338 397T367 464ZM389 0L242 259H216V0H60V675Q156 680 273 680Q335 680 382 669T463 633T513 569T531 477Q531
404 495 357T396 288Q424 249 445 214L578 0H389ZM218 710L195 792L419 867L451 761L218 710Z" />
<glyph unicode="&#x155;" glyph-name="racute" horiz-adv-x="356" d="M338 358Q275 372 243 335T211 205V0H59V497H201Q201 479 199 455T194 409H196Q217 457 254 484T345 509L338 358ZM189 551L124 623L286 770L366 682L189 551Z" />
<glyph unicode="&#x156;" glyph-name="Rcommaaccent" horiz-adv-x="580" d="M367 464Q367 505 342 528T264 552Q241 552 216 550V375Q238 374 260 374Q310 374 338 397T367 464ZM389 0L242 259H216V0H60V675Q156 680 273 680Q335 680 382 669T463 633T513 569T531
477Q531 404 495 357T396 288Q424 249 445 214L578 0H389ZM293 -46Q324 -46 342 -66T360 -117Q360 -138 351 -158T323 -195T272 -225T200 -243L180 -189Q210 -178 221 -168T233 -143Q233 -136 230 -126T227 -108Q227 -82 244 -64T293 -46Z" />
<glyph unicode="&#x157;" glyph-name="rcommaaccent" horiz-adv-x="356" d="M338 358Q275 372 243 335T211 205V0H59V497H201Q201 479 199 455T194 409H196Q217 457 254 484T345 509L338 358ZM150 -46Q181 -46 199 -66T217 -117Q217 -138 208 -158T180 -195T129
-225T57 -243L37 -189Q67 -178 78 -168T90 -143Q90 -136 87 -126T84 -108Q84 -82 101 -64T150 -46Z" />
<glyph unicode="&#x158;" glyph-name="Rcaron" horiz-adv-x="580" d="M367 464Q367 505 342 528T264 552Q241 552 216 550V375Q238 374 260 374Q310 374 338 397T367 464ZM389 0L242 259H216V0H60V675Q156 680 273 680Q335 680 382 669T463 633T513 569T531 477Q531
404 495 357T396 288Q424 249 445 214L578 0H389ZM269 710L101 793L135 870L271 818L410 870L442 795L269 710Z" />
<glyph unicode="&#x159;" glyph-name="rcaron" horiz-adv-x="356" d="M338 358Q275 372 243 335T211 205V0H59V497H201Q201 479 199 455T194 409H196Q217 457 254 484T345 509L338 358ZM456 553L295 690L352 760L458 681L565 760L620 692L456 553Z" />
<glyph unicode="&#x15a;" glyph-name="Sacute" horiz-adv-x="502" d="M475 205Q475 157 458 118T405 49T320 4T206 -12Q162 -12 122 -8T46 6L60 154Q95 140 135 132T214 124Q257 124 282 140T308 189Q308 215 290 232T239 263T168 295T101 334T52 392T33 480Q33
526 51 564T103 630T188 672T300 687Q328 687 361 684T423 674L409 538Q352 558 290 558Q243 558 220 542T197 495Q197 471 215 455T266 424T338 392T407 352T456 293T475 205ZM202 710L179 792L403 867L435 761L202 710Z" />
<glyph unicode="&#x15b;" glyph-name="sacute" horiz-adv-x="411" d="M379 157Q379 121 365 91T323 37T253 2T156 -11Q92 -11 44 1L51 126Q103 106 161 106Q190 106 205 115T220 143Q220 159 208 169T176 187T128 208T80 237T47 280T34 346Q34 380 47 409T87 461T156
496T252 509Q301 509 341 500L335 382Q294 395 248 395Q220 395 206 386T191 360Q191 345 203 335T234 317T283 295T332 265T366 222T379 157ZM179 551L114 623L276 770L356 682L179 551Z" />
<glyph unicode="&#x15c;" glyph-name="Scircumflex" horiz-adv-x="502" d="M475 205Q475 157 458 118T405 49T320 4T206 -12Q162 -12 122 -8T46 6L60 154Q95 140 135 132T214 124Q257 124 282 140T308 189Q308 215 290 232T239 263T168 295T101 334T52 392T33
480Q33 526 51 564T103 630T188 672T300 687Q328 687 361 684T423 674L409 538Q352 558 290 558Q243 558 220 542T197 495Q197 471 215 455T266 424T338 392T407 352T456 293T475 205ZM400 710L263 762L125 710L93 785L266 870L434 787L400 710Z" />
<glyph unicode="&#x15d;" glyph-name="scircumflex" horiz-adv-x="411" d="M379 157Q379 121 365 91T323 37T253 2T156 -11Q92 -11 44 1L51 126Q103 106 161 106Q190 106 205 115T220 143Q220 159 208 169T176 187T128 208T80 237T47 280T34 346Q34 380 47 409T87
461T156 496T252 509Q301 509 341 500L335 382Q294 395 248 395Q220 395 206 386T191 360Q191 345 203 335T234 317T283 295T332 265T366 222T379 157ZM562 553L457 632L349 553L294 621L458 760L619 623L562 553Z" />
<glyph unicode="&#x15e;" glyph-name="Scedilla" horiz-adv-x="502" d="M475 205Q475 157 458 118T405 49T320 4T206 -12Q162 -12 122 -8T46 6L60 154Q95 140 135 132T214 124Q257 124 282 140T308 189Q308 215 290 232T239 263T168 295T101 334T52 392T33 480Q33
526 51 564T103 630T188 672T300 687Q328 687 361 684T423 674L409 538Q352 558 290 558Q243 558 220 542T197 495Q197 471 215 455T266 424T338 392T407 352T456 293T475 205ZM296 -39Q335 -95 327 -144T276 -234H165Q200 -193 203 -157T172 -75L296 -39V-39Z"
/>
<glyph unicode="&#x15f;" glyph-name="scedilla" horiz-adv-x="411" d="M379 157Q379 121 365 91T323 37T253 2T156 -11Q92 -11 44 1L51 126Q103 106 161 106Q190 106 205 115T220 143Q220 159 208 169T176 187T128 208T80 237T47 280T34 346Q34 380 47 409T87
461T156 496T252 509Q301 509 341 500L335 382Q294 395 248 395Q220 395 206 386T191 360Q191 345 203 335T234 317T283 295T332 265T366 222T379 157ZM260 -39Q299 -95 291 -144T240 -234H129Q164 -193 167 -157T136 -75L260 -39V-39Z" />
<glyph unicode="&#x160;" glyph-name="Scaron" horiz-adv-x="502" d="M475 205Q475 157 458 118T405 49T320 4T206 -12Q162 -12 122 -8T46 6L60 154Q95 140 135 132T214 124Q257 124 282 140T308 189Q308 215 290 232T239 263T168 295T101 334T52 392T33 480Q33
526 51 564T103 630T188 672T300 687Q328 687 361 684T423 674L409 538Q352 558 290 558Q243 558 220 542T197 495Q197 471 215 455T266 424T338 392T407 352T456 293T475 205ZM253 710L85 793L119 870L255 818L394 870L426 795L253 710Z" />
<glyph unicode="&#x161;" glyph-name="scaron" horiz-adv-x="411" d="M379 157Q379 121 365 91T323 37T253 2T156 -11Q92 -11 44 1L51 126Q103 106 161 106Q190 106 205 115T220 143Q220 159 208 169T176 187T128 208T80 237T47 280T34 346Q34 380 47 409T87 461T156
496T252 509Q301 509 341 500L335 382Q294 395 248 395Q220 395 206 386T191 360Q191 345 203 335T234 317T283 295T332 265T366 222T379 157ZM463 553L302 690L359 760L465 681L572 760L627 692L463 553Z" />
<glyph unicode="&#x162;" glyph-name="uni0162" horiz-adv-x="507" d="M331 542V0H176V542H14V675H493V542H331ZM306 -39Q345 -95 337 -144T286 -234H175Q210 -193 213 -157T182 -75L306 -39V-39Z" />
<glyph unicode="&#x163;" glyph-name="uni0163" horiz-adv-x="377" d="M348 4Q293 -11 237 -11Q193 -11 164 -3T117 24T92 74T84 154V380H9V497H84V644L236 685V497H344V380H236V179Q236 143 247 130T285 116Q309 116 339 123L348 4ZM265 -39Q304 -95 296 -144T245
-234H134Q169 -193 172 -157T141 -75L265 -39V-39Z" />
<glyph unicode="&#x164;" glyph-name="Tcaron" horiz-adv-x="507" d="M331 542V0H176V542H14V675H493V542H331ZM251 710L83 793L117 870L253 818L392 870L424 795L251 710Z" />
<glyph unicode="&#x165;" glyph-name="tcaron" horiz-adv-x="382" d="M348 4Q293 -11 237 -11Q193 -11 164 -3T117 24T92 74T84 154V380H9V497H84V644L236 685V497H344V380H236V179Q236 143 247 130T285 116Q309 116 339 123L348 4ZM362 545L265 565L312 786L432
762L362 545Z" />
<glyph unicode="&#x166;" glyph-name="Tbar" horiz-adv-x="507" d="M176 542H14V675H493V542H331V395H428V268H331V0H176V268H79V395H176V542Z" />
<glyph unicode="&#x167;" glyph-name="tbar" horiz-adv-x="400" d="M356 4Q330 -3 300 -7T244 -11Q200 -11 171 -3T124 24T99 74T91 151V198H25V308H91V385H16V497H91V644L244 685V497H351V385H244V308H341V198H244V174Q244 140 254 127T292 114Q323 114 347 121L356 4Z" />
<glyph unicode="&#x168;" glyph-name="Utilde" horiz-adv-x="673" d="M613 265Q613 125 539 56T327 -13Q249 -13 197 6T115 60T73 138T60 238V675H216V247Q216 216 221 193T241 153T278 127T337 118Q403 118 431 149T459 256V675H613V265ZM531 811Q506 768 473
746T397 723Q371 723 354 730T323 745T298 760T272 767Q254 767 241 757T217 726L143 776Q192 864 277 864Q303 864 320 857T351 842T376 827T402 820Q419 820 432 830T457 861L531 811V811Z" />
<glyph unicode="&#x169;" glyph-name="utilde" horiz-adv-x="566" d="M366 0Q366 49 372 78L370 79Q346 38 305 14T206 -11Q166 -11 137 1T91 35T66 85T58 147V497H211V181Q211 149 221 133T257 117Q277 117 295 128T326 159T347 204T355 256V497H508V0H366ZM470
663Q424 567 341 567Q318 567 302 573T266 593T239 611T221 615Q205 615 193 604T168 571L97 625Q120 673 152 697T226 722Q249 722 265 716T301 696T327 679T347 674Q363 674 375 684T399 718L470 663Z" />
<glyph unicode="&#x16a;" glyph-name="Umacron" horiz-adv-x="673" d="M613 265Q613 125 539 56T327 -13Q249 -13 197 6T115 60T73 138T60 238V675H216V247Q216 216 221 193T241 153T278 127T337 118Q403 118 431 149T459 256V675H613V265ZM186 737V830H490V737H186Z" />
<glyph unicode="&#x16b;" glyph-name="umacron" horiz-adv-x="566" d="M366 0Q366 49 372 78L370 79Q346 38 305 14T206 -11Q166 -11 137 1T91 35T66 85T58 147V497H211V181Q211 149 221 133T257 117Q277 117 295 128T326 159T347 204T355 256V497H508V0H366ZM143
588V698H424V588H143Z" />
<glyph unicode="&#x16c;" glyph-name="Ubreve" horiz-adv-x="673" d="M613 265Q613 125 539 56T327 -13Q249 -13 197 6T115 60T73 138T60 238V675H216V247Q216 216 221 193T241 153T278 127T337 118Q403 118 431 149T459 256V675H613V265ZM487 863Q487 833 478
807T449 761T401 730T336 718Q300 718 272 729T225 761T197 807T187 863H275Q275 840 292 825T337 809Q365 809 382 824T399 863H487Z" />
<glyph unicode="&#x16d;" glyph-name="ubreve" horiz-adv-x="566" d="M366 0Q366 49 372 78L370 79Q346 38 305 14T206 -11Q166 -11 137 1T91 35T66 85T58 147V497H211V181Q211 149 221 133T257 117Q277 117 295 128T326 159T347 204T355 256V497H508V0H366ZM427
722Q427 688 419 659T392 606T347 570T282 557Q244 557 217 570T172 607T147 659T139 722H235Q235 695 247 680T283 664Q305 664 317 678T330 722H427Z" />
<glyph unicode="&#x16e;" glyph-name="Uring" horiz-adv-x="673" d="M613 265Q613 125 539 56T327 -13Q249 -13 197 6T115 60T73 138T60 238V675H216V247Q216 216 221 193T241 153T278 127T337 118Q403 118 431 149T459 256V675H613V265ZM482 820Q482 791 471
768T439 729T392 703T332 694Q266 694 230 722T194 810Q194 839 205 862T237 902T284 927T343 936Q409 936 445 908T482 820ZM383 815Q383 842 372 853T339 865Q319 865 306 852T293 816Q293 789 304 777T337 765Q357 765 370 778T383 815Z" />
<glyph unicode="&#x16f;" glyph-name="uring" horiz-adv-x="566" d="M366 0Q366 49 372 78L370 79Q346 38 305 14T206 -11Q166 -11 137 1T91 35T66 85T58 147V497H211V181Q211 149 221 133T257 117Q277 117 295 128T326 159T347 204T355 256V497H508V0H366ZM423
671Q423 641 412 616T381 574T334 548T276 538Q210 538 176 568T141 660Q141 690 152 715T182 757T229 784T287 794Q353 794 388 764T423 671ZM327 665Q327 694 316 706T283 719Q263 719 250 706T237 666Q237 637 248 625T281 612Q301 612 314 625T327 665Z" />
<glyph unicode="&#x170;" glyph-name="Uhungarumlaut" horiz-adv-x="673" d="M613 265Q613 125 539 56T327 -13Q249 -13 197 6T115 60T73 138T60 238V675H216V247Q216 216 221 193T241 153T278 127T337 118Q403 118 431 149T459 256V675H613V265ZM440 706L375
767L529 919L607 841L440 706ZM239 706L170 766L305 928L389 855L239 706Z" />
<glyph unicode="&#x171;" glyph-name="uhungarumlaut" horiz-adv-x="566" d="M366 0Q366 49 372 78L370 79Q346 38 305 14T206 -11Q166 -11 137 1T91 35T66 85T58 147V497H211V181Q211 149 221 133T257 117Q277 117 295 128T326 159T347 204T355 256V497H508V0H366ZM194
553L125 612L261 777L346 705L194 553ZM395 553L330 613L482 767L561 690L395 553Z" />
<glyph unicode="&#x172;" glyph-name="Uogonek" horiz-adv-x="673" d="M613 265Q613 196 596 146T540 57Q518 35 490 14T435 -33Q419 -50 411 -65T402 -97Q402 -127 435 -127Q465 -127 500 -104L540 -185Q508 -213 472 -226T397 -239Q336 -239 299 -211T262 -130Q262
-97 278 -66T328 -11H314Q240 -11 191 8T113 62T72 141T60 238V675H216V247Q216 217 221 194T240 153T277 127T337 118Q403 118 431 149T459 256V675H613V265Z" />
<glyph unicode="&#x173;" glyph-name="uogonek" horiz-adv-x="566" d="M571 -185Q541 -212 505 -225T429 -239Q367 -239 330 -211T293 -130Q293 -90 313 -56T374 11Q370 51 370 75H369Q344 36 303 13T206 -11Q166 -11 137 1T91 35T66 85T58 147V497H211V181Q211
149 221 133T257 117Q277 117 295 128T326 159T347 204T355 256V497H508V156Q508 109 510 71T517 0Q472 -25 453 -49T434 -97Q434 -111 442 -119T466 -127Q482 -127 498 -121T531 -104L571 -185Z" />
<glyph unicode="&#x174;" glyph-name="Wcircumflex" horiz-adv-x="959" d="M781 0H588L502 320Q492 362 480 456H478Q469 368 456 320L371 0H179L18 675H184L256 351Q277 241 285 169H287Q300 270 321 350L407 675H563L651 348Q679 242 688 169H691Q704 275 719
351L788 675H941L781 0ZM621 710L484 762L346 710L314 785L487 870L655 787L621 710Z" />
<glyph unicode="&#x175;" glyph-name="wcircumflex" horiz-adv-x="798" d="M641 0H473L420 181Q412 210 405 242T392 306H391Q385 273 378 239T361 172L313 0H153L7 497H173L216 335Q224 300 233 260T250 181H252Q258 221 267 260T285 335L331 497H477L524 335Q529
315 534 296T543 258T552 220T559 181H561Q567 221 576 259T594 335L637 497H791L641 0ZM504 553L399 632L291 553L236 621L400 760L561 623L504 553Z" />
<glyph unicode="&#x176;" glyph-name="Ycircumflex" horiz-adv-x="578" d="M365 242V0H210V241L-4 675H165L245 505Q270 452 289 400H291Q300 425 311 451T341 517L417 675H582L365 242ZM425 710L288 762L150 710L118 785L291 870L459 787L425 710Z" />
<glyph unicode="&#x177;" glyph-name="ycircumflex" horiz-adv-x="566" d="M91 -90Q125 -102 164 -109T243 -117Q303 -117 331 -91T359 -13V4Q359 19 361 40T369 81H367Q345 42 305 18T206 -7Q165 -7 136 5T90 39T66 88T58 149V497H211V183Q211 153 220 137T257
120Q277 120 295 131T326 162T347 206T355 258V497H508V3Q508 -63 489 -109T433 -186T346 -231T231 -245Q193 -245 154 -241T79 -228L91 -90ZM389 553L284 632L176 553L121 621L285 760L446 623L389 553Z" />
<glyph unicode="&#x178;" glyph-name="Ydieresis" horiz-adv-x="578" d="M365 242V0H210V241L-4 675H165L245 505Q270 452 289 400H291Q300 425 311 451T341 517L417 675H582L365 242ZM478 791Q478 759 455 736T399 712Q367 712 344 735T320 791Q320 824 343 847T399
870Q432 870 455 847T478 791ZM262 791Q262 759 239 736T183 712Q150 712 127 735T104 791Q104 824 127 847T183 870Q215 870 238 847T262 791Z" />
<glyph unicode="&#x179;" glyph-name="Zacute" horiz-adv-x="536" d="M44 0V122L261 485Q287 523 297 537Q261 535 191 535H51V675H488V548L259 180Q245 160 233 142Q246 144 364 144H492V0H44ZM206 710L183 792L407 867L439 761L206 710Z" />
<glyph unicode="&#x17a;" glyph-name="zacute" horiz-adv-x="452" d="M44 0V109L218 362Q190 360 128 360H50V497H404V388L235 139Q251 140 332 140H407V0H44ZM212 551L147 623L309 770L389 682L212 551Z" />
<glyph unicode="&#x17b;" glyph-name="Zdotaccent" horiz-adv-x="536" d="M44 0V122L261 485Q287 523 297 537Q261 535 191 535H51V675H488V548L259 180Q245 160 233 142Q246 144 364 144H492V0H44ZM359 799Q359 762 333 737T270 711Q233 711 208 736T182 799Q182
836 207 862T270 888Q307 888 333 862T359 799Z" />
<glyph unicode="&#x17c;" glyph-name="zdotaccent" horiz-adv-x="452" d="M44 0V109L218 362Q190 360 128 360H50V497H404V388L235 139Q251 140 332 140H407V0H44ZM314 643Q314 625 307 609T288 581T260 562T225 555Q207 555 191 561T163 580T144 609T137 643Q137
661 144 677T163 706T191 725T225 732Q243 732 259 725T288 706T307 678T314 643Z" />
<glyph unicode="&#x17d;" glyph-name="Zcaron" horiz-adv-x="536" d="M44 0V122L261 485Q287 523 297 537Q261 535 191 535H51V675H488V548L259 180Q245 160 233 142Q246 144 364 144H492V0H44ZM267 710L99 793L133 870L269 818L408 870L440 795L267 710Z" />
<glyph unicode="&#x17e;" glyph-name="zcaron" horiz-adv-x="452" d="M44 0V109L218 362Q190 360 128 360H50V497H404V388L235 139Q251 140 332 140H407V0H44ZM226 553L65 690L122 760L228 681L335 760L390 692L226 553Z" />
<glyph unicode="&#x17f;" glyph-name="longs" horiz-adv-x="270" d="M307 612Q297 614 289 615T273 616Q239 616 224 595T208 526V0H56V518Q56 739 261 739Q275 739 290 738T319 736L307 612Z" />
<glyph unicode="&#x18f;" glyph-name="uni018F" horiz-adv-x="607" d="M407 403Q402 438 391 464T361 509T317 536T257 546Q200 546 157 536T77 510L48 641Q97 663 154 674T271 686Q338 686 394 667T492 606T556 500T579 345Q579 261 559 195T499 82T403 12T277
-12Q212 -12 164 9T85 68T38 160T22 279Q22 310 25 343T34 403H407ZM191 274V266Q191 229 198 203T219 161T251 137T292 129Q318 129 338 139T374 169T398 215T407 274H191Z" />
<glyph unicode="&#x192;" glyph-name="florin" horiz-adv-x="462" d="M251 111Q243 32 225 -21T179 -107T110 -153T14 -168Q-27 -168 -60 -158L-38 -27Q1 -40 22 -40Q57 -40 73 -14T96 79L118 312H13V430H129L138 510Q150 629 204 685T362 742Q399 742 435 733L418
608Q392 616 361 616Q329 616 312 595T289 519L281 430H414V312H271L251 111Z" />
<glyph unicode="&#x1a0;" glyph-name="Ohorn" horiz-adv-x="715" d="M716 844Q726 820 731 793T736 740Q736 706 726 676T688 621T612 590Q682 508 684 352Q684 263 657 196T584 82T476 11T347 -13Q268 -13 209 9T111 74T51 179T31 323Q31 411 58 479T131 593T239
664T369 688Q425 688 470 677T544 665Q577 665 594 681T611 729Q610 776 590 817L716 844ZM518 336Q518 385 508 424T478 491T428 532T358 546Q321 546 292 533T241 494T209 429T197 339Q197 290 207 251T237 185T287 143T358 129Q393 129 423 142T474 182T506
246T518 336Z" />
<glyph unicode="&#x1a1;" glyph-name="ohorn" horiz-adv-x="558" d="M564 662Q583 610 583 563Q583 521 570 491T532 445T482 423Q505 398 517 357T529 262Q529 203 512 154T461 68T380 10T269 -11Q214 -11 170 3T95 48T46 124T29 235Q29 294 46 343T97 429T178
487T289 508Q330 508 359 501T404 494Q435 494 449 509T464 552Q464 574 459 595T444 635L564 662ZM371 248Q371 313 348 345T280 378Q237 378 212 346T187 249Q187 184 210 152T278 120Q298 120 315 128T345 151T364 191T371 248Z" />
<glyph unicode="&#x1af;" glyph-name="Uhorn" horiz-adv-x="673" d="M685 844Q693 826 699 798T705 741Q705 705 696 678T667 631T613 598V265Q613 193 594 141T538 55T448 4T327 -13Q247 -13 195 7T113 61T72 141T60 238V675H216V247Q216 217 221 194T240 153T277
127T337 118Q370 118 393 125T431 149T452 191T459 256V675H522Q555 675 567 689T580 730Q580 748 575 772T559 817L685 844Z" />
<glyph unicode="&#x1b0;" glyph-name="uhorn" horiz-adv-x="566" d="M366 0Q366 14 367 37T372 78L370 79Q348 40 307 15T206 -11Q165 -11 136 1T90 35T66 85T58 147V497H211V181Q211 151 220 134T257 117Q277 117 295 128T326 159T347 204T355 256V497H418Q449
497 462 510T475 552Q475 572 470 593T455 635L575 662Q584 638 589 614T594 563Q594 521 582 493T551 448T508 422V0H366Z" />
<glyph unicode="&#x1cd;" glyph-name="uni01CD" horiz-adv-x="633" d="M336 436Q328 460 322 485T310 540H308Q304 515 298 489T283 436L227 256H392L336 436ZM466 0L425 133H193L152 0H-3L212 675H418L636 0H466ZM314 710L146 793L180 870L316 818L455 870L487
795L314 710Z" />
<glyph unicode="&#x1ce;" glyph-name="uni01CE" horiz-adv-x="526" d="M312 214Q273 214 247 210T206 197T185 178T178 152Q178 132 191 119T227 105Q245 105 261 113T288 134T306 164T312 199V214ZM326 0Q326 50 330 75H329Q311 36 270 13T177 -11Q142 -11 115
0T70 31T42 78T32 136Q32 182 52 215T110 270T198 301T312 311V327Q312 362 294 377T234 393Q201 393 160 384T83 361L60 475Q104 490 155 499T251 509Q312 509 353 498T419 464T454 410T465 334V118Q465 88 466 58T469 0H326ZM260 553L99 690L156 760L262 681L369
760L424 692L260 553Z" />
<glyph unicode="&#x1d0;" glyph-name="uni01D0" horiz-adv-x="271" d="M59 0V497H211V0H59ZM390 553L229 690L286 760L392 681L499 760L554 692L390 553Z" />
<glyph unicode="&#x1d2;" glyph-name="uni01D2" horiz-adv-x="558" d="M371 248Q371 311 348 344T280 378Q259 378 242 370T212 346T194 305T187 249Q187 186 210 153T278 120Q321 120 346 152T371 248ZM529 262Q529 203 512 153T461 67T379 10T269 -11Q214 -11
170 3T94 48T46 125T29 235Q29 294 46 344T97 430T179 487T289 508Q402 508 465 447T529 262ZM277 553L116 690L173 760L279 681L386 760L441 692L277 553Z" />
<glyph unicode="&#x1e6;" glyph-name="Gcaron" horiz-adv-x="670" d="M612 33Q561 12 500 1T375 -11Q291 -11 227 11T119 76T54 179T32 314Q32 398 57 466T131 584T251 659T414 685Q466 685 517 678T609 657L578 515Q540 530 497 538T407 546Q303 546 252 488T200
333Q200 237 249 184T392 130Q429 130 456 139V360H612V33ZM373 710L205 793L239 870L375 818L514 870L546 795L373 710Z" />
<glyph unicode="&#x1e7;" glyph-name="gcaron" horiz-adv-x="559" d="M347 380Q336 382 324 384T295 386Q273 386 254 379T221 354T199 308T191 237Q191 174 207 146T259 117Q298 117 322 156T347 261V380ZM500 -2Q500 -50 487 -94T443 -171T355 -225T216 -245Q174
-245 137 -241T59 -227L72 -88Q106 -102 145 -109T223 -117Q286 -116 318 -92T350 -13V7Q350 21 350 35T354 69H352Q333 32 297 11T216 -10Q125 -10 79 49T31 221Q31 282 48 334T100 425T187 486T307 508Q365 508 411 504T500 492V-2V-2ZM297 553L136 690L193 760L299
681L406 760L461 692L297 553Z" />
<glyph unicode="&#x1e8;" glyph-name="uni01E8" horiz-adv-x="605" d="M399 0L216 317V0H60V675H216V377L401 675H588L366 351L601 0H399ZM304 710L136 793L170 870L306 818L445 870L477 795L304 710Z" />
<glyph unicode="&#x1e9;" glyph-name="uni01E9" horiz-adv-x="542" d="M346 0L211 239V0H59V730H211V297L337 497H517L358 277L536 0H346ZM400 553L239 690L296 760L402 681L509 760L564 692L400 553Z" />
<glyph unicode="&#x1fa;" glyph-name="Aringacute" horiz-adv-x="633" d="M336 436Q328 460 322 485T310 540H308Q304 515 298 489T283 436L227 256H392L336 436ZM466 0L425 133H193L152 0H-3L212 675H418L636 0H466ZM257 874L239 929L426 980L451 910L257 874ZM424
782Q424 739 392 715T310 691Q258 691 231 711T204 774Q204 816 236 840T319 865Q370 865 397 845T424 782ZM351 777Q351 797 342 805T315 814Q299 814 289 806T278 778Q278 758 286 750T313 742Q330 742 340 751T351 777Z" />
<glyph unicode="&#x1fb;" glyph-name="aringacute" horiz-adv-x="526" d="M312 214Q273 214 247 210T206 197T185 178T178 152Q178 132 191 119T227 105Q245 105 261 113T288 134T306 164T312 199V214ZM326 0Q326 50 330 75H329Q311 36 270 13T177 -11Q142 -11
115 0T70 31T42 78T32 136Q32 182 52 215T110 270T198 301T312 311V327Q312 362 294 377T234 393Q201 393 160 384T83 361L60 475Q104 490 155 499T251 509Q312 509 353 498T419 464T454 410T465 334V118Q465 88 466 58T469 0H326ZM193 776L172 843L384 908L414
821L193 776ZM383 651Q383 625 373 604T346 568T304 544T253 536Q194 536 164 562T133 641Q133 667 142 688T170 724T211 748T262 756Q321 756 352 730T383 651ZM298 645Q298 670 288 681T258 692Q241 692 230 681T218 647Q218 622 227 611T257 600Q275 600 286
611T298 645Z" />
<glyph unicode="&#x1fc;" glyph-name="AEacute" horiz-adv-x="809" d="M373 545H364Q347 502 333 469T303 401L236 261H373V545ZM373 0V140H185L123 0H-35L283 675H757V544H525V410H737V283H525V134H758V0H373ZM452 710L429 792L653 867L685 761L452 710Z" />
<glyph unicode="&#x1fd;" glyph-name="aeacute" horiz-adv-x="796" d="M312 214Q273 214 247 210T206 197T185 178T178 152Q178 132 191 119T227 105Q245 105 261 113T288 134T306 164T312 199V214ZM613 308Q614 352 596 374T543 397Q509 397 487 373T461 308H613ZM762
293Q762 267 761 244T757 207H461Q463 158 491 132T579 106Q616 106 654 112T730 132L745 20Q703 5 655 -3T561 -11Q484 -11 435 12T362 77H361Q332 35 288 12T190 -11Q150 -11 121 0T72 31T42 78T32 136Q32 182 52 215T110 270T198 301T312 311V327Q312 362 294
377T234 393Q201 393 160 384T83 361L60 475Q104 490 155 499T251 509Q302 509 341 498T407 457H408Q431 481 468 494T550 508Q604 508 644 492T711 447T749 379T762 293ZM417 551L352 623L514 770L594 682L417 551Z" />
<glyph unicode="&#x1fe;" glyph-name="Oslashacute" horiz-adv-x="715" d="M684 352Q684 266 658 198T585 82T477 11T347 -13Q321 -13 296 -10T248 0L196 -100L90 -50L140 47Q87 88 59 156T31 323Q31 409 57 477T131 593T239 664T369 688Q394 688 420 685T467
675L519 775L626 725L575 628Q628 587 656 519T684 352ZM525 336Q525 383 516 420T499 484L315 131Q323 128 335 126T358 124Q396 124 426 137T479 178T513 245T525 336ZM401 545Q393 548 381 550T358 552Q320 552 289 538T236 497T202 430T190 339Q190 291 200
253T217 191L401 545ZM244 750L221 832L445 907L477 801L244 750Z" />
<glyph unicode="&#x1ff;" glyph-name="oslashacute" horiz-adv-x="558" d="M444 466Q529 403 529 262Q529 203 512 154T461 67T380 10T269 -11Q227 -11 196 -2L146 -96L65 -62L114 31Q29 94 29 235Q29 293 46 343T97 430T178 487T289 508Q330 508 362 499L412
593L493 559L444 466ZM256 110Q260 109 265 109T276 109Q328 109 356 144T385 249Q385 281 381 302T376 337L256 110ZM302 387Q298 388 293 388T282 388Q230 388 202 353T173 248Q173 216 177 195T182 160L302 387ZM260 551L195 623L357 770L437 682L260 551Z"
/>
<glyph unicode="&#x218;" glyph-name="Scommaaccent" horiz-adv-x="502" d="M475 205Q475 157 458 118T405 49T320 4T206 -12Q162 -12 122 -8T46 6L60 154Q95 140 135 132T214 124Q257 124 282 140T308 189Q308 215 290 232T239 263T168 295T101 334T52 392T33
480Q33 526 51 564T103 630T188 672T300 687Q328 687 361 684T423 674L409 538Q352 558 290 558Q243 558 220 542T197 495Q197 471 215 455T266 424T338 392T407 352T456 293T475 205ZM255 -46Q286 -46 304 -66T322 -117Q322 -138 313 -158T285 -195T234 -225T162
-243L142 -189Q172 -178 183 -168T195 -143Q195 -136 192 -126T189 -108Q189 -82 206 -64T255 -46Z" />
<glyph unicode="&#x219;" glyph-name="scommaaccent" horiz-adv-x="411" d="M379 157Q379 121 365 91T323 37T253 2T156 -11Q92 -11 44 1L51 126Q103 106 161 106Q190 106 205 115T220 143Q220 159 208 169T176 187T128 208T80 237T47 280T34 346Q34 380 47 409T87
461T156 496T252 509Q301 509 341 500L335 382Q294 395 248 395Q220 395 206 386T191 360Q191 345 203 335T234 317T283 295T332 265T366 222T379 157ZM217 -46Q248 -46 266 -66T284 -117Q284 -138 275 -158T247 -195T196 -225T124 -243L104 -189Q134 -178 145
-168T157 -143Q157 -136 154 -126T151 -108Q151 -82 168 -64T217 -46Z" />
<glyph unicode="&#x21a;" glyph-name="Tcommaaccent" horiz-adv-x="507" d="M331 542V0H176V542H14V675H493V542H331ZM260 -46Q291 -46 309 -66T327 -117Q327 -138 318 -158T290 -195T239 -225T167 -243L147 -189Q177 -178 188 -168T200 -143Q200 -136 197 -126T194
-108Q194 -82 211 -64T260 -46Z" />
<glyph unicode="&#x21b;" glyph-name="tcommaaccent" horiz-adv-x="377" d="M348 4Q293 -11 237 -11Q193 -11 164 -3T117 24T92 74T84 154V380H9V497H84V644L236 685V497H344V380H236V179Q236 143 247 130T285 116Q309 116 339 123L348 4ZM226 -46Q257 -46 275
-66T293 -117Q293 -138 284 -158T256 -195T205 -225T133 -243L113 -189Q143 -178 154 -168T166 -143Q166 -136 163 -126T160 -108Q160 -82 177 -64T226 -46Z" />
<glyph unicode="&#x237;" glyph-name="dotlessj" horiz-adv-x="274" d="M214 -25Q214 -77 203 -117T167 -185T104 -229T12 -244Q-12 -244 -33 -241T-65 -236L-56 -107Q-49 -109 -31 -112T8 -116Q36 -116 49 -99T62 -42V497H214V-25Z" />
<glyph unicode="&#x259;" glyph-name="uni0259" horiz-adv-x="513" d="M330 300Q327 342 297 367T207 393Q172 393 138 386T70 365L47 475Q90 492 138 500T231 509Q352 509 418 448T485 255Q485 196 470 148T424 64T348 9T245 -11Q189 -11 149 6T82 56T43 131T30
226Q30 262 35 300H330ZM179 201Q179 198 179 196T179 191Q179 145 198 124T250 102Q268 102 283 109T308 130T324 161T331 201H179Z" />
<glyph unicode="&#x298;" glyph-name="bullseye" horiz-adv-x="478" d="M438 297Q438 255 423 219T380 155T316 112T237 96Q195 96 159 111T95 154T52 218T36 297Q36 338 52 374T95 438T159 481T237 497Q279 497 315 482T379 439T422 375T438 297ZM283 297Q283
316 270 329T237 343Q218 343 205 330T191 297Q191 277 204 264T237 251Q256 251 269 264T283 297Z" />
<glyph unicode="&#x2bc;" glyph-name="apostrophe" horiz-adv-x="126" d="M14 491Q37 515 49 534T66 571T65 602T49 629Q35 645 33 665T38 705T63 737T108 750Q142 750 165 724T188 654T160 556T66 444L14 491Z" />
<glyph unicode="&#x2c6;" glyph-name="circumflex" horiz-adv-x="433" d="M322 553L217 632L109 553L54 621L218 760L379 623L322 553Z" />
<glyph unicode="&#x2c7;" glyph-name="caron" horiz-adv-x="433" d="M215 553L54 690L111 760L217 681L324 760L379 692L215 553Z" />
<glyph unicode="&#x2c9;" glyph-name="macron" horiz-adv-x="389" d="M54 588V698H335V588H54Z" />
<glyph unicode="&#x2d8;" glyph-name="breve" horiz-adv-x="396" d="M342 722Q342 688 334 659T307 606T262 570T197 557Q159 557 132 570T87 607T62 659T54 722H150Q150 695 162 680T198 664Q220 664 232 678T245 722H342Z" />
<glyph unicode="&#x2d9;" glyph-name="dotaccent" horiz-adv-x="285" d="M231 643Q231 625 224 609T205 581T177 562T142 555Q124 555 108 561T80 580T61 609T54 643Q54 661 61 677T80 706T108 725T142 732Q160 732 176 725T205 706T224 678T231 643Z" />
<glyph unicode="&#x2da;" glyph-name="ring" horiz-adv-x="390" d="M336 671Q336 641 325 616T294 574T247 548T189 538Q123 538 89 568T54 660Q54 690 65 715T95 757T142 784T200 794Q266 794 301 764T336 671ZM240 665Q240 694 229 706T196 719Q176 719 163
706T150 666Q150 637 161 625T194 612Q214 612 227 625T240 665Z" />
<glyph unicode="&#x2db;" glyph-name="ogonek" horiz-adv-x="386" d="M278 0Q233 -25 214 -49T195 -97Q195 -127 227 -127Q257 -127 292 -104L332 -185Q302 -212 266 -225T189 -239Q128 -239 91 -211T54 -130Q54 -90 74 -56T134 10L278 0Z" />
<glyph unicode="&#x2dc;" glyph-name="tilde" horiz-adv-x="481" d="M427 663Q381 567 298 567Q275 567 259 573T223 593T196 611T178 615Q162 615 150 604T125 571L54 625Q77 673 109 697T183 722Q206 722 222 716T258 696T284 679T304 674Q320 674 332 684T356
718L427 663Z" />
<glyph unicode="&#x2dd;" glyph-name="hungarumlaut" horiz-adv-x="544" d="M123 553L54 612L190 777L275 705L123 553ZM324 553L259 613L411 767L490 690L324 553Z" />
<glyph unicode="&#x300;" glyph-name="gravecomb" horiz-adv-x="0" d="M-273 551L-450 680L-370 770L-208 624L-273 551Z" />
<glyph unicode="&#x301;" glyph-name="acutecomb" horiz-adv-x="0" d="M-280 551L-345 623L-183 770L-103 682L-280 551Z" />
<glyph unicode="&#x303;" glyph-name="tildecomb" horiz-adv-x="0" d="M-98 663Q-144 567 -227 567Q-250 567 -266 573T-302 593T-329 611T-347 615Q-363 615 -375 604T-400 571L-471 625Q-448 673 -416 697T-342 722Q-319 722 -303 716T-267 696T-241 679T-221
674Q-205 674 -193 684T-169 718L-98 663Z" />
<glyph unicode="&#x305;" glyph-name="uni0305" horiz-adv-x="0" d="M-513 588V698H-55V588H-513Z" />
<glyph unicode="&#x307;" glyph-name="uni0307" horiz-adv-x="0" d="M-195 643Q-195 625 -202 609T-221 581T-249 562T-284 555Q-302 555 -318 561T-346 580T-365 609T-372 643Q-372 661 -365 677T-346 706T-318 725T-284 732Q-266 732 -250 725T-221 706T-202
678T-195 643Z" />
<glyph unicode="&#x312;" glyph-name="uni0312" horiz-adv-x="0" d="M-287 558Q-317 558 -335 579T-354 631Q-354 650 -346 669T-318 707T-268 738T-194 756L-174 701Q-203 691 -215 680T-227 657Q-227 649 -224 639T-221 621Q-221 593 -239 576T-287 558Z" />
<glyph unicode="&#x315;" glyph-name="uni0315" horiz-adv-x="274" d="M151 545L54 565L101 786L221 762L151 545Z" />
<glyph unicode="&#x323;" glyph-name="dotbelowcomb" horiz-adv-x="0" d="M-195 -146Q-195 -164 -202 -180T-221 -209T-249 -228T-284 -235Q-302 -235 -318 -228T-347 -209T-365 -181T-372 -146Q-372 -128 -366 -112T-347 -83T-319 -65T-284 -58Q-266 -58 -250
-64T-221 -83T-202 -111T-195 -146Z" />
<glyph unicode="&#x326;" glyph-name="uni0326" horiz-adv-x="0" d="M-282 -46Q-251 -46 -233 -66T-215 -117Q-215 -138 -224 -158T-252 -195T-303 -225T-375 -243L-395 -189Q-365 -178 -354 -168T-342 -143Q-342 -136 -345 -126T-348 -108Q-348 -82 -331 -64T-282 -46Z" />
<glyph unicode="&#x327;" glyph-name="uni0327" horiz-adv-x="0" d="M-244 -39Q-205 -95 -213 -144T-264 -234H-375Q-340 -193 -337 -157T-368 -75L-244 -39V-39Z" />
<glyph unicode="&#x331;" glyph-name="uni0331" horiz-adv-x="0" d="M-428 -91H-139V-201H-428V-91Z" />
<glyph unicode="&#x37e;" glyph-name="uni037E" horiz-adv-x="306" d="M162 172Q203 172 230 141T257 59Q257 9 225 -55T115 -185L53 -130Q80 -102 94 -79T113 -37T113 -2T93 30Q76 49 74 73T80 120T110 157T162 172ZM257 388Q257 368 250 351T229 321T199 301T163
293Q143 293 126 300T96 321T76 351T68 388Q68 407 75 424T96 455T126 475T163 483Q182 483 199 476T229 455T249 425T257 388Z" />
<glyph unicode="&#x384;" glyph-name="tonos" horiz-adv-x="258" d="M161 545L54 555L74 748L204 738L161 545Z" />
<glyph unicode="&#x385;" glyph-name="dieresistonos" horiz-adv-x="533" d="M479 641Q479 612 460 593T412 573Q383 573 364 592T344 641Q344 668 363 687T412 707Q440 707 459 688T479 641ZM297 544L207 551L222 737L335 730L297 544ZM189 641Q189 612 170 593T121
573Q93 573 74 592T54 641Q54 668 73 687T121 707Q150 707 169 688T189 641Z" />
<glyph unicode="&#x386;" glyph-name="Alphatonos" horiz-adv-x="670" d="M373 436Q365 460 359 485T347 540H345Q341 515 335 489T320 436L264 256H429L373 436ZM503 0L462 133H230L189 0H34L249 675H455L673 0H503ZM372 545L265 555L285 748L415 738L372 545Z" />
<glyph unicode="&#x387;" glyph-name="anoteleia" horiz-adv-x="292" d="M238 497Q238 478 231 462T212 433T182 413T146 405Q127 405 111 412T82 432T62 461T55 497Q55 516 62 532T81 561T110 581T146 589Q165 589 182 582T211 562T231 533T238 497Z" />
<glyph unicode="&#x388;" glyph-name="Epsilontonos" horiz-adv-x="618" d="M169 0V675H566V544H325V410H545V283H325V134H566V0H169ZM363 545L256 555L276 748L406 738L363 545Z" />
<glyph unicode="&#x389;" glyph-name="Etatonos" horiz-adv-x="788" d="M572 0V281H325V0H169V675H325V416H572V675H728V0H572ZM363 545L256 555L276 748L406 738L363 545Z" />
<glyph unicode="&#x38a;" glyph-name="Iotatonos" horiz-adv-x="385" d="M169 0V675H325V0H169ZM363 545L256 555L276 748L406 738L363 545Z" />
<glyph unicode="&#x38c;" glyph-name="Omicrontonos" horiz-adv-x="777" d="M580 336Q580 437 540 491T420 546Q384 546 355 533T304 493T272 428T260 339Q260 238 300 184T420 129Q456 129 485 142T536 182T568 247T580 336ZM746 352Q746 266 720 198T647 82T539
11T409 -13Q331 -13 272 9T173 74T113 179T93 323Q93 409 119 477T193 593T301 664T431 688Q508 688 567 666T666 601T726 496T746 352ZM363 545L256 555L276 748L406 738L363 545Z" />
<glyph unicode="&#x38e;" glyph-name="Upsilontonos" horiz-adv-x="726" d="M513 242V0H358V241L144 675H313L393 505Q418 452 437 400H439Q448 425 459 451T489 517L565 675H730L513 242ZM363 545L256 555L276 748L406 738L363 545Z" />
<glyph unicode="&#x38f;" glyph-name="Omegatonos" horiz-adv-x="774" d="M464 0V121Q518 160 543 214T568 351Q568 443 532 495T417 547Q351 547 310 496T268 354Q268 311 273 278T291 217T324 167T374 122V0H99V124H208Q161 156 132 213T103 358Q103 430 126
490T193 595T297 663T431 688Q494 688 549 670T645 614T710 516T734 373Q734 286 704 224T625 124H740V0H464ZM363 545L256 555L276 748L406 738L363 545Z" />
<glyph unicode="&#x390;" glyph-name="iotadieresistonos" horiz-adv-x="313" d="M308 2Q252 -11 197 -11Q161 -11 136 -4T94 22T68 69T59 145V497H211V175Q211 157 213 146T224 126T246 117T300 120L308 2ZM620 641Q620 612 601 593T553 573Q524 573 505 592T485
641Q485 668 504 687T553 707Q581 707 600 688T620 641ZM438 544L348 551L363 737L476 730L438 544ZM330 641Q330 612 311 593T262 573Q234 573 215 592T195 641Q195 668 214 687T262 707Q291 707 310 688T330 641Z" />
<glyph unicode="&#x391;" glyph-name="Alpha" horiz-adv-x="633" d="M336 436Q328 460 322 485T310 540H308Q304 515 298 489T283 436L227 256H392L336 436ZM466 0L425 133H193L152 0H-3L212 675H418L636 0H466Z" />
<glyph unicode="&#x392;" glyph-name="Beta" horiz-adv-x="588" d="M389 206Q389 244 361 265T271 287Q235 287 216 286V125Q225 124 244 123T280 122Q334 122 361 144T389 206ZM371 482Q371 518 347 537T273 557Q256 557 216 554V403Q229 402 266 402Q317 402
344 422T371 482ZM558 212Q558 169 541 131T488 63T399 15T276 -2Q261 -2 189 -1T60 0V674Q89 676 152 678T282 680Q407 680 471 636T535 504Q535 458 512 419T446 361V360Q498 344 528 305T558 212Z" />
<glyph unicode="&#x393;" glyph-name="Gamma" horiz-adv-x="430" d="M216 542V0H60V675H420V542H216Z" />
<glyph unicode="&#x394;" glyph-name="Delta" horiz-adv-x="619" d="M25 0V119L211 675H401L593 119V0H25ZM331 406Q323 435 316 464T301 525H300Q293 493 285 462T269 404L184 140H419L331 406Z" />
<glyph unicode="&#x395;" glyph-name="Epsilon" horiz-adv-x="508" d="M60 0V675H457V544H216V410H436V283H216V134H457V0H60Z" />
<glyph unicode="&#x396;" glyph-name="Zeta" horiz-adv-x="536" d="M44 0V122L261 485Q287 523 297 537Q261 535 191 535H51V675H488V548L259 180Q245 160 233 142Q246 144 364 144H492V0H44Z" />
<glyph unicode="&#x397;" glyph-name="Eta" horiz-adv-x="679" d="M463 0V281H216V0H60V675H216V416H463V675H619V0H463Z" />
<glyph unicode="&#x398;" glyph-name="Theta" horiz-adv-x="715" d="M254 287V405H458V287H254ZM684 352Q684 266 658 198T585 82T477 11T347 -13Q191 -13 111 73T31 323Q31 409 57 477T131 593T239 664T369 688Q524 688 604 602T684 352ZM518 335Q518 436 477
491T355 546Q281 546 237 492T193 339Q193 238 234 183T355 128Q430 128 474 181T518 335Z" />
<glyph unicode="&#x399;" glyph-name="Iota" horiz-adv-x="276" d="M60 0V675H216V0H60Z" />
<glyph unicode="&#x39a;" glyph-name="Kappa" horiz-adv-x="605" d="M399 0L216 317V0H60V675H216V377L401 675H588L366 351L601 0H399Z" />
<glyph unicode="&#x39b;" glyph-name="Lambda" horiz-adv-x="635" d="M466 0L351 382Q339 424 329 462T313 532H311Q304 497 294 456T274 381L157 0H-2L213 675H419L637 0H466Z" />
<glyph unicode="&#x39c;" glyph-name="Mu" horiz-adv-x="898" d="M718 0L686 290Q680 348 676 411T672 527H669Q658 472 645 419T615 309L514 0H369L271 302Q255 356 238 420T213 527H211Q211 477 208 413T198 289L170 0H21L98 675H315L413 375Q424 340 433 301T448
227H450Q458 272 466 309T484 375L581 675H799L877 0H718Z" />
<glyph unicode="&#x39d;" glyph-name="Nu" horiz-adv-x="688" d="M464 0L276 307Q252 345 234 380T202 449H199Q203 402 206 330T210 181V0H60V675H239L413 390Q438 352 455 317T486 250H489Q484 300 481 369T478 515V675H628V0H464Z" />
<glyph unicode="&#x39e;" glyph-name="Xi" horiz-adv-x="544" d="M51 535V675H494V535H51ZM107 280V412H434V280H107ZM44 0V142H500V0H44Z" />
<glyph unicode="&#x39f;" glyph-name="Omicron" horiz-adv-x="715" d="M518 336Q518 437 478 491T358 546Q322 546 293 533T242 493T210 428T198 339Q198 238 238 184T358 129Q394 129 423 142T474 182T506 247T518 336ZM684 352Q684 266 658 198T585 82T477 11T347
-13Q269 -13 210 9T111 74T51 179T31 323Q31 409 57 477T131 593T239 664T369 688Q446 688 505 666T604 601T664 496T684 352Z" />
<glyph unicode="&#x3a0;" glyph-name="Pi" horiz-adv-x="666" d="M451 0V542H216V0H60V675H606V0H451Z" />
<glyph unicode="&#x3a1;" glyph-name="Rho" horiz-adv-x="555" d="M538 458Q538 406 520 361T466 281T378 227T257 207Q236 207 216 208V0H60V675Q160 680 265 680Q398 680 468 622T538 458ZM378 443Q378 493 349 522T259 552Q240 552 216 550V338Q239 334 265
334Q318 334 348 363T378 443Z" />
<glyph unicode="&#x3a3;" glyph-name="Sigma" horiz-adv-x="519" d="M44 0V118L230 332L52 542V675H482V539H245L412 343L234 140H489V0H44Z" />
<glyph unicode="&#x3a4;" glyph-name="Tau" horiz-adv-x="507" d="M331 542V0H176V542H14V675H493V542H331Z" />
<glyph unicode="&#x3a5;" glyph-name="Upsilon" horiz-adv-x="578" d="M365 242V0H210V241L-4 675H165L245 505Q270 452 289 400H291Q300 425 311 451T341 517L417 675H582L365 242Z" />
<glyph unicode="&#x3a6;" glyph-name="Phi" horiz-adv-x="833" d="M342 -58V15Q183 25 105 102T27 324Q27 394 48 452T111 555T211 626T342 660V729H491V660Q650 650 728 573T806 351Q806 281 784 223T721 120T622 49T491 15V-58H342ZM491 145Q566 155 605 205T645
342Q645 424 606 472T491 530V145ZM342 529Q267 520 227 470T187 333Q187 251 226 203T342 145V529Z" />
<glyph unicode="&#x3a7;" glyph-name="Chi" horiz-adv-x="648" d="M446 0L318 228L190 0H6L217 344L18 675H198L321 456L442 675H619L424 343L642 0H446Z" />
<glyph unicode="&#x3a8;" glyph-name="Psi" horiz-adv-x="804" d="M758 425Q758 288 684 213T480 122V0H324V120Q243 127 189 150T103 211T58 295T45 396V675H201V410Q201 380 207 355T228 309T265 275T324 258V675H480V257Q545 264 575 304T606 420V675H758V425Z" />
<glyph unicode="&#x3a9;" glyph-name="Omega" horiz-adv-x="709" d="M399 0V121Q453 160 478 214T503 351Q503 443 467 495T352 547Q286 547 245 496T203 354Q203 311 208 278T226 217T259 167T309 122V0H34V124H143Q96 156 67 213T38 358Q38 430 61 490T128 595T232
663T366 688Q429 688 484 670T580 614T645 516T669 373Q669 286 639 224T560 124H675V0H399Z" />
<glyph unicode="&#x3aa;" glyph-name="Iotadieresis" horiz-adv-x="276" d="M60 0V675H216V0H60ZM575 791Q575 759 552 736T496 712Q464 712 441 735T417 791Q417 824 440 847T496 870Q529 870 552 847T575 791ZM371 791Q371 759 348 736T292 712Q259 712 236
735T213 791Q213 824 236 847T292 870Q324 870 347 847T371 791Z" />
<glyph unicode="&#x3ab;" glyph-name="Upsilondieresis" horiz-adv-x="578" d="M365 242V0H210V241L-4 675H165L245 505Q270 452 289 400H291Q300 425 311 451T341 517L417 675H582L365 242ZM473 791Q473 759 450 736T394 712Q362 712 339 735T315 791Q315 824
338 847T394 870Q427 870 450 847T473 791ZM257 791Q257 759 234 736T178 712Q145 712 122 735T99 791Q99 824 122 847T178 870Q210 870 233 847T257 791Z" />
<glyph unicode="&#x3ac;" glyph-name="alphatonos" horiz-adv-x="596" d="M575 -3Q541 -11 515 -11Q452 -11 428 9T405 87H403Q388 45 343 17T234 -11Q142 -11 87 50T32 236Q32 298 49 348T98 434T173 489T266 509Q314 509 352 488T410 429Q413 466 423 497H557Q549
468 542 432T530 358T522 282T519 210Q519 178 520 159T528 130T545 118T575 115V-3ZM368 252Q368 310 343 344T280 378Q263 378 247 371T218 347T198 306T190 247Q190 179 215 150T277 120Q296 120 312 129T341 155T361 195T368 248V252ZM336 545L229 555L249
748L379 738L336 545Z" />
<glyph unicode="&#x3ad;" glyph-name="epsilontonos" horiz-adv-x="447" d="M430 13Q386 2 340 -5T250 -12Q187 -12 144 -2T74 27T36 71T24 127Q24 150 31 169T51 204T80 230T114 247V248Q81 261 63 287T44 348Q44 382 58 411T101 463T174 497T279 509Q317 509
353 505T418 493L393 382Q368 390 337 395T273 401Q228 401 210 387T192 351Q192 329 211 317T268 304H364V202H256Q221 202 204 187T186 151Q186 127 209 113T279 98Q310 98 342 104T407 120L430 13V13ZM315 545L208 555L228 748L358 738L315 545Z" />
<glyph unicode="&#x3ae;" glyph-name="etatonos" horiz-adv-x="577" d="M385 -237Q374 -190 370 -145T366 -53V304Q366 380 313 380Q294 380 277 370T248 343T228 302T221 253V0H69V234Q69 314 61 377T37 497H184Q188 480 191 459T196 418H197Q219 456 257 482T356
508Q398 508 428 495T479 460T508 405T518 336V-29Q518 -82 521 -133T534 -237H385ZM374 545L267 555L287 748L417 738L374 545Z" />
<glyph unicode="&#x3af;" glyph-name="iotatonos" horiz-adv-x="313" d="M308 2Q252 -11 197 -11Q161 -11 136 -4T94 22T68 69T59 145V497H211V175Q211 157 213 146T224 126T246 117T300 120L308 2ZM190 545L83 555L103 748L233 738L190 545Z" />
<glyph unicode="&#x3b0;" glyph-name="upsilondieresistonos" horiz-adv-x="563" d="M499 497Q508 448 512 397T516 295Q516 212 497 154T445 60T368 6T274 -11Q210 -11 168 5T101 51T66 122T55 213V497H207V234Q207 168 223 141T281 114Q300 114 315 122T341
149T357 199T363 278Q363 334 357 388T342 497H499ZM495 641Q495 612 476 593T428 573Q399 573 380 592T360 641Q360 668 379 687T428 707Q456 707 475 688T495 641ZM313 544L223 551L238 737L351 730L313 544ZM205 641Q205 612 186 593T137 573Q109 573 90 592T70
641Q70 668 89 687T137 707Q166 707 185 688T205 641Z" />
<glyph unicode="&#x3b1;" glyph-name="alpha" horiz-adv-x="596" d="M575 -3Q541 -11 515 -11Q452 -11 428 9T405 87H403Q388 45 343 17T234 -11Q142 -11 87 50T32 236Q32 298 49 348T98 434T173 489T266 509Q314 509 352 488T410 429Q413 466 423 497H557Q549
468 542 432T530 358T522 282T519 210Q519 178 520 159T528 130T545 118T575 115V-3ZM368 252Q368 310 343 344T280 378Q263 378 247 371T218 347T198 306T190 247Q190 179 215 150T277 120Q296 120 312 129T341 155T361 195T368 248V252Z" />
<glyph unicode="&#x3b2;" glyph-name="beta" horiz-adv-x="585" d="M259 433Q305 435 333 461T361 533Q361 565 344 588T291 611Q211 611 211 504V141Q226 130 245 123T289 116Q337 116 361 143T386 215Q386 256 363 282T284 309H259V433ZM78 -237Q67 -190 63
-145T59 -53V494Q59 556 77 602T127 678T204 723T300 738Q354 738 394 724T462 685T502 626T516 551Q516 496 487 454T410 396V395Q479 382 513 337T548 220Q548 169 530 127T478 54T394 6T282 -11Q240 -11 211 -4V-29Q211 -82 214 -133T227 -237H78Z" />
<glyph unicode="&#x3b3;" glyph-name="gamma" horiz-adv-x="520" d="M321 -237H169V-108Q169 -79 168 -54T161 3T144 74T115 171T69 308T2 497H168Q201 402 221 342T251 245T264 190T267 160H269Q310 231 325 318T322 497H481Q490 432 483 368T454 241T398 115T321
-9V-237Z" />
<glyph unicode="&#x3b4;" glyph-name="delta" horiz-adv-x="553" d="M408 591Q376 611 352 618T300 626Q278 626 269 618T259 598Q259 590 262 583T276 566T307 542T364 506Q410 478 441 449T490 389T515 322T523 246Q523 190 504 143T450 62T368 9T265 -11Q211
-11 168 3T93 46T45 123T28 236Q28 327 63 387T159 474Q127 497 111 523T95 591Q95 619 105 646T139 694T202 728T298 741Q347 741 390 730T468 698L408 591ZM365 236Q365 294 341 327T274 382Q239 378 213 347T186 253Q186 189 208 155T278 121Q311 121 338 148T365
236Z" />
<glyph unicode="&#x3b5;" glyph-name="epsilon" horiz-adv-x="447" d="M430 13Q386 2 340 -5T250 -12Q187 -12 144 -2T74 27T36 71T24 127Q24 150 31 169T51 204T80 230T114 247V248Q81 261 63 287T44 348Q44 382 58 411T101 463T174 497T279 509Q317 509 353
505T418 493L393 382Q368 390 337 395T273 401Q228 401 210 387T192 351Q192 329 211 317T268 304H364V202H256Q221 202 204 187T186 151Q186 127 209 113T279 98Q310 98 342 104T407 120L430 13V13Z" />
<glyph unicode="&#x3b6;" glyph-name="zeta" horiz-adv-x="419" d="M393 617Q344 582 306 534T241 432T200 327T186 233Q186 209 190 194T204 168T233 151T281 140Q358 127 388 92T418 2Q418 -63 388 -115T308 -218L207 -154Q235 -118 250 -89T265 -35Q265 -15
253 -7T203 6Q158 13 125 26T71 60T40 114T30 193Q30 261 47 326T92 446T152 543T215 606H44V730H393V617Z" />
<glyph unicode="&#x3b7;" glyph-name="eta" horiz-adv-x="577" d="M385 -237Q374 -190 370 -145T366 -53V304Q366 380 313 380Q294 380 277 370T248 343T228 302T221 253V0H69V234Q69 314 61 377T37 497H184Q188 480 191 459T196 418H197Q219 456 257 482T356
508Q398 508 428 495T479 460T508 405T518 336V-29Q518 -82 521 -133T534 -237H385Z" />
<glyph unicode="&#x3b8;" glyph-name="theta" horiz-adv-x="577" d="M540 380Q540 275 521 201T466 80T384 11T281 -11Q227 -11 182 6T105 63T55 172T37 344Q37 450 56 524T110 646T192 716T297 738Q355 738 400 718T477 654T524 542T540 380ZM384 426Q382 528
357 571T288 615Q268 615 252 606T223 574T203 516T193 426H384ZM193 309Q194 254 201 217T221 157T251 124T289 114Q333 114 356 160T384 309H193Z" />
<glyph unicode="&#x3b9;" glyph-name="iota" horiz-adv-x="313" d="M308 2Q252 -11 197 -11Q161 -11 136 -4T94 22T68 69T59 145V497H211V175Q211 157 213 146T224 126T246 117T300 120L308 2Z" />
<glyph unicode="&#x3ba;" glyph-name="kappa" horiz-adv-x="542" d="M344 0L211 230V0H59V497H211V289L344 497H523L358 272L531 0H344Z" />
<glyph unicode="&#x3bb;" glyph-name="lambda" horiz-adv-x="517" d="M345 0L255 295H254Q247 263 237 227T214 155L160 0H-3L189 488L165 556Q153 591 136 603T94 616Q86 616 78 616T62 614L57 732Q74 736 94 737T131 739Q161 739 187 734T235 715T276 674T308
606L513 0H345Z" />
<glyph unicode="&#x3bc;" glyph-name="mu" horiz-adv-x="580" d="M560 -3Q530 -11 501 -11Q466 -11 443 -4T407 15T387 42T379 75L378 76Q361 38 329 16T248 -7Q216 -7 197 9L215 -237H59V497H211V179Q211 117 258 117Q301 117 328 156T356 259V497H508V184Q508
163 510 150T518 130T534 119T560 116V-3V-3Z" />
<glyph unicode="&#x3bd;" glyph-name="nu" horiz-adv-x="518" d="M509 497Q490 366 443 245T317 0H170L4 497H171L226 321Q234 293 243 259T260 186H262Q295 259 316 338T346 497H509Z" />
<glyph unicode="&#x3be;" glyph-name="xi" horiz-adv-x="412" d="M200 -154Q227 -118 242 -89T258 -35Q258 -14 247 -6T198 7Q109 18 64 59T19 185Q19 220 29 250T57 302T98 340T149 363Q100 373 76 407T51 485Q51 527 73 561T139 609Q116 606 93 606H33V730H381V606H344Q303
606 276 598T232 577T208 545T201 508Q201 479 221 458T286 437H358V314H310Q235 314 205 288T175 225Q175 187 194 169T260 144Q342 130 376 96T411 2Q411 -62 381 -115T301 -218L200 -154Z" />
<glyph unicode="&#x3bf;" glyph-name="omicron" horiz-adv-x="558" d="M371 248Q371 311 348 344T280 378Q259 378 242 370T212 346T194 305T187 249Q187 186 210 153T278 120Q321 120 346 152T371 248ZM529 262Q529 203 512 153T461 67T379 10T269 -11Q214 -11
170 3T94 48T46 125T29 235Q29 294 46 344T97 430T179 487T289 508Q402 508 465 447T529 262Z" />
<glyph unicode="&#x3c0;" glyph-name="pi" horiz-adv-x="628" d="M507 371Q507 304 510 253T520 169Q525 138 536 128T562 117Q567 117 573 117T587 119L599 -2Q585 -6 566 -8T524 -11Q489 -11 463 -4T419 18T388 59T369 123Q361 163 357 229T353 371H250Q251
277 240 178T199 -17L38 17Q70 111 87 195T104 371H11V497H600V371H507Z" />
<glyph unicode="&#x3c1;" glyph-name="rho" horiz-adv-x="549" d="M48 -237V257Q48 377 110 442T290 508Q405 508 462 443T519 262Q519 205 503 155T453 68T371 10T256 -11Q239 -11 224 -10T198 -5Q200 -22 200 -45T201 -90V-237H48ZM201 122Q212 118 225 115T262
111Q305 111 332 143T360 248Q360 316 339 348T279 380Q239 380 220 351T201 269V122Z" />
<glyph unicode="&#x3c2;" glyph-name="sigma1" horiz-adv-x="424" d="M199 -154Q227 -118 242 -89T257 -35Q257 -15 245 -7T195 6Q109 20 70 75T30 220Q30 287 46 340T95 430T177 488T291 508Q316 508 341 504T390 493L367 361Q349 369 329 373T284 377Q238 377
214 341T189 242Q189 200 207 174T273 140Q350 127 380 92T410 2Q410 -62 380 -115T300 -218L199 -154Z" />
<glyph unicode="&#x3c3;" glyph-name="sigma" horiz-adv-x="583" d="M572 371Q549 371 527 371T487 373Q504 350 514 318T524 244Q524 186 506 139T453 59T373 7T269 -11Q214 -11 170 3T95 48T46 124T29 235Q29 295 47 345T102 431T190 488T311 508Q359 508 423
503T572 497V371ZM371 249Q371 329 334 378Q326 379 319 379T301 380Q247 380 217 349T187 249Q187 185 210 153T278 120Q320 120 345 151T371 249Z" />
<glyph unicode="&#x3c4;" glyph-name="tau" horiz-adv-x="362" d="M321 -1Q307 -5 284 -8T239 -11Q197 -11 169 -3T124 23T100 72T93 149V371H9V497H346V371H245V177Q245 141 254 129T286 116Q292 116 298 116T312 118L321 -1Z" />
<glyph unicode="&#x3c5;" glyph-name="upsilon" horiz-adv-x="563" d="M499 497Q508 448 512 397T516 295Q516 212 497 154T445 60T368 6T274 -11Q210 -11 168 5T101 51T66 122T55 213V497H207V234Q207 168 223 141T281 114Q300 114 315 122T341 149T357 199T363
278Q363 334 357 388T342 497H499Z" />
<glyph unicode="&#x3c6;" glyph-name="phi" horiz-adv-x="751" d="M299 -237V-11Q162 -4 95 60T27 240Q27 292 44 337T97 417T183 475T299 506V675H452V508Q588 502 656 438T724 258Q724 206 706 161T654 81T568 22T452 -9V-237H299ZM300 378Q246 371 214 337T182
250Q182 197 210 162T300 119V378ZM451 119Q505 126 537 160T569 246Q569 300 541 335T451 378V119Z" />
<glyph unicode="&#x3c7;" glyph-name="chi" horiz-adv-x="521" d="M511 -239Q497 -241 481 -242T451 -244Q421 -244 397 -239T352 -218T314 -176T280 -106L237 4L142 -248L-12 -212L164 154L92 322Q76 360 62 371T30 383Q27 383 23 383T13 382L6 501Q20 503 36
504T66 506Q95 506 119 501T165 481T203 440T236 374L270 280L354 497H523L345 127L424 -52Q442 -95 455 -108T488 -121Q491 -121 495 -121T505 -120L511 -239Z" />
<glyph unicode="&#x3c8;" glyph-name="psi" horiz-adv-x="791" d="M321 -237V-9Q238 -6 186 16T105 74T65 160T54 266V497H207V285Q207 247 212 217T230 165T265 131T322 114V675H473V114Q540 122 566 164T592 287Q592 334 589 388T579 497H732Q744 392 744 301Q744
157 674 83T474 -8V-237H321Z" />
<glyph unicode="&#x3c9;" glyph-name="omega" horiz-adv-x="803" d="M683 517Q721 470 746 413T771 277Q771 208 754 154T707 63T635 7T545 -12Q513 -12 488 -4T445 17T414 49T398 86Q384 47 348 18T247 -12Q200 -12 161 6T92 58T47 140T31 250Q31 332 57 399T123
517L264 473Q229 434 209 385T188 273Q188 206 212 170T271 133Q297 133 312 154T328 227V392H474V226Q474 174 489 154T533 133Q565 133 590 165T615 267Q615 297 611 323T598 373T574 421T538 473L683 517Z" />
<glyph unicode="&#x3ca;" glyph-name="iotadieresis" horiz-adv-x="313" d="M308 2Q252 -11 197 -11Q161 -11 136 -4T94 22T68 69T59 145V497H211V175Q211 157 213 146T224 126T246 117T300 120L308 2ZM571 645Q571 612 548 589T492 566Q460 566 437 589T413 645Q413
677 436 700T492 724Q525 724 548 701T571 645ZM379 645Q379 612 356 589T300 566Q267 566 244 588T221 645Q221 677 244 700T300 724Q333 724 356 701T379 645Z" />
<glyph unicode="&#x3cb;" glyph-name="upsilondieresis" horiz-adv-x="563" d="M499 497Q508 448 512 397T516 295Q516 212 497 154T445 60T368 6T274 -11Q210 -11 168 5T101 51T66 122T55 213V497H207V234Q207 168 223 141T281 114Q300 114 315 122T341 149T357
199T363 278Q363 334 357 388T342 497H499ZM251 645Q251 612 228 589T172 566Q140 566 117 589T93 645Q93 677 116 700T172 724Q205 724 228 701T251 645ZM460 645Q460 612 437 589T381 566Q349 566 326 589T302 645Q302 677 325 700T381 724Q414 724 437 701T460
645Z" />
<glyph unicode="&#x3cc;" glyph-name="omicrontonos" horiz-adv-x="558" d="M371 248Q371 311 348 344T280 378Q259 378 242 370T212 346T194 305T187 249Q187 186 210 153T278 120Q321 120 346 152T371 248ZM529 262Q529 203 512 153T461 67T379 10T269 -11Q214
-11 170 3T94 48T46 125T29 235Q29 294 46 344T97 430T179 487T289 508Q402 508 465 447T529 262ZM331 545L224 555L244 748L374 738L331 545Z" />
<glyph unicode="&#x3cd;" glyph-name="upsilontonos" horiz-adv-x="563" d="M499 497Q508 448 512 397T516 295Q516 212 497 154T445 60T368 6T274 -11Q210 -11 168 5T101 51T66 122T55 213V497H207V234Q207 168 223 141T281 114Q300 114 315 122T341 149T357
199T363 278Q363 334 357 388T342 497H499ZM331 545L224 555L244 748L374 738L331 545Z" />
<glyph unicode="&#x3ce;" glyph-name="omegatonos" horiz-adv-x="803" d="M683 517Q721 470 746 413T771 277Q771 208 754 154T707 63T635 7T545 -12Q513 -12 488 -4T445 17T414 49T398 86Q384 47 348 18T247 -12Q200 -12 161 6T92 58T47 140T31 250Q31 332 57
399T123 517L264 473Q229 434 209 385T188 273Q188 206 212 170T271 133Q297 133 312 154T328 227V392H474V226Q474 174 489 154T533 133Q565 133 590 165T615 267Q615 297 611 323T598 373T574 421T538 473L683 517ZM450 545L343 555L363 748L493 738L450 545Z"
/>
<glyph unicode="&#x3d0;" glyph-name="beta.alt" horiz-adv-x="575" d="M514 576Q514 479 424 435Q488 417 515 369T543 246Q543 195 527 149T478 67T396 10T280 -11Q216 -11 171 6T98 63T57 170T44 335Q44 547 112 643T314 739Q408 739 461 699T514 576ZM299
617Q254 617 228 578T200 449Q246 459 277 471T326 497T352 526T360 559Q360 585 346 601T299 617ZM298 342Q281 342 258 338T199 322Q199 210 218 162T290 114Q314 114 332 123T361 149T379 187T385 231Q385 293 364 317T298 342Z" />
<glyph unicode="&#x3d1;" glyph-name="theta1" horiz-adv-x="635" d="M627 366Q609 368 590 368T551 369Q551 366 551 363T552 351Q552 263 534 196T481 82T399 13T291 -11Q172 -11 113 64T53 288Q53 307 54 327T58 366H210Q209 354 209 341T208 316Q208 119 302
119Q351 119 376 176T401 347Q401 356 401 361T400 369H352Q296 369 250 380T172 415T121 472T103 554Q103 591 117 624T160 684T228 725T319 741Q418 741 474 683T547 497H560Q577 497 596 496T627 492V366ZM393 497Q373 617 310 617Q283 617 269 603T254 565Q254
497 349 497H393Z" />
<glyph unicode="&#x3d5;" glyph-name="phi1" horiz-adv-x="750" d="M450 117Q501 127 532 158T564 256Q564 284 557 307T539 346T513 372T483 381Q466 381 458 370T450 317V117ZM298 -216V-11Q160 3 95 66T29 244Q29 334 66 398T181 508L271 415Q228 386 206 348T184
256Q184 199 214 165T298 117V302Q298 400 344 454T488 508Q545 508 589 489T662 437T707 360T722 265Q722 153 653 83T451 -9V-216H298Z" />
<glyph unicode="&#x400;" glyph-name="uni0400" horiz-adv-x="508" d="M60 0V675H457V544H216V410H436V283H216V134H457V0H60ZM319 710L86 761L118 867L342 792L319 710Z" />
<glyph unicode="&#x401;" glyph-name="uni0401" horiz-adv-x="508" d="M60 0V675H457V544H216V410H436V283H216V134H457V0H60ZM434 791Q434 759 411 736T355 712Q323 712 300 735T276 791Q276 824 299 847T355 870Q388 870 411 847T434 791ZM218 791Q218 759 195
736T139 712Q106 712 83 735T60 791Q60 824 83 847T139 870Q171 870 194 847T218 791Z" />
<glyph unicode="&#x402;" glyph-name="uni0402" horiz-adv-x="706" d="M676 224Q676 162 655 114T594 33T499 -19T375 -40V86Q409 88 435 97T478 121T505 158T514 208Q514 232 508 252T487 287T452 310T402 318Q378 318 355 314T313 302V0H157V543H14V675H474V543H313V424Q337
432 369 436T432 441Q488 441 533 427T610 384T659 316T676 224Z" />
<glyph unicode="&#x403;" glyph-name="uni0403" horiz-adv-x="430" d="M216 542V0H60V675H420V542H216ZM160 710L137 792L361 867L393 761L160 710Z" />
<glyph unicode="&#x404;" glyph-name="uni0404" horiz-adv-x="572" d="M529 21Q494 8 450 1T362 -7Q276 -7 213 17T111 85T52 190T33 325Q33 404 56 470T124 584T235 657T382 682Q418 682 456 677T525 663L503 521Q477 531 444 536T376 542Q342 542 314 533T265
506T231 463T210 407H438V278H210Q219 208 263 171T387 134Q417 134 450 141T507 159L529 21Z" />
<glyph unicode="&#x405;" glyph-name="uni0405" horiz-adv-x="502" d="M475 205Q475 157 458 118T405 49T320 4T206 -12Q162 -12 122 -8T46 6L60 154Q95 140 135 132T214 124Q257 124 282 140T308 189Q308 215 290 232T239 263T168 295T101 334T52 392T33 480Q33
526 51 564T103 630T188 672T300 687Q328 687 361 684T423 674L409 538Q352 558 290 558Q243 558 220 542T197 495Q197 471 215 455T266 424T338 392T407 352T456 293T475 205Z" />
<glyph unicode="&#x406;" glyph-name="uni0406" horiz-adv-x="276" d="M60 0V675H216V0H60Z" />
<glyph unicode="&#x407;" glyph-name="uni0407" horiz-adv-x="276" d="M60 0V675H216V0H60ZM575 791Q575 759 552 736T496 712Q464 712 441 735T417 791Q417 824 440 847T496 870Q529 870 552 847T575 791ZM371 791Q371 759 348 736T292 712Q259 712 236 735T213
791Q213 824 236 847T292 870Q324 870 347 847T371 791Z" />
<glyph unicode="&#x408;" glyph-name="uni0408" horiz-adv-x="349" d="M290 201Q290 157 280 119T246 52T184 7T91 -10Q63 -10 42 -8T0 -2V130Q11 126 28 124T64 121Q99 121 117 140T135 202V675H290V201Z" />
<glyph unicode="&#x409;" glyph-name="uni0409" horiz-adv-x="925" d="M413 542H247Q246 423 240 336T220 189T189 92T145 33T88 3T15 -9L-6 134Q16 137 29 144T54 170T73 223T86 316T93 462T96 675H569V442Q576 443 592 443T629 444Q763 444 831 390T900 232Q900
176 879 132T818 57T725 12T610 -4Q570 -4 527 -3T448 -1T413 0V542ZM569 126Q591 125 620 125Q734 125 734 223Q734 268 707 292T620 316Q604 316 590 316T569 314V126Z" />
<glyph unicode="&#x40a;" glyph-name="uni040A" horiz-adv-x="963" d="M452 281H216V0H60V675H216V416H452V675H607V442Q614 443 631 443T668 444Q735 444 785 430T870 389T922 323T939 232Q939 176 917 132T856 57T763 12T649 -4Q618 -4 584 -4T522 -2T476 -1T452
0V281ZM773 223Q773 245 767 262T746 291T710 309T658 316Q642 316 628 316T607 314V126Q613 126 626 126T658 125Q716 125 744 149T773 223Z" />
<glyph unicode="&#x40b;" glyph-name="uni040B" horiz-adv-x="713" d="M511 0V213Q511 239 506 258T489 291T458 311T411 318Q385 318 359 313T313 299V0H157V543H14V675H474V543H313V422Q337 431 371 436T444 441Q503 441 546 427T615 385T654 319T667 234V0H511Z" />
<glyph unicode="&#x40c;" glyph-name="uni040C" horiz-adv-x="605" d="M399 0L216 317V0H60V675H216V377L401 675H588L366 351L601 0H399ZM258 710L235 792L459 867L491 761L258 710Z" />
<glyph unicode="&#x40d;" glyph-name="uni040D" horiz-adv-x="678" d="M462 0V298Q462 336 464 377T470 455H468Q448 411 426 368L226 0H60V675H216V376Q216 340 214 301T208 225H210Q220 248 230 269T251 310L449 675H618V0H462ZM369 710L136 761L168 867L392
792L369 710Z" />
<glyph unicode="&#x40e;" glyph-name="uni040E" horiz-adv-x="566" d="M379 186Q356 129 330 90T276 29T216 -2T148 -12Q129 -12 105 -8T60 3L82 136Q99 129 114 126T145 123Q160 123 171 125T191 135T209 154T226 187L8 675H180L261 480Q272 455 280 431T302
365H303Q307 377 311 391T324 431T335 466T342 487L407 675H570L379 186ZM488 864Q488 829 475 802T436 756T372 726T285 716Q186 716 136 754T86 864H221Q221 831 237 815T289 799Q320 799 335 815T351 864H488Z" />
<glyph unicode="&#x40f;" glyph-name="uni040F" horiz-adv-x="660" d="M398 0V-142H262V0H60V675H216V134H445V675H600V0H398Z" />
<glyph unicode="&#x410;" glyph-name="uni0410" horiz-adv-x="633" d="M336 436Q328 460 322 485T310 540H308Q304 515 298 489T283 436L227 256H392L336 436ZM466 0L425 133H193L152 0H-3L212 675H418L636 0H466Z" />
<glyph unicode="&#x411;" glyph-name="uni0411" horiz-adv-x="577" d="M547 218Q547 171 530 131T476 60T385 12T256 -5Q235 -5 211 -5T160 -3T108 -1T60 2V675H497V544H216V414H293Q352 414 398 403T478 367T529 306T547 218ZM379 212Q379 231 373 246T353 271T319
288T270 294H216V128Q227 127 241 126T273 125Q323 125 351 148T379 212Z" />
<glyph unicode="&#x412;" glyph-name="uni0412" horiz-adv-x="588" d="M389 206Q389 244 361 265T271 287Q235 287 216 286V125Q225 124 244 123T280 122Q334 122 361 144T389 206ZM371 482Q371 518 347 537T273 557Q256 557 216 554V403Q229 402 266 402Q317
402 344 422T371 482ZM558 212Q558 169 541 131T488 63T399 15T276 -2Q261 -2 189 -1T60 0V674Q89 676 152 678T282 680Q407 680 471 636T535 504Q535 458 512 419T446 361V360Q498 344 528 305T558 212Z" />
<glyph unicode="&#x413;" glyph-name="uni0413" horiz-adv-x="430" d="M216 542V0H60V675H420V542H216Z" />
<glyph unicode="&#x414;" glyph-name="uni0414" horiz-adv-x="698" d="M680 -142H545V0H140V-142H5V134H58Q70 151 78 169T93 214T105 278T113 371T117 499T119 675H613V134H680V-142ZM457 544H271Q271 446 268 378T257 265T240 189T213 134H457V544Z" />
<glyph unicode="&#x415;" glyph-name="uni0415" horiz-adv-x="508" d="M60 0V675H457V544H216V410H436V283H216V134H457V0H60Z" />
<glyph unicode="&#x416;" glyph-name="uni0416" horiz-adv-x="876" d="M360 675H515V377L679 675H859L662 351L873 0H677L515 317V0H360V317L197 0H5L213 345L14 675H197L360 377V675Z" />
<glyph unicode="&#x417;" glyph-name="uni0417" horiz-adv-x="524" d="M491 211Q491 162 471 121T412 51T321 7T201 -9Q153 -9 105 -4T32 9L46 144Q80 134 121 127T207 120Q238 120 260 125T296 142T317 168T324 201Q324 223 315 238T287 264T238 279T168 284H109V405H172Q194
405 217 408T261 421T294 447T307 486Q307 501 302 513T285 536T251 551T201 557Q163 557 128 551T58 532L45 656Q87 669 135 676T233 684Q292 684 338 672T412 637T455 583T470 512Q470 461 442 423T367 367V366Q393 360 416 348T456 315T482 269T491 211Z" />
<glyph unicode="&#x418;" glyph-name="uni0418" horiz-adv-x="678" d="M462 0V298Q462 336 464 377T470 455H468Q448 411 426 368L226 0H60V675H216V376Q216 340 214 301T208 225H210Q220 248 230 269T251 310L449 675H618V0H462Z" />
<glyph unicode="&#x419;" glyph-name="uni0419" horiz-adv-x="678" d="M462 0V298Q462 336 464 377T470 455H468Q448 411 426 368L226 0H60V675H216V376Q216 340 214 301T208 225H210Q220 248 230 269T251 310L449 675H618V0H462ZM546 864Q546 829 533 802T494
756T430 726T343 716Q244 716 194 754T144 864H279Q279 831 295 815T347 799Q378 799 393 815T409 864H546Z" />
<glyph unicode="&#x41a;" glyph-name="uni041A" horiz-adv-x="605" d="M399 0L216 317V0H60V675H216V377L401 675H588L366 351L601 0H399Z" />
<glyph unicode="&#x41b;" glyph-name="uni041B" horiz-adv-x="633" d="M418 0V542H247Q246 423 240 336T220 189T189 92T145 33T88 3T15 -9L-6 134Q16 137 30 145T56 171T76 225T90 319T98 465T101 675H573V0H418Z" />
<glyph unicode="&#x41c;" glyph-name="uni041C" horiz-adv-x="898" d="M718 0L686 290Q680 348 676 411T672 527H669Q658 472 645 419T615 309L514 0H369L271 302Q255 356 238 420T213 527H211Q211 477 208 413T198 289L170 0H21L98 675H315L413 375Q424 340 433
301T448 227H450Q458 272 466 309T484 375L581 675H799L877 0H718Z" />
<glyph unicode="&#x41d;" glyph-name="uni041D" horiz-adv-x="674" d="M458 0V281H216V0H60V675H216V416H458V675H614V0H458Z" />
<glyph unicode="&#x41e;" glyph-name="uni041E" horiz-adv-x="715" d="M518 336Q518 437 478 491T358 546Q322 546 293 533T242 493T210 428T198 339Q198 238 238 184T358 129Q394 129 423 142T474 182T506 247T518 336ZM684 352Q684 266 658 198T585 82T477 11T347
-13Q269 -13 210 9T111 74T51 179T31 323Q31 409 57 477T131 593T239 664T369 688Q446 688 505 666T604 601T664 496T684 352Z" />
<glyph unicode="&#x41f;" glyph-name="uni041F" horiz-adv-x="666" d="M451 0V542H216V0H60V675H606V0H451Z" />
<glyph unicode="&#x420;" glyph-name="uni0420" horiz-adv-x="555" d="M538 458Q538 406 520 361T466 281T378 227T257 207Q236 207 216 208V0H60V675Q160 680 265 680Q398 680 468 622T538 458ZM378 443Q378 493 349 522T259 552Q240 552 216 550V338Q239 334
265 334Q318 334 348 363T378 443Z" />
<glyph unicode="&#x421;" glyph-name="uni0421" horiz-adv-x="555" d="M517 23Q480 8 436 0T348 -9Q259 -9 197 18T99 92T48 196T32 317Q32 400 55 468T122 584T230 658T374 684Q409 684 446 678T514 662L491 517Q430 542 369 542Q289 542 246 486T203 336Q203
237 245 186T374 135Q402 135 435 142T495 161L517 23Z" />
<glyph unicode="&#x422;" glyph-name="uni0422" horiz-adv-x="507" d="M331 542V0H176V542H14V675H493V542H331Z" />
<glyph unicode="&#x423;" glyph-name="uni0423" horiz-adv-x="566" d="M379 186Q356 129 330 90T276 29T216 -2T148 -12Q129 -12 105 -8T60 3L82 136Q99 129 114 126T145 123Q160 123 171 125T191 135T209 154T226 187L8 675H180L261 480Q272 455 280 431T302
365H303Q307 377 311 391T324 431T335 466T342 487L407 675H570L379 186Z" />
<glyph unicode="&#x424;" glyph-name="uni0424" horiz-adv-x="838" d="M811 345Q811 275 788 218T722 118T621 50T493 16V-58H345V13Q264 17 204 41T105 106T47 204T27 332Q27 400 51 457T117 557T217 625T345 659V732H493V662Q564 659 623 638T723 578T788 480T811
345ZM651 339Q651 380 642 412T613 469T564 508T493 530V148Q527 153 555 167T605 204T638 261T651 339ZM345 529Q310 524 281 510T232 472T199 416T187 342Q187 301 196 268T224 209T272 167T345 146V529Z" />
<glyph unicode="&#x425;" glyph-name="uni0425" horiz-adv-x="648" d="M446 0L318 228L190 0H6L217 344L18 675H198L321 456L442 675H619L424 343L642 0H446Z" />
<glyph unicode="&#x426;" glyph-name="uni0426" horiz-adv-x="700" d="M683 -142H548V0H60V675H216V134H449V675H604V134H683V-142Z" />
<glyph unicode="&#x427;" glyph-name="uni0427" horiz-adv-x="627" d="M411 247Q380 240 347 236T283 232Q211 232 163 249T87 296T48 368T37 462V675H193V484Q193 451 198 428T217 390T253 368T309 361Q336 361 361 364T411 376V675H567V0H411V247Z" />
<glyph unicode="&#x428;" glyph-name="uni0428" horiz-adv-x="960" d="M60 0V675H214V134H404V675H556V134H746V675H900V0H60Z" />
<glyph unicode="&#x429;" glyph-name="uni0429" horiz-adv-x="996" d="M979 -142H844V0H60V675H214V134H404V675H556V134H746V675H900V134H979V-142Z" />
<glyph unicode="&#x42a;" glyph-name="uni042A" horiz-adv-x="671" d="M313 442Q325 443 342 443T375 444Q443 444 494 430T579 389T629 323T646 232Q646 178 626 134T566 59T472 11T355 -5Q331 -5 304 -5T250 -3T199 -1T157 2V546H14V675H313V442ZM480 223Q480
246 473 263T452 292T416 310T365 316Q352 316 338 316T313 314V126Q322 126 336 126T364 125Q394 125 415 131T451 149T473 179T480 223Z" />
<glyph unicode="&#x42b;" glyph-name="uni042B" horiz-adv-x="854" d="M552 232Q552 178 531 134T470 59T376 11T258 -5Q234 -5 207 -5T152 -3T102 -1T60 2V675H216V442Q228 443 245 443T278 444Q346 444 397 430T483 389T535 323T552 232ZM387 223Q387 245 380
262T358 292T321 310T269 316Q257 316 242 316T216 314V126Q225 126 239 126T268 125Q328 125 357 149T387 223ZM638 0V675H794V0H638Z" />
<glyph unicode="&#x42c;" glyph-name="uni042C" horiz-adv-x="577" d="M552 232Q552 178 531 134T470 59T376 11T258 -5Q234 -5 207 -5T152 -3T102 -1T60 2V675H216V442Q228 443 245 443T278 444Q346 444 397 430T483 389T535 323T552 232ZM387 223Q387 245 380
262T358 292T321 310T269 316Q257 316 242 316T216 314V126Q225 126 239 126T268 125Q328 125 357 149T387 223Z" />
<glyph unicode="&#x42d;" glyph-name="uni042D" horiz-adv-x="548" d="M521 352Q521 272 499 205T432 90T326 17T186 -9Q140 -9 100 -4T24 13L48 157Q72 146 108 139T185 132Q214 132 243 142T295 172T330 219T345 278H102V407H344Q330 475 286 509T168 544Q139
544 108 538T52 522L30 658Q69 670 111 676T198 683Q278 683 339 660T440 591T501 486T521 352Z" />
<glyph unicode="&#x42e;" glyph-name="uni042E" horiz-adv-x="960" d="M930 352Q930 268 907 200T840 85T737 12T609 -13Q538 -13 485 6T396 62T340 154T315 282H216V0H60V675H216V411H320Q329 473 355 524T422 612T516 668T631 688Q706 688 762 667T855 603T911
497T930 352ZM764 336Q764 440 728 493T620 546Q586 546 560 533T514 494T486 429T476 339Q476 288 484 249T511 183T556 143T620 129Q653 129 680 142T725 181T754 246T764 336Z" />
<glyph unicode="&#x42f;" glyph-name="uni042F" horiz-adv-x="592" d="M377 0V252H329L195 0H9L180 282Q121 299 88 344T54 455Q54 507 73 549T129 620T222 665T349 681Q393 681 441 678T532 669V0H377ZM377 552Q366 554 353 554T325 555Q272 555 244 532T216
466Q216 420 244 397T329 374H377V552Z" />
<glyph unicode="&#x430;" glyph-name="uni0430" horiz-adv-x="526" d="M312 214Q273 214 247 210T206 197T185 178T178 152Q178 132 191 119T227 105Q245 105 261 113T288 134T306 164T312 199V214ZM326 0Q326 50 330 75H329Q311 36 270 13T177 -11Q142 -11 115
0T70 31T42 78T32 136Q32 182 52 215T110 270T198 301T312 311V327Q312 362 294 377T234 393Q201 393 160 384T83 361L60 475Q104 490 155 499T251 509Q312 509 353 498T419 464T454 410T465 334V118Q465 88 466 58T469 0H326Z" />
<glyph unicode="&#x431;" glyph-name="uni0431" horiz-adv-x="566" d="M537 270Q537 205 517 154T463 66T380 9T274 -11Q215 -11 171 7T97 63T53 157T39 291V298Q39 364 45 418T62 516T90 592T128 646Q156 673 188 688T254 712T322 722T387 726T443 731T484 744V615Q459
602 423 599T350 594T279 586T224 558Q217 550 210 540T197 513T186 476T178 424H179Q188 439 201 453T234 478T278 496T334 503Q378 503 415 488T479 444T522 371T537 270ZM379 250Q379 313 359 344T292 376Q272 376 255 368T226 345T206 306T198 254Q198 187
220 154T288 120Q309 120 326 129T354 154T372 195T379 250Z" />
<glyph unicode="&#x432;" glyph-name="uni0432" horiz-adv-x="538" d="M60 495Q105 500 160 504T263 508Q329 508 372 498T440 469T475 427T486 378Q486 335 465 309T407 271V270Q448 266 478 238T509 161Q509 124 493 93T444 38T364 2T254 -11Q197 -11 146 -6T60
8V495ZM204 299H256Q295 299 316 312T338 350Q338 373 320 387T254 402Q243 402 229 401T204 398V299ZM204 102Q218 99 235 98T266 96Q308 96 328 112T349 154Q349 180 326 195T258 210H204V102Z" />
<glyph unicode="&#x433;" glyph-name="uni0433" horiz-adv-x="377" d="M211 372V0H59V497H362V372H211Z" />
<glyph unicode="&#x434;" glyph-name="uni0434" horiz-adv-x="588" d="M572 -135H440V0H143V-135H12V123H55Q70 147 79 176T95 247T103 349T106 497H513V123H572V-135ZM361 376H243Q243 325 242 288T236 221T225 167T207 123H361V376Z" />
<glyph unicode="&#x435;" glyph-name="uni0435" horiz-adv-x="519" d="M336 308Q337 352 318 374T265 397Q232 397 210 373T184 308H336ZM485 292Q485 250 480 207H184Q186 158 214 132T301 106Q375 106 453 132L468 20Q382 -11 284 -11Q159 -11 95 51T30 243Q30
299 46 347T94 432T171 488T273 508Q327 508 367 492T434 447T472 378T485 292Z" />
<glyph unicode="&#x436;" glyph-name="uni0436" horiz-adv-x="792" d="M320 497H472V291L600 497H774L615 269L783 0H597L472 233V0H320V233L194 0H9L177 267L18 497H194L320 291V497Z" />
<glyph unicode="&#x437;" glyph-name="uni0437" horiz-adv-x="454" d="M430 161Q430 124 413 92T364 37T284 1T176 -12Q133 -12 98 -7T27 8L49 123Q81 109 116 102T186 94Q225 94 246 110T268 152Q268 177 245 189T174 202H104V303H172Q213 303 234 315T255 352Q255
364 251 373T237 390T212 400T175 404Q145 404 113 397T53 378L35 481Q72 494 116 501T203 509Q258 509 297 499T361 470T397 428T409 378Q409 337 387 310T326 271V270Q348 267 366 259T399 237T422 204T430 161Z" />
<glyph unicode="&#x438;" glyph-name="uni0438" horiz-adv-x="595" d="M383 0V151Q383 194 387 234T396 311H394Q385 289 374 268T351 226L221 0H60V497H212V340Q212 298 209 267T200 188H202Q213 211 223 232T245 271L375 497H535V0H383Z" />
<glyph unicode="&#x439;" glyph-name="uni0439" horiz-adv-x="595" d="M383 0V151Q383 194 387 234T396 311H394Q385 289 374 268T351 226L221 0H60V497H212V340Q212 298 209 267T200 188H202Q213 211 223 232T245 271L375 497H535V0H383ZM499 716Q499 679 486
650T447 600T383 568T296 557Q197 557 147 598T97 716H231Q231 679 248 661T300 642Q331 642 347 660T364 716H499Z" />
<glyph unicode="&#x43a;" glyph-name="uni043A" horiz-adv-x="542" d="M344 0L211 230V0H59V497H211V289L344 497H523L358 272L531 0H344Z" />
<glyph unicode="&#x43b;" glyph-name="uni043B" horiz-adv-x="535" d="M323 0V375H225Q223 263 209 190T169 74T104 12T11 -9L-4 121Q12 123 24 129T47 151T64 191T76 256T83 355T86 497H475V0H323Z" />
<glyph unicode="&#x43c;" glyph-name="uni043C" horiz-adv-x="780" d="M603 0L571 239Q568 262 560 346H559Q554 316 548 291T534 234L467 0H307L243 217Q235 244 228 276T212 346H211Q205 280 198 229L168 0H21L103 497H302L373 262Q379 244 384 221T394 169H395Q400
196 405 219T417 263L487 497H678L760 0H603Z" />
<glyph unicode="&#x43d;" glyph-name="uni043D" horiz-adv-x="572" d="M360 0V189H212V0H60V497H212V316H360V497H512V0H360Z" />
<glyph unicode="&#x43e;" glyph-name="uni043E" horiz-adv-x="558" d="M371 248Q371 311 348 344T280 378Q259 378 242 370T212 346T194 305T187 249Q187 186 210 153T278 120Q321 120 346 152T371 248ZM529 262Q529 203 512 153T461 67T379 10T269 -11Q214 -11
170 3T94 48T46 125T29 235Q29 294 46 344T97 430T179 487T289 508Q402 508 465 447T529 262Z" />
<glyph unicode="&#x43f;" glyph-name="uni043F" horiz-adv-x="568" d="M356 0V375H212V0H60V497H508V0H356Z" />
<glyph unicode="&#x440;" glyph-name="uni0440" horiz-adv-x="559" d="M367 260Q367 382 299 382Q280 382 264 372T236 342T218 296T211 239V117Q235 111 264 111Q287 111 305 119T338 144T359 191T367 260ZM528 276Q528 212 512 160T462 70T379 12T262 -8Q232
-8 211 -4V-237H59V497H199Q199 480 198 462T195 426H197Q218 466 255 487T347 508Q434 508 481 447T528 276Z" />
<glyph unicode="&#x441;" glyph-name="uni0441" horiz-adv-x="420" d="M398 16Q339 -11 257 -11Q145 -11 87 51T29 233Q29 290 44 340T91 428T169 487T279 508Q346 508 398 490L359 355Q320 377 277 377Q235 377 212 343T189 250Q189 188 213 155T288 122Q333
122 366 140L398 16Z" />
<glyph unicode="&#x442;" glyph-name="uni0442" horiz-adv-x="413" d="M282 371V0H130V371H10V497H402V371H282Z" />
<glyph unicode="&#x443;" glyph-name="uni0443" horiz-adv-x="566" d="M91 -90Q125 -102 164 -109T243 -117Q303 -117 331 -91T359 -13V4Q359 19 361 40T369 81H367Q345 42 305 18T206 -7Q165 -7 136 5T90 39T66 88T58 149V497H211V183Q211 153 220 137T257 120Q277
120 295 131T326 162T347 206T355 258V497H508V3Q508 -63 489 -109T433 -186T346 -231T231 -245Q193 -245 154 -241T79 -228L91 -90Z" />
<glyph unicode="&#x444;" glyph-name="uni0444" horiz-adv-x="759" d="M303 -237V-11Q163 -4 95 60T27 240Q27 292 44 337T97 418T184 475T303 506V675H455V508Q595 502 663 438T732 258Q732 205 714 160T661 80T574 22T455 -9V-237H303ZM455 119Q513 126 545
159T577 246Q577 301 548 335T455 378V119ZM304 378Q246 371 214 337T182 250Q182 196 211 161T304 119V378Z" />
<glyph unicode="&#x445;" glyph-name="uni0445" horiz-adv-x="534" d="M340 0L263 152L186 0H5L169 252L15 497H196L274 348L353 497H521L376 252L530 0H340Z" />
<glyph unicode="&#x446;" glyph-name="uni0446" horiz-adv-x="587" d="M572 -135H441V0H60V497H212V123H355V497H507V123H572V-135Z" />
<glyph unicode="&#x447;" glyph-name="uni0447" horiz-adv-x="537" d="M325 0V168Q304 159 276 155T217 150Q169 150 134 160T76 191T42 240T31 307V497H183V336Q183 298 198 281T246 264Q266 264 286 268T325 282V497H477V0H325Z" />
<glyph unicode="&#x448;" glyph-name="uni0448" horiz-adv-x="838" d="M60 0V497H212V123H344V497H494V123H626V497H778V0H60Z" />
<glyph unicode="&#x449;" glyph-name="uni0449" horiz-adv-x="858" d="M843 -135H711V0H60V497H212V123H344V497H494V123H626V497H778V123H843V-135Z" />
<glyph unicode="&#x44a;" glyph-name="uni044A" horiz-adv-x="586" d="M573 188Q573 145 557 108T507 45T425 4T314 -11Q292 -11 267 -10T216 -6T167 0T127 7V372H8V497H280V354Q295 356 314 357T358 358Q407 358 446 347T514 315T558 261T573 188ZM415 174Q415
188 410 200T395 221T368 234T331 239Q318 239 305 238T280 235V116Q290 113 305 111T337 109Q373 109 394 126T415 174Z" />
<glyph unicode="&#x44b;" glyph-name="uni044B" horiz-adv-x="778" d="M506 188Q506 145 490 108T440 45T358 4T247 -11Q225 -11 200 -10T149 -6T100 0T60 7V497H212V354Q228 356 247 357T291 358Q340 358 379 347T447 314T491 260T506 188ZM347 174Q347 188 342
200T327 221T300 234T263 239Q251 239 239 238T212 235V116Q222 113 237 111T269 109Q306 109 326 126T347 174ZM565 0V497H717V0H565Z" />
<glyph unicode="&#x44c;" glyph-name="uni044C" horiz-adv-x="519" d="M506 188Q506 145 490 108T440 45T358 4T247 -11Q225 -11 200 -10T149 -6T100 0T60 7V497H212V354Q228 356 247 357T291 358Q340 358 379 347T447 314T491 260T506 188ZM347 174Q347 188 342
200T327 221T300 234T263 239Q251 239 239 238T212 235V116Q222 113 237 111T269 109Q306 109 326 126T347 174Z" />
<glyph unicode="&#x44d;" glyph-name="uni044D" horiz-adv-x="455" d="M427 249Q427 194 411 147T363 64T282 9T170 -11Q133 -11 95 -6T29 6L52 120Q77 112 106 108T163 103Q189 103 208 110T241 130T262 159T273 198H100V301H272Q265 346 235 369T157 392Q129
392 104 389T55 379L32 489Q64 498 100 503T173 508Q234 508 281 492T361 443T410 362T427 249Z" />
<glyph unicode="&#x44e;" glyph-name="uni044E" horiz-adv-x="781" d="M211 0H59V497H211V311H280Q289 355 308 391T358 453T430 493T520 508Q573 508 616 494T689 449T735 372T752 262Q752 203 735 154T686 67T606 10T499 -11Q400 -11 343 40T276 193H211V0ZM594
248Q594 311 572 344T510 378Q470 378 448 345T425 249Q425 186 447 153T509 120Q549 120 571 152T594 248Z" />
<glyph unicode="&#x44f;" glyph-name="uni044F" horiz-adv-x="533" d="M321 0V173H277L181 0H9L101 155Q111 172 120 186T135 209Q91 222 64 254T37 331Q37 410 100 459T285 508Q330 508 378 505T473 493V0H321ZM321 400Q311 402 298 402T273 403Q232 403 214
385T196 341Q196 314 215 297T274 280H321V400Z" />
<glyph unicode="&#x450;" glyph-name="uni0450" horiz-adv-x="519" d="M336 308Q337 352 318 374T265 397Q232 397 210 373T184 308H336ZM485 292Q485 250 480 207H184Q186 158 214 132T301 106Q375 106 453 132L468 20Q382 -11 284 -11Q159 -11 95 51T30 243Q30
299 46 347T94 432T171 488T273 508Q327 508 367 492T434 447T472 378T485 292ZM291 551L114 680L194 770L356 624L291 551Z" />
<glyph unicode="&#x451;" glyph-name="uni0451" horiz-adv-x="519" d="M336 308Q337 352 318 374T265 397Q232 397 210 373T184 308H336ZM485 292Q485 250 480 207H184Q186 158 214 132T301 106Q375 106 453 132L468 20Q382 -11 284 -11Q159 -11 95 51T30 243Q30
299 46 347T94 432T171 488T273 508Q327 508 367 492T434 447T472 378T485 292ZM244 645Q244 612 221 589T165 566Q133 566 110 589T86 645Q86 677 109 700T165 724Q198 724 221 701T244 645ZM453 645Q453 612 430 589T374 566Q342 566 319 589T295 645Q295 677
318 700T374 724Q407 724 430 701T453 645Z" />
<glyph unicode="&#x452;" glyph-name="uni0452" horiz-adv-x="568" d="M275 -107Q315 -96 333 -78Q344 -67 350 -55T361 -19T367 43T369 145V161Q369 232 366 275T355 339T338 368T310 376Q293 376 277 366T248 338T227 297T219 247V0H67V550H0V667H67V730H219V667H327V550H219V518Q219
494 217 471T211 426H212Q230 460 270 482T358 504Q404 504 435 489T485 438T512 345T521 196V175Q521 95 517 40T504 -53T482 -114T447 -160Q424 -183 391 -199T311 -227L275 -107Z" />
<glyph unicode="&#x453;" glyph-name="uni0453" horiz-adv-x="377" d="M211 372V0H59V497H362V372H211ZM172 551L107 623L269 770L349 682L172 551Z" />
<glyph unicode="&#x454;" glyph-name="uni0454" horiz-adv-x="436" d="M410 11Q381 0 347 -5T279 -11Q217 -11 171 5T93 54T46 134T30 244Q30 303 47 352T99 436T183 489T298 508Q327 508 354 504T406 492L384 374Q361 383 338 388T294 393Q270 393 251 387T219
368T196 339T183 300H344V199H184Q188 177 197 160T221 130T256 111T302 104Q324 104 345 107T388 119L410 11Z" />
<glyph unicode="&#x455;" glyph-name="uni0455" horiz-adv-x="411" d="M379 157Q379 121 365 91T323 37T253 2T156 -11Q92 -11 44 1L51 126Q103 106 161 106Q190 106 205 115T220 143Q220 159 208 169T176 187T128 208T80 237T47 280T34 346Q34 380 47 409T87
461T156 496T252 509Q301 509 341 500L335 382Q294 395 248 395Q220 395 206 386T191 360Q191 345 203 335T234 317T283 295T332 265T366 222T379 157Z" />
<glyph unicode="&#x456;" glyph-name="uni0456" horiz-adv-x="271" d="M59 0V497H211V0H59ZM229 645Q229 627 222 611T202 582T172 562T135 555Q116 555 99 562T69 581T49 610T42 645Q42 663 49 679T69 708T99 728T135 735Q154 735 171 728T202 709T222 680T229 645Z" />
<glyph unicode="&#x457;" glyph-name="uni0457" horiz-adv-x="271" d="M59 0V497H211V0H59ZM566 645Q566 612 543 589T487 566Q455 566 432 589T408 645Q408 677 431 700T487 724Q520 724 543 701T566 645ZM374 645Q374 612 351 589T295 566Q262 566 239 588T216
645Q216 677 239 700T295 724Q328 724 351 701T374 645Z" />
<glyph unicode="&#x458;" glyph-name="uni0458" horiz-adv-x="273" d="M214 -25Q214 -77 203 -117T167 -185T104 -229T12 -244Q-12 -244 -33 -241T-65 -236L-56 -107Q-49 -109 -31 -112T8 -116Q36 -116 49 -99T62 -42V497H214V-25ZM231 645Q231 627 224 611T204
582T174 562T138 555Q119 555 102 562T71 581T51 610T44 645Q44 663 51 679T72 708T102 728T138 735Q157 735 174 728T204 709T224 680T231 645Z" />
<glyph unicode="&#x459;" glyph-name="uni0459" horiz-adv-x="781" d="M323 375H225Q223 263 209 190T169 74T104 12T11 -9L-4 121Q13 124 24 129T44 147T62 184T75 250T83 352T86 497H475V354Q491 356 511 357T553 358Q602 358 641 347T709 315T753 261T768 188Q768
146 753 110T705 47T624 5T510 -11Q488 -11 463 -10T412 -6T363 0T323 7V375ZM475 116Q486 112 501 111T532 109Q569 109 589 127T610 174Q610 203 590 221T526 239Q512 239 500 238T475 235V116Z" />
<glyph unicode="&#x45a;" glyph-name="uni045A" horiz-adv-x="813" d="M507 354Q523 356 543 357T585 358Q634 358 673 347T741 315T785 261T800 188Q800 146 785 110T737 47T656 5T542 -11Q520 -11 495 -10T444 -6T395 0T355 7V189H212V0H60V497H212V316H355V497H507V354ZM507
116Q518 112 533 111T564 109Q601 109 621 127T642 174Q642 203 622 221T558 239Q544 239 532 238T507 235V116Z" />
<glyph unicode="&#x45b;" glyph-name="uni045B" horiz-adv-x="576" d="M364 0V312Q364 342 354 359T318 376Q298 376 280 365T249 334T227 289T219 236V0H67V550H0V667H67V730H219V667H328V550H219V514Q219 489 217 466T210 425H212Q234 460 273 482T368 504Q410
504 438 492T484 458T508 408T516 347V0H364Z" />
<glyph unicode="&#x45c;" glyph-name="uni045C" horiz-adv-x="542" d="M344 0L211 230V0H59V497H211V289L344 497H523L358 272L531 0H344ZM273 551L208 623L370 770L450 682L273 551Z" />
<glyph unicode="&#x45d;" glyph-name="uni045D" horiz-adv-x="595" d="M383 0V151Q383 194 387 234T396 311H394Q385 289 374 268T351 226L221 0H60V497H212V340Q212 298 209 267T200 188H202Q213 211 223 232T245 271L375 497H535V0H383ZM316 551L139 680L219
770L381 624L316 551Z" />
<glyph unicode="&#x45e;" glyph-name="uni045E" horiz-adv-x="566" d="M91 -90Q125 -102 164 -109T243 -117Q303 -117 331 -91T359 -13V4Q359 19 361 40T369 81H367Q345 42 305 18T206 -7Q165 -7 136 5T90 39T66 88T58 149V497H211V183Q211 153 220 137T257 120Q277
120 295 131T326 162T347 206T355 258V497H508V3Q508 -63 489 -109T433 -186T346 -231T231 -245Q193 -245 154 -241T79 -228L91 -90ZM484 716Q484 679 471 650T432 600T368 568T281 557Q182 557 132 598T82 716H216Q216 679 233 661T285 642Q316 642 332 660T349
716H484Z" />
<glyph unicode="&#x45f;" glyph-name="uni045F" horiz-adv-x="568" d="M350 0V-135H218V0H60V497H212V123H356V497H508V0H350Z" />
<glyph unicode="&#x462;" glyph-name="uni0462" horiz-adv-x="672" d="M14 619H146V708H301V619H503V492H301V416H391Q448 416 494 403T573 364T623 303T641 222Q641 165 621 122T562 51T470 9T350 -5Q324 -5 296 -5T240 -3T189 -1T146 2V492H14V619ZM478 209Q478
229 471 244T450 270T415 286T365 292H301V125Q304 125 328 124T369 123Q421 123 449 145T478 209Z" />
<glyph unicode="&#x463;" glyph-name="uni0463" horiz-adv-x="544" d="M530 171Q530 133 515 100T467 42T386 3T272 -11Q250 -11 225 -10T174 -7T125 -1T85 5V385H9V497H85V644L237 685V497H368V385H237V323Q253 325 273 326T315 327Q364 327 403 317T471 287T515
238T530 171ZM372 158Q372 171 367 182T352 202T326 214T288 219Q276 219 262 218T237 216V104Q247 101 262 100T294 98Q331 98 351 114T372 158Z" />
<glyph unicode="&#x472;" glyph-name="uni0472" horiz-adv-x="715" d="M684 349Q684 263 658 195T585 80T477 11T347 -13Q269 -13 210 9T111 76T51 183T31 326Q31 412 57 480T131 595T239 664T369 688Q446 688 505 666T604 600T664 493T684 349ZM516 404Q504 475
464 512T358 550Q328 550 302 541T255 514T220 468T199 404H516ZM196 283Q201 246 213 217T245 168T294 136T358 125Q387 125 413 134T460 162T497 211T517 283H196Z" />
<glyph unicode="&#x473;" glyph-name="uni0473" horiz-adv-x="558" d="M529 262Q529 203 512 153T461 67T379 10T269 -11Q214 -11 170 3T94 48T46 125T29 235Q29 294 46 344T97 430T179 487T289 508Q345 508 389 494T464 449T512 372T529 262ZM375 300Q370 346
346 370T279 395Q259 395 243 389T214 369T194 339T183 300H375ZM183 201Q187 153 212 128T279 103Q299 103 315 109T344 128T364 159T375 201H183Z" />
<glyph unicode="&#x474;" glyph-name="uni0474" horiz-adv-x="634" d="M227 0L-2 675H166L286 301Q295 274 305 240T322 176H323Q327 198 333 226T348 286L396 473Q411 532 426 571T464 635T519 669T599 679Q625 679 651 675V543Q634 545 617 545Q603 545 594
541T577 525T559 491T539 431L415 0H227Z" />
<glyph unicode="&#x475;" glyph-name="uni0475" horiz-adv-x="527" d="M535 376Q530 376 524 376T510 377Q498 377 490 374T476 364T465 343T453 309L364 0H154L3 497H167L226 298Q236 261 245 219T260 135H264Q270 172 277 205T290 267L314 359Q323 398 335 425T367
471T416 498T488 507Q499 507 511 506T535 503V376Z" />
<glyph unicode="&#x490;" glyph-name="uni0490" horiz-adv-x="430" d="M216 542V0H60V675H284V793H420V542H216Z" />
<glyph unicode="&#x491;" glyph-name="uni0491" horiz-adv-x="377" d="M212 372V0H60V497H231V610H362V372H212Z" />
<glyph unicode="&#x492;" glyph-name="uni0492" horiz-adv-x="456" d="M74 675H436V542H229V399H377V270H229V0H74V270H5V399H74V675Z" />
<glyph unicode="&#x493;" glyph-name="uni0493" horiz-adv-x="387" d="M69 497H372V372H221V288H314V167H221V0H69V167H12V288H69V497Z" />
<glyph unicode="&#x496;" glyph-name="uni0496" horiz-adv-x="896" d="M360 675H515V377L679 675H859L662 351L800 134H887V-142H751V0H677L515 317V0H360V317L197 0H5L213 345L14 675H197L360 377V675Z" />
<glyph unicode="&#x497;" glyph-name="uni0497" horiz-adv-x="795" d="M785 -135H654V0H597L472 233V0H320V233L194 0H9L177 267L18 497H194L320 291V497H472V291L600 497H775L615 269L711 123H785V-135Z" />
<glyph unicode="&#x498;" glyph-name="uni0498" horiz-adv-x="524" d="M492 211Q492 171 479 137T439 75T375 28T290 0V-142H155V-7Q119 -6 86 -2T32 9L47 144Q81 134 122 127T208 120Q239 120 261 125T297 142T318 168T325 201Q325 223 316 238T288 264T239 279T169
284H110V405H173Q195 405 218 408T262 421T295 447T308 486Q308 501 303 513T286 536T252 551T202 557Q164 557 129 551T59 532L46 656Q88 669 136 676T234 684Q293 684 339 672T413 637T456 583T471 512Q471 461 443 423T368 367V366Q394 360 417 348T457 315T483
269T492 211Z" />
<glyph unicode="&#x499;" glyph-name="uni0499" horiz-adv-x="452" d="M427 161Q427 132 417 107T387 60T338 23T272 -1V-135H141V-11Q109 -10 86 -6T27 8L49 123Q81 109 116 102T185 94Q223 94 244 110T265 152Q265 177 243 189T173 202H104V303H171Q210 303
231 315T252 352Q252 364 248 373T234 390T210 400T173 404Q144 404 112 397T53 378L35 481Q72 494 116 501T201 509Q256 509 295 499T359 470T395 428T406 378Q406 337 384 310T323 271V270Q345 267 363 259T396 237T419 204T427 161Z" />
<glyph unicode="&#x49a;" glyph-name="uni049A" horiz-adv-x="622" d="M611 -142H476V0H399L216 317V0H60V675H216V377L401 675H590L367 350L519 134H611V-142Z" />
<glyph unicode="&#x49b;" glyph-name="uni049B" horiz-adv-x="543" d="M532 -135H401V0H344L211 230V0H59V497H211V289L344 497H523L358 272L458 123H532V-135Z" />
<glyph unicode="&#x4a0;" glyph-name="uni04A0" horiz-adv-x="702" d="M496 0L313 317V0H157V543H14V675H313V377L498 675H685L463 351L698 0H496Z" />
<glyph unicode="&#x4a1;" glyph-name="uni04A1" horiz-adv-x="610" d="M426 272L597 0H411L280 230V0H127V372H8V497H280V289L412 497H591L426 272Z" />
<glyph unicode="&#x4a2;" glyph-name="uni04A2" horiz-adv-x="710" d="M693 134V-142H558V0H459V281H216V0H60V675H216V416H459V675H614V134H693Z" />
<glyph unicode="&#x4a3;" glyph-name="uni04A3" horiz-adv-x="592" d="M577 118V-135H446V0H360V189H212V0H60V497H212V317H360V497H512V118H577Z" />
<glyph unicode="&#x4a4;" glyph-name="uni04A4" horiz-adv-x="768" d="M463 0V281H216V0H60V675H216V416H463V675H755V548H619V0H463Z" />
<glyph unicode="&#x4a5;" glyph-name="uni04A5" horiz-adv-x="640" d="M360 0V189H212V0H60V497H212V316H360V497H632V372H512V0H360Z" />
<glyph unicode="&#x4aa;" glyph-name="uni04AA" horiz-adv-x="555" d="M394 -142H259V1Q196 14 152 44T82 118T45 210T33 313Q33 395 55 462T120 579T228 654T375 680Q411 680 447 675T513 661L493 519Q465 529 435 534T372 540Q332 540 301 526T248 486T215 422T204
339Q204 237 247 185T380 133Q407 133 439 139T495 158L517 20Q491 9 460 3T394 -6V-142Z" />
<glyph unicode="&#x4ab;" glyph-name="uni04AB" horiz-adv-x="420" d="M308 -135H177V0Q141 9 114 28T67 77T39 145T29 233Q29 290 44 340T91 428T169 487T279 508Q310 508 342 503T398 490L359 355Q340 366 320 371T277 377Q256 377 240 368T212 343T195 303T189
250Q189 219 195 196T213 156T244 131T288 122Q308 122 329 126T366 140L398 16Q380 8 357 2T308 -8V-135Z" />
<glyph unicode="&#x4ae;" glyph-name="uni04AE" horiz-adv-x="578" d="M365 242V0H210V241L-4 675H165L245 505Q270 452 289 400H291Q300 425 311 451T341 517L417 675H582L365 242Z" />
<glyph unicode="&#x4af;" glyph-name="uni04AF" horiz-adv-x="521" d="M332 0V-237H180V0L3 497H171L223 343Q234 308 243 272T260 201H262Q266 221 271 241T282 282T293 319T303 348L355 497H518L332 0Z" />
<glyph unicode="&#x4b0;" glyph-name="uni04B0" horiz-adv-x="580" d="M366 251H521V124H366V0H211V124H56V251H211L5 675H174L246 514Q259 487 269 461T290 406H291Q301 431 313 461T343 528L411 675H575L366 251Z" />
<glyph unicode="&#x4b1;" glyph-name="uni04B1" horiz-adv-x="528" d="M472 118V0H335V-237H183V0H47V118H161L3 497H175L227 362Q244 308 251 284T266 231H267Q271 247 276 265T288 302T299 337T310 367L362 497H524L359 118H472Z" />
<glyph unicode="&#x4b2;" glyph-name="uni04B2" horiz-adv-x="658" d="M647 134V-142H511V0H446L318 228L190 0H6L217 344L18 675H198L321 456L442 675H619L424 343L557 134H647Z" />
<glyph unicode="&#x4b3;" glyph-name="uni04B3" horiz-adv-x="551" d="M340 0L263 152L186 0H5L169 252L15 497H196L274 348L353 497H521L376 252L459 123H539V-135H408V0H340Z" />
<glyph unicode="&#x4b6;" glyph-name="uni04B6" horiz-adv-x="660" d="M644 -142H508V0H409V247Q378 240 345 236T280 232Q207 232 159 249T84 296T46 368T35 462V675H190V484Q190 452 195 429T214 391T250 369T307 361Q334 361 359 364T409 376V675H564V134H644V-142Z" />
<glyph unicode="&#x4b7;" glyph-name="uni04B7" horiz-adv-x="557" d="M411 -135V0H325V168Q304 159 276 155T217 150Q164 150 128 162T71 196T40 246T31 307V497H183V336Q183 316 187 303T199 281T218 268T246 264Q265 264 285 268T325 282V497H477V123H542V-135H411Z" />
<glyph unicode="&#x4ba;" glyph-name="uni04BA" horiz-adv-x="636" d="M434 0V196Q434 229 428 252T409 290T374 312T318 319Q305 319 292 318T266 316T241 311T216 305V0H60V675H216V433Q247 441 279 445T344 449Q416 449 464 432T540 385T578 313T590 219V0H434Z" />
<glyph unicode="&#x4bb;" glyph-name="uni04BB" horiz-adv-x="568" d="M356 0V316Q356 348 346 364T310 380Q290 380 272 369T241 338T219 293T211 240V0H59V730H211V531Q211 506 209 478T203 429H204Q227 466 267 487T361 508Q401 508 429 496T475 463T500 413T508
350V0H356Z" />
<glyph unicode="&#x4c0;" glyph-name="uni04C0" horiz-adv-x="276" d="M60 0V675H216V0H60Z" />
<glyph unicode="&#x4c1;" glyph-name="uni04C1" horiz-adv-x="876" d="M360 675H515V377L679 675H859L662 351L873 0H677L515 317V0H360V317L197 0H5L213 345L14 675H197L360 377V675ZM639 864Q639 829 626 802T587 756T523 726T436 716Q337 716 287 754T237 864H372Q372
831 388 815T440 799Q471 799 486 815T502 864H639Z" />
<glyph unicode="&#x4c2;" glyph-name="uni04C2" horiz-adv-x="792" d="M320 497H472V291L600 497H774L615 269L783 0H597L472 233V0H320V233L194 0H9L177 267L18 497H194L320 291V497ZM600 716Q600 679 587 650T548 600T484 568T397 557Q298 557 248 598T198 716H332Q332
679 349 661T401 642Q432 642 448 660T465 716H600Z" />
<glyph unicode="&#x4cf;" glyph-name="uni04CF" horiz-adv-x="271" d="M59 0V730H211V0H59Z" />
<glyph unicode="&#x4d0;" glyph-name="uni04D0" horiz-adv-x="633" d="M336 436Q328 460 322 485T310 540H308Q304 515 298 489T283 436L227 256H392L336 436ZM466 0L425 133H193L152 0H-3L212 675H418L636 0H466ZM517 864Q517 829 504 802T465 756T401 726T314
716Q215 716 165 754T115 864H250Q250 831 266 815T318 799Q349 799 364 815T380 864H517Z" />
<glyph unicode="&#x4d1;" glyph-name="uni04D1" horiz-adv-x="526" d="M312 214Q273 214 247 210T206 197T185 178T178 152Q178 132 191 119T227 105Q245 105 261 113T288 134T306 164T312 199V214ZM326 0Q326 50 330 75H329Q311 36 270 13T177 -11Q142 -11 115
0T70 31T42 78T32 136Q32 182 52 215T110 270T198 301T312 311V327Q312 362 294 377T234 393Q201 393 160 384T83 361L60 475Q104 490 155 499T251 509Q312 509 353 498T419 464T454 410T465 334V118Q465 88 466 58T469 0H326ZM463 716Q463 679 450 650T411 600T347
568T260 557Q161 557 111 598T61 716H195Q195 679 212 661T264 642Q295 642 311 660T328 716H463Z" />
<glyph unicode="&#x4d2;" glyph-name="uni04D2" horiz-adv-x="633" d="M336 436Q328 460 322 485T310 540H308Q304 515 298 489T283 436L227 256H392L336 436ZM466 0L425 133H193L152 0H-3L212 675H418L636 0H466ZM499 791Q499 759 476 736T420 712Q388 712 365
735T341 791Q341 824 364 847T420 870Q453 870 476 847T499 791ZM283 791Q283 759 260 736T204 712Q171 712 148 735T125 791Q125 824 148 847T204 870Q236 870 259 847T283 791Z" />
<glyph unicode="&#x4d3;" glyph-name="uni04D3" horiz-adv-x="526" d="M312 214Q273 214 247 210T206 197T185 178T178 152Q178 132 191 119T227 105Q245 105 261 113T288 134T306 164T312 199V214ZM326 0Q326 50 330 75H329Q311 36 270 13T177 -11Q142 -11 115
0T70 31T42 78T32 136Q32 182 52 215T110 270T198 301T312 311V327Q312 362 294 377T234 393Q201 393 160 384T83 361L60 475Q104 490 155 499T251 509Q312 509 353 498T419 464T454 410T465 334V118Q465 88 466 58T469 0H326ZM243 645Q243 612 220 589T164 566Q132
566 109 589T85 645Q85 677 108 700T164 724Q197 724 220 701T243 645ZM452 645Q452 612 429 589T373 566Q341 566 318 589T294 645Q294 677 317 700T373 724Q406 724 429 701T452 645Z" />
<glyph unicode="&#x4d4;" glyph-name="uni04D4" horiz-adv-x="809" d="M373 545H364Q347 502 333 469T303 401L236 261H373V545ZM373 0V140H185L123 0H-35L283 675H757V544H525V410H737V283H525V134H758V0H373Z" />
<glyph unicode="&#x4d5;" glyph-name="uni04D5" horiz-adv-x="796" d="M312 214Q273 214 247 210T206 197T185 178T178 152Q178 132 191 119T227 105Q245 105 261 113T288 134T306 164T312 199V214ZM613 308Q614 352 596 374T543 397Q509 397 487 373T461 308H613ZM762
293Q762 267 761 244T757 207H461Q463 158 491 132T579 106Q616 106 654 112T730 132L745 20Q703 5 655 -3T561 -11Q484 -11 435 12T362 77H361Q332 35 288 12T190 -11Q150 -11 121 0T72 31T42 78T32 136Q32 182 52 215T110 270T198 301T312 311V327Q312 362 294
377T234 393Q201 393 160 384T83 361L60 475Q104 490 155 499T251 509Q302 509 341 498T407 457H408Q431 481 468 494T550 508Q604 508 644 492T711 447T749 379T762 293Z" />
<glyph unicode="&#x4d6;" glyph-name="uni04D6" horiz-adv-x="508" d="M60 0V675H457V544H216V410H436V283H216V134H457V0H60ZM701 864Q701 829 688 802T649 756T585 726T498 716Q399 716 349 754T299 864H434Q434 831 450 815T502 799Q533 799 548 815T564 864H701Z" />
<glyph unicode="&#x4d7;" glyph-name="uni04D7" horiz-adv-x="519" d="M336 308Q337 352 318 374T265 397Q232 397 210 373T184 308H336ZM485 292Q485 250 480 207H184Q186 158 214 132T301 106Q375 106 453 132L468 20Q382 -11 284 -11Q159 -11 95 51T30 243Q30
299 46 347T94 432T171 488T273 508Q327 508 367 492T434 447T472 378T485 292ZM460 716Q460 679 447 650T408 600T344 568T257 557Q158 557 108 598T58 716H192Q192 679 209 661T261 642Q292 642 308 660T325 716H460Z" />
<glyph unicode="&#x4d8;" glyph-name="uni04D8" horiz-adv-x="607" d="M22 279Q22 309 25 343T34 403H407Q403 438 392 464T361 509T316 536T257 546Q203 546 160 537T77 510L48 641Q98 663 155 674T271 686Q340 686 396 666T493 605T556 498T579 345Q579 261
559 195T499 82T403 12T277 -12Q214 -12 166 8T86 67T38 159T22 279ZM191 274V266Q191 230 198 204T219 162T251 137T292 129Q317 129 338 139T374 169T397 215T407 274H191Z" />
<glyph unicode="&#x4d9;" glyph-name="uni04D9" horiz-adv-x="513" d="M330 300Q327 342 297 367T207 393Q135 393 70 365L47 475Q90 492 138 500T231 509Q353 509 419 448T485 255Q485 197 470 148T424 64T348 9T245 -11Q189 -11 149 7T82 56T43 131T30 226Q30
244 31 262T35 300H330ZM179 201V191Q179 145 198 124T250 102Q287 102 308 130T331 201H179Z" />
<glyph unicode="&#x4dc;" glyph-name="uni04DC" horiz-adv-x="876" d="M360 675H515V377L679 675H859L662 351L873 0H677L515 317V0H360V317L197 0H5L213 345L14 675H197L360 377V675ZM625 791Q625 759 602 736T546 712Q514 712 491 735T467 791Q467 824 490 847T546
870Q579 870 602 847T625 791ZM409 791Q409 759 386 736T330 712Q297 712 274 735T251 791Q251 824 274 847T330 870Q362 870 385 847T409 791Z" />
<glyph unicode="&#x4dd;" glyph-name="uni04DD" horiz-adv-x="762" d="M320 497H472V291L600 497H774L615 269L783 0H597L472 233V0H320V233L194 0H9L177 267L18 497H194L320 291V497ZM374 645Q374 612 351 589T295 566Q263 566 240 589T216 645Q216 677 239 700T295
724Q328 724 351 701T374 645ZM583 645Q583 612 560 589T504 566Q472 566 449 589T425 645Q425 677 448 700T504 724Q537 724 560 701T583 645Z" />
<glyph unicode="&#x4de;" glyph-name="uni04DE" horiz-adv-x="524" d="M491 211Q491 162 471 121T412 51T321 7T201 -9Q153 -9 105 -4T32 9L46 144Q80 134 121 127T207 120Q238 120 260 125T296 142T317 168T324 201Q324 223 315 238T287 264T238 279T168 284H109V405H172Q194
405 217 408T261 421T294 447T307 486Q307 501 302 513T285 536T251 551T201 557Q163 557 128 551T58 532L45 656Q87 669 135 676T233 684Q292 684 338 672T412 637T455 583T470 512Q470 461 442 423T367 367V366Q393 360 416 348T456 315T482 269T491 211ZM432
791Q432 759 409 736T353 712Q321 712 298 735T274 791Q274 824 297 847T353 870Q386 870 409 847T432 791ZM216 791Q216 759 193 736T137 712Q104 712 81 735T58 791Q58 824 81 847T137 870Q169 870 192 847T216 791Z" />
<glyph unicode="&#x4df;" glyph-name="uni04DF" horiz-adv-x="447" d="M683 161Q683 124 666 92T617 37T537 1T429 -12Q386 -12 351 -7T280 8L302 123Q334 109 369 102T439 94Q478 94 499 110T521 152Q521 177 498 189T427 202H357V303H425Q466 303 487 315T508
352Q508 364 504 373T490 390T465 400T428 404Q398 404 366 397T306 378L288 481Q325 494 369 501T456 509Q511 509 550 499T614 470T650 428T662 378Q662 337 640 310T579 271V270Q601 267 619 259T652 237T675 204T683 161ZM440 645Q440 612 417 589T361 566Q329
566 306 589T282 645Q282 677 305 700T361 724Q394 724 417 701T440 645ZM649 645Q649 612 626 589T570 566Q538 566 515 589T491 645Q491 677 514 700T570 724Q603 724 626 701T649 645Z" />
<glyph unicode="&#x4e2;" glyph-name="uni04E2" horiz-adv-x="678" d="M462 0V298Q462 336 464 377T470 455H468Q448 411 426 368L226 0H60V675H216V376Q216 340 214 301T208 225H210Q220 248 230 269T251 310L449 675H618V0H462ZM186 737V830H490V737H186Z" />
<glyph unicode="&#x4e3;" glyph-name="uni04E3" horiz-adv-x="595" d="M383 0V151Q383 194 387 234T396 311H394Q385 289 374 268T351 226L221 0H60V497H212V340Q212 298 209 267T200 188H202Q213 211 223 232T245 271L375 497H535V0H383ZM156 588V698H437V588H156Z" />
<glyph unicode="&#x4e4;" glyph-name="uni04E4" horiz-adv-x="678" d="M462 0V298Q462 336 464 377T470 455H468Q448 411 426 368L226 0H60V675H216V376Q216 340 214 301T208 225H210Q220 248 230 269T251 310L449 675H618V0H462ZM524 791Q524 759 501 736T445
712Q413 712 390 735T366 791Q366 824 389 847T445 870Q478 870 501 847T524 791ZM308 791Q308 759 285 736T229 712Q196 712 173 735T150 791Q150 824 173 847T229 870Q261 870 284 847T308 791Z" />
<glyph unicode="&#x4e5;" glyph-name="uni04E5" horiz-adv-x="592" d="M383 0V151Q383 194 387 234T396 311H394Q385 289 374 268T351 226L221 0H60V497H212V340Q212 298 209 267T200 188H202Q213 211 223 232T245 271L375 497H535V0H383ZM271 645Q271 612 248
589T192 566Q160 566 137 589T113 645Q113 677 136 700T192 724Q225 724 248 701T271 645ZM480 645Q480 612 457 589T401 566Q369 566 346 589T322 645Q322 677 345 700T401 724Q434 724 457 701T480 645Z" />
<glyph unicode="&#x4e8;" glyph-name="uni04E8" horiz-adv-x="715" d="M684 349Q684 263 658 195T585 80T477 11T347 -13Q269 -13 210 9T111 76T51 183T31 326Q31 412 57 480T131 595T239 664T369 688Q446 688 505 666T604 600T664 493T684 349ZM516 404Q504 475
464 512T358 550Q328 550 302 541T255 514T220 468T199 404H516ZM196 283Q201 246 213 217T245 168T294 136T358 125Q387 125 413 134T460 162T497 211T517 283H196Z" />
<glyph unicode="&#x4e9;" glyph-name="uni04E9" horiz-adv-x="558" d="M529 262Q529 203 512 153T461 67T379 10T269 -11Q214 -11 170 3T94 48T46 125T29 235Q29 294 46 344T97 430T179 487T289 508Q345 508 389 494T464 449T512 372T529 262ZM375 300Q370 346
346 370T279 395Q259 395 243 389T214 369T194 339T183 300H375ZM183 201Q187 153 212 128T279 103Q299 103 315 109T344 128T364 159T375 201H183Z" />
<glyph unicode="&#x4ee;" glyph-name="uni04EE" horiz-adv-x="566" d="M379 186Q356 129 330 90T276 29T216 -2T148 -12Q129 -12 105 -8T60 3L82 136Q99 129 114 126T145 123Q160 123 171 125T191 135T209 154T226 187L8 675H180L261 480Q272 455 280 431T302
365H303Q307 377 311 391T324 431T335 466T342 487L407 675H570L379 186ZM141 737V830H445V737H141Z" />
<glyph unicode="&#x4ef;" glyph-name="uni04EF" horiz-adv-x="566" d="M91 -90Q125 -102 164 -109T243 -117Q303 -117 331 -91T359 -13V4Q359 19 361 40T369 81H367Q345 42 305 18T206 -7Q165 -7 136 5T90 39T66 88T58 149V497H211V183Q211 153 220 137T257 120Q277
120 295 131T326 162T347 206T355 258V497H508V3Q508 -63 489 -109T433 -186T346 -231T231 -245Q193 -245 154 -241T79 -228L91 -90ZM143 588V698H424V588H143Z" />
<glyph unicode="&#x4f0;" glyph-name="uni04F0" horiz-adv-x="566" d="M379 186Q356 129 330 90T276 29T216 -2T148 -12Q129 -12 105 -8T60 3L82 136Q99 129 114 126T145 123Q160 123 171 125T191 135T209 154T226 187L8 675H180L261 480Q272 455 280 431T302
365H303Q307 377 311 391T324 431T335 466T342 487L407 675H570L379 186ZM480 791Q480 759 457 736T401 712Q369 712 346 735T322 791Q322 824 345 847T401 870Q434 870 457 847T480 791ZM264 791Q264 759 241 736T185 712Q152 712 129 735T106 791Q106 824 129
847T185 870Q217 870 240 847T264 791Z" />
<glyph unicode="&#x4f1;" glyph-name="uni04F1" horiz-adv-x="566" d="M91 -90Q125 -102 164 -109T243 -117Q303 -117 331 -91T359 -13V4Q359 19 361 40T369 81H367Q345 42 305 18T206 -7Q165 -7 136 5T90 39T66 88T58 149V497H211V183Q211 153 220 137T257 120Q277
120 295 131T326 162T347 206T355 258V497H508V3Q508 -63 489 -109T433 -186T346 -231T231 -245Q193 -245 154 -241T79 -228L91 -90ZM258 645Q258 612 235 589T179 566Q147 566 124 589T100 645Q100 677 123 700T179 724Q212 724 235 701T258 645ZM467 645Q467
612 444 589T388 566Q356 566 333 589T309 645Q309 677 332 700T388 724Q421 724 444 701T467 645Z" />
<glyph unicode="&#x4f2;" glyph-name="uni04F2" horiz-adv-x="566" d="M379 186Q356 129 330 90T276 29T216 -2T148 -12Q129 -12 105 -8T60 3L82 136Q99 129 114 126T145 123Q160 123 171 125T191 135T209 154T226 187L8 675H180L261 480Q272 455 280 431T302
365H303Q307 377 311 391T324 431T335 466T342 487L407 675H570L379 186ZM377 706L312 767L466 919L544 841L377 706ZM176 706L107 766L242 928L326 855L176 706Z" />
<glyph unicode="&#x4f3;" glyph-name="uni04F3" horiz-adv-x="566" d="M91 -90Q125 -102 164 -109T243 -117Q303 -117 331 -91T359 -13V4Q359 19 361 40T369 81H367Q345 42 305 18T206 -7Q165 -7 136 5T90 39T66 88T58 149V497H211V183Q211 153 220 137T257 120Q277
120 295 131T326 162T347 206T355 258V497H508V3Q508 -63 489 -109T433 -186T346 -231T231 -245Q193 -245 154 -241T79 -228L91 -90ZM162 553L93 612L229 777L314 705L162 553ZM363 553L298 613L450 767L529 690L363 553Z" />
<glyph unicode="&#x4f4;" glyph-name="uni04F4" horiz-adv-x="624" d="M411 247Q380 240 347 236T283 232Q211 232 163 249T87 296T48 368T37 462V675H193V484Q193 451 198 428T217 390T253 368T309 361Q336 361 361 364T411 376V675H567V0H411V247ZM491 791Q491
759 468 736T412 712Q380 712 357 735T333 791Q333 824 356 847T412 870Q445 870 468 847T491 791ZM275 791Q275 759 252 736T196 712Q163 712 140 735T117 791Q117 824 140 847T196 870Q228 870 251 847T275 791Z" />
<glyph unicode="&#x4f5;" glyph-name="uni04F5" horiz-adv-x="534" d="M325 0V168Q304 159 276 155T217 150Q169 150 134 160T76 191T42 240T31 307V497H183V336Q183 298 198 281T246 264Q266 264 286 268T325 282V497H477V0H325ZM230 645Q230 612 207 589T151
566Q119 566 96 589T72 645Q72 677 95 700T151 724Q184 724 207 701T230 645ZM439 645Q439 612 416 589T360 566Q328 566 305 589T281 645Q281 677 304 700T360 724Q393 724 416 701T439 645Z" />
<glyph unicode="&#x4f8;" glyph-name="uni04F8" horiz-adv-x="854" d="M552 232Q552 178 531 134T470 59T376 11T258 -5Q234 -5 207 -5T152 -3T102 -1T60 2V675H216V442Q228 443 245 443T278 444Q346 444 397 430T483 389T535 323T552 232ZM387 223Q387 245 380
262T358 292T321 310T269 316Q257 316 242 316T216 314V126Q225 126 239 126T268 125Q328 125 357 149T387 223ZM638 0V675H794V0H638ZM614 791Q614 759 591 736T535 712Q503 712 480 735T456 791Q456 824 479 847T535 870Q568 870 591 847T614 791ZM398 791Q398
759 375 736T319 712Q286 712 263 735T240 791Q240 824 263 847T319 870Q351 870 374 847T398 791Z" />
<glyph unicode="&#x4f9;" glyph-name="uni04F9" horiz-adv-x="778" d="M506 188Q506 145 490 108T440 45T358 4T247 -11Q225 -11 200 -10T149 -6T100 0T60 7V497H212V354Q228 356 247 357T291 358Q340 358 379 347T447 314T491 260T506 188ZM347 174Q347 188 342
200T327 221T300 234T263 239Q251 239 239 238T212 235V116Q222 113 237 111T269 109Q306 109 326 126T347 174ZM565 0V497H717V0H565ZM363 645Q363 612 340 589T284 566Q252 566 229 589T205 645Q205 677 228 700T284 724Q317 724 340 701T363 645ZM572 645Q572
612 549 589T493 566Q461 566 438 589T414 645Q414 677 437 700T493 724Q526 724 549 701T572 645Z" />
<glyph unicode="&#xe3f;" glyph-name="uni0E3F" horiz-adv-x="665" d="M275 -113V-2Q120 0 60 0V674Q173 677 275 679V770H370V680Q430 679 475 668T550 634T596 579T612 504Q612 458 589 420T522 361V360Q574 345 604 306T634 212Q634 170 618 133T568 66T485
18T370 -2V-113H275ZM370 122Q394 123 413 129T444 147T463 173T469 206Q469 223 463 236T446 261T415 278T370 286V122ZM213 125Q238 123 275 122V287Q228 287 213 286V125ZM213 403Q221 402 275 402V556Q225 555 213 554V403ZM370 403Q411 408 431 428T451 482Q451
497 446 510T432 532T407 548T370 556V403Z" />
<glyph unicode="&#x1e02;" glyph-name="uni1E02" horiz-adv-x="588" d="M389 206Q389 244 361 265T271 287Q235 287 216 286V125Q225 124 244 123T280 122Q334 122 361 144T389 206ZM371 482Q371 518 347 537T273 557Q256 557 216 554V403Q229 402 266 402Q317
402 344 422T371 482ZM558 212Q558 169 541 131T488 63T399 15T276 -2Q261 -2 189 -1T60 0V674Q89 676 152 678T282 680Q407 680 471 636T535 504Q535 458 512 419T446 361V360Q498 344 528 305T558 212ZM367 799Q367 762 341 737T278 711Q241 711 216 736T190
799Q190 836 215 862T278 888Q315 888 341 862T367 799Z" />
<glyph unicode="&#x1e03;" glyph-name="uni1E03" horiz-adv-x="559" d="M367 260Q367 322 351 351T299 381Q260 381 236 342T211 242V119Q234 111 264 111Q287 111 305 119T338 144T359 191T367 260ZM528 275Q528 214 510 162T457 71T371 11T253 -11Q187 -11 134
-2T59 14V730H211V534Q211 511 209 483T204 435L205 434Q223 468 260 488T346 508Q434 508 481 447T528 275ZM480 865Q480 828 454 803T391 777Q354 777 329 802T303 865Q303 902 328 928T391 954Q428 954 454 928T480 865Z" />
<glyph unicode="&#x1e0a;" glyph-name="uni1E0A" horiz-adv-x="660" d="M461 339Q461 389 452 427T423 492T367 533T280 548Q233 548 216 546V133Q227 131 242 130T274 129Q315 129 349 142T408 181T447 246T461 339ZM628 351Q628 266 602 199T527 87T411 18T260
-5Q212 -5 166 -4T60 1V673Q105 676 166 677T290 679Q368 679 430 661T536 604T604 502T628 351ZM379 799Q379 762 353 737T290 711Q253 711 228 736T202 799Q202 836 227 862T290 888Q327 888 353 862T379 799Z" />
<glyph unicode="&#x1e0b;" glyph-name="uni1E0B" horiz-adv-x="559" d="M347 380Q322 386 295 386Q272 386 253 378T220 353T199 306T191 237Q191 175 208 145T260 115Q279 115 295 125T322 155T340 201T347 258V380ZM360 0Q360 22 360 38T364 71H362Q341 33 303
11T212 -12Q124 -12 78 50T31 221Q31 282 49 334T101 425T186 485T298 507Q323 507 347 504V730H500V0H360ZM512 865Q512 828 486 803T423 777Q386 777 361 802T335 865Q335 902 360 928T423 954Q460 954 486 928T512 865Z" />
<glyph unicode="&#x1e1e;" glyph-name="uni1E1E" horiz-adv-x="470" d="M216 542V395H427V267H216V0H60V675H442V542H216ZM332 799Q332 762 306 737T243 711Q206 711 181 736T155 799Q155 836 180 862T243 888Q280 888 306 862T332 799Z" />
<glyph unicode="&#x1e1f;" glyph-name="uni1E1F" horiz-adv-x="357" d="M359 607Q330 616 301 616Q268 616 253 598T237 537V497H339V380H237V0H85V380H9V497H85V525Q85 635 137 687T295 739Q332 739 369 733L359 607ZM326 865Q326 828 300 803T237 777Q200 777
175 802T149 865Q149 902 174 928T237 954Q274 954 300 928T326 865Z" />
<glyph unicode="&#x1e33;" glyph-name="uni1E33" horiz-adv-x="542" d="M346 0L211 239V0H59V730H211V297L337 497H517L358 277L536 0H346ZM358 -146Q358 -164 351 -180T332 -209T304 -228T269 -235Q251 -235 235 -228T206 -209T188 -181T181 -146Q181 -128 187
-112T206 -83T234 -65T269 -58Q287 -58 303 -64T332 -83T351 -111T358 -146Z" />
<glyph unicode="&#x1e35;" glyph-name="uni1E35" horiz-adv-x="542" d="M346 0L211 239V0H59V730H211V297L337 497H517L358 277L536 0H346ZM126 -91H415V-201H126V-91Z" />
<glyph unicode="&#x1e40;" glyph-name="uni1E40" horiz-adv-x="898" d="M718 0L686 290Q680 348 676 411T672 527H669Q658 472 645 419T615 309L514 0H369L271 302Q255 356 238 420T213 527H211Q211 477 208 413T198 289L170 0H21L98 675H315L413 375Q424 340
433 301T448 227H450Q458 272 466 309T484 375L581 675H799L877 0H718ZM539 799Q539 762 513 737T450 711Q413 711 388 736T362 799Q362 836 387 862T450 888Q487 888 513 862T539 799Z" />
<glyph unicode="&#x1e41;" glyph-name="uni1E41" horiz-adv-x="858" d="M646 0V311Q646 345 636 362T601 380Q584 380 567 370T535 340T513 294T504 239V0H354V312Q354 345 344 362T309 380Q291 380 274 369T242 339T219 294T211 239V0H59V497H202Q202 482 201
460T196 418H197Q221 460 262 484T356 508Q411 508 445 484T492 418Q513 457 554 482T649 508Q722 508 760 466T799 340V0H646ZM518 651Q518 633 511 617T492 589T464 570T429 563Q411 563 395 569T367 588T348 617T341 651Q341 669 348 685T367 714T395 733T429
740Q447 740 463 733T492 714T511 686T518 651Z" />
<glyph unicode="&#x1e56;" glyph-name="uni1E56" horiz-adv-x="555" d="M538 458Q538 406 520 361T466 281T378 227T257 207Q236 207 216 208V0H60V675Q160 680 265 680Q398 680 468 622T538 458ZM378 443Q378 493 349 522T259 552Q240 552 216 550V338Q239 334
265 334Q318 334 348 363T378 443ZM362 799Q362 762 336 737T273 711Q236 711 211 736T185 799Q185 836 210 862T273 888Q310 888 336 862T362 799Z" />
<glyph unicode="&#x1e57;" glyph-name="uni1E57" horiz-adv-x="559" d="M367 260Q367 382 299 382Q280 382 264 372T236 342T218 296T211 239V117Q235 111 264 111Q287 111 305 119T338 144T359 191T367 260ZM528 276Q528 212 512 160T462 70T379 12T262 -8Q232
-8 211 -4V-237H59V497H199Q199 480 198 462T195 426H197Q218 466 255 487T347 508Q434 508 481 447T528 276ZM388 651Q388 633 381 617T362 589T334 570T299 563Q281 563 265 569T237 588T218 617T211 651Q211 669 218 685T237 714T265 733T299 740Q317 740 333
733T362 714T381 686T388 651Z" />
<glyph unicode="&#x1e60;" glyph-name="uni1E60" horiz-adv-x="502" d="M475 205Q475 157 458 118T405 49T320 4T206 -12Q162 -12 122 -8T46 6L60 154Q95 140 135 132T214 124Q257 124 282 140T308 189Q308 215 290 232T239 263T168 295T101 334T52 392T33 480Q33
526 51 564T103 630T188 672T300 687Q328 687 361 684T423 674L409 538Q352 558 290 558Q243 558 220 542T197 495Q197 471 215 455T266 424T338 392T407 352T456 293T475 205ZM340 807Q340 770 314 745T251 719Q214 719 189 744T163 807Q163 844 188 870T251 896Q288
896 314 870T340 807Z" />
<glyph unicode="&#x1e61;" glyph-name="uni1E61" horiz-adv-x="411" d="M379 157Q379 121 365 91T323 37T253 2T156 -11Q92 -11 44 1L51 126Q103 106 161 106Q190 106 205 115T220 143Q220 159 208 169T176 187T128 208T80 237T47 280T34 346Q34 380 47 409T87
461T156 496T252 509Q301 509 341 500L335 382Q294 395 248 395Q220 395 206 386T191 360Q191 345 203 335T234 317T283 295T332 265T366 222T379 157ZM294 651Q294 633 287 617T268 589T240 570T205 563Q187 563 171 569T143 588T124 617T117 651Q117 669 124
685T143 714T171 733T205 740Q223 740 239 733T268 714T287 686T294 651Z" />
<glyph unicode="&#x1e6a;" glyph-name="uni1E6A" horiz-adv-x="507" d="M331 542V0H176V542H14V675H493V542H331ZM342 799Q342 762 316 737T253 711Q216 711 191 736T165 799Q165 836 190 862T253 888Q290 888 316 862T342 799Z" />
<glyph unicode="&#x1e6b;" glyph-name="uni1E6B" horiz-adv-x="377" d="M348 4Q293 -11 237 -11Q193 -11 164 -3T117 24T92 74T84 154V380H9V497H84V644L236 685V497H344V380H236V179Q236 143 247 130T285 116Q309 116 339 123L348 4ZM249 799Q249 762 223 737T160
711Q123 711 98 736T72 799Q72 836 97 862T160 888Q197 888 223 862T249 799Z" />
<glyph unicode="&#x1e80;" glyph-name="Wgrave" horiz-adv-x="959" d="M781 0H588L502 320Q492 362 480 456H478Q469 368 456 320L371 0H179L18 675H184L256 351Q277 241 285 169H287Q300 270 321 350L407 675H563L651 348Q679 242 688 169H691Q704 275 719 351L788
675H941L781 0ZM562 710L329 761L361 867L585 792L562 710Z" />
<glyph unicode="&#x1e81;" glyph-name="wgrave" horiz-adv-x="798" d="M641 0H473L420 181Q412 210 405 242T392 306H391Q385 273 378 239T361 172L313 0H153L7 497H173L216 335Q224 300 233 260T250 181H252Q258 221 267 260T285 335L331 497H477L524 335Q529
315 534 296T543 258T552 220T559 181H561Q567 221 576 259T594 335L637 497H791L641 0ZM426 551L249 680L329 770L491 624L426 551Z" />
<glyph unicode="&#x1e82;" glyph-name="Wacute" horiz-adv-x="959" d="M781 0H588L502 320Q492 362 480 456H478Q469 368 456 320L371 0H179L18 675H184L256 351Q277 241 285 169H287Q300 270 321 350L407 675H563L651 348Q679 242 688 169H691Q704 275 719 351L788
675H941L781 0ZM411 710L388 792L612 867L644 761L411 710Z" />
<glyph unicode="&#x1e83;" glyph-name="wacute" horiz-adv-x="798" d="M641 0H473L420 181Q412 210 405 242T392 306H391Q385 273 378 239T361 172L313 0H153L7 497H173L216 335Q224 300 233 260T250 181H252Q258 221 267 260T285 335L331 497H477L524 335Q529
315 534 296T543 258T552 220T559 181H561Q567 221 576 259T594 335L637 497H791L641 0ZM382 551L317 623L479 770L559 682L382 551Z" />
<glyph unicode="&#x1e84;" glyph-name="Wdieresis" horiz-adv-x="959" d="M781 0H588L502 320Q492 362 480 456H478Q469 368 456 320L371 0H179L18 675H184L256 351Q277 241 285 169H287Q300 270 321 350L407 675H563L651 348Q679 242 688 169H691Q704 275 719
351L788 675H941L781 0ZM674 791Q674 759 651 736T595 712Q563 712 540 735T516 791Q516 824 539 847T595 870Q628 870 651 847T674 791ZM458 791Q458 759 435 736T379 712Q346 712 323 735T300 791Q300 824 323 847T379 870Q411 870 434 847T458 791Z" />
<glyph unicode="&#x1e85;" glyph-name="wdieresis" horiz-adv-x="798" d="M641 0H473L420 181Q412 210 405 242T392 306H391Q385 273 378 239T361 172L313 0H153L7 497H173L216 335Q224 300 233 260T250 181H252Q258 221 267 260T285 335L331 497H477L524 335Q529
315 534 296T543 258T552 220T559 181H561Q567 221 576 259T594 335L637 497H791L641 0ZM378 645Q378 612 355 589T299 566Q267 566 244 589T220 645Q220 677 243 700T299 724Q332 724 355 701T378 645ZM587 645Q587 612 564 589T508 566Q476 566 453 589T429 645Q429
677 452 700T508 724Q541 724 564 701T587 645Z" />
<glyph unicode="&#x1e9e;" glyph-name="uni1E9E" horiz-adv-x="696" d="M497 400Q579 387 623 338T667 211Q667 166 651 126T602 56T521 7T408 -12Q383 -12 351 -9T288 2L299 141Q324 132 352 127T408 122Q452 122 476 142T500 196Q500 231 471 254T371 277H318V384L447
548Q426 552 401 553T353 555Q279 555 248 522T216 422V0H60V417Q60 553 134 620T362 688Q391 688 423 687T490 682T557 673T621 662V555L497 400Z" />
<glyph unicode="&#x1ef2;" glyph-name="Ygrave" horiz-adv-x="578" d="M365 242V0H210V241L-4 675H165L245 505Q270 452 289 400H291Q300 425 311 451T341 517L417 675H582L365 242ZM290 710L57 761L89 867L313 792L290 710Z" />
<glyph unicode="&#x1ef3;" glyph-name="ygrave" horiz-adv-x="566" d="M91 -90Q125 -102 164 -109T243 -117Q303 -117 331 -91T359 -13V4Q359 19 361 40T369 81H367Q345 42 305 18T206 -7Q165 -7 136 5T90 39T66 88T58 149V497H211V183Q211 153 220 137T257 120Q277
120 295 131T326 162T347 206T355 258V497H508V3Q508 -63 489 -109T433 -186T346 -231T231 -245Q193 -245 154 -241T79 -228L91 -90ZM298 551L121 680L201 770L363 624L298 551Z" />
<glyph unicode="&#x2000;" glyph-name="uni2000" horiz-adv-x="500" />
<glyph unicode="&#x2001;" glyph-name="uni2001" horiz-adv-x="1000" />
<glyph unicode="&#x2002;" glyph-name="uni2002" horiz-adv-x="500" />
<glyph unicode="&#x2003;" glyph-name="uni2003" horiz-adv-x="1000" />
<glyph unicode="&#x2004;" glyph-name="uni2004" horiz-adv-x="333" />
<glyph unicode="&#x2005;" glyph-name="uni2005" horiz-adv-x="250" />
<glyph unicode="&#x2006;" glyph-name="uni2006" horiz-adv-x="167" />
<glyph unicode="&#x2007;" glyph-name="uni2007" horiz-adv-x="550" />
<glyph unicode="&#x2008;" glyph-name="uni2008" horiz-adv-x="277" />
<glyph unicode="&#x2009;" glyph-name="uni2009" horiz-adv-x="167" />
<glyph unicode="&#x200a;" glyph-name="uni200A" horiz-adv-x="100" />
<glyph unicode="&#x200b;" glyph-name="uni200B" horiz-adv-x="0" />
<glyph unicode="&#x200c;" glyph-name="uni200C" horiz-adv-x="0" d="M-45 -237V980H45V-237H-45Z" />
<glyph unicode="&#x200d;" glyph-name="uni200D" horiz-adv-x="0" d="M-45 -237V726L-81 691L-145 755L-64 835L-145 916L-81 980L0 899L81 980L145 916L64 835L145 755L81 691L45 726V-237H-45Z" />
<glyph unicode="&#x200e;" glyph-name="uni200E" horiz-adv-x="0" d="M-45 -237V878H124L74 916L138 980L282 835L138 691L74 755L121 792H45V-237H-45Z" />
<glyph unicode="&#x200f;" glyph-name="uni200F" horiz-adv-x="0" d="M-45 -237V792H-121L-74 755L-138 691L-282 835L-138 980L-74 916L-124 878H45V-237H-45Z" />
<glyph unicode="&#x2010;" glyph-name="hyphen" horiz-adv-x="337" d="M42 210V332H294V210H42Z" />
<glyph unicode="&#x2011;" glyph-name="hyphen" horiz-adv-x="337" d="M42 210V332H294V210H42Z" />
<glyph unicode="&#x2012;" glyph-name="figuredash" horiz-adv-x="550" d="M42 231V365H508V231H42Z" />
<glyph unicode="&#x2013;" glyph-name="endash" horiz-adv-x="550" d="M0 231V365H550V231H0Z" />
<glyph unicode="&#x2014;" glyph-name="emdash" horiz-adv-x="1000" d="M106 231V365H894V231H106Z" />
<glyph unicode="&#x2015;" glyph-name="uni2015" horiz-adv-x="1000" d="M106 231V365H894V231H106Z" />
</font>
</defs>
</svg>
