<?xml version="1.0" standalone="no"?> <!DOCTYPE svg PUBLIC "-//W3C//DTD SVG 1.0//EN" "http://www.w3.org/TR/2001/REC-SVG-20010904/DTD/svg10.dtd" > <svg xmlns="http://www.w3.org/2000/svg" width="100%" height="100%">
<defs >
<font id="GMGlobalSans-7_Bold" horiz-adv-x="600" ><font-face
    font-family="GM Global Sans"
    units-per-em="1000"
    panose-1="2 11 7 2 5 3 2 2 2 3"
    ascent="980"
    descent="-320"
    alphabetic="0" />
<missing-glyph horiz-adv-x="550" d="M450 100V450H100V100H450ZM250 350V400H400V150H350V250H250V300H350V350H250ZM50 50V500H500V50H50ZM150 150V400H200V200H300V150H150Z" />
<glyph unicode="&#xd;" glyph-name="CR" horiz-adv-x="500" />
<glyph unicode=" " glyph-name="space" horiz-adv-x="218" />
<glyph unicode="!" glyph-name="exclam" horiz-adv-x="321" d="M225 188H115L94 708H244L225 188ZM247 65Q247 49 241 35T224 11T200 -5T168 -11Q152 -11 138 -5T113 11T96 35T90 65Q90 81 96 94T112 118T137 135T168 141Q185 141 199 135T224 119T240 95T247 65Z" />
<glyph unicode="&quot;" glyph-name="quotedbl" horiz-adv-x="405" d="M156 448H60L44 702H172L156 448ZM344 448H249L233 702H361L344 448Z" />
<glyph unicode="#" glyph-name="numbersign" horiz-adv-x="583" d="M467 411L452 268H532V178H442L424 0H322L341 178H209L190 0H88L107 178H28V268H116L132 411H52V500H141L159 675H261L242 500H374L393 675H495L476 500H555V411H467ZM234 411L218 268H350L365 411H234Z" />
<glyph unicode="$" glyph-name="dollar" horiz-adv-x="494" d="M448 215Q448 181 437 151T405 95T352 53T283 26V-96H191V19Q159 20 131 23T70 32L79 148Q93 143 109 139T142 133T175 129T206 127Q230 127 249 131T283 145T305 168T313 202Q313 228 296 244T244
275T175 303T112 337T65 390T46 472Q46 505 57 534T89 587T139 626T204 649V750H295V656Q321 655 347 652T397 644L389 535Q359 543 331 547T278 552Q252 552 233 547T201 533T184 511T178 485Q178 461 196 445T247 415T316 386T382 350T429 296T448 215Z" />
<glyph unicode="%" glyph-name="percent" horiz-adv-x="760" d="M247 527Q247 570 234 588T191 607Q167 607 152 586T136 529Q136 486 150 467T192 448Q216 448 231 469T247 527ZM625 148Q625 190 612 208T570 227Q545 227 530 207T514 150Q514 107 528 88T571
69Q594 69 609 90T625 148ZM343 534Q343 498 331 467T298 414T248 380T186 368Q114 368 76 409T38 524Q38 559 50 589T83 641T133 675T195 687Q265 687 304 648T343 534ZM168 -22L88 35L589 696L669 638L168 -22ZM722 154Q722 118 710 88T677 35T627 1T565 -11Q493
-11 455 30T417 145Q417 180 428 210T461 262T511 296T573 308Q643 308 682 269T722 154Z" />
<glyph unicode="&amp;" glyph-name="ampersand" horiz-adv-x="797" d="M444 146Q418 166 389 189T335 234T286 277T244 316Q228 301 216 287T196 258T184 230T180 201Q180 180 187 161T210 128T247 106T297 98Q338 98 376 111T444 146ZM340 581Q340 608 325 625T278
642Q250 642 233 625T215 579Q215 568 217 556T226 530T243 500T269 467Q286 481 299 495T322 522T335 551T340 581ZM673 -25Q656 -12 639 0T604 25T570 50T535 76Q511 57 483 41T422 14T353 -4T276 -11Q218 -11 175 4T103 46T61 109T47 186Q47 212 53 235T70 280T96
320T129 357T171 393Q149 419 134 442T109 486T94 529T89 572Q89 606 102 636T140 689T203 725T288 738Q373 738 419 698T466 591Q466 573 463 556T453 523T436 491T413 460T382 428T342 393Q377 360 427 319T531 239Q541 254 548 270T563 304T575 340T583 378T587
418T588 458H715Q716 419 711 380T694 304T665 233T625 168Q650 149 674 132T752 76L673 -25Z" />
<glyph unicode="&apos;" glyph-name="quotesingle" horiz-adv-x="216" d="M156 448H60L44 702H172L156 448Z" />
<glyph unicode="(" glyph-name="parenleft" horiz-adv-x="306" d="M200 -215Q158 -149 130 -85T84 41T60 164T52 285Q52 344 60 405T85 530T131 658T201 787L294 744Q237 643 208 528T178 290Q178 162 207 48T297 -170L200 -215Z" />
<glyph unicode=")" glyph-name="parenright" horiz-adv-x="306" d="M14 -172Q71 -71 101 44T131 283Q131 410 101 524T13 743L110 787Q151 721 179 657T224 531T249 409T256 288Q256 228 249 167T224 42T177 -86T107 -215L14 -172Z" />
<glyph unicode="*" glyph-name="asterisk" horiz-adv-x="384" d="M305 453L220 521L236 413H145L161 521L75 453L31 531L132 571L31 611L76 690L161 622L145 730H236L220 622L305 690L350 612L249 572L350 531L305 453Z" />
<glyph unicode="+" glyph-name="plus" horiz-adv-x="550" d="M336 244V58H214V244H39V351H214V536H336V351H511V244H336Z" />
<glyph unicode="," glyph-name="comma" horiz-adv-x="258" d="M27 -126Q53 -99 67 -77T85 -36T85 -2T68 28Q54 44 52 65T58 104T83 136T128 149Q151 149 170 137T199 102T209 49T197 -17T155 -93T80 -173L27 -126Z" />
<glyph unicode="-" glyph-name="hyphen" horiz-adv-x="334" d="M44 226V329H290V226H44Z" />
<glyph unicode="." glyph-name="period" horiz-adv-x="258" d="M211 71Q211 54 205 39T187 13T160 -4T129 -11Q112 -11 98 -5T72 13T54 39T47 71Q47 87 53 102T71 128T97 146T129 152Q145 152 160 146T186 129T204 102T211 71Z" />
<glyph unicode="/" glyph-name="slash" horiz-adv-x="463" d="M115 -161H-11L339 757H465L115 -161Z" />
<glyph unicode="0" glyph-name="zero" horiz-adv-x="605" d="M424 337Q424 400 417 445T394 520T357 563T303 577Q275 577 253 564T214 523T189 448T180 338Q180 214 210 157T302 99Q330 99 352 112T390 153T415 227T424 337ZM561 348Q561 265 543 199T491 86T407
15T295 -10Q230 -10 183 11T105 74T59 180T44 327Q44 410 62 476T114 589T198 660T309 685Q438 685 499 601T561 348Z" />
<glyph unicode="1" glyph-name="one" horiz-adv-x="367" d="M162 0V543L34 497L14 612L193 677H294V0H162Z" />
<glyph unicode="2" glyph-name="two" horiz-adv-x="501" d="M48 0V113L150 228Q193 275 221 312T267 378T291 431T298 477Q298 518 273 543T201 568Q171 568 138 558T77 530L58 646Q95 664 139 674T234 685Q284 685 323 671T388 632T427 572T440 498Q440 466 431
432T401 361T350 281T275 191L213 120L214 119Q261 122 316 122T461 123V0H48Z" />
<glyph unicode="3" glyph-name="three" horiz-adv-x="484" d="M444 209Q444 160 425 120T368 50T281 5T171 -10Q137 -10 105 -7T44 1L59 115Q113 100 175 100Q238 100 271 127T305 199Q305 222 294 243T257 277T190 295T85 293V395Q146 394 183 401T241 422T273
455T283 496Q283 534 258 555T184 577Q156 577 127 571T68 551L55 656Q89 669 130 677T214 685Q262 685 302 673T367 639T406 588T419 523Q419 468 389 428T307 369V368Q368 355 406 311T444 209Z" />
<glyph unicode="4" glyph-name="four" horiz-adv-x="555" d="M311 557H310L139 263Q159 263 191 263T253 264T311 264V557ZM436 154V0H310V154H28L18 255L266 675H436V266H538V154H436Z" />
<glyph unicode="5" glyph-name="five" horiz-adv-x="469" d="M439 221Q439 170 421 128T367 54T283 7T173 -10Q140 -10 107 -7T47 3L61 118Q88 109 118 105T179 100Q237 100 269 127T302 205Q302 257 264 285T144 313Q107 313 69 310V675H400V553L190 554V417Q312
418 375 365T439 221Z" />
<glyph unicode="6" glyph-name="six" horiz-adv-x="571" d="M399 210Q399 262 371 293T293 324Q244 324 215 294T186 213Q186 163 214 131T293 98Q341 98 370 128T399 210ZM533 228Q533 174 515 129T462 53T384 5T287 -11Q224 -11 176 11T100 74T58 170T45 298Q45
387 65 460T129 583T236 659T385 685Q407 685 430 684T481 679L472 565Q444 570 422 572T376 574Q292 574 245 534T181 405Q179 390 178 382T174 367H175Q199 396 238 413T325 430Q373 430 412 416T476 376T517 313T533 228Z" />
<glyph unicode="7" glyph-name="seven" horiz-adv-x="465" d="M441 565Q413 503 387 432T336 286T292 139T258 0H113Q129 71 152 148T200 301T251 440T297 552Q284 551 262 551T212 551T153 550T93 550T22 550V675H441V565Z" />
<glyph unicode="8" glyph-name="eight" horiz-adv-x="567" d="M520 181Q520 135 502 99T451 38T372 1T273 -12Q217 -12 175 0T104 36T61 91T46 164Q46 195 55 221T82 268T121 306T170 341Q117 371 88 410T58 506Q58 548 74 582T122 639T196 675T294 688Q345 688
385 677T453 643T494 590T508 522Q508 494 500 470T476 426T441 390T396 356Q424 341 445 325T483 287T510 240T520 181ZM378 512Q378 543 355 564T284 585Q240 585 215 566T190 514Q190 480 215 456T291 407Q311 419 326 430T353 453T371 480T378 512ZM388 174Q388
194 379 211T356 241T322 265T277 289Q254 276 237 264T207 239T187 209T179 173Q179 136 205 115T284 93Q308 93 327 98T359 114T380 140T388 174Z" />
<glyph unicode="9" glyph-name="nine" horiz-adv-x="571" d="M385 462Q385 509 358 543T276 577Q229 577 201 546T172 465Q172 414 200 383T277 351Q304 351 325 360T360 387T380 424T385 462ZM526 377Q526 185 443 88T200 -9Q149 -9 83 0L92 115Q120 109 150
106T211 102Q288 102 331 141T387 260Q389 270 391 286T396 308H395Q372 279 333 262T246 245Q203 245 166 257T99 295T53 360T37 447Q37 497 54 541T103 617T182 668T283 686Q346 686 394 663T470 601T512 507T526 377Z" />
<glyph unicode=":" glyph-name="colon" horiz-adv-x="298" d="M242 390Q242 374 236 359T219 333T192 316T161 309Q144 309 129 315T103 333T86 359T79 390Q79 407 85 422T103 448T129 465T161 472Q177 472 192 466T218 448T236 422T242 390ZM242 71Q242 54 236
39T219 13T192 -4T161 -11Q144 -11 129 -5T103 13T86 39T79 71Q79 87 85 102T103 128T129 146T161 152Q177 152 192 146T218 129T236 102T242 71Z" />
<glyph unicode=";" glyph-name="semicolon" horiz-adv-x="298" d="M242 390Q242 374 236 359T219 333T192 316T161 309Q144 309 129 315T103 333T86 359T79 390Q79 407 85 422T103 448T129 465T161 472Q177 472 192 466T218 448T236 422T242 390ZM60 -126Q85 -99
99 -77T118 -37T118 -3T101 28Q87 44 85 65T90 105T117 136T160 149Q184 149 202 137T231 102T242 49T229 -18T187 -94T113 -173L60 -126Z" />
<glyph unicode="&lt;" glyph-name="less" horiz-adv-x="550" d="M382 6L63 301L381 595L465 511L228 302L466 93L382 6Z" />
<glyph unicode="=" glyph-name="equal" horiz-adv-x="550" d="M53 341V444H497V341H53ZM53 150V253H497V150H53Z" />
<glyph unicode="&gt;" glyph-name="greater" horiz-adv-x="550" d="M169 6L85 90L322 299L84 508L168 595L487 300L169 6Z" />
<glyph unicode="?" glyph-name="question" horiz-adv-x="451" d="M271 65Q271 33 249 11T193 -11Q160 -11 138 11T115 65Q115 97 137 119T193 141Q226 141 248 119T271 65ZM404 513Q404 471 390 442T355 390T311 348T271 306T248 256T254 188H129Q113 235 117
269T136 330T172 376T214 415T249 454T264 499Q264 544 212 571T67 601L83 717Q165 715 225 698T326 652T385 588T404 513Z" />
<glyph unicode="@" glyph-name="at" horiz-adv-x="1024" d="M574 401Q554 407 526 407Q498 407 476 391T440 349T418 291T410 230Q410 154 450 154Q484 154 515 204T565 352L574 401ZM952 364Q952 292 934 233T881 133T799 70T696 48Q636 48 604 79T573 157H571Q560
135 545 116T510 82T466 57T415 48Q359 48 325 90T290 212Q290 274 306 327T356 421T439 484T553 507Q606 507 648 499T708 484L668 271Q657 212 668 182T714 152Q740 152 762 165T802 205T828 270T838 358Q838 409 822 455T772 537T683 595T553 617Q477 617 410
589T293 509T214 385T185 228Q185 82 266 1T509 -80Q603 -80 710 -47L725 -142Q671 -160 608 -170T494 -180Q392 -180 313 -153T181 -73T100 53T72 216Q72 323 109 415T213 575T368 679T558 716Q653 716 727 689T852 614T927 502T952 364Z" />
<glyph unicode="A" glyph-name="A" horiz-adv-x="626" d="M335 458Q327 484 320 509T308 559H306Q301 535 294 509T280 459L210 247H405L335 458ZM480 0L434 144H180L133 0H2L228 675H397L624 0H480Z" />
<glyph unicode="B" glyph-name="B" horiz-adv-x="581" d="M403 201Q403 248 369 272T261 297Q243 297 226 297T200 296V105Q211 104 232 103T273 102Q337 102 370 129T403 201ZM383 488Q383 529 356 552T268 576Q252 576 236 576T200 574V395Q211 394 223 394T258
394Q320 394 351 418T383 488ZM543 207Q543 167 527 130T478 63T392 16T269 -2Q251 -2 184 -1T70 0V674Q97 675 155 677T277 679Q398 679 459 635T520 507Q520 458 494 418T422 360V359Q450 352 472 338T510 305T534 261T543 207Z" />
<glyph unicode="C" glyph-name="C" horiz-adv-x="566" d="M526 27Q486 11 441 2T349 -8Q264 -8 204 18T108 89T55 193T38 319Q38 401 59 468T124 583T229 657T372 683Q409 683 448 677T521 659L500 538Q433 566 365 566Q319 566 284 549T226 501T192 427T180 336Q180
226 228 169T372 111Q403 111 439 120T506 142L526 27Z" />
<glyph unicode="D" glyph-name="D" horiz-adv-x="667" d="M490 339Q490 395 479 437T442 509T377 554T279 570Q256 570 236 569T200 567V112Q214 110 233 109T271 107Q319 107 359 121T428 163T474 236T490 339ZM630 349Q630 264 604 198T528 87T410 19T258 -4Q214
-4 160 -2T70 1V674Q128 676 180 677T288 679Q368 679 431 661T538 602T606 499T630 349Z" />
<glyph unicode="E" glyph-name="E" horiz-adv-x="510" d="M70 0V675H452V566H200V400H431V294H200V112H452V0H70Z" />
<glyph unicode="F" glyph-name="F" horiz-adv-x="471" d="M200 564V388H423V282H200V0H70V675H440V564H200Z" />
<glyph unicode="G" glyph-name="G" horiz-adv-x="675" d="M608 32Q558 12 498 1T377 -10Q295 -10 231 12T124 78T58 181T36 317Q36 399 60 467T132 583T250 658T411 685Q461 685 510 677T602 656L576 537Q498 569 403 569Q345 569 302 551T231 501T190 426T177
334Q177 226 232 167T392 107Q439 107 478 119V354H608V32Z" />
<glyph unicode="H" glyph-name="H" horiz-adv-x="686" d="M486 0V293H200V0H70V675H200V405H486V675H617V0H486Z" />
<glyph unicode="I" glyph-name="I" horiz-adv-x="270" d="M70 0V675H200V0H70Z" />
<glyph unicode="J" glyph-name="J" horiz-adv-x="347" d="M279 192Q279 149 269 112T235 49T176 7T88 -9Q42 -9 0 -1V111Q36 101 70 101Q88 101 102 105T127 120T142 149T148 194V675H279V192Z" />
<glyph unicode="K" glyph-name="K" horiz-adv-x="597" d="M417 0L200 324V0H70V675H200V369L418 675H576L329 351L588 0H417Z" />
<glyph unicode="L" glyph-name="L" horiz-adv-x="429" d="M70 0V675H200V113H419V0H70Z" />
<glyph unicode="M" glyph-name="M" horiz-adv-x="896" d="M732 0L691 332Q684 389 680 447T675 552H673Q664 507 652 460T623 364L501 0H380L263 350Q248 396 232 454T208 552H206Q205 508 202 450T192 329L157 0H31L112 675H293L411 325Q421 295 430 259T446
188H448Q456 229 464 263T481 325L599 675H782L865 0H732Z" />
<glyph unicode="N" glyph-name="N" horiz-adv-x="690" d="M483 0L271 342Q220 423 188 494H186Q196 317 196 184V0H70V675H223L421 355Q473 275 502 207H504Q494 356 494 511V675H620V0H483Z" />
<glyph unicode="O" glyph-name="O" horiz-adv-x="713" d="M538 335Q538 445 492 507T356 569Q316 569 283 554T226 510T188 438T175 341Q175 286 186 243T220 169T277 122T356 106Q396 106 429 121T487 165T524 237T538 335ZM677 350Q677 265 651 197T580 83T474
13T346 -11Q271 -11 213 11T115 77T56 183T36 325Q36 410 62 478T133 592T239 662T367 686Q442 686 500 664T598 598T657 492T677 350Z" />
<glyph unicode="P" glyph-name="P" horiz-adv-x="553" d="M530 462Q530 410 512 366T458 287T370 235T253 216Q241 216 230 216T209 217T200 218V0H70V675Q81 675 108 676T179 678T264 679Q394 679 462 621T530 462ZM396 448Q396 505 362 538T256 572Q224 572
200 571V328Q203 327 211 326T233 324T261 323Q325 323 360 357T396 448Z" />
<glyph unicode="Q" glyph-name="Q" horiz-adv-x="713" d="M539 335Q539 445 493 507T356 569Q316 569 283 554T225 510T188 438T174 341Q174 286 185 243T220 169T277 122T356 106Q396 106 429 121T487 165T525 237T539 335ZM706 -66Q647 -74 607 -69T517 -45T442
-19T374 -11H346Q271 -11 213 11T115 77T56 183T36 325Q36 410 62 478T133 592T239 662T367 686Q442 686 500 664T598 598T657 492T677 350Q677 308 671 270T652 199T623 139T583 93T536 61Q554 62 574 57T612 48T652 42T706 44V-66Z" />
<glyph unicode="R" glyph-name="R" horiz-adv-x="575" d="M381 472Q381 573 259 573Q242 573 225 572T200 570V370Q207 370 223 370T255 369Q315 369 348 396T381 472ZM406 0L236 272H200V0H70V675Q93 676 147 677T268 679Q327 679 373 668T451 633T501 572T518
484Q518 445 507 413T475 358T427 318T366 294Q373 285 388 265T418 221L564 0H406Z" />
<glyph unicode="S" glyph-name="S" horiz-adv-x="503" d="M467 199Q467 153 450 115T400 48T317 5T206 -11Q123 -11 49 7L63 132Q97 118 136 110T213 102Q238 102 259 107T295 122T319 148T328 186Q328 216 309 235T252 272T177 305T111 343T60 400T40 487Q40
531 57 567T107 630T187 671T295 686Q323 686 356 683T417 673L405 559Q377 568 347 573T287 578Q232 578 204 558T176 500Q176 472 195 453T252 416T327 383T396 344T447 287T467 199Z" />
<glyph unicode="T" glyph-name="T" horiz-adv-x="510" d="M320 564V0H190V564H15V675H495V564H320Z" />
<glyph unicode="U" glyph-name="U" horiz-adv-x="681" d="M611 262Q611 125 539 57T331 -11Q254 -11 203 8T122 61T82 138T70 234V675H200V242Q200 208 206 182T228 137T271 108T340 97Q416 97 449 133T482 254V675H611V262Z" />
<glyph unicode="V" glyph-name="V" horiz-adv-x="628" d="M399 0H230L3 675H147L277 271Q288 232 298 193T317 121H319Q328 158 338 198T360 273L491 675H625L399 0Z" />
<glyph unicode="W" glyph-name="W" horiz-adv-x="958" d="M765 0H604L501 369Q494 395 489 428T479 492H477Q465 404 456 369L355 0H193L24 675H163L253 306Q262 260 269 219T282 138H284Q290 179 297 220T316 304L418 675H548L653 300Q664 261 673 219T688 138H690Q696
184 702 223T716 298L805 675H933L765 0Z" />
<glyph unicode="X" glyph-name="X" horiz-adv-x="628" d="M454 0L309 248L164 0H10L225 345L23 675H174L311 441L447 675H595L396 346L618 0H454Z" />
<glyph unicode="Y" glyph-name="Y" horiz-adv-x="561" d="M345 249V0H215V248L-2 675H141L235 485Q249 456 260 430T281 378H283Q293 404 305 431T335 494L425 675H563L345 249Z" />
<glyph unicode="Z" glyph-name="Z" horiz-adv-x="537" d="M45 0V100L288 496Q303 519 312 532T332 560Q310 559 282 559T209 558H53V675H489V570L232 165Q219 145 214 137T201 118Q209 119 227 119T270 120T347 120H493V0H45Z" />
<glyph unicode="[" glyph-name="bracketleft" horiz-adv-x="328" d="M71 -205V777H292V676H191V-102H292V-205H71Z" />
<glyph unicode="\" glyph-name="backslash" horiz-adv-x="479" d="M357 -161L7 757H133L483 -161H357Z" />
<glyph unicode="]" glyph-name="bracketright" horiz-adv-x="328" d="M36 -205V-102H136V676H36V777H256V-205H36Z" />
<glyph unicode="^" glyph-name="asciicircum" horiz-adv-x="550" d="M396 337L265 584L140 337L55 382L219 675H317L488 383L396 337Z" />
<glyph unicode="_" glyph-name="underscore" horiz-adv-x="550" d="M0 -246V-143H550V-246H0Z" />
<glyph unicode="`" glyph-name="grave" horiz-adv-x="350" d="M228 558L65 687L135 763L285 619L228 558Z" />
<glyph unicode="a" glyph-name="a" horiz-adv-x="524" d="M325 221Q278 221 246 216T196 200T169 177T161 146Q161 121 177 105T221 88Q243 88 262 98T296 125T317 163T325 206V221ZM335 0Q335 24 336 45T340 84L339 85Q321 42 278 16T180 -10Q114 -10 76 30T38
132Q38 176 58 208T115 262T206 294T325 305V326Q325 370 305 390T236 410Q203 410 163 401T85 377L65 474Q110 489 159 498T251 508Q308 508 347 497T409 463T443 408T453 333V128Q453 95 454 62T457 0H335Z" />
<glyph unicode="b" glyph-name="b" horiz-adv-x="559" d="M389 261Q389 401 304 401Q280 401 260 388T226 353T205 301T197 241V102Q226 92 264 92Q292 92 314 101T354 131T380 183T389 261ZM523 274Q523 211 505 159T452 69T367 11T254 -10Q207 -10 156 -3T69
14V730H197V516Q197 493 195 466T189 419H190Q209 460 249 483T340 507Q429 507 476 446T523 274Z" />
<glyph unicode="c" glyph-name="c" horiz-adv-x="425" d="M398 14Q369 3 333 -3T259 -9Q205 -9 163 5T92 50T49 125T34 232Q34 296 51 347T101 433T181 487T285 506Q312 506 341 502T396 489L376 379Q352 388 329 393T283 398Q228 398 198 358T168 245Q168 210
175 184T196 139T232 111T284 101Q335 101 381 121L398 14Z" />
<glyph unicode="d" glyph-name="d" horiz-adv-x="559" d="M362 397Q344 401 328 403T295 405Q237 405 204 365T170 236Q170 95 255 95Q279 95 299 108T333 144T354 196T362 258V397ZM370 0Q370 19 371 41T376 83H374Q353 40 312 15T217 -11Q128 -11 82 51T36 222Q36
285 54 337T106 427T189 485T299 506Q316 506 331 505T362 502V730H489V0H370Z" />
<glyph unicode="e" glyph-name="e" horiz-adv-x="514" d="M349 307Q350 358 327 385T263 413Q223 413 196 385T165 307H349ZM476 296Q476 272 475 251T472 221H164Q164 89 296 89Q368 89 446 115L459 20Q417 6 371 -2T281 -10Q160 -10 97 52T34 244Q34 300 50
348T97 432T172 487T270 507Q323 507 362 491T427 447T464 380T476 296Z" />
<glyph unicode="f" glyph-name="f" horiz-adv-x="354" d="M365 625Q357 627 339 630T301 634Q260 634 241 611T222 535V497H338V398H222V0H95V398H8V497H95V526Q95 634 146 686T298 738Q322 738 343 736T374 731L365 625Z" />
<glyph unicode="g" glyph-name="g" horiz-adv-x="559" d="M362 397Q333 404 295 404Q237 404 204 364T170 236Q170 96 254 96Q279 96 299 109T333 145T354 197T362 260V397ZM489 -7Q489 -65 474 -109T425 -185T341 -232T218 -249Q177 -249 138 -245T65 -232L77
-116Q110 -128 149 -134T225 -141Q296 -141 329 -112T363 -20V10Q363 30 364 47T369 81L367 82Q347 39 308 15T220 -10Q131 -10 84 49T36 222Q36 285 54 337T106 427T191 485T307 506Q357 506 401 502T489 491V-7Z" />
<glyph unicode="h" glyph-name="h" horiz-adv-x="571" d="M374 0V318Q374 359 360 379T312 400Q288 400 267 388T231 353T206 301T197 239V0H69V730H197V516Q197 490 195 463T188 415H190Q212 458 254 482T353 507Q394 507 422 495T468 462T493 412T501 349V0H374Z" />
<glyph unicode="i" glyph-name="i" horiz-adv-x="266" d="M69 0V497H197V0H69ZM213 648Q213 616 190 594T133 571Q100 571 77 593T54 648Q54 680 77 703T133 726Q166 726 189 704T213 648Z" />
<glyph unicode="j" glyph-name="j" horiz-adv-x="270" d="M201 -37Q201 -88 191 -127T158 -193T100 -234T14 -248Q-10 -248 -32 -245T-63 -240L-54 -131Q-47 -134 -29 -137T12 -141Q46 -141 60 -121T74 -50V497H201V-37ZM217 648Q217 616 194 594T137 571Q104
571 81 593T57 648Q57 680 80 703T137 726Q170 726 193 704T217 648Z" />
<glyph unicode="k" glyph-name="k" horiz-adv-x="523" d="M351 0L197 246V0H69V730H197V290L342 497H492L321 275L511 0H351Z" />
<glyph unicode="l" glyph-name="l" horiz-adv-x="266" d="M69 0V730H197V0H69Z" />
<glyph unicode="m" glyph-name="m" horiz-adv-x="866" d="M669 0V314Q669 357 656 378T610 400Q589 400 569 389T532 355T506 303T496 238V0H370V315Q370 356 358 378T311 400Q289 400 269 388T232 354T207 302T197 238V0H69V497H190Q190 478 189 453T184 408L185
407Q208 453 251 480T349 507Q381 507 406 499T447 476T472 445T486 408Q495 427 510 444T545 476T592 498T648 507Q723 507 760 467T797 342V0H669Z" />
<glyph unicode="n" glyph-name="n" horiz-adv-x="571" d="M374 0V318Q374 359 360 379T312 400Q289 400 268 388T231 353T206 301T197 240V0H69V497H190Q190 477 188 452T183 408H184Q207 453 250 480T353 507Q394 507 422 495T468 461T493 409T501 344V0H374Z" />
<glyph unicode="o" glyph-name="o" horiz-adv-x="553" d="M388 248Q388 321 359 360T278 399Q252 399 231 390T196 361T173 314T165 249Q165 99 276 99Q327 99 357 136T388 248ZM520 260Q520 202 503 153T454 67T374 10T267 -10Q213 -10 170 5T97 50T50 127T33
237Q33 295 50 344T99 430T179 487T286 507Q399 507 459 444T520 260Z" />
<glyph unicode="p" glyph-name="p" horiz-adv-x="559" d="M389 261Q389 402 304 402Q280 402 260 389T226 353T205 301T197 239V101Q227 92 264 92Q292 92 314 101T354 131T380 183T389 261ZM523 275Q523 210 506 158T456 69T374 13T261 -7Q242 -7 227 -6T197
-3V-241H69V497H188Q188 476 187 454T183 414H185Q206 458 246 482T341 507Q429 507 476 447T523 275Z" />
<glyph unicode="q" glyph-name="q" horiz-adv-x="559" d="M362 398Q344 401 328 403T295 405Q237 405 204 365T170 236Q170 95 254 95Q278 95 298 108T333 144T354 197T362 260V398ZM362 -241V-16Q362 9 363 33T369 80L367 81Q347 38 308 14T220 -11Q130 -11 83
48T36 222Q36 285 54 337T106 427T191 485T307 506Q357 506 401 502T489 491V-241H362Z" />
<glyph unicode="r" glyph-name="r" horiz-adv-x="355" d="M335 382Q197 409 197 203V0H69V497H190Q190 477 188 450T181 397H183Q193 422 206 443T239 479T284 502T341 507L335 382Z" />
<glyph unicode="s" glyph-name="s" horiz-adv-x="417" d="M378 152Q378 117 365 88T324 36T256 2T162 -10Q132 -10 102 -7T48 3L55 109Q78 100 109 95T168 89Q205 89 225 102T245 140Q245 160 232 172T194 195T141 216T91 243T55 286T41 352Q41 385 54 413T93
462T158 496T250 508Q271 508 294 506T342 499L335 398Q313 404 290 408T244 412Q209 412 191 399T172 364Q172 345 185 333T224 310T277 288T328 260T364 217T378 152Z" />
<glyph unicode="t" glyph-name="t" horiz-adv-x="375" d="M345 4Q320 -2 291 -6T239 -10Q197 -10 169 -2T125 25T101 73T93 149V398H8V497H93V650L221 684V497H340V398H221V173Q221 129 233 113T277 97Q306 97 336 104L345 4Z" />
<glyph unicode="u" glyph-name="u" horiz-adv-x="570" d="M381 0Q381 23 382 47T387 89H386Q362 43 319 17T217 -10Q176 -10 148 2T102 35T77 85T69 148V497H196V179Q196 138 210 118T258 97Q282 97 303 109T340 144T364 196T373 257V497H501V0H381Z" />
<glyph unicode="v" glyph-name="v" horiz-adv-x="506" d="M328 0H176L5 497H143L223 257Q234 219 241 191T255 133H257Q263 164 270 193T287 256L365 497H500L328 0Z" />
<glyph unicode="w" glyph-name="w" horiz-adv-x="796" d="M632 0H489L418 226Q410 256 403 285T391 342H390Q384 313 377 283T358 211L296 0H159L10 497H151L207 290Q207 290 221 232T241 148H242Q249 183 257 220T275 291L337 497H464L527 291Q539 248 547 214T562
147H564Q569 179 577 211T597 290L655 497H785L632 0Z" />
<glyph unicode="x" glyph-name="x" horiz-adv-x="528" d="M356 0L260 167L164 0H21H11L182 251L21 497H31H174L270 333L367 497H498H509L353 252L517 0H507H356Z" />
<glyph unicode="y" glyph-name="y" horiz-adv-x="570" d="M100 -116Q133 -128 171 -134T248 -141Q312 -141 344 -112T376 -20V8Q376 25 378 47T385 91H384Q361 47 320 20T217 -7Q175 -7 147 5T101 39T77 88T69 150V497H196V181Q196 142 209 120T258 98Q282 98
303 111T339 146T364 197T373 259V497H501V-7Q501 -71 483 -116T430 -191T347 -235T238 -249Q159 -249 89 -232L100 -116Z" />
<glyph unicode="z" glyph-name="z" horiz-adv-x="450" d="M45 0V91L245 384Q229 383 201 383T139 382H51V497H399V406L203 116Q217 117 246 117T316 117H403V0H45Z" />
<glyph unicode="{" glyph-name="braceleft" horiz-adv-x="362" d="M306 -205Q257 -205 223 -192T167 -151T135 -82T124 18V153Q124 184 118 205T100 238T69 257T24 265V361Q51 363 69 368T100 385T118 417T124 469V556Q124 611 134 652T165 721T221 763T306 777H327V676Q302
676 286 671T261 653T247 617T243 558V472Q243 433 237 405T218 358T190 329T151 314V312Q172 309 189 298T218 268T236 219T243 151V17Q243 -20 247 -43T260 -79T286 -97T327 -102V-205H306Z" />
<glyph unicode="|" glyph-name="bar" horiz-adv-x="288" d="M91 -241V759H193V-241H91Z" />
<glyph unicode="}" glyph-name="braceright" horiz-adv-x="362" d="M35 -102Q60 -102 76 -97T101 -79T115 -43T119 17V151Q119 190 125 219T144 267T173 298T211 312V314Q189 317 173 327T144 356T126 403T119 469V558Q119 594 115 617T102 653T76 671T35 676V777H56Q106
777 141 763T197 721T228 652T238 556V472Q238 439 244 418T262 385T292 368T338 361V265Q312 263 294 257T263 239T244 205T238 153V18Q238 -40 228 -82T196 -151T140 -191T56 -205H35V-102Z" />
<glyph unicode="~" glyph-name="asciitilde" horiz-adv-x="550" d="M509 566Q509 494 468 450T358 406Q320 406 294 420T245 464T210 502T184 510Q160 510 149 490T137 430H42V448Q42 520 83 564T193 608Q228 608 255 594T306 550T341 511T367 503Q391 503 402
523T414 584H509V566Z" />
<glyph unicode="&#xa0;" glyph-name="uni00A0" horiz-adv-x="218" />
<glyph unicode="&#xa1;" glyph-name="exclamdown" horiz-adv-x="321" d="M231 432Q231 416 225 402T209 378T184 362T153 356Q137 356 123 362T98 378T81 402T75 432Q75 448 81 462T97 486T122 502T153 508Q170 508 184 502T208 486T225 462T231 432ZM77 -211L96
309H206L227 -211H77Z" />
<glyph unicode="&#xa2;" glyph-name="cent" horiz-adv-x="454" d="M415 127Q395 118 370 112T319 103V-24H223V103Q178 109 144 127T88 177T54 248T42 338Q42 385 54 426T89 499T146 553T223 583V694H319V590Q342 588 366 584T411 573L395 466Q353 486 299 486Q240
486 208 449T175 345Q175 315 182 291T203 248T241 220T298 210Q325 210 350 216T399 234L415 127Z" />
<glyph unicode="&#xa3;" glyph-name="sterling" horiz-adv-x="476" d="M42 0V89Q89 122 109 157T130 240Q130 254 130 267T126 301H29V399H115Q110 430 107 454T104 500Q104 591 157 639T308 687Q336 687 366 683T419 672L397 567Q379 574 358 578T315 582Q276
582 255 562T233 500Q233 485 235 464T243 399H378V301H255Q256 291 256 284T257 271T257 252Q257 206 241 171T190 105Q199 106 212 107T240 109T270 110T297 111H451V0H42Z" />
<glyph unicode="&#xa4;" glyph-name="currency" horiz-adv-x="550" d="M361 334Q361 381 341 407T274 433Q240 433 215 408T189 331Q189 286 209 257T275 227Q308 227 334 252T361 334ZM417 47L340 150Q305 134 266 134Q250 134 237 136T211 143L142 48L43 118L111
203Q95 226 86 256T77 326Q77 399 116 449L44 541L141 610L212 513Q244 526 284 526Q300 526 316 524T348 515L418 611L515 540L444 451Q458 431 465 403T473 336Q473 301 463 271T436 217L515 118L417 47Z" />
<glyph unicode="&#xa5;" glyph-name="yen" horiz-adv-x="601" d="M364 74V0H235V74H80V154H235V225H80V305H235V319L21 675H166L250 525Q261 504 276 476T301 425H302Q317 455 330 481T357 530L440 675H579L364 319V305H519V225H364V154H519V74H364Z" />
<glyph unicode="&#xa6;" glyph-name="brokenbar" horiz-adv-x="288" d="M91 391V759H193V391H91ZM91 -241V137H193V-241H91Z" />
<glyph unicode="&#xa7;" glyph-name="section" horiz-adv-x="530" d="M342 230Q342 254 331 275T302 316T259 358T208 406Q191 393 184 376T176 342Q176 320 185 301T211 261T253 218T310 167Q327 179 334 196T342 230ZM458 247Q458 203 437 166T381 102Q398 81
408 56T418 -2Q418 -33 406 -62T367 -115T297 -153T193 -167Q176 -167 153 -165T110 -157L118 -50Q158 -62 195 -62Q240 -62 260 -45T281 -1Q281 22 265 42T224 84T171 129T118 181T77 245T60 325Q60 370 80 407T136 470Q118 493 109 517T99 574Q99 607 110 636T147
688T212 724T309 738Q329 738 350 737T391 730L384 624Q350 634 313 634Q272 634 254 620T236 578Q236 556 252 536T293 493T347 447T400 393T441 327T458 247Z" />
<glyph unicode="&#xa8;" glyph-name="dieresis" horiz-adv-x="471" d="M203 648Q203 619 183 599T134 579Q105 579 85 599T65 648Q65 677 85 697T134 717Q163 717 183 697T203 648ZM406 648Q406 619 386 599T337 579Q308 579 288 599T268 648Q268 677 288 697T337
717Q366 717 386 697T406 648Z" />
<glyph unicode="&#xa9;" glyph-name="copyright" horiz-adv-x="762" d="M722 334Q722 264 695 202T622 93T513 19T380 -8Q309 -8 246 18T137 91T64 200T38 333Q38 403 64 465T138 575T247 648T380 675Q450 675 512 649T622 576T695 467T722 334ZM625 333Q625 383
606 428T554 507T475 560T380 580Q330 580 285 561T207 509T154 430T134 334Q134 284 153 239T206 160T285 107T380 87Q430 87 475 106T553 159T606 238T625 333ZM480 177Q457 167 432 162T378 157Q340 157 310 169T260 204T228 259T217 330Q217 367 227 400T259
458T314 497T393 512Q417 512 437 509T475 497L461 412Q449 420 433 424T398 429Q378 429 364 422T341 403T327 372T323 332Q323 290 340 268T393 245Q413 245 430 248T463 259L480 177Z" />
<glyph unicode="&#xaa;" glyph-name="ordfeminine" horiz-adv-x="403" d="M239 477Q184 477 160 466T136 428Q136 413 146 404T173 395Q189 395 201 402T222 420T234 443T239 467V477ZM45 176V269H357V176H45ZM244 325Q244 337 245 350T248 374H247Q234 347 207
332T146 316Q93 316 67 343T40 414Q40 447 54 471T96 511T159 534T239 542V557Q239 566 237 574T229 589T211 600T180 604Q153 604 125 597T71 579L62 662Q90 673 125 679T196 685Q237 685 265 676T309 650T333 612T340 565V410Q340 393 340 374T341 343T342 325H244Z"
/>
<glyph unicode="&#xab;" glyph-name="guillemotleft" horiz-adv-x="534" d="M377 103L259 292L379 484L475 438L383 293L477 150L377 103ZM149 98L42 292L152 489L250 444L165 293L252 144L149 98Z" />
<glyph unicode="&#xac;" glyph-name="logicalnot" horiz-adv-x="550" d="M376 95V244H39V351H489V95H376Z" />
<glyph unicode="&#xad;" glyph-name="uni00AD" horiz-adv-x="334" d="M44 226V329H290V226H44Z" />
<glyph unicode="&#xae;" glyph-name="registered" horiz-adv-x="564" d="M306 573Q306 597 276 597H260V546H271Q289 546 297 554T306 573ZM305 420L267 505H260V420H200V643H293Q335 643 353 626T372 581Q372 555 360 540T327 518Q336 507 344 491L377 420H305ZM438
530Q438 562 426 591T392 641T343 675T282 688Q249 688 221 676T171 642T138 593T125 531Q125 499 137 470T171 420T220 386T282 373Q314 373 342 385T392 419T425 468T438 530ZM516 530Q516 482 498 440T447 367T373 318T282 300Q233 300 190 318T116 367T66 440T48
530Q48 578 66 620T116 694T191 743T282 761Q331 761 373 744T447 695T497 622T516 530Z" />
<glyph unicode="&#xaf;" glyph-name="macron" horiz-adv-x="400" d="M65 600V692H335V600H65Z" />
<glyph unicode="&#xb0;" glyph-name="degree" horiz-adv-x="388" d="M245 604Q245 624 233 643T192 662Q168 662 153 646T137 602Q137 574 152 559T191 543Q216 543 230 560T245 604ZM340 604Q340 569 327 543T293 498T243 471T186 462Q119 462 81 499T42 601Q42
634 55 660T89 705T138 732T193 742Q232 742 260 731T305 701T331 657T340 604Z" />
<glyph unicode="&#xb1;" glyph-name="plusminus" horiz-adv-x="550" d="M336 346V163H214V346H39V452H214V634H336V452H511V346H336ZM43 0V107H507V0H43Z" />
<glyph unicode="&#xb2;" glyph-name="twosuperior" horiz-adv-x="386" d="M37 347V440L133 535Q173 574 189 600T206 650Q206 676 191 691T143 707Q122 707 100 701T57 684L40 773Q68 785 104 793T175 801Q252 801 292 767T333 670Q333 646 327 625T310 583T282
544T242 502L181 443Q210 445 255 446T350 447V347H37Z" />
<glyph unicode="&#xb3;" glyph-name="threesuperior" horiz-adv-x="377" d="M335 487Q335 419 281 379T129 339Q106 339 78 341T30 348L42 433Q60 427 83 424T126 421Q170 421 191 437T212 479Q212 512 176 526T61 534V612Q132 612 166 628T200 674Q200 696 184
708T136 720Q117 720 94 716T48 703L36 781Q65 791 98 796T163 801Q238 801 279 772T320 688Q320 653 301 629T250 591Q293 578 314 551T335 487Z" />
<glyph unicode="&#xb4;" glyph-name="acute" horiz-adv-x="350" d="M122 558L65 619L215 763L285 688L122 558Z" />
<glyph unicode="&#xb5;" glyph-name="mu1" horiz-adv-x="582" d="M556 -4Q528 -9 505 -9Q473 -9 452 -2T417 18T399 48T392 87H391Q372 43 336 18T249 -7Q206 -7 185 16L200 -241H69V497H197V175Q197 97 258 97Q283 97 304 108T341 142T365 193T374 259V497H501V179Q501
153 503 137T512 113T528 101T556 97V-4Z" />
<glyph unicode="&#xb6;" glyph-name="paragraph" horiz-adv-x="595" d="M479 573V-96H300V6H370V675H544V573H479ZM293 231Q230 231 185 248T111 296T68 367T54 454Q54 504 72 545T121 615T196 659T293 675V231Z" />
<glyph unicode="&#xb7;" glyph-name="periodcentered" horiz-adv-x="269" d="M218 298Q218 281 212 266T193 239T167 221T135 215Q118 215 103 221T76 239T58 266T52 298Q52 315 58 329T76 356T103 374T135 381Q152 381 166 375T193 356T211 330T218 298Z" />
<glyph unicode="&#xb8;" glyph-name="cedilla" horiz-adv-x="279" d="M182 -40Q220 -93 213 -142T162 -234H65Q83 -212 94 -193T107 -154T102 -116T76 -73L182 -40Z" />
<glyph unicode="&#xb9;" glyph-name="onesuperior" horiz-adv-x="306" d="M119 347V690L32 661L13 749L137 792H239V347H119Z" />
<glyph unicode="&#xba;" glyph-name="ordmasculine" horiz-adv-x="426" d="M283 502Q283 548 265 572T213 597Q181 597 162 573T143 501Q143 478 147 460T161 430T183 412T212 405Q245 405 264 430T283 502ZM54 176V269H372V176H54ZM386 509Q386 468 374 433T339
372T283 332T206 317Q168 317 137 327T84 360T51 415T39 493Q39 534 51 569T86 630T143 671T220 686Q258 686 288 676T341 643T374 588T386 509Z" />
<glyph unicode="&#xbb;" glyph-name="guillemotright" horiz-adv-x="534" d="M383 98L284 143L369 294L282 443L385 489L492 295L383 98ZM155 103L59 149L151 294L57 437L157 484L275 295L155 103Z" />
<glyph unicode="&#xbc;" glyph-name="onequarter" horiz-adv-x="833" d="M119 347V690L32 661L13 749L137 792H239V347H119ZM105 -139L26 -84L671 811L749 756L105 -139ZM750 -27V-120H633V-27H430L423 53L577 325H750V65H809V-27H750ZM633 253L526 62Q565 64
633 64V253Z" />
<glyph unicode="&#xbd;" glyph-name="onehalf" horiz-adv-x="866" d="M119 347V690L32 661L13 749L137 792H239V347H119ZM105 -139L26 -84L671 811L749 756L105 -139ZM517 -120V-27L613 68Q653 107 669 133T686 183Q686 209 671 224T623 240Q602 240 580 234T537
217L520 306Q548 318 584 326T655 334Q732 334 772 300T813 203Q813 179 807 158T790 116T762 77T722 35L661 -24Q690 -22 735 -21T830 -20V-120H517Z" />
<glyph unicode="&#xbe;" glyph-name="threequarters" horiz-adv-x="877" d="M335 487Q335 419 281 379T129 339Q106 339 78 341T30 348L42 433Q60 427 83 424T126 421Q170 421 191 437T212 479Q212 512 176 526T61 534V612Q132 612 166 628T200 674Q200 696 184
708T136 720Q117 720 94 716T48 703L36 781Q65 791 98 796T163 801Q238 801 279 772T320 688Q320 653 301 629T250 591Q293 578 314 551T335 487ZM149 -139L70 -84L715 811L793 756L149 -139ZM794 -27V-120H677V-27H474L467 53L621 325H794V65H853V-27H794ZM677
253L570 62Q609 64 677 64V253Z" />
<glyph unicode="&#xbf;" glyph-name="questiondown" horiz-adv-x="451" d="M368 -220Q285 -218 225 -201T125 -155T66 -91T47 -16Q47 26 61 55T96 107T140 149T179 191T202 241T197 309H322Q338 262 334 228T315 167T279 121T237 82T202 43T187 -2Q187 -47 239
-74T384 -104L368 -220ZM336 432Q336 400 314 378T258 356Q225 356 203 378T180 432Q180 464 202 486T258 508Q291 508 313 486T336 432Z" />
<glyph unicode="&#xc0;" glyph-name="Agrave" horiz-adv-x="626" d="M335 458Q327 484 320 509T308 559H306Q301 535 294 509T280 459L210 247H405L335 458ZM480 0L434 144H180L133 0H2L228 675H397L624 0H480ZM372 716L156 769L186 861L393 786L372 716Z" />
<glyph unicode="&#xc1;" glyph-name="Aacute" horiz-adv-x="626" d="M335 458Q327 484 320 509T308 559H306Q301 535 294 509T280 459L210 247H405L335 458ZM480 0L434 144H180L133 0H2L228 675H397L624 0H480ZM243 716L222 786L430 861L459 769L243 716Z" />
<glyph unicode="&#xc2;" glyph-name="Acircumflex" horiz-adv-x="626" d="M335 458Q327 484 320 509T308 559H306Q301 535 294 509T280 459L210 247H405L335 458ZM480 0L434 144H180L133 0H2L228 675H397L624 0H480ZM446 715L310 770L173 715L144 781L312 865L476
782L446 715Z" />
<glyph unicode="&#xc3;" glyph-name="Atilde" horiz-adv-x="626" d="M335 458Q327 484 320 509T308 559H306Q301 535 294 509T280 459L210 247H405L335 458ZM480 0L434 144H180L133 0H2L228 675H397L624 0H480ZM499 810Q453 728 373 728Q350 728 333 734T296 753T268
770T246 775Q213 775 188 732L124 776Q170 858 250 858Q273 858 290 852T327 833T356 816T378 811Q395 811 409 821T435 853L499 810Z" />
<glyph unicode="&#xc4;" glyph-name="Adieresis" horiz-adv-x="626" d="M335 458Q327 484 320 509T308 559H306Q301 535 294 509T280 459L210 247H405L335 458ZM480 0L434 144H180L133 0H2L228 675H397L624 0H480ZM486 788Q486 759 466 739T417 719Q388 719 368
739T348 788Q348 817 368 837T417 857Q446 857 466 837T486 788ZM270 788Q270 759 250 739T201 719Q172 719 152 739T132 788Q132 817 152 837T201 857Q230 857 250 837T270 788Z" />
<glyph unicode="&#xc5;" glyph-name="Aring" horiz-adv-x="626" d="M335 458Q327 484 320 509T308 559H306Q301 535 294 509T280 459L210 247H405L335 458ZM480 0L434 144H180L133 0H2L228 675H397L624 0H480ZM447 828Q447 801 437 779T409 741T365 717T309 708Q248
708 214 735T180 819Q180 846 190 868T219 906T263 930T319 939Q379 939 413 912T447 828ZM361 823Q361 851 349 863T314 876Q294 876 281 863T267 824Q267 796 278 784T313 771Q333 771 347 784T361 823Z" />
<glyph unicode="&#xc6;" glyph-name="AE" horiz-adv-x="799" d="M371 567H362Q348 531 334 498T300 425L211 251H371V567ZM371 0V149H167L95 0H-38L296 675H739V566H498V400H720V294H498V112H742V0H371Z" />
<glyph unicode="&#xc7;" glyph-name="Ccedilla" horiz-adv-x="566" d="M526 27Q486 11 441 2T349 -8Q264 -8 204 18T108 89T55 193T38 319Q38 401 59 468T124 583T229 657T372 683Q409 683 448 677T521 659L500 538Q433 566 365 566Q319 566 284 549T226 501T192
427T180 336Q180 226 228 169T372 111Q403 111 439 120T506 142L526 27ZM363 -40Q401 -93 394 -142T343 -234H246Q264 -212 275 -193T288 -154T283 -116T257 -73L363 -40Z" />
<glyph unicode="&#xc8;" glyph-name="Egrave" horiz-adv-x="510" d="M70 0V675H452V566H200V400H431V294H200V112H452V0H70ZM320 716L104 769L134 861L341 786L320 716Z" />
<glyph unicode="&#xc9;" glyph-name="Eacute" horiz-adv-x="510" d="M70 0V675H452V566H200V400H431V294H200V112H452V0H70ZM191 716L170 786L378 861L407 769L191 716Z" />
<glyph unicode="&#xca;" glyph-name="Ecircumflex" horiz-adv-x="510" d="M70 0V675H452V566H200V400H431V294H200V112H452V0H70ZM395 715L259 770L122 715L93 781L261 865L425 782L395 715Z" />
<glyph unicode="&#xcb;" glyph-name="Edieresis" horiz-adv-x="510" d="M70 0V675H452V566H200V400H431V294H200V112H452V0H70ZM432 788Q432 759 412 739T363 719Q334 719 314 739T294 788Q294 817 314 837T363 857Q392 857 412 837T432 788ZM216 788Q216 759
196 739T147 719Q118 719 98 739T78 788Q78 817 98 837T147 857Q176 857 196 837T216 788Z" />
<glyph unicode="&#xcc;" glyph-name="Igrave" horiz-adv-x="270" d="M70 0V675H200V0H70ZM453 716L237 769L267 861L474 786L453 716Z" />
<glyph unicode="&#xcd;" glyph-name="Iacute" horiz-adv-x="270" d="M70 0V675H200V0H70ZM330 716L309 786L517 861L546 769L330 716Z" />
<glyph unicode="&#xce;" glyph-name="Icircumflex" horiz-adv-x="270" d="M70 0V675H200V0H70ZM527 715L391 770L254 715L225 781L393 865L557 782L527 715Z" />
<glyph unicode="&#xcf;" glyph-name="Idieresis" horiz-adv-x="270" d="M70 0V675H200V0H70ZM561 788Q561 758 541 739T492 719Q462 719 443 738T423 788Q423 817 442 837T492 857Q521 857 541 837T561 788ZM359 788Q359 758 340 739T290 719Q261 719 241 738T221
788Q221 817 241 837T290 857Q320 857 339 837T359 788Z" />
<glyph unicode="&#xd0;" glyph-name="Eth" horiz-adv-x="676" d="M499 339Q499 396 487 438T450 510T385 555T287 570Q264 570 244 569T208 567V397H330V298H208V112Q222 110 241 109T279 107Q328 107 368 121T438 164T483 237T499 339ZM639 349Q639 266 614 200T539
89T421 20T267 -4Q223 -4 214 -4T79 1V298H4V397H79V674Q145 676 196 677T298 679Q379 679 441 660T548 601T616 498T639 349Z" />
<glyph unicode="&#xd1;" glyph-name="Ntilde" horiz-adv-x="690" d="M483 0L271 342Q220 423 188 494H186Q196 317 196 184V0H70V675H223L421 355Q473 275 502 207H504Q494 356 494 511V675H620V0H483ZM536 810Q490 728 410 728Q387 728 370 734T333 753T305 770T283
775Q250 775 225 732L161 776Q207 858 287 858Q310 858 327 852T364 833T393 816T415 811Q432 811 446 821T472 853L536 810Z" />
<glyph unicode="&#xd2;" glyph-name="Ograve" horiz-adv-x="713" d="M538 335Q538 445 492 507T356 569Q316 569 283 554T226 510T188 438T175 341Q175 286 186 243T220 169T277 122T356 106Q396 106 429 121T487 165T524 237T538 335ZM677 350Q677 265 651 197T580
83T474 13T346 -11Q271 -11 213 11T115 77T56 183T36 325Q36 410 62 478T133 592T239 662T367 686Q442 686 500 664T598 598T657 492T677 350ZM417 716L201 769L231 861L438 786L417 716Z" />
<glyph unicode="&#xd3;" glyph-name="Oacute" horiz-adv-x="713" d="M538 335Q538 445 492 507T356 569Q316 569 283 554T226 510T188 438T175 341Q175 286 186 243T220 169T277 122T356 106Q396 106 429 121T487 165T524 237T538 335ZM677 350Q677 265 651 197T580
83T474 13T346 -11Q271 -11 213 11T115 77T56 183T36 325Q36 410 62 478T133 592T239 662T367 686Q442 686 500 664T598 598T657 492T677 350ZM302 716L281 786L489 861L518 769L302 716Z" />
<glyph unicode="&#xd4;" glyph-name="Ocircumflex" horiz-adv-x="713" d="M538 335Q538 445 492 507T356 569Q316 569 283 554T226 510T188 438T175 341Q175 286 186 243T220 169T277 122T356 106Q396 106 429 121T487 165T524 237T538 335ZM677 350Q677 265 651
197T580 83T474 13T346 -11Q271 -11 213 11T115 77T56 183T36 325Q36 410 62 478T133 592T239 662T367 686Q442 686 500 664T598 598T657 492T677 350ZM500 715L364 770L227 715L198 781L366 865L530 782L500 715Z" />
<glyph unicode="&#xd5;" glyph-name="Otilde" horiz-adv-x="713" d="M538 335Q538 445 492 507T356 569Q316 569 283 554T226 510T188 438T175 341Q175 286 186 243T220 169T277 122T356 106Q396 106 429 121T487 165T524 237T538 335ZM677 350Q677 265 651 197T580
83T474 13T346 -11Q271 -11 213 11T115 77T56 183T36 325Q36 410 62 478T133 592T239 662T367 686Q442 686 500 664T598 598T657 492T677 350ZM545 810Q499 728 419 728Q396 728 379 734T342 753T314 770T292 775Q259 775 234 732L170 776Q216 858 296 858Q319
858 336 852T373 833T402 816T424 811Q441 811 455 821T481 853L545 810Z" />
<glyph unicode="&#xd6;" glyph-name="Odieresis" horiz-adv-x="713" d="M538 335Q538 445 492 507T356 569Q316 569 283 554T226 510T188 438T175 341Q175 286 186 243T220 169T277 122T356 106Q396 106 429 121T487 165T524 237T538 335ZM677 350Q677 265 651
197T580 83T474 13T346 -11Q271 -11 213 11T115 77T56 183T36 325Q36 410 62 478T133 592T239 662T367 686Q442 686 500 664T598 598T657 492T677 350ZM536 788Q536 759 516 739T467 719Q438 719 418 739T398 788Q398 817 418 837T467 857Q496 857 516 837T536
788ZM320 788Q320 759 300 739T251 719Q222 719 202 739T182 788Q182 817 202 837T251 857Q280 857 300 837T320 788Z" />
<glyph unicode="&#xd7;" glyph-name="multiply" horiz-adv-x="550" d="M425 69L271 223L117 69L47 139L201 293L47 447L125 525L279 371L433 525L503 455L349 301L503 147L425 69Z" />
<glyph unicode="&#xd8;" glyph-name="Oslash" horiz-adv-x="713" d="M212 166L418 561Q406 567 389 570T356 573Q315 573 281 558T221 514T183 441T169 341Q169 309 173 282T183 234T197 197T212 166ZM501 509Q453 417 419 352T352 222T295 114Q308 109 324 106T356
102Q397 102 431 117T491 162T530 235T544 335Q544 394 532 435T501 509ZM616 730L564 629Q619 589 648 519T677 350Q677 265 651 197T580 83T474 13T346 -11Q317 -11 290 -7T239 5L187 -97L97 -55L149 46Q122 66 101 93T66 155T44 232T36 325Q36 410 62 478T133
592T239 662T367 686Q396 686 423 682T474 670L526 772L616 730Z" />
<glyph unicode="&#xd9;" glyph-name="Ugrave" horiz-adv-x="681" d="M611 262Q611 125 539 57T331 -11Q254 -11 203 8T122 61T82 138T70 234V675H200V242Q200 208 206 182T228 137T271 108T340 97Q416 97 449 133T482 254V675H611V262ZM380 716L164 769L194 861L401
786L380 716Z" />
<glyph unicode="&#xda;" glyph-name="Uacute" horiz-adv-x="681" d="M611 262Q611 125 539 57T331 -11Q254 -11 203 8T122 61T82 138T70 234V675H200V242Q200 208 206 182T228 137T271 108T340 97Q416 97 449 133T482 254V675H611V262ZM318 716L297 786L505 861L534
769L318 716Z" />
<glyph unicode="&#xdb;" glyph-name="Ucircumflex" horiz-adv-x="681" d="M611 262Q611 125 539 57T331 -11Q254 -11 203 8T122 61T82 138T70 234V675H200V242Q200 208 206 182T228 137T271 108T340 97Q416 97 449 133T482 254V675H611V262ZM479 715L343 770L206
715L177 781L345 865L509 782L479 715Z" />
<glyph unicode="&#xdc;" glyph-name="Udieresis" horiz-adv-x="681" d="M611 262Q611 125 539 57T331 -11Q254 -11 203 8T122 61T82 138T70 234V675H200V242Q200 208 206 182T228 137T271 108T340 97Q416 97 449 133T482 254V675H611V262ZM517 788Q517 759 497
739T448 719Q419 719 399 739T379 788Q379 817 399 837T448 857Q477 857 497 837T517 788ZM301 788Q301 759 281 739T232 719Q203 719 183 739T163 788Q163 817 183 837T232 857Q261 857 281 837T301 788Z" />
<glyph unicode="&#xdd;" glyph-name="Yacute" horiz-adv-x="561" d="M345 249V0H215V248L-2 675H141L235 485Q249 456 260 430T281 378H283Q293 404 305 431T335 494L425 675H563L345 249ZM251 716L230 786L438 861L467 769L251 716Z" />
<glyph unicode="&#xde;" glyph-name="Thorn" horiz-adv-x="545" d="M396 354Q396 411 362 444T256 478Q240 478 224 478T200 476V233Q208 232 225 231T261 229Q325 229 360 263T396 354ZM530 368Q530 316 512 272T458 193T370 141T253 122Q237 122 222 123T200
124V0H70V675H200V584Q208 584 226 584T264 585Q394 585 462 527T530 368Z" />
<glyph unicode="&#xdf;" glyph-name="germandbls" horiz-adv-x="607" d="M576 157Q576 120 561 89T519 35T453 1T369 -11Q302 -11 263 3L270 108Q291 99 314 94T361 88Q403 88 423 104T444 144Q444 164 432 178T397 207T351 236T309 267T278 311T266 374Q266 413
281 438T324 491T366 535T379 580Q379 608 359 623T304 638Q252 638 225 604T197 500V0H69V494Q69 558 87 605T139 681T215 723T309 737Q355 737 392 727T456 698T497 650T512 588Q512 545 497 519T451 467T408 428T396 389Q396 369 408 355T443 325T490 296T532
263T563 219T576 157Z" />
<glyph unicode="&#xe0;" glyph-name="agrave" horiz-adv-x="524" d="M325 221Q278 221 246 216T196 200T169 177T161 146Q161 121 177 105T221 88Q243 88 262 98T296 125T317 163T325 206V221ZM335 0Q335 24 336 45T340 84L339 85Q321 42 278 16T180 -10Q114 -10
76 30T38 132Q38 176 58 208T115 262T206 294T325 305V326Q325 370 305 390T236 410Q203 410 163 401T85 377L65 474Q110 489 159 498T251 508Q308 508 347 497T409 463T443 408T453 333V128Q453 95 454 62T457 0H335ZM281 558L118 687L188 763L338 619L281 558Z"
/>
<glyph unicode="&#xe1;" glyph-name="aacute" horiz-adv-x="524" d="M325 221Q278 221 246 216T196 200T169 177T161 146Q161 121 177 105T221 88Q243 88 262 98T296 125T317 163T325 206V221ZM335 0Q335 24 336 45T340 84L339 85Q321 42 278 16T180 -10Q114 -10
76 30T38 132Q38 176 58 208T115 262T206 294T325 305V326Q325 370 305 390T236 410Q203 410 163 401T85 377L65 474Q110 489 159 498T251 508Q308 508 347 497T409 463T443 408T453 333V128Q453 95 454 62T457 0H335ZM246 558L189 619L339 763L409 688L246 558Z"
/>
<glyph unicode="&#xe2;" glyph-name="acircumflex" horiz-adv-x="524" d="M325 221Q278 221 246 216T196 200T169 177T161 146Q161 121 177 105T221 88Q243 88 262 98T296 125T317 163T325 206V221ZM335 0Q335 24 336 45T340 84L339 85Q321 42 278 16T180 -10Q114
-10 76 30T38 132Q38 176 58 208T115 262T206 294T325 305V326Q325 370 305 390T236 410Q203 410 163 401T85 377L65 474Q110 489 159 498T251 508Q308 508 347 497T409 463T443 408T453 333V128Q453 95 454 62T457 0H335ZM369 560L266 641L161 560L112 618L267
754L419 619L369 560Z" />
<glyph unicode="&#xe3;" glyph-name="atilde" horiz-adv-x="524" d="M325 221Q278 221 246 216T196 200T169 177T161 146Q161 121 177 105T221 88Q243 88 262 98T296 125T317 163T325 206V221ZM335 0Q335 24 336 45T340 84L339 85Q321 42 278 16T180 -10Q114 -10
76 30T38 132Q38 176 58 208T115 262T206 294T325 305V326Q325 370 305 390T236 410Q203 410 163 401T85 377L65 474Q110 489 159 498T251 508Q308 508 347 497T409 463T443 408T453 333V128Q453 95 454 62T457 0H335ZM444 666Q399 577 323 577Q300 577 284 584T248
604T221 623T199 628Q169 628 144 583L83 630Q128 719 205 719Q227 719 243 712T279 692T307 673T328 668Q358 668 383 713L444 666Z" />
<glyph unicode="&#xe4;" glyph-name="adieresis" horiz-adv-x="524" d="M325 221Q278 221 246 216T196 200T169 177T161 146Q161 121 177 105T221 88Q243 88 262 98T296 125T317 163T325 206V221ZM335 0Q335 24 336 45T340 84L339 85Q321 42 278 16T180 -10Q114
-10 76 30T38 132Q38 176 58 208T115 262T206 294T325 305V326Q325 370 305 390T236 410Q203 410 163 401T85 377L65 474Q110 489 159 498T251 508Q308 508 347 497T409 463T443 408T453 333V128Q453 95 454 62T457 0H335ZM231 648Q231 619 211 599T162 579Q133
579 113 599T93 648Q93 677 113 697T162 717Q191 717 211 697T231 648ZM434 648Q434 619 414 599T365 579Q336 579 316 599T296 648Q296 677 316 697T365 717Q394 717 414 697T434 648Z" />
<glyph unicode="&#xe5;" glyph-name="aring" horiz-adv-x="524" d="M325 221Q278 221 246 216T196 200T169 177T161 146Q161 121 177 105T221 88Q243 88 262 98T296 125T317 163T325 206V221ZM335 0Q335 24 336 45T340 84L339 85Q321 42 278 16T180 -10Q114 -10
76 30T38 132Q38 176 58 208T115 262T206 294T325 305V326Q325 370 305 390T236 410Q203 410 163 401T85 377L65 474Q110 489 159 498T251 508Q308 508 347 497T409 463T443 408T453 333V128Q453 95 454 62T457 0H335ZM398 675Q398 647 388 624T360 584T317 558T262
549Q202 549 169 577T136 665Q136 692 146 715T175 755T218 781T273 790Q333 790 365 762T398 675ZM314 669Q314 698 303 711T268 724Q248 724 234 711T220 670Q220 641 232 628T267 615Q287 615 300 628T314 669Z" />
<glyph unicode="&#xe6;" glyph-name="ae" horiz-adv-x="800" d="M325 221Q280 221 249 216T198 202T170 178T161 146Q161 121 177 105T221 88Q243 88 262 97T295 124T317 162T325 206V221ZM635 307Q636 358 614 385T549 413Q508 413 482 385T451 307H635ZM762
296Q762 277 761 256T758 221H450Q451 154 483 122T582 89Q618 89 655 95T732 115L745 20Q703 6 657 -2T567 -10Q491 -10 441 14T368 87H367Q338 41 293 16T191 -10Q119 -10 79 28T38 132Q38 175 57 207T114 262T205 294T325 305V326Q325 371 304 390T236 410Q204
410 164 401T85 377L65 474Q112 490 160 499T251 508Q306 508 344 493T406 446H407Q431 475 470 491T556 507Q607 507 646 492T711 449T749 382T762 296Z" />
<glyph unicode="&#xe7;" glyph-name="ccedilla" horiz-adv-x="425" d="M398 14Q369 3 333 -3T259 -9Q205 -9 163 5T92 50T49 125T34 232Q34 296 51 347T101 433T181 487T285 506Q312 506 341 502T396 489L376 379Q352 388 329 393T283 398Q228 398 198 358T168
245Q168 210 175 184T196 139T232 111T284 101Q335 101 381 121L398 14ZM278 -40Q316 -93 309 -142T258 -234H161Q179 -212 190 -193T203 -154T198 -116T172 -73L278 -40Z" />
<glyph unicode="&#xe8;" glyph-name="egrave" horiz-adv-x="514" d="M349 307Q350 358 327 385T263 413Q223 413 196 385T165 307H349ZM476 296Q476 272 475 251T472 221H164Q164 89 296 89Q368 89 446 115L459 20Q417 6 371 -2T281 -10Q160 -10 97 52T34 244Q34
300 50 348T97 432T172 487T270 507Q323 507 362 491T427 447T464 380T476 296ZM283 558L120 687L190 763L340 619L283 558Z" />
<glyph unicode="&#xe9;" glyph-name="eacute" horiz-adv-x="514" d="M349 307Q350 358 327 385T263 413Q223 413 196 385T165 307H349ZM476 296Q476 272 475 251T472 221H164Q164 89 296 89Q368 89 446 115L459 20Q417 6 371 -2T281 -10Q160 -10 97 52T34 244Q34
300 50 348T97 432T172 487T270 507Q323 507 362 491T427 447T464 380T476 296ZM249 558L192 619L342 763L412 688L249 558Z" />
<glyph unicode="&#xea;" glyph-name="ecircumflex" horiz-adv-x="514" d="M349 307Q350 358 327 385T263 413Q223 413 196 385T165 307H349ZM476 296Q476 272 475 251T472 221H164Q164 89 296 89Q368 89 446 115L459 20Q417 6 371 -2T281 -10Q160 -10 97 52T34
244Q34 300 50 348T97 432T172 487T270 507Q323 507 362 491T427 447T464 380T476 296ZM370 560L267 641L162 560L113 618L268 754L420 619L370 560Z" />
<glyph unicode="&#xeb;" glyph-name="edieresis" horiz-adv-x="514" d="M349 307Q350 358 327 385T263 413Q223 413 196 385T165 307H349ZM476 296Q476 272 475 251T472 221H164Q164 89 296 89Q368 89 446 115L459 20Q417 6 371 -2T281 -10Q160 -10 97 52T34 244Q34
300 50 348T97 432T172 487T270 507Q323 507 362 491T427 447T464 380T476 296ZM234 648Q234 619 214 599T165 579Q136 579 116 599T96 648Q96 677 116 697T165 717Q194 717 214 697T234 648ZM437 648Q437 619 417 599T368 579Q339 579 319 599T299 648Q299 677
319 697T368 717Q397 717 417 697T437 648Z" />
<glyph unicode="&#xec;" glyph-name="igrave" horiz-adv-x="266" d="M69 0V497H197V0H69ZM378 554L267 721L359 770L453 595L378 554Z" />
<glyph unicode="&#xed;" glyph-name="iacute" horiz-adv-x="266" d="M69 0V497H197V0H69ZM135 557L65 606L179 768L265 710L135 557Z" />
<glyph unicode="&#xee;" glyph-name="icircumflex" horiz-adv-x="266" d="M69 0V497H197V0H69ZM477 560L389 641L298 560L252 617L389 753L526 619L477 560Z" />
<glyph unicode="&#xef;" glyph-name="idieresis" horiz-adv-x="266" d="M69 0V497H197V0H69ZM551 648Q551 620 531 600T482 579Q453 579 433 599T413 648Q413 677 433 697T482 717Q511 717 531 697T551 648ZM366 648Q366 620 346 600T297 579Q268 579 248 599T228
648Q228 677 248 697T297 717Q326 717 346 697T366 648Z" />
<glyph unicode="&#xf0;" glyph-name="eth" horiz-adv-x="555" d="M385 260Q385 324 359 361T276 399Q254 399 234 390T199 363T175 317T166 250Q166 176 196 138T279 99Q325 99 355 137T385 260ZM518 278Q518 205 499 151T445 61T366 8T269 -10Q217 -10 174 5T100
51T51 129T33 240Q33 300 51 348T101 432T178 486T274 505Q297 505 319 498T353 474Q346 486 340 496T328 515Q318 532 305 549T275 584L183 543L131 603L215 640Q198 654 179 668T139 697L264 750Q300 723 333 690L422 729L473 669L387 632Q450 554 484 465T518
278Z" />
<glyph unicode="&#xf1;" glyph-name="ntilde" horiz-adv-x="571" d="M374 0V318Q374 359 360 379T312 400Q289 400 268 388T231 353T206 301T197 240V0H69V497H190Q190 477 188 452T183 408H184Q207 453 250 480T353 507Q394 507 422 495T468 461T493 409T501
344V0H374ZM468 666Q423 577 347 577Q324 577 308 584T272 604T245 623T223 628Q193 628 168 583L107 630Q152 719 229 719Q251 719 267 712T303 692T331 673T352 668Q382 668 407 713L468 666Z" />
<glyph unicode="&#xf2;" glyph-name="ograve" horiz-adv-x="553" d="M388 248Q388 321 359 360T278 399Q252 399 231 390T196 361T173 314T165 249Q165 99 276 99Q327 99 357 136T388 248ZM520 260Q520 202 503 153T454 67T374 10T267 -10Q213 -10 170 5T97 50T50
127T33 237Q33 295 50 344T99 430T179 487T286 507Q399 507 459 444T520 260ZM296 558L133 687L203 763L353 619L296 558Z" />
<glyph unicode="&#xf3;" glyph-name="oacute" horiz-adv-x="553" d="M388 248Q388 321 359 360T278 399Q252 399 231 390T196 361T173 314T165 249Q165 99 276 99Q327 99 357 136T388 248ZM520 260Q520 202 503 153T454 67T374 10T267 -10Q213 -10 170 5T97 50T50
127T33 237Q33 295 50 344T99 430T179 487T286 507Q399 507 459 444T520 260ZM261 558L204 619L354 763L424 688L261 558Z" />
<glyph unicode="&#xf4;" glyph-name="ocircumflex" horiz-adv-x="553" d="M388 248Q388 321 359 360T278 399Q252 399 231 390T196 361T173 314T165 249Q165 99 276 99Q327 99 357 136T388 248ZM520 260Q520 202 503 153T454 67T374 10T267 -10Q213 -10 170 5T97
50T50 127T33 237Q33 295 50 344T99 430T179 487T286 507Q399 507 459 444T520 260ZM387 560L284 641L179 560L130 618L285 754L437 619L387 560Z" />
<glyph unicode="&#xf5;" glyph-name="otilde" horiz-adv-x="553" d="M388 248Q388 321 359 360T278 399Q252 399 231 390T196 361T173 314T165 249Q165 99 276 99Q327 99 357 136T388 248ZM520 260Q520 202 503 153T454 67T374 10T267 -10Q213 -10 170 5T97 50T50
127T33 237Q33 295 50 344T99 430T179 487T286 507Q399 507 459 444T520 260ZM465 666Q420 577 344 577Q321 577 305 584T269 604T242 623T220 628Q190 628 165 583L104 630Q149 719 226 719Q248 719 264 712T300 692T328 673T349 668Q379 668 404 713L465 666Z"
/>
<glyph unicode="&#xf6;" glyph-name="odieresis" horiz-adv-x="553" d="M388 248Q388 321 359 360T278 399Q252 399 231 390T196 361T173 314T165 249Q165 99 276 99Q327 99 357 136T388 248ZM520 260Q520 202 503 153T454 67T374 10T267 -10Q213 -10 170 5T97
50T50 127T33 237Q33 295 50 344T99 430T179 487T286 507Q399 507 459 444T520 260ZM249 648Q249 619 229 599T180 579Q151 579 131 599T111 648Q111 677 131 697T180 717Q209 717 229 697T249 648ZM452 648Q452 619 432 599T383 579Q354 579 334 599T314 648Q314
677 334 697T383 717Q412 717 432 697T452 648Z" />
<glyph unicode="&#xf7;" glyph-name="divide" horiz-adv-x="550" d="M352 97Q352 65 329 42T274 19Q242 19 219 42T196 97Q196 129 219 152T274 175Q306 175 329 152T352 97ZM39 244V351H511V244H39ZM352 498Q352 466 329 443T274 420Q242 420 219 443T196 498Q196
530 219 553T274 576Q306 576 329 553T352 498Z" />
<glyph unicode="&#xf8;" glyph-name="oslash" horiz-adv-x="553" d="M314 401Q307 404 298 405T279 407Q250 407 227 397T188 366T164 316T155 248Q155 193 175 140L314 401ZM398 249Q398 305 378 357L239 96Q254 90 274 90Q332 90 365 131T398 249ZM520 260Q520
202 503 153T454 67T374 10T267 -10Q224 -10 189 1L139 -93L68 -62L118 31Q76 62 55 114T33 237Q33 295 50 344T99 430T179 487T286 507Q329 507 364 496L414 590L485 559L435 466Q477 435 498 383T520 260Z" />
<glyph unicode="&#xf9;" glyph-name="ugrave" horiz-adv-x="570" d="M381 0Q381 23 382 47T387 89H386Q362 43 319 17T217 -10Q176 -10 148 2T102 35T77 85T69 148V497H196V179Q196 138 210 118T258 97Q282 97 303 109T340 144T364 196T373 257V497H501V0H381ZM295
558L132 687L202 763L352 619L295 558Z" />
<glyph unicode="&#xfa;" glyph-name="uacute" horiz-adv-x="570" d="M381 0Q381 23 382 47T387 89H386Q362 43 319 17T217 -10Q176 -10 148 2T102 35T77 85T69 148V497H196V179Q196 138 210 118T258 97Q282 97 303 109T340 144T364 196T373 257V497H501V0H381ZM277
558L220 619L370 763L440 688L277 558Z" />
<glyph unicode="&#xfb;" glyph-name="ucircumflex" horiz-adv-x="570" d="M381 0Q381 23 382 47T387 89H386Q362 43 319 17T217 -10Q176 -10 148 2T102 35T77 85T69 148V497H196V179Q196 138 210 118T258 97Q282 97 303 109T340 144T364 196T373 257V497H501V0H381ZM388
560L285 641L180 560L131 618L286 754L438 619L388 560Z" />
<glyph unicode="&#xfc;" glyph-name="udieresis" horiz-adv-x="570" d="M381 0Q381 23 382 47T387 89H386Q362 43 319 17T217 -10Q176 -10 148 2T102 35T77 85T69 148V497H196V179Q196 138 210 118T258 97Q282 97 303 109T340 144T364 196T373 257V497H501V0H381ZM252
648Q252 619 232 599T183 579Q154 579 134 599T114 648Q114 677 134 697T183 717Q212 717 232 697T252 648ZM455 648Q455 619 435 599T386 579Q357 579 337 599T317 648Q317 677 337 697T386 717Q415 717 435 697T455 648Z" />
<glyph unicode="&#xfd;" glyph-name="yacute" horiz-adv-x="570" d="M100 -116Q133 -128 171 -134T248 -141Q312 -141 344 -112T376 -20V8Q376 25 378 47T385 91H384Q361 47 320 20T217 -7Q175 -7 147 5T101 39T77 88T69 150V497H196V181Q196 142 209 120T258
98Q282 98 303 111T339 146T364 197T373 259V497H501V-7Q501 -71 483 -116T430 -191T347 -235T238 -249Q159 -249 89 -232L100 -116ZM283 558L226 619L376 763L446 688L283 558Z" />
<glyph unicode="&#xfe;" glyph-name="thorn" horiz-adv-x="559" d="M389 261Q389 402 304 402Q280 402 260 389T226 353T205 301T197 239V101Q227 92 264 92Q292 92 314 101T354 131T380 183T389 261ZM523 275Q523 210 506 158T456 69T374 13T261 -7Q242 -7 227
-6T197 -3V-241H69V730H197V526Q197 498 196 472T192 424H194Q214 462 251 484T341 507Q429 507 476 447T523 275Z" />
<glyph unicode="&#xff;" glyph-name="ydieresis" horiz-adv-x="570" d="M100 -116Q133 -128 171 -134T248 -141Q312 -141 344 -112T376 -20V8Q376 25 378 47T385 91H384Q361 47 320 20T217 -7Q175 -7 147 5T101 39T77 88T69 150V497H196V181Q196 142 209 120T258
98Q282 98 303 111T339 146T364 197T373 259V497H501V-7Q501 -71 483 -116T430 -191T347 -235T238 -249Q159 -249 89 -232L100 -116ZM252 648Q252 619 232 599T183 579Q154 579 134 599T114 648Q114 677 134 697T183 717Q212 717 232 697T252 648ZM455 648Q455
619 435 599T386 579Q357 579 337 599T317 648Q317 677 337 697T386 717Q415 717 435 697T455 648Z" />
<glyph unicode="&#x100;" glyph-name="Amacron" horiz-adv-x="626" d="M335 458Q327 484 320 509T308 559H306Q301 535 294 509T280 459L210 247H405L335 458ZM480 0L434 144H180L133 0H2L228 675H397L624 0H480ZM162 741V822H455V741H162Z" />
<glyph unicode="&#x101;" glyph-name="amacron" horiz-adv-x="524" d="M325 221Q278 221 246 216T196 200T169 177T161 146Q161 121 177 105T221 88Q243 88 262 98T296 125T317 163T325 206V221ZM335 0Q335 24 336 45T340 84L339 85Q321 42 278 16T180 -10Q114
-10 76 30T38 132Q38 176 58 208T115 262T206 294T325 305V326Q325 370 305 390T236 410Q203 410 163 401T85 377L65 474Q110 489 159 498T251 508Q308 508 347 497T409 463T443 408T453 333V128Q453 95 454 62T457 0H335ZM130 600V692H400V600H130Z" />
<glyph unicode="&#x102;" glyph-name="Abreve" horiz-adv-x="626" d="M335 458Q327 484 320 509T308 559H306Q301 535 294 509T280 459L210 247H405L335 458ZM480 0L434 144H180L133 0H2L228 675H397L624 0H480ZM451 859Q451 831 442 806T415 763T369 734T308
723Q274 723 248 733T203 763T176 806T167 859H243Q243 835 262 819T309 802Q339 802 357 818T375 859H451Z" />
<glyph unicode="&#x103;" glyph-name="abreve" horiz-adv-x="524" d="M325 221Q278 221 246 216T196 200T169 177T161 146Q161 121 177 105T221 88Q243 88 262 98T296 125T317 163T325 206V221ZM335 0Q335 24 336 45T340 84L339 85Q321 42 278 16T180 -10Q114
-10 76 30T38 132Q38 176 58 208T115 262T206 294T325 305V326Q325 370 305 390T236 410Q203 410 163 401T85 377L65 474Q110 489 159 498T251 508Q308 508 347 497T409 463T443 408T453 333V128Q453 95 454 62T457 0H335ZM404 720Q404 689 396 662T370 613T327
579T265 567Q230 567 204 579T162 613T138 661T130 720H213Q213 693 227 676T266 659Q291 659 305 674T320 720H404Z" />
<glyph unicode="&#x104;" glyph-name="Aogonek" horiz-adv-x="626" d="M335 458Q327 484 320 509T308 559H306Q301 535 294 509T280 459L210 247H405L335 458ZM661 -187Q633 -212 600 -224T530 -237Q472 -237 439 -210T405 -135Q405 -100 424 -65T480 0L434 144H180L133
0H2L228 675H397L624 0Q570 -24 548 -52T525 -109Q525 -142 560 -142Q591 -142 625 -118L661 -187Z" />
<glyph unicode="&#x105;" glyph-name="aogonek" horiz-adv-x="524" d="M325 221Q278 221 246 216T196 200T169 177T161 146Q161 121 177 105T221 88Q243 88 262 98T296 125T317 163T325 206V221ZM514 -187Q486 -212 453 -224T383 -237Q326 -237 293 -210T259 -135Q259
-95 280 -59T344 10Q338 57 339 81H338Q317 40 276 15T180 -10Q114 -10 76 30T38 132Q38 176 58 208T115 262T206 294T325 305V326Q325 370 305 390T236 410Q203 410 163 401T85 377L65 474Q110 489 159 498T251 508Q308 508 347 497T409 463T443 408T453 333V164Q453
117 456 76T465 0Q418 -28 398 -55T378 -109Q378 -125 387 -133T413 -142Q429 -142 445 -136T479 -118L514 -187Z" />
<glyph unicode="&#x106;" glyph-name="Cacute" horiz-adv-x="566" d="M526 27Q486 11 441 2T349 -8Q264 -8 204 18T108 89T55 193T38 319Q38 401 59 468T124 583T229 657T372 683Q409 683 448 677T521 659L500 538Q433 566 365 566Q319 566 284 549T226 501T192
427T180 336Q180 226 228 169T372 111Q403 111 439 120T506 142L526 27ZM283 716L262 786L470 861L499 769L283 716Z" />
<glyph unicode="&#x107;" glyph-name="cacute" horiz-adv-x="425" d="M398 14Q369 3 333 -3T259 -9Q205 -9 163 5T92 50T49 125T34 232Q34 296 51 347T101 433T181 487T285 506Q312 506 341 502T396 489L376 379Q352 388 329 393T283 398Q228 398 198 358T168
245Q168 210 175 184T196 139T232 111T284 101Q335 101 381 121L398 14ZM227 558L170 619L320 763L390 688L227 558Z" />
<glyph unicode="&#x108;" glyph-name="Ccircumflex" horiz-adv-x="566" d="M526 27Q486 11 441 2T349 -8Q264 -8 204 18T108 89T55 193T38 319Q38 401 59 468T124 583T229 657T372 683Q409 683 448 677T521 659L500 538Q433 566 365 566Q319 566 284 549T226 501T192
427T180 336Q180 226 228 169T372 111Q403 111 439 120T506 142L526 27ZM477 715L341 770L204 715L175 781L343 865L507 782L477 715Z" />
<glyph unicode="&#x109;" glyph-name="ccircumflex" horiz-adv-x="425" d="M398 14Q369 3 333 -3T259 -9Q205 -9 163 5T92 50T49 125T34 232Q34 296 51 347T101 433T181 487T285 506Q312 506 341 502T396 489L376 379Q352 388 329 393T283 398Q228 398 198 358T168
245Q168 210 175 184T196 139T232 111T284 101Q335 101 381 121L398 14ZM353 560L250 641L145 560L96 618L251 754L403 619L353 560Z" />
<glyph unicode="&#x10a;" glyph-name="Cdotaccent" horiz-adv-x="566" d="M526 27Q486 11 441 2T349 -8Q264 -8 204 18T108 89T55 193T38 319Q38 401 59 468T124 583T229 657T372 683Q409 683 448 677T521 659L500 538Q433 566 365 566Q319 566 284 549T226 501T192
427T180 336Q180 226 228 169T372 111Q403 111 439 120T506 142L526 27ZM423 794Q423 762 401 740T347 717Q315 717 293 739T270 794Q270 825 292 847T347 870Q379 870 401 848T423 794Z" />
<glyph unicode="&#x10b;" glyph-name="cdotaccent" horiz-adv-x="425" d="M398 14Q369 3 333 -3T259 -9Q205 -9 163 5T92 50T49 125T34 232Q34 296 51 347T101 433T181 487T285 506Q312 506 341 502T396 489L376 379Q352 388 329 393T283 398Q228 398 198 358T168
245Q168 210 175 184T196 139T232 111T284 101Q335 101 381 121L398 14ZM334 647Q334 632 328 618T312 594T288 577T258 571Q242 571 228 577T204 593T187 617T181 647Q181 663 187 677T203 701T228 718T258 724Q273 724 287 718T312 702T328 677T334 647Z" />
<glyph unicode="&#x10c;" glyph-name="Ccaron" horiz-adv-x="566" d="M526 27Q486 11 441 2T349 -8Q264 -8 204 18T108 89T55 193T38 319Q38 401 59 468T124 583T229 657T372 683Q409 683 448 677T521 659L500 538Q433 566 365 566Q319 566 284 549T226 501T192
427T180 336Q180 226 228 169T372 111Q403 111 439 120T506 142L526 27ZM338 715L174 798L205 865L340 810L477 865L506 800L338 715Z" />
<glyph unicode="&#x10d;" glyph-name="ccaron" horiz-adv-x="425" d="M398 14Q369 3 333 -3T259 -9Q205 -9 163 5T92 50T49 125T34 232Q34 296 51 347T101 433T181 487T285 506Q312 506 341 502T396 489L376 379Q352 388 329 393T283 398Q228 398 198 358T168
245Q168 210 175 184T196 139T232 111T284 101Q335 101 381 121L398 14ZM253 560L101 694L151 754L255 672L360 754L408 695L253 560Z" />
<glyph unicode="&#x10e;" glyph-name="Dcaron" horiz-adv-x="667" d="M490 339Q490 395 479 437T442 509T377 554T279 570Q256 570 236 569T200 567V112Q214 110 233 109T271 107Q319 107 359 121T428 163T474 236T490 339ZM630 349Q630 264 604 198T528 87T410
19T258 -4Q214 -4 160 -2T70 1V674Q128 676 180 677T288 679Q368 679 431 661T538 602T606 499T630 349ZM291 715L127 798L158 865L293 810L430 865L459 800L291 715Z" />
<glyph unicode="&#x10f;" glyph-name="dcaron" horiz-adv-x="611" d="M362 397Q344 401 328 403T295 405Q237 405 204 365T170 236Q170 95 255 95Q279 95 299 108T333 144T354 196T362 258V397ZM370 0Q370 19 371 41T376 83H374Q353 40 312 15T217 -11Q128 -11
82 51T36 222Q36 285 54 337T106 427T189 485T299 506Q316 506 331 505T362 502V730H489V0H370ZM607 553L524 571L575 776L677 754L607 553Z" />
<glyph unicode="&#x110;" glyph-name="Dcroat" horiz-adv-x="676" d="M499 339Q499 396 487 438T450 510T385 555T287 570Q264 570 244 569T208 567V397H330V298H208V112Q222 110 241 109T279 107Q328 107 368 121T438 164T483 237T499 339ZM639 349Q639 266 614
200T539 89T421 20T267 -4Q223 -4 214 -4T79 1V298H4V397H79V674Q145 676 196 677T298 679Q379 679 441 660T548 601T616 498T639 349Z" />
<glyph unicode="&#x111;" glyph-name="dcroat" horiz-adv-x="559" d="M362 397Q344 401 328 403T295 405Q237 405 204 365T170 236Q170 95 255 95Q279 95 299 108T333 144T354 196T362 258V397ZM489 582V0H370Q370 19 371 41T376 83H374Q353 40 312 15T217 -11Q128
-11 82 51T36 222Q36 285 54 337T106 427T189 485T299 506Q316 506 331 505T362 502V582H257V663H362V730H489V663H550V582H489Z" />
<glyph unicode="&#x112;" glyph-name="Emacron" horiz-adv-x="510" d="M70 0V675H452V566H200V400H431V294H200V112H452V0H70ZM109 741V822H402V741H109Z" />
<glyph unicode="&#x113;" glyph-name="emacron" horiz-adv-x="514" d="M349 307Q350 358 327 385T263 413Q223 413 196 385T165 307H349ZM476 296Q476 272 475 251T472 221H164Q164 89 296 89Q368 89 446 115L459 20Q417 6 371 -2T281 -10Q160 -10 97 52T34 244Q34
300 50 348T97 432T172 487T270 507Q323 507 362 491T427 447T464 380T476 296ZM128 600V692H398V600H128Z" />
<glyph unicode="&#x114;" glyph-name="Ebreve" horiz-adv-x="510" d="M70 0V675H452V566H200V400H431V294H200V112H452V0H70ZM402 859Q402 831 393 806T366 763T320 734T259 723Q225 723 199 733T154 763T127 806T118 859H194Q194 835 213 819T260 802Q290 802
308 818T326 859H402Z" />
<glyph unicode="&#x115;" glyph-name="ebreve" horiz-adv-x="514" d="M349 307Q350 358 327 385T263 413Q223 413 196 385T165 307H349ZM476 296Q476 272 475 251T472 221H164Q164 89 296 89Q368 89 446 115L459 20Q417 6 371 -2T281 -10Q160 -10 97 52T34 244Q34
300 50 348T97 432T172 487T270 507Q323 507 362 491T427 447T464 380T476 296ZM398 720Q398 689 390 662T364 613T321 579T259 567Q224 567 198 579T156 613T132 661T124 720H207Q207 693 221 676T260 659Q285 659 299 674T314 720H398Z" />
<glyph unicode="&#x116;" glyph-name="Edotaccent" horiz-adv-x="510" d="M70 0V675H452V566H200V400H431V294H200V112H452V0H70ZM334 794Q334 762 312 740T258 717Q226 717 204 739T181 794Q181 825 203 847T258 870Q290 870 312 848T334 794Z" />
<glyph unicode="&#x117;" glyph-name="edotaccent" horiz-adv-x="514" d="M349 307Q350 358 327 385T263 413Q223 413 196 385T165 307H349ZM476 296Q476 272 475 251T472 221H164Q164 89 296 89Q368 89 446 115L459 20Q417 6 371 -2T281 -10Q160 -10 97 52T34
244Q34 300 50 348T97 432T172 487T270 507Q323 507 362 491T427 447T464 380T476 296ZM343 653Q343 638 337 624T321 600T297 583T267 577Q251 577 237 583T213 599T196 623T190 653Q190 669 196 683T212 707T237 724T267 730Q282 730 296 724T321 708T337 683T343
653Z" />
<glyph unicode="&#x118;" glyph-name="Eogonek" horiz-adv-x="510" d="M481 -187Q453 -212 420 -224T350 -237Q293 -237 260 -210T226 -135Q226 -98 247 -61T305 0H70V675H452V566H200V400H431V294H200V112H452V3Q403 -11 374 -44T345 -109Q345 -125 354 -133T381
-142Q412 -142 446 -118L481 -187Z" />
<glyph unicode="&#x119;" glyph-name="eogonek" horiz-adv-x="514" d="M349 307Q350 358 327 385T263 413Q223 413 196 385T165 307H349ZM473 -187Q445 -212 412 -224T343 -237Q285 -237 252 -210T218 -135Q218 -102 235 -68T287 -5Q281 -6 274 -7T259 -8Q214
-8 175 4T103 46T53 124T34 244Q34 300 50 348T97 432T172 487T270 507Q323 507 362 491T427 447T464 380T476 296Q476 274 475 253T472 221H164Q164 89 296 89Q332 89 369 95T446 115L459 21Q432 11 410 -4T371 -36T346 -72T337 -109Q337 -125 346 -133T373 -142Q404
-142 438 -118L473 -187Z" />
<glyph unicode="&#x11a;" glyph-name="Ecaron" horiz-adv-x="510" d="M70 0V675H452V566H200V400H431V294H200V112H452V0H70ZM254 715L90 798L121 865L256 810L393 865L422 800L254 715Z" />
<glyph unicode="&#x11b;" glyph-name="ecaron" horiz-adv-x="514" d="M349 307Q350 358 327 385T263 413Q223 413 196 385T165 307H349ZM476 296Q476 272 475 251T472 221H164Q164 89 296 89Q368 89 446 115L459 20Q417 6 371 -2T281 -10Q160 -10 97 52T34 244Q34
300 50 348T97 432T172 487T270 507Q323 507 362 491T427 447T464 380T476 296ZM264 560L112 694L162 754L266 672L371 754L419 695L264 560Z" />
<glyph unicode="&#x11c;" glyph-name="Gcircumflex" horiz-adv-x="675" d="M608 32Q558 12 498 1T377 -10Q295 -10 231 12T124 78T58 181T36 317Q36 399 60 467T132 583T250 658T411 685Q461 685 510 677T602 656L576 537Q498 569 403 569Q345 569 302 551T231
501T190 426T177 334Q177 226 232 167T392 107Q439 107 478 119V354H608V32ZM517 715L381 770L244 715L215 781L383 865L547 782L517 715Z" />
<glyph unicode="&#x11d;" glyph-name="gcircumflex" horiz-adv-x="559" d="M362 397Q333 404 295 404Q237 404 204 364T170 236Q170 96 254 96Q279 96 299 109T333 145T354 197T362 260V397ZM489 -7Q489 -65 474 -109T425 -185T341 -232T218 -249Q177 -249 138
-245T65 -232L77 -116Q110 -128 149 -134T225 -141Q296 -141 329 -112T363 -20V10Q363 30 364 47T369 81L367 82Q347 39 308 15T220 -10Q131 -10 84 49T36 222Q36 285 54 337T106 427T191 485T307 506Q357 506 401 502T489 491V-7ZM398 560L295 641L190 560L141
618L296 754L448 619L398 560Z" />
<glyph unicode="&#x11e;" glyph-name="Gbreve" horiz-adv-x="675" d="M608 32Q558 12 498 1T377 -10Q295 -10 231 12T124 78T58 181T36 317Q36 399 60 467T132 583T250 658T411 685Q461 685 510 677T602 656L576 537Q498 569 403 569Q345 569 302 551T231 501T190
426T177 334Q177 226 232 167T392 107Q439 107 478 119V354H608V32ZM532 859Q532 831 523 806T496 763T450 734T389 723Q355 723 329 733T284 763T257 806T248 859H324Q324 835 343 819T390 802Q420 802 438 818T456 859H532Z" />
<glyph unicode="&#x11f;" glyph-name="gbreve" horiz-adv-x="559" d="M362 397Q333 404 295 404Q237 404 204 364T170 236Q170 96 254 96Q279 96 299 109T333 145T354 197T362 260V397ZM489 -7Q489 -65 474 -109T425 -185T341 -232T218 -249Q177 -249 138 -245T65
-232L77 -116Q110 -128 149 -134T225 -141Q296 -141 329 -112T363 -20V10Q363 30 364 47T369 81L367 82Q347 39 308 15T220 -10Q131 -10 84 49T36 222Q36 285 54 337T106 427T191 485T307 506Q357 506 401 502T489 491V-7ZM432 720Q432 689 424 662T398 613T355
579T293 567Q258 567 232 579T190 613T166 661T158 720H241Q241 693 255 676T294 659Q319 659 333 674T348 720H432Z" />
<glyph unicode="&#x120;" glyph-name="Gdotaccent" horiz-adv-x="675" d="M608 32Q558 12 498 1T377 -10Q295 -10 231 12T124 78T58 181T36 317Q36 399 60 467T132 583T250 658T411 685Q461 685 510 677T602 656L576 537Q498 569 403 569Q345 569 302 551T231
501T190 426T177 334Q177 226 232 167T392 107Q439 107 478 119V354H608V32ZM459 800Q459 768 437 746T383 723Q351 723 329 745T306 800Q306 831 328 853T383 876Q415 876 437 854T459 800Z" />
<glyph unicode="&#x121;" glyph-name="gdotaccent" horiz-adv-x="559" d="M362 397Q333 404 295 404Q237 404 204 364T170 236Q170 96 254 96Q279 96 299 109T333 145T354 197T362 260V397ZM489 -7Q489 -65 474 -109T425 -185T341 -232T218 -249Q177 -249 138
-245T65 -232L77 -116Q110 -128 149 -134T225 -141Q296 -141 329 -112T363 -20V10Q363 30 364 47T369 81L367 82Q347 39 308 15T220 -10Q131 -10 84 49T36 222Q36 285 54 337T106 427T191 485T307 506Q357 506 401 502T489 491V-7ZM371 653Q371 638 365 624T349
600T325 583T295 577Q279 577 265 583T241 599T224 623T218 653Q218 669 224 683T240 707T265 724T295 730Q310 730 324 724T349 708T365 683T371 653Z" />
<glyph unicode="&#x122;" glyph-name="Gcommaaccent" horiz-adv-x="675" d="M608 32Q558 12 498 1T377 -10Q295 -10 231 12T124 78T58 181T36 317Q36 399 60 467T132 583T250 658T411 685Q461 685 510 677T602 656L576 537Q498 569 403 569Q345 569 302 551T231
501T190 426T177 334Q177 226 232 167T392 107Q439 107 478 119V354H608V32ZM283 -196Q312 -181 322 -169T332 -142Q332 -136 331 -132T329 -122T326 -113T324 -103Q324 -80 339 -64T383 -47Q411 -47 427 -65T444 -113Q444 -131 436 -150T412 -186T368 -217T303
-242L283 -196Z" />
<glyph unicode="&#x123;" glyph-name="gcommaaccent" horiz-adv-x="559" d="M362 397Q333 404 295 404Q237 404 204 364T170 236Q170 96 254 96Q279 96 299 109T333 145T354 197T362 260V397ZM489 -7Q489 -65 474 -109T425 -185T341 -232T218 -249Q177 -249 138
-245T65 -232L77 -116Q110 -128 149 -134T225 -141Q296 -141 329 -112T363 -20V10Q363 30 364 47T369 81L367 82Q347 39 308 15T220 -10Q131 -10 84 49T36 222Q36 285 54 337T106 427T191 485T307 506Q357 506 401 502T489 491V-7ZM384 710Q355 697 345 684T334
657Q334 651 335 647T338 637T341 628T342 617Q342 592 326 577T283 561Q270 561 259 566T239 580T227 602T223 628Q223 646 230 664T254 700T297 733T363 756L384 710Z" />
<glyph unicode="&#x124;" glyph-name="Hcircumflex" horiz-adv-x="686" d="M486 0V293H200V0H70V675H200V405H486V675H617V0H486ZM480 715L344 770L207 715L178 781L346 865L510 782L480 715Z" />
<glyph unicode="&#x125;" glyph-name="hcircumflex" horiz-adv-x="571" d="M374 0V318Q374 359 360 379T312 400Q288 400 267 388T231 353T206 301T197 239V0H69V730H197V516Q197 490 195 463T188 415H190Q212 458 254 482T353 507Q394 507 422 495T468 462T493
412T501 349V0H374ZM417 751L281 806L144 751L115 817L283 901L447 818L417 751Z" />
<glyph unicode="&#x126;" glyph-name="Hbar" horiz-adv-x="706" d="M210 482V383H496V482H210ZM692 588V482H627V0H496V277H210V0H80V482H15V588H80V675H210V588H496V675H627V588H692Z" />
<glyph unicode="&#x127;" glyph-name="hbar" horiz-adv-x="577" d="M380 0V315Q380 356 366 376T318 397Q294 397 273 385T236 350T212 298T203 236V0H75V562H0V661H75V730H203V661H322V562H203V504Q203 480 201 456T194 413L195 412Q217 455 259 479T359 504Q400
504 428 492T474 459T499 409T507 346V0H380Z" />
<glyph unicode="&#x128;" glyph-name="Itilde" horiz-adv-x="270" d="M70 0V675H200V0H70ZM579 810Q533 728 453 728Q430 728 413 734T376 753T348 770T326 775Q293 775 268 732L204 776Q250 858 330 858Q353 858 370 852T407 833T436 816T458 811Q475 811 489
821T515 853L579 810Z" />
<glyph unicode="&#x129;" glyph-name="itilde" horiz-adv-x="266" d="M69 0V497H197V0H69ZM549 667Q532 625 505 602T437 579Q418 579 404 586T377 602T355 618T336 626Q321 626 309 613T290 584L231 628Q237 645 247 661T271 690T303 710T342 717Q361 717 376
710T403 694T425 678T444 670Q459 670 470 683T490 712L549 667Z" />
<glyph unicode="&#x12a;" glyph-name="Imacron" horiz-adv-x="270" d="M70 0V675H200V0H70ZM244 741V822H537V741H244Z" />
<glyph unicode="&#x12b;" glyph-name="imacron" horiz-adv-x="266" d="M69 0V497H197V0H69ZM262 600V692H517V600H262Z" />
<glyph unicode="&#x12c;" glyph-name="Ibreve" horiz-adv-x="270" d="M70 0V675H200V0H70ZM532 859Q532 831 523 806T496 763T450 734T389 723Q355 723 329 733T284 763T257 806T248 859H324Q324 835 343 819T390 802Q420 802 438 818T456 859H532Z" />
<glyph unicode="&#x12d;" glyph-name="ibreve" horiz-adv-x="266" d="M69 0V497H197V0H69ZM519 720Q519 646 486 607T389 567Q326 567 294 607T262 720H344Q344 695 356 677T390 659Q412 659 424 675T436 720H519Z" />
<glyph unicode="&#x12e;" glyph-name="Iogonek" horiz-adv-x="270" d="M260 -187Q232 -212 199 -224T129 -237Q72 -237 39 -210T5 -135Q5 -99 22 -66T70 1V675H200V0Q159 -29 142 -56T124 -109Q124 -125 133 -133T159 -142Q175 -142 191 -136T225 -118L260 -187Z" />
<glyph unicode="&#x12f;" glyph-name="iogonek" horiz-adv-x="266" d="M258 -187Q230 -212 197 -224T128 -237Q70 -237 37 -210T3 -135Q3 -99 20 -66T69 1V497H197V0Q157 -29 140 -57T122 -109Q122 -125 131 -133T158 -142Q174 -142 190 -136T223 -118L258 -187ZM213
648Q213 616 190 594T133 571Q100 571 77 593T54 648Q54 680 77 703T133 726Q166 726 189 704T213 648Z" />
<glyph unicode="&#x130;" glyph-name="Idotaccent" horiz-adv-x="270" d="M70 0V675H200V0H70ZM468 794Q468 762 446 740T392 717Q360 717 338 739T315 794Q315 825 337 847T392 870Q424 870 446 848T468 794Z" />
<glyph unicode="&#x131;" glyph-name="dotlessi" horiz-adv-x="266" d="M69 0V497H197V0H69Z" />
<glyph unicode="&#x132;" glyph-name="IJ" horiz-adv-x="609" d="M70 0V675H200V0H70ZM540 192Q540 149 530 112T496 49T437 7T349 -9Q303 -9 261 -1V111Q297 101 331 101Q349 101 363 105T388 120T403 149T409 194V675H540V192Z" />
<glyph unicode="&#x133;" glyph-name="ij" horiz-adv-x="537" d="M69 0V497H197V0H69ZM213 648Q213 616 190 594T133 571Q100 571 77 593T54 648Q54 680 77 703T133 726Q166 726 189 704T213 648ZM467 -37Q467 -88 457 -127T424 -193T366 -234T280 -248Q256 -248
234 -245T203 -240L212 -131Q219 -134 237 -137T278 -141Q312 -141 326 -121T340 -50V497H467V-37ZM483 648Q483 616 460 594T403 571Q370 571 347 593T323 648Q323 680 346 703T403 726Q436 726 459 704T483 648Z" />
<glyph unicode="&#x134;" glyph-name="Jcircumflex" horiz-adv-x="347" d="M279 192Q279 149 269 112T235 49T176 7T88 -9Q42 -9 0 -1V111Q36 101 70 101Q88 101 102 105T127 120T142 149T148 194V675H279V192ZM604 715L468 770L331 715L302 781L470 865L634 782L604
715Z" />
<glyph unicode="&#x135;" glyph-name="jcircumflex" horiz-adv-x="271" d="M201 -37Q201 -88 191 -127T158 -193T100 -234T14 -248Q-10 -248 -32 -245T-63 -240L-54 -131Q-47 -134 -29 -137T12 -141Q46 -141 60 -121T74 -50V497H201V-37ZM483 560L395 641L304
560L258 617L395 753L532 619L483 560Z" />
<glyph unicode="&#x136;" glyph-name="Kcommaaccent" horiz-adv-x="597" d="M417 0L200 324V0H70V675H200V369L418 675H576L329 351L588 0H417ZM201 -196Q230 -181 240 -169T250 -142Q250 -136 249 -132T247 -122T244 -113T242 -103Q242 -80 257 -64T301 -47Q329
-47 345 -65T362 -113Q362 -131 354 -150T330 -186T286 -217T221 -242L201 -196Z" />
<glyph unicode="&#x137;" glyph-name="kcommaaccent" horiz-adv-x="523" d="M351 0L197 246V0H69V730H197V290L342 497H492L321 275L511 0H351ZM169 -196Q198 -181 208 -169T218 -142Q218 -136 217 -132T215 -122T212 -113T210 -103Q210 -80 225 -64T269 -47Q297
-47 313 -65T330 -113Q330 -131 322 -150T298 -186T254 -217T189 -242L169 -196Z" />
<glyph unicode="&#x138;" glyph-name="kgreenlandic" horiz-adv-x="524" d="M350 0L197 238V0H69V497H197V282L350 497H499L322 271L508 0H350Z" />
<glyph unicode="&#x139;" glyph-name="Lacute" horiz-adv-x="429" d="M70 0V675H200V113H419V0H70ZM124 716L103 786L311 861L340 769L124 716Z" />
<glyph unicode="&#x13a;" glyph-name="lacute" horiz-adv-x="266" d="M69 0V730H197V0H69ZM87 776L66 846L274 921L303 829L87 776Z" />
<glyph unicode="&#x13b;" glyph-name="Lcommaaccent" horiz-adv-x="429" d="M70 0V675H200V113H419V0H70ZM152 -196Q181 -181 191 -169T201 -142Q201 -136 200 -132T198 -122T195 -113T193 -103Q193 -80 208 -64T252 -47Q280 -47 296 -65T313 -113Q313 -131 305
-150T281 -186T237 -217T172 -242L152 -196Z" />
<glyph unicode="&#x13c;" glyph-name="lcommaaccent" horiz-adv-x="266" d="M69 0V730H197V0H69ZM37 -196Q66 -181 76 -169T86 -142Q86 -136 85 -132T83 -122T80 -113T78 -103Q78 -80 93 -64T137 -47Q165 -47 181 -65T198 -113Q198 -131 190 -150T166 -186T122
-217T57 -242L37 -196Z" />
<glyph unicode="&#x13d;" glyph-name="Lcaron" horiz-adv-x="434" d="M70 0V675H200V113H419V0H70ZM332 553L249 571L300 776L402 754L332 553Z" />
<glyph unicode="&#x13e;" glyph-name="lcaron" horiz-adv-x="319" d="M69 0V730H197V0H69ZM315 553L232 571L283 776L385 754L315 553Z" />
<glyph unicode="&#x13f;" glyph-name="Ldot" horiz-adv-x="569" d="M70 0V675H200V113H419V0H70ZM521 348Q521 331 515 316T496 289T470 271T438 265Q421 265 406 271T379 289T361 316T355 348Q355 365 361 379T379 406T406 424T438 431Q455 431 469 425T496 406T514
380T521 348Z" />
<glyph unicode="&#x140;" glyph-name="ldot" horiz-adv-x="431" d="M69 0V730H197V0H69ZM432 298Q432 281 426 266T407 239T381 221T349 215Q332 215 317 221T290 239T272 266T266 298Q266 315 272 329T290 356T317 374T349 381Q366 381 380 375T407 356T425 330T432
298Z" />
<glyph unicode="&#x141;" glyph-name="Lslash" horiz-adv-x="438" d="M79 0V315L13 284L-10 385L79 426V675H209V487L307 532L331 431L209 376V113H428V0H79Z" />
<glyph unicode="&#x142;" glyph-name="lslash" horiz-adv-x="300" d="M215 393V0H87V326L36 297L11 392L87 434V730H215V501L269 532L295 437L215 393Z" />
<glyph unicode="&#x143;" glyph-name="Nacute" horiz-adv-x="690" d="M483 0L271 342Q220 423 188 494H186Q196 317 196 184V0H70V675H223L421 355Q473 275 502 207H504Q494 356 494 511V675H620V0H483ZM316 716L295 786L503 861L532 769L316 716Z" />
<glyph unicode="&#x144;" glyph-name="nacute" horiz-adv-x="571" d="M374 0V318Q374 359 360 379T312 400Q289 400 268 388T231 353T206 301T197 240V0H69V497H190Q190 477 188 452T183 408H184Q207 453 250 480T353 507Q394 507 422 495T468 461T493 409T501
344V0H374ZM290 558L233 619L383 763L453 688L290 558Z" />
<glyph unicode="&#x145;" glyph-name="Ncommaaccent" horiz-adv-x="690" d="M483 0L271 342Q220 423 188 494H186Q196 317 196 184V0H70V675H223L421 355Q473 275 502 207H504Q494 356 494 511V675H620V0H483ZM248 -196Q277 -181 287 -169T297 -142Q297 -136 296
-132T294 -122T291 -113T289 -103Q289 -80 304 -64T348 -47Q376 -47 392 -65T409 -113Q409 -131 401 -150T377 -186T333 -217T268 -242L248 -196Z" />
<glyph unicode="&#x146;" glyph-name="ncommaaccent" horiz-adv-x="571" d="M374 0V318Q374 359 360 379T312 400Q289 400 268 388T231 353T206 301T197 240V0H69V497H190Q190 477 188 452T183 408H184Q207 453 250 480T353 507Q394 507 422 495T468 461T493 409T501
344V0H374ZM190 -196Q219 -181 229 -169T239 -142Q239 -136 238 -132T236 -122T233 -113T231 -103Q231 -80 246 -64T290 -47Q318 -47 334 -65T351 -113Q351 -131 343 -150T319 -186T275 -217T210 -242L190 -196Z" />
<glyph unicode="&#x147;" glyph-name="Ncaron" horiz-adv-x="690" d="M483 0L271 342Q220 423 188 494H186Q196 317 196 184V0H70V675H223L421 355Q473 275 502 207H504Q494 356 494 511V675H620V0H483ZM346 715L182 798L213 865L348 810L485 865L514 800L346 715Z" />
<glyph unicode="&#x148;" glyph-name="ncaron" horiz-adv-x="571" d="M374 0V318Q374 359 360 379T312 400Q289 400 268 388T231 353T206 301T197 240V0H69V497H190Q190 477 188 452T183 408H184Q207 453 250 480T353 507Q394 507 422 495T468 461T493 409T501
344V0H374ZM281 560L129 694L179 754L283 672L388 754L436 695L281 560Z" />
<glyph unicode="&#x149;" glyph-name="napostrophe" horiz-adv-x="681" d="M484 0V318Q484 359 470 379T422 400Q399 400 378 388T341 353T316 301T307 240V0H179V497H300Q300 477 298 452T293 408H294Q317 453 360 480T463 507Q504 507 532 495T578 461T603 409T611
344V0H484ZM16 504Q39 529 51 549T68 586T68 616T54 642Q41 657 39 675T44 709T67 736T105 747Q136 747 156 723T176 660T149 569T62 464L16 504Z" />
<glyph unicode="&#x14a;" glyph-name="Eng" horiz-adv-x="690" d="M620 -1Q620 -61 607 -104T569 -177T505 -224T414 -251L386 -149Q441 -139 467 -111T493 -22L252 367Q216 426 188 490Q189 468 190 432T193 351T195 263T196 183V0H70V675H218L442 317Q459 289
475 260T502 205Q501 231 500 267T497 346T495 429T494 505V675H620V-1Z" />
<glyph unicode="&#x14b;" glyph-name="eng" horiz-adv-x="571" d="M506 184Q506 101 502 45T490 -49T468 -110T434 -154Q412 -176 381 -191T304 -219L274 -119Q318 -105 339 -86Q351 -74 358 -60T370 -22T377 45T379 154V175Q379 247 375 291T362 359T340 391T305
400Q284 400 265 388T230 355T206 307T197 249V0H69V497H190Q190 473 188 449T183 409H184Q207 454 249 480T343 507Q389 507 419 492T469 442T497 350T506 206V184Z" />
<glyph unicode="&#x14c;" glyph-name="Omacron" horiz-adv-x="713" d="M538 335Q538 445 492 507T356 569Q316 569 283 554T226 510T188 438T175 341Q175 286 186 243T220 169T277 122T356 106Q396 106 429 121T487 165T524 237T538 335ZM677 350Q677 265 651
197T580 83T474 13T346 -11Q271 -11 213 11T115 77T56 183T36 325Q36 410 62 478T133 592T239 662T367 686Q442 686 500 664T598 598T657 492T677 350ZM212 741V822H505V741H212Z" />
<glyph unicode="&#x14d;" glyph-name="omacron" horiz-adv-x="553" d="M388 248Q388 321 359 360T278 399Q252 399 231 390T196 361T173 314T165 249Q165 99 276 99Q327 99 357 136T388 248ZM520 260Q520 202 503 153T454 67T374 10T267 -10Q213 -10 170 5T97
50T50 127T33 237Q33 295 50 344T99 430T179 487T286 507Q399 507 459 444T520 260ZM148 600V692H418V600H148Z" />
<glyph unicode="&#x14e;" glyph-name="Obreve" horiz-adv-x="713" d="M538 335Q538 445 492 507T356 569Q316 569 283 554T226 510T188 438T175 341Q175 286 186 243T220 169T277 122T356 106Q396 106 429 121T487 165T524 237T538 335ZM677 350Q677 265 651 197T580
83T474 13T346 -11Q271 -11 213 11T115 77T56 183T36 325Q36 410 62 478T133 592T239 662T367 686Q442 686 500 664T598 598T657 492T677 350ZM499 859Q499 831 490 806T463 763T417 734T356 723Q322 723 296 733T251 763T224 806T215 859H291Q291 835 310 819T357
802Q387 802 405 818T423 859H499Z" />
<glyph unicode="&#x14f;" glyph-name="obreve" horiz-adv-x="553" d="M388 248Q388 321 359 360T278 399Q252 399 231 390T196 361T173 314T165 249Q165 99 276 99Q327 99 357 136T388 248ZM520 260Q520 202 503 153T454 67T374 10T267 -10Q213 -10 170 5T97 50T50
127T33 237Q33 295 50 344T99 430T179 487T286 507Q399 507 459 444T520 260ZM414 720Q414 689 406 662T380 613T337 579T275 567Q240 567 214 579T172 613T148 661T140 720H223Q223 693 237 676T276 659Q301 659 315 674T330 720H414Z" />
<glyph unicode="&#x150;" glyph-name="Ohungarumlaut" horiz-adv-x="713" d="M538 335Q538 445 492 507T356 569Q316 569 283 554T226 510T188 438T175 341Q175 286 186 243T220 169T277 122T356 106Q396 106 429 121T487 165T524 237T538 335ZM677 350Q677 265
651 197T580 83T474 13T346 -11Q271 -11 213 11T115 77T56 183T36 325Q36 410 62 478T133 592T239 662T367 686Q442 686 500 664T598 598T657 492T677 350ZM273 714L214 765L341 914L414 851L273 714ZM465 713L408 766L553 907L621 840L465 713Z" />
<glyph unicode="&#x151;" glyph-name="ohungarumlaut" horiz-adv-x="553" d="M388 248Q388 321 359 360T278 399Q252 399 231 390T196 361T173 314T165 249Q165 99 276 99Q327 99 357 136T388 248ZM520 260Q520 202 503 153T454 67T374 10T267 -10Q213 -10 170
5T97 50T50 127T33 237Q33 295 50 344T99 430T179 487T286 507Q399 507 459 444T520 260ZM200 560L140 611L269 766L343 704L200 560ZM389 560L333 611L476 758L545 691L389 560Z" />
<glyph unicode="&#x152;" glyph-name="OE" horiz-adv-x="871" d="M449 557Q430 563 405 566T356 569Q316 569 283 554T225 510T188 438T174 341Q174 286 185 243T220 169T277 122T356 106Q377 106 402 109T449 118V557ZM464 0Q407 -11 346 -11Q271 -11 213 11T115
77T56 183T36 325Q36 410 62 478T133 592T239 662T367 686Q395 686 425 683T481 675H815V566H579V400H804V294H579V112H815V0H464Z" />
<glyph unicode="&#x153;" glyph-name="oe" horiz-adv-x="860" d="M388 248Q388 321 359 360T278 399Q252 399 231 390T196 361T173 314T165 249Q165 99 276 99Q327 99 357 136T388 248ZM695 307Q696 358 673 385T609 413Q569 413 542 385T510 307H695ZM821 296Q821
272 820 251T818 221H510Q510 89 641 89Q678 89 715 95T791 115L805 20Q763 6 717 -2T627 -10Q558 -10 513 10T441 69Q416 33 370 12T267 -10Q213 -10 170 5T97 50T50 127T33 237Q33 295 50 344T99 430T179 487T286 507Q342 507 385 489T456 433Q479 467 520 487T616
507Q669 507 708 491T772 447T809 380T821 296Z" />
<glyph unicode="&#x154;" glyph-name="Racute" horiz-adv-x="575" d="M381 472Q381 573 259 573Q242 573 225 572T200 570V370Q207 370 223 370T255 369Q315 369 348 396T381 472ZM406 0L236 272H200V0H70V675Q93 676 147 677T268 679Q327 679 373 668T451 633T501
572T518 484Q518 445 507 413T475 358T427 318T366 294Q373 285 388 265T418 221L564 0H406ZM220 716L199 786L407 861L436 769L220 716Z" />
<glyph unicode="&#x155;" glyph-name="racute" horiz-adv-x="355" d="M335 382Q197 409 197 203V0H69V497H190Q190 477 188 450T181 397H183Q193 422 206 443T239 479T284 502T341 507L335 382ZM196 558L139 619L289 763L359 688L196 558Z" />
<glyph unicode="&#x156;" glyph-name="Rcommaaccent" horiz-adv-x="575" d="M381 472Q381 573 259 573Q242 573 225 572T200 570V370Q207 370 223 370T255 369Q315 369 348 396T381 472ZM406 0L236 272H200V0H70V675Q93 676 147 677T268 679Q327 679 373 668T451
633T501 572T518 484Q518 445 507 413T475 358T427 318T366 294Q373 285 388 265T418 221L564 0H406ZM190 -196Q219 -181 229 -169T239 -142Q239 -136 238 -132T236 -122T233 -113T231 -103Q231 -80 246 -64T290 -47Q318 -47 334 -65T351 -113Q351 -131 343 -150T319
-186T275 -217T210 -242L190 -196Z" />
<glyph unicode="&#x157;" glyph-name="rcommaaccent" horiz-adv-x="355" d="M335 382Q197 409 197 203V0H69V497H190Q190 477 188 450T181 397H183Q193 422 206 443T239 479T284 502T341 507L335 382ZM46 -196Q75 -181 85 -169T95 -142Q95 -136 94 -132T92 -122T89
-113T87 -103Q87 -80 102 -64T146 -47Q174 -47 190 -65T207 -113Q207 -131 199 -150T175 -186T131 -217T66 -242L46 -196Z" />
<glyph unicode="&#x158;" glyph-name="Rcaron" horiz-adv-x="575" d="M381 472Q381 573 259 573Q242 573 225 572T200 570V370Q207 370 223 370T255 369Q315 369 348 396T381 472ZM406 0L236 272H200V0H70V675Q93 676 147 677T268 679Q327 679 373 668T451 633T501
572T518 484Q518 445 507 413T475 358T427 318T366 294Q373 285 388 265T418 221L564 0H406ZM265 715L101 798L132 865L267 810L404 865L433 800L265 715Z" />
<glyph unicode="&#x159;" glyph-name="rcaron" horiz-adv-x="355" d="M335 382Q197 409 197 203V0H69V497H190Q190 477 188 450T181 397H183Q193 422 206 443T239 479T284 502T341 507L335 382ZM459 560L307 694L357 754L461 672L566 754L614 695L459 560Z" />
<glyph unicode="&#x15a;" glyph-name="Sacute" horiz-adv-x="503" d="M467 199Q467 153 450 115T400 48T317 5T206 -11Q123 -11 49 7L63 132Q97 118 136 110T213 102Q238 102 259 107T295 122T319 148T328 186Q328 216 309 235T252 272T177 305T111 343T60 400T40
487Q40 531 57 567T107 630T187 671T295 686Q323 686 356 683T417 673L405 559Q377 568 347 573T287 578Q232 578 204 558T176 500Q176 472 195 453T252 416T327 383T396 344T447 287T467 199ZM210 716L189 786L397 861L426 769L210 716Z" />
<glyph unicode="&#x15b;" glyph-name="sacute" horiz-adv-x="417" d="M378 152Q378 117 365 88T324 36T256 2T162 -10Q132 -10 102 -7T48 3L55 109Q78 100 109 95T168 89Q205 89 225 102T245 140Q245 160 232 172T194 195T141 216T91 243T55 286T41 352Q41 385
54 413T93 462T158 496T250 508Q271 508 294 506T342 499L335 398Q313 404 290 408T244 412Q209 412 191 399T172 364Q172 345 185 333T224 310T277 288T328 260T364 217T378 152ZM185 558L128 619L278 763L348 688L185 558Z" />
<glyph unicode="&#x15c;" glyph-name="Scircumflex" horiz-adv-x="503" d="M467 199Q467 153 450 115T400 48T317 5T206 -11Q123 -11 49 7L63 132Q97 118 136 110T213 102Q238 102 259 107T295 122T319 148T328 186Q328 216 309 235T252 272T177 305T111 343T60
400T40 487Q40 531 57 567T107 630T187 671T295 686Q323 686 356 683T417 673L405 559Q377 568 347 573T287 578Q232 578 204 558T176 500Q176 472 195 453T252 416T327 383T396 344T447 287T467 199ZM398 715L262 770L125 715L96 781L264 865L428 782L398 715Z"
/>
<glyph unicode="&#x15d;" glyph-name="scircumflex" horiz-adv-x="417" d="M378 152Q378 117 365 88T324 36T256 2T162 -10Q132 -10 102 -7T48 3L55 109Q78 100 109 95T168 89Q205 89 225 102T245 140Q245 160 232 172T194 195T141 216T91 243T55 286T41 352Q41
385 54 413T93 462T158 496T250 508Q271 508 294 506T342 499L335 398Q313 404 290 408T244 412Q209 412 191 399T172 364Q172 345 185 333T224 310T277 288T328 260T364 217T378 152ZM564 560L461 641L356 560L307 618L462 754L614 619L564 560Z" />
<glyph unicode="&#x15e;" glyph-name="Scedilla" horiz-adv-x="503" d="M467 199Q467 153 450 115T400 48T317 5T206 -11Q123 -11 49 7L63 132Q97 118 136 110T213 102Q238 102 259 107T295 122T319 148T328 186Q328 216 309 235T252 272T177 305T111 343T60 400T40
487Q40 531 57 567T107 630T187 671T295 686Q323 686 356 683T417 673L405 559Q377 568 347 573T287 578Q232 578 204 558T176 500Q176 472 195 453T252 416T327 383T396 344T447 287T467 199ZM286 -40Q324 -93 317 -142T266 -234H169Q187 -212 198 -193T211 -154T206
-116T180 -73L286 -40Z" />
<glyph unicode="&#x15f;" glyph-name="scedilla" horiz-adv-x="417" d="M378 152Q378 117 365 88T324 36T256 2T162 -10Q132 -10 102 -7T48 3L55 109Q78 100 109 95T168 89Q205 89 225 102T245 140Q245 160 232 172T194 195T141 216T91 243T55 286T41 352Q41 385
54 413T93 462T158 496T250 508Q271 508 294 506T342 499L335 398Q313 404 290 408T244 412Q209 412 191 399T172 364Q172 345 185 333T224 310T277 288T328 260T364 217T378 152ZM250 -40Q288 -93 281 -142T230 -234H133Q151 -212 162 -193T175 -154T170 -116T144
-73L250 -40Z" />
<glyph unicode="&#x160;" glyph-name="Scaron" horiz-adv-x="503" d="M467 199Q467 153 450 115T400 48T317 5T206 -11Q123 -11 49 7L63 132Q97 118 136 110T213 102Q238 102 259 107T295 122T319 148T328 186Q328 216 309 235T252 272T177 305T111 343T60 400T40
487Q40 531 57 567T107 630T187 671T295 686Q323 686 356 683T417 673L405 559Q377 568 347 573T287 578Q232 578 204 558T176 500Q176 472 195 453T252 416T327 383T396 344T447 287T467 199ZM252 715L88 798L119 865L254 810L391 865L420 800L252 715Z" />
<glyph unicode="&#x161;" glyph-name="scaron" horiz-adv-x="417" d="M378 152Q378 117 365 88T324 36T256 2T162 -10Q132 -10 102 -7T48 3L55 109Q78 100 109 95T168 89Q205 89 225 102T245 140Q245 160 232 172T194 195T141 216T91 243T55 286T41 352Q41 385
54 413T93 462T158 496T250 508Q271 508 294 506T342 499L335 398Q313 404 290 408T244 412Q209 412 191 399T172 364Q172 345 185 333T224 310T277 288T328 260T364 217T378 152ZM465 560L313 694L363 754L467 672L572 754L620 695L465 560Z" />
<glyph unicode="&#x162;" glyph-name="uni0162" horiz-adv-x="510" d="M320 564V0H190V564H15V675H495V564H320ZM300 -40Q338 -93 331 -142T280 -234H183Q201 -212 212 -193T225 -154T220 -116T194 -73L300 -40Z" />
<glyph unicode="&#x163;" glyph-name="uni0163" horiz-adv-x="375" d="M345 4Q320 -2 291 -6T239 -10Q197 -10 169 -2T125 25T101 73T93 149V398H8V497H93V650L221 684V497H340V398H221V173Q221 129 233 113T277 97Q306 97 336 104L345 4ZM258 -40Q296 -93 289
-142T238 -234H141Q159 -212 170 -193T183 -154T178 -116T152 -73L258 -40Z" />
<glyph unicode="&#x164;" glyph-name="Tcaron" horiz-adv-x="510" d="M320 564V0H190V564H15V675H495V564H320ZM252 715L88 798L119 865L254 810L391 865L420 800L252 715Z" />
<glyph unicode="&#x165;" glyph-name="tcaron" horiz-adv-x="379" d="M345 4Q320 -2 291 -6T239 -10Q197 -10 169 -2T125 25T101 73T93 149V398H8V497H93V650L221 684V497H340V398H221V173Q221 129 233 113T277 97Q306 97 336 104L345 4ZM343 553L260 571L311
776L413 754L343 553Z" />
<glyph unicode="&#x166;" glyph-name="Tbar" horiz-adv-x="510" d="M190 564H15V675H495V564H320V388H425V283H320V0H190V283H86V388H190V564Z" />
<glyph unicode="&#x167;" glyph-name="tbar" horiz-adv-x="400" d="M352 4Q327 -3 299 -6T246 -10Q204 -10 176 -2T132 25T108 73T101 148V208H23V301H101V402H16V497H101V650L228 684V497H348V402H228V301H337V208H228V169Q228 148 231 134T240 112T258 99T285
95Q300 95 315 97T344 103L352 4Z" />
<glyph unicode="&#x168;" glyph-name="Utilde" horiz-adv-x="681" d="M611 262Q611 125 539 57T331 -11Q254 -11 203 8T122 61T82 138T70 234V675H200V242Q200 208 206 182T228 137T271 108T340 97Q416 97 449 133T482 254V675H611V262ZM528 810Q482 728 402 728Q379
728 362 734T325 753T297 770T275 775Q242 775 217 732L153 776Q199 858 279 858Q302 858 319 852T356 833T385 816T407 811Q424 811 438 821T464 853L528 810Z" />
<glyph unicode="&#x169;" glyph-name="utilde" horiz-adv-x="570" d="M381 0Q381 23 382 47T387 89H386Q362 43 319 17T217 -10Q176 -10 148 2T102 35T77 85T69 148V497H196V179Q196 138 210 118T258 97Q282 97 303 109T340 144T364 196T373 257V497H501V0H381ZM465
666Q420 577 344 577Q321 577 305 584T269 604T242 623T220 628Q190 628 165 583L104 630Q149 719 226 719Q248 719 264 712T300 692T328 673T349 668Q379 668 404 713L465 666Z" />
<glyph unicode="&#x16a;" glyph-name="Umacron" horiz-adv-x="681" d="M611 262Q611 125 539 57T331 -11Q254 -11 203 8T122 61T82 138T70 234V675H200V242Q200 208 206 182T228 137T271 108T340 97Q416 97 449 133T482 254V675H611V262ZM195 741V822H488V741H195Z" />
<glyph unicode="&#x16b;" glyph-name="umacron" horiz-adv-x="570" d="M381 0Q381 23 382 47T387 89H386Q362 43 319 17T217 -10Q176 -10 148 2T102 35T77 85T69 148V497H196V179Q196 138 210 118T258 97Q282 97 303 109T340 144T364 196T373 257V497H501V0H381ZM150
600V692H420V600H150Z" />
<glyph unicode="&#x16c;" glyph-name="Ubreve" horiz-adv-x="681" d="M611 262Q611 125 539 57T331 -11Q254 -11 203 8T122 61T82 138T70 234V675H200V242Q200 208 206 182T228 137T271 108T340 97Q416 97 449 133T482 254V675H611V262ZM483 859Q483 831 474 806T447
763T401 734T340 723Q306 723 280 733T235 763T208 806T199 859H275Q275 835 294 819T341 802Q371 802 389 818T407 859H483Z" />
<glyph unicode="&#x16d;" glyph-name="ubreve" horiz-adv-x="570" d="M381 0Q381 23 382 47T387 89H386Q362 43 319 17T217 -10Q176 -10 148 2T102 35T77 85T69 148V497H196V179Q196 138 210 118T258 97Q282 97 303 109T340 144T364 196T373 257V497H501V0H381ZM422
720Q422 689 414 662T388 613T345 579T283 567Q248 567 222 579T180 613T156 661T148 720H231Q231 693 245 676T284 659Q309 659 323 674T338 720H422Z" />
<glyph unicode="&#x16e;" glyph-name="Uring" horiz-adv-x="681" d="M611 262Q611 125 539 57T331 -11Q254 -11 203 8T122 61T82 138T70 234V675H200V242Q200 208 206 182T228 137T271 108T340 97Q416 97 449 133T482 254V675H611V262ZM474 814Q474 787 464 765T436
727T392 703T336 694Q275 694 241 721T207 805Q207 832 217 854T246 892T290 916T346 925Q406 925 440 898T474 814ZM388 809Q388 837 376 849T341 862Q321 862 308 849T294 810Q294 782 305 770T340 757Q360 757 374 770T388 809Z" />
<glyph unicode="&#x16f;" glyph-name="uring" horiz-adv-x="570" d="M381 0Q381 23 382 47T387 89H386Q362 43 319 17T217 -10Q176 -10 148 2T102 35T77 85T69 148V497H196V179Q196 138 210 118T258 97Q282 97 303 109T340 144T364 196T373 257V497H501V0H381ZM415
668Q415 640 405 617T377 577T334 551T279 542Q219 542 186 570T153 658Q153 685 163 708T192 748T235 774T290 783Q350 783 382 755T415 668ZM331 662Q331 691 320 704T285 717Q265 717 251 704T237 663Q237 634 249 621T284 608Q304 608 317 621T331 662Z" />
<glyph unicode="&#x170;" glyph-name="Uhungarumlaut" horiz-adv-x="681" d="M611 262Q611 125 539 57T331 -11Q254 -11 203 8T122 61T82 138T70 234V675H200V242Q200 208 206 182T228 137T271 108T340 97Q416 97 449 133T482 254V675H611V262ZM245 714L186 765L313
914L386 851L245 714ZM437 713L380 766L525 907L593 840L437 713Z" />
<glyph unicode="&#x171;" glyph-name="uhungarumlaut" horiz-adv-x="570" d="M381 0Q381 23 382 47T387 89H386Q362 43 319 17T217 -10Q176 -10 148 2T102 35T77 85T69 148V497H196V179Q196 138 210 118T258 97Q282 97 303 109T340 144T364 196T373 257V497H501V0H381ZM200
560L140 611L269 766L343 704L200 560ZM389 560L333 611L476 758L545 691L389 560Z" />
<glyph unicode="&#x172;" glyph-name="Uogonek" horiz-adv-x="681" d="M611 262Q611 128 540 57Q517 34 487 14T428 -34Q390 -72 390 -109Q390 -142 426 -142Q456 -142 491 -118L526 -187Q497 -213 464 -225T396 -237Q339 -237 305 -211T271 -135Q271 -101 289
-68T342 -9Q337 -10 332 -10T321 -10Q246 -10 198 9T121 62T81 140T70 234V675H200V242Q200 210 206 184T228 138T271 108T340 97Q415 97 448 132T482 254V675H611V262Z" />
<glyph unicode="&#x173;" glyph-name="uogonek" horiz-adv-x="570" d="M561 -187Q533 -212 500 -224T431 -237Q373 -237 340 -210T306 -135Q306 -95 327 -60T391 10Q389 28 388 48T387 85H386Q360 41 318 16T217 -10Q176 -10 148 2T102 35T77 85T69 148V497H196V179Q196
138 210 118T258 97Q282 97 303 109T340 144T364 196T373 257V497H501V164Q501 117 503 76T512 0Q465 -28 445 -55T425 -109Q425 -125 434 -133T461 -142Q477 -142 493 -136T526 -118L561 -187Z" />
<glyph unicode="&#x174;" glyph-name="Wcircumflex" horiz-adv-x="958" d="M765 0H604L501 369Q494 395 489 428T479 492H477Q465 404 456 369L355 0H193L24 675H163L253 306Q262 260 269 219T282 138H284Q290 179 297 220T316 304L418 675H548L653 300Q664 261
673 219T688 138H690Q696 184 702 223T716 298L805 675H933L765 0ZM618 715L482 770L345 715L316 781L484 865L648 782L618 715Z" />
<glyph unicode="&#x175;" glyph-name="wcircumflex" horiz-adv-x="796" d="M632 0H489L418 226Q410 256 403 285T391 342H390Q384 313 377 283T358 211L296 0H159L10 497H151L207 290Q207 290 221 232T241 148H242Q249 183 257 220T275 291L337 497H464L527 291Q539
248 547 214T562 147H564Q569 179 577 211T597 290L655 497H785L632 0ZM501 560L398 641L293 560L244 618L399 754L551 619L501 560Z" />
<glyph unicode="&#x176;" glyph-name="Ycircumflex" horiz-adv-x="561" d="M345 249V0H215V248L-2 675H141L235 485Q249 456 260 430T281 378H283Q293 404 305 431T335 494L425 675H563L345 249ZM416 715L280 770L143 715L114 781L282 865L446 782L416 715Z" />
<glyph unicode="&#x177;" glyph-name="ycircumflex" horiz-adv-x="570" d="M100 -116Q133 -128 171 -134T248 -141Q312 -141 344 -112T376 -20V8Q376 25 378 47T385 91H384Q361 47 320 20T217 -7Q175 -7 147 5T101 39T77 88T69 150V497H196V181Q196 142 209 120T258
98Q282 98 303 111T339 146T364 197T373 259V497H501V-7Q501 -71 483 -116T430 -191T347 -235T238 -249Q159 -249 89 -232L100 -116ZM388 560L285 641L180 560L131 618L286 754L438 619L388 560Z" />
<glyph unicode="&#x178;" glyph-name="Ydieresis" horiz-adv-x="561" d="M345 249V0H215V248L-2 675H141L235 485Q249 456 260 430T281 378H283Q293 404 305 431T335 494L425 675H563L345 249ZM460 788Q460 759 440 739T391 719Q362 719 342 739T322 788Q322 817
342 837T391 857Q420 857 440 837T460 788ZM244 788Q244 759 224 739T175 719Q146 719 126 739T106 788Q106 817 126 837T175 857Q204 857 224 837T244 788Z" />
<glyph unicode="&#x179;" glyph-name="Zacute" horiz-adv-x="537" d="M45 0V100L288 496Q303 519 312 532T332 560Q310 559 282 559T209 558H53V675H489V570L232 165Q219 145 214 137T201 118Q209 119 227 119T270 120T347 120H493V0H45ZM221 716L200 786L408
861L437 769L221 716Z" />
<glyph unicode="&#x17a;" glyph-name="zacute" horiz-adv-x="450" d="M45 0V91L245 384Q229 383 201 383T139 382H51V497H399V406L203 116Q217 117 246 117T316 117H403V0H45ZM216 558L159 619L309 763L379 688L216 558Z" />
<glyph unicode="&#x17b;" glyph-name="Zdotaccent" horiz-adv-x="537" d="M45 0V100L288 496Q303 519 312 532T332 560Q310 559 282 559T209 558H53V675H489V570L232 165Q219 145 214 137T201 118Q209 119 227 119T270 120T347 120H493V0H45ZM346 794Q346 762
324 740T270 717Q238 717 216 739T193 794Q193 825 215 847T270 870Q302 870 324 848T346 794Z" />
<glyph unicode="&#x17c;" glyph-name="zdotaccent" horiz-adv-x="450" d="M45 0V91L245 384Q229 383 201 383T139 382H51V497H399V406L203 116Q217 117 246 117T316 117H403V0H45ZM300 647Q300 632 294 618T278 594T254 577T224 571Q208 571 194 577T170 593T153
617T147 647Q147 663 153 677T169 701T194 718T224 724Q239 724 253 718T278 702T294 677T300 647Z" />
<glyph unicode="&#x17d;" glyph-name="Zcaron" horiz-adv-x="537" d="M45 0V100L288 496Q303 519 312 532T332 560Q310 559 282 559T209 558H53V675H489V570L232 165Q219 145 214 137T201 118Q209 119 227 119T270 120T347 120H493V0H45ZM269 715L105 798L136
865L271 810L408 865L437 800L269 715Z" />
<glyph unicode="&#x17e;" glyph-name="zcaron" horiz-adv-x="450" d="M45 0V91L245 384Q229 383 201 383T139 382H51V497H399V406L203 116Q217 117 246 117T316 117H403V0H45ZM224 560L72 694L122 754L226 672L331 754L379 695L224 560Z" />
<glyph unicode="&#x17f;" glyph-name="longs" horiz-adv-x="266" d="M308 630Q299 633 289 633T270 634Q230 634 213 609T195 527V0H67V521Q67 629 116 683T263 738Q277 738 291 738T318 735L308 630Z" />
<glyph unicode="&#x18f;" glyph-name="uni018F" horiz-adv-x="605" d="M428 395Q424 437 411 469T376 524T324 557T257 569Q200 569 157 559T78 532L53 641Q99 662 153 673T270 685Q336 685 392 665T487 603T549 497T572 343Q572 260 552 194T494 83T401 13T279
-11Q213 -11 166 10T88 69T42 162T27 283Q27 309 29 340T36 395H428ZM168 287V274Q168 229 177 198T202 146T240 116T290 107Q323 107 348 120T391 157T418 214T429 287H168Z" />
<glyph unicode="&#x192;" glyph-name="florin" horiz-adv-x="454" d="M231 105Q223 30 207 -21T164 -104T99 -150T7 -165Q-11 -165 -30 -163T-67 -156L-48 -45Q-32 -51 -16 -54T16 -58Q37 -58 51 -52T74 -30T90 11T101 77L125 324H14V422H134L145 521Q156 632
207 686T357 740Q374 740 393 739T429 733L415 628Q402 632 385 634T353 636Q317 636 298 612T272 530L262 422H406V324H253L231 105Z" />
<glyph unicode="&#x1a0;" glyph-name="Ohorn" horiz-adv-x="713" d="M702 842Q711 822 716 795T722 742Q722 679 690 641T597 597Q638 552 657 490T677 350Q677 262 651 195T579 82T474 13T346 -11Q270 -11 212 11T115 77T56 182T36 325Q36 413 62 480T134 593T239
662T367 686Q401 686 425 683T468 675T504 667T543 663Q581 663 598 682T616 732Q616 754 611 777T596 819L702 842ZM538 335Q538 389 527 432T493 506T436 552T356 569Q316 569 283 555T226 511T189 439T175 341Q175 286 186 243T220 170T277 123T356 106Q396
106 429 121T487 164T524 236T538 335Z" />
<glyph unicode="&#x1a1;" glyph-name="ohorn" horiz-adv-x="553" d="M547 660Q556 640 561 614T566 565Q566 505 540 472T466 430Q490 408 505 364T520 260Q520 202 503 153T454 68T375 11T267 -10Q214 -10 171 4T97 49T50 126T33 237Q33 295 50 344T99 429T178
486T286 507Q311 507 327 505T357 500T380 495T403 492Q436 492 450 509T465 555Q465 575 460 597T445 637L547 660ZM388 248Q388 322 359 360T278 399Q226 399 196 361T165 249Q165 175 194 137T276 99Q300 99 320 108T356 135T379 181T388 248Z" />
<glyph unicode="&#x1af;" glyph-name="Uhorn" horiz-adv-x="681" d="M682 842Q691 822 696 795T702 744Q702 683 677 652T611 608V262Q611 193 593 142T538 56T450 6T331 -11Q252 -11 201 9T121 62T81 140T70 234V675H200V242Q200 210 206 184T228 138T271 108T340
97Q377 97 404 105T448 132T474 180T482 254V675H536Q571 675 583 690T596 734Q596 754 590 777T575 819L682 842Z" />
<glyph unicode="&#x1b0;" glyph-name="uhorn" horiz-adv-x="570" d="M381 0Q381 18 382 43T387 89H386Q364 45 321 18T217 -10Q175 -10 147 2T101 36T77 87T69 148V497H196V179Q196 140 209 119T258 97Q282 97 303 109T340 144T364 195T373 257V497H427Q461 497
474 512T487 555Q487 575 482 597T467 637L569 660Q577 640 582 614T588 565Q588 535 582 513T563 475T535 448T501 431V0H381Z" />
<glyph unicode="&#x1cd;" glyph-name="uni01CD" horiz-adv-x="626" d="M335 458Q327 484 320 509T308 559H306Q301 535 294 509T280 459L210 247H405L335 458ZM480 0L434 144H180L133 0H2L228 675H397L624 0H480ZM311 715L147 798L178 865L313 810L450 865L479
800L311 715Z" />
<glyph unicode="&#x1ce;" glyph-name="uni01CE" horiz-adv-x="524" d="M325 221Q278 221 246 216T196 200T169 177T161 146Q161 121 177 105T221 88Q243 88 262 98T296 125T317 163T325 206V221ZM335 0Q335 24 336 45T340 84L339 85Q321 42 278 16T180 -10Q114
-10 76 30T38 132Q38 176 58 208T115 262T206 294T325 305V326Q325 370 305 390T236 410Q203 410 163 401T85 377L65 474Q110 489 159 498T251 508Q308 508 347 497T409 463T443 408T453 333V128Q453 95 454 62T457 0H335ZM258 560L106 694L156 754L260 672L365
754L413 695L258 560Z" />
<glyph unicode="&#x1d0;" glyph-name="uni01D0" horiz-adv-x="266" d="M69 0V497H197V0H69ZM388 560L236 694L286 754L390 672L495 754L543 695L388 560Z" />
<glyph unicode="&#x1d2;" glyph-name="uni01D2" horiz-adv-x="553" d="M388 248Q388 321 359 360T278 399Q252 399 231 390T196 361T173 314T165 249Q165 99 276 99Q327 99 357 136T388 248ZM520 260Q520 202 503 153T454 67T374 10T267 -10Q213 -10 170 5T97
50T50 127T33 237Q33 295 50 344T99 430T179 487T286 507Q399 507 459 444T520 260ZM275 560L123 694L173 754L277 672L382 754L430 695L275 560Z" />
<glyph unicode="&#x1e6;" glyph-name="Gcaron" horiz-adv-x="675" d="M608 32Q558 12 498 1T377 -10Q295 -10 231 12T124 78T58 181T36 317Q36 399 60 467T132 583T250 658T411 685Q461 685 510 677T602 656L576 537Q498 569 403 569Q345 569 302 551T231 501T190
426T177 334Q177 226 232 167T392 107Q439 107 478 119V354H608V32ZM372 715L208 798L239 865L374 810L511 865L540 800L372 715Z" />
<glyph unicode="&#x1e7;" glyph-name="gcaron" horiz-adv-x="559" d="M362 397Q333 404 295 404Q237 404 204 364T170 236Q170 96 254 96Q279 96 299 109T333 145T354 197T362 260V397ZM489 -7Q489 -65 474 -109T425 -185T341 -232T218 -249Q177 -249 138 -245T65
-232L77 -116Q110 -128 149 -134T225 -141Q296 -141 329 -112T363 -20V10Q363 30 364 47T369 81L367 82Q347 39 308 15T220 -10Q131 -10 84 49T36 222Q36 285 54 337T106 427T191 485T307 506Q357 506 401 502T489 491V-7ZM294 560L142 694L192 754L296 672L401
754L449 695L294 560Z" />
<glyph unicode="&#x1e8;" glyph-name="uni01E8" horiz-adv-x="597" d="M417 0L200 324V0H70V675H200V369L418 675H576L329 351L588 0H417ZM304 715L140 798L171 865L306 810L443 865L472 800L304 715Z" />
<glyph unicode="&#x1e9;" glyph-name="uni01E9" horiz-adv-x="523" d="M351 0L197 246V0H69V730H197V290L342 497H492L321 275L511 0H351ZM384 560L232 694L282 754L386 672L491 754L539 695L384 560Z" />
<glyph unicode="&#x1fa;" glyph-name="Aringacute" horiz-adv-x="626" d="M335 458Q327 484 320 509T308 559H306Q301 535 294 509T280 459L210 247H405L335 458ZM480 0L434 144H180L133 0H2L228 675H397L624 0H480ZM259 877L242 927L422 980L445 916L259 877ZM420
783Q420 742 389 717T308 692Q257 692 230 712T203 776Q203 817 234 842T316 867Q366 867 393 847T420 783ZM353 779Q353 800 343 809T312 819Q296 819 284 810T271 780Q271 759 281 750T311 740Q329 740 341 749T353 779Z" />
<glyph unicode="&#x1fb;" glyph-name="aringacute" horiz-adv-x="524" d="M325 221Q278 221 246 216T196 200T169 177T161 146Q161 121 177 105T221 88Q243 88 262 98T296 125T317 163T325 206V221ZM335 0Q335 24 336 45T340 84L339 85Q321 42 278 16T180 -10Q114
-10 76 30T38 132Q38 176 58 208T115 262T206 294T325 305V326Q325 370 305 390T236 410Q203 410 163 401T85 377L65 474Q110 489 159 498T251 508Q308 508 347 497T409 463T443 408T453 333V128Q453 95 454 62T457 0H335ZM199 777L180 836L378 903L406 826L199
777ZM376 650Q376 626 367 606T342 570T302 547T253 539Q197 539 168 564T138 642Q138 666 147 686T173 722T212 745T262 753Q317 753 346 728T376 650ZM301 645Q301 672 290 684T258 696Q240 696 227 684T214 647Q214 620 224 608T257 596Q275 596 288 608T301
645Z" />
<glyph unicode="&#x1fc;" glyph-name="AEacute" horiz-adv-x="799" d="M371 567H362Q348 531 334 498T300 425L211 251H371V567ZM371 0V149H167L95 0H-38L296 675H739V566H498V400H720V294H498V112H742V0H371ZM451 716L430 786L638 861L667 769L451 716Z" />
<glyph unicode="&#x1fd;" glyph-name="aeacute" horiz-adv-x="800" d="M325 221Q280 221 249 216T198 202T170 178T161 146Q161 121 177 105T221 88Q243 88 262 97T295 124T317 162T325 206V221ZM635 307Q636 358 614 385T549 413Q508 413 482 385T451 307H635ZM762
296Q762 277 761 256T758 221H450Q451 154 483 122T582 89Q618 89 655 95T732 115L745 20Q703 6 657 -2T567 -10Q491 -10 441 14T368 87H367Q338 41 293 16T191 -10Q119 -10 79 28T38 132Q38 175 57 207T114 262T205 294T325 305V326Q325 371 304 390T236 410Q204
410 164 401T85 377L65 474Q112 490 160 499T251 508Q306 508 344 493T406 446H407Q431 475 470 491T556 507Q607 507 646 492T711 449T749 382T762 296ZM418 558L361 619L511 763L581 688L418 558Z" />
<glyph unicode="&#x1fe;" glyph-name="Oslashacute" horiz-adv-x="713" d="M212 166L418 561Q406 567 389 570T356 573Q315 573 281 558T221 514T183 441T169 341Q169 309 173 282T183 234T197 197T212 166ZM501 509Q453 417 419 352T352 222T295 114Q308 109
324 106T356 102Q397 102 431 117T491 162T530 235T544 335Q544 394 532 435T501 509ZM616 730L564 629Q619 589 648 519T677 350Q677 265 651 197T580 83T474 13T346 -11Q317 -11 290 -7T239 5L187 -97L97 -55L149 46Q122 66 101 93T66 155T44 232T36 325Q36 410
62 478T133 592T239 662T367 686Q396 686 423 682T474 670L526 772L616 730ZM262 756L241 826L449 901L478 809L262 756Z" />
<glyph unicode="&#x1ff;" glyph-name="oslashacute" horiz-adv-x="553" d="M314 401Q307 404 298 405T279 407Q250 407 227 397T188 366T164 316T155 248Q155 193 175 140L314 401ZM398 249Q398 305 378 357L239 96Q254 90 274 90Q332 90 365 131T398 249ZM520
260Q520 202 503 153T454 67T374 10T267 -10Q224 -10 189 1L139 -93L68 -62L118 31Q76 62 55 114T33 237Q33 295 50 344T99 430T179 487T286 507Q329 507 364 496L414 590L485 559L435 466Q477 435 498 383T520 260ZM258 558L201 619L351 763L421 688L258 558Z"
/>
<glyph unicode="&#x218;" glyph-name="Scommaaccent" horiz-adv-x="503" d="M467 199Q467 153 450 115T400 48T317 5T206 -11Q123 -11 49 7L63 132Q97 118 136 110T213 102Q238 102 259 107T295 122T319 148T328 186Q328 216 309 235T252 272T177 305T111 343T60
400T40 487Q40 531 57 567T107 630T187 671T295 686Q323 686 356 683T417 673L405 559Q377 568 347 573T287 578Q232 578 204 558T176 500Q176 472 195 453T252 416T327 383T396 344T447 287T467 199ZM152 -196Q181 -181 191 -169T201 -142Q201 -136 200 -132T198
-122T195 -113T193 -103Q193 -80 208 -64T252 -47Q280 -47 296 -65T313 -113Q313 -131 305 -150T281 -186T237 -217T172 -242L152 -196Z" />
<glyph unicode="&#x219;" glyph-name="scommaaccent" horiz-adv-x="417" d="M378 152Q378 117 365 88T324 36T256 2T162 -10Q132 -10 102 -7T48 3L55 109Q78 100 109 95T168 89Q205 89 225 102T245 140Q245 160 232 172T194 195T141 216T91 243T55 286T41 352Q41
385 54 413T93 462T158 496T250 508Q271 508 294 506T342 499L335 398Q313 404 290 408T244 412Q209 412 191 399T172 364Q172 345 185 333T224 310T277 288T328 260T364 217T378 152ZM116 -196Q145 -181 155 -169T165 -142Q165 -136 164 -132T162 -122T159 -113T157
-103Q157 -80 172 -64T216 -47Q244 -47 260 -65T277 -113Q277 -131 269 -150T245 -186T201 -217T136 -242L116 -196Z" />
<glyph unicode="&#x21a;" glyph-name="Tcommaaccent" horiz-adv-x="510" d="M320 564V0H190V564H15V675H495V564H320ZM161 -196Q190 -181 200 -169T210 -142Q210 -136 209 -132T207 -122T204 -113T202 -103Q202 -80 217 -64T261 -47Q289 -47 305 -65T322 -113Q322
-131 314 -150T290 -186T246 -217T181 -242L161 -196Z" />
<glyph unicode="&#x21b;" glyph-name="tcommaaccent" horiz-adv-x="375" d="M345 4Q320 -2 291 -6T239 -10Q197 -10 169 -2T125 25T101 73T93 149V398H8V497H93V650L221 684V497H340V398H221V173Q221 129 233 113T277 97Q306 97 336 104L345 4ZM123 -196Q152 -181
162 -169T172 -142Q172 -136 171 -132T169 -122T166 -113T164 -103Q164 -80 179 -64T223 -47Q251 -47 267 -65T284 -113Q284 -131 276 -150T252 -186T208 -217T143 -242L123 -196Z" />
<glyph unicode="&#x237;" glyph-name="dotlessj" horiz-adv-x="271" d="M201 -37Q201 -88 191 -127T158 -193T100 -234T14 -248Q-10 -248 -32 -245T-63 -240L-54 -131Q-47 -134 -29 -137T12 -141Q46 -141 60 -121T74 -50V497H201V-37Z" />
<glyph unicode="&#x259;" glyph-name="uni0259" horiz-adv-x="509" d="M345 295Q342 350 308 380T209 410Q173 410 139 403T72 382L51 475Q92 491 138 499T229 508Q347 508 411 447T476 253Q476 195 461 147T416 63T342 9T242 -10Q187 -10 148 7T84 55T47 130T34
224Q34 258 39 295H345ZM160 210Q160 205 160 203T160 197Q160 139 183 113T248 86Q271 86 289 95T320 121T339 160T346 210H160Z" />
<glyph unicode="&#x298;" glyph-name="bullseye" horiz-adv-x="467" d="M410 295Q410 257 396 225T357 168T300 129T230 115Q192 115 160 129T103 167T64 224T50 295Q50 332 64 365T103 422T160 460T230 474Q268 474 300 460T357 422T396 365T410 295ZM283 295Q283
317 268 332T230 348Q208 348 193 333T177 295Q177 273 192 258T230 242Q252 242 267 257T283 295Z" />
<glyph unicode="&#x2bc;" glyph-name="apostrophe" horiz-adv-x="110" d="M16 504Q39 529 51 549T68 586T68 616T54 642Q41 657 39 675T44 709T67 736T105 747Q136 747 156 723T176 660T149 569T62 464L16 504Z" />
<glyph unicode="&#x2c6;" glyph-name="circumflex" horiz-adv-x="437" d="M322 560L219 641L114 560L65 618L220 754L372 619L322 560Z" />
<glyph unicode="&#x2c7;" glyph-name="caron" horiz-adv-x="437" d="M217 560L65 694L115 754L219 672L324 754L372 695L217 560Z" />
<glyph unicode="&#x2c9;" glyph-name="macron" horiz-adv-x="400" d="M65 600V692H335V600H65Z" />
<glyph unicode="&#x2d8;" glyph-name="breve" horiz-adv-x="404" d="M339 720Q339 689 331 662T305 613T262 579T200 567Q165 567 139 579T97 613T73 661T65 720H148Q148 693 162 676T201 659Q226 659 240 674T255 720H339Z" />
<glyph unicode="&#x2d9;" glyph-name="dotaccent" horiz-adv-x="283" d="M218 647Q218 632 212 618T196 594T172 577T142 571Q126 571 112 577T88 593T71 617T65 647Q65 663 71 677T87 701T112 718T142 724Q157 724 171 718T196 702T212 677T218 647Z" />
<glyph unicode="&#x2da;" glyph-name="ring" horiz-adv-x="393" d="M327 668Q327 640 317 617T289 577T246 551T191 542Q131 542 98 570T65 658Q65 685 75 708T104 748T147 774T202 783Q262 783 294 755T327 668ZM243 662Q243 691 232 704T197 717Q177 717 163
704T149 663Q149 634 161 621T196 608Q216 608 229 621T243 662Z" />
<glyph unicode="&#x2db;" glyph-name="ogonek" horiz-adv-x="386" d="M271 0Q225 -28 205 -55T185 -109Q185 -125 194 -133T220 -142Q236 -142 252 -136T285 -118L321 -187Q293 -212 260 -224T190 -237Q132 -237 99 -210T65 -135Q65 -96 86 -61T149 9L271 0Z" />
<glyph unicode="&#x2dc;" glyph-name="tilde" horiz-adv-x="491" d="M426 666Q381 577 305 577Q282 577 266 584T230 604T203 623T181 628Q151 628 126 583L65 630Q110 719 187 719Q209 719 225 712T261 692T289 673T310 668Q340 668 365 713L426 666Z" />
<glyph unicode="&#x2dd;" glyph-name="hungarumlaut" horiz-adv-x="535" d="M125 560L65 611L194 766L268 704L125 560ZM314 560L258 611L401 758L470 691L314 560Z" />
<glyph unicode="&#x300;" glyph-name="gravecomb" horiz-adv-x="0" d="M-279 558L-442 687L-372 763L-222 619L-279 558Z" />
<glyph unicode="&#x301;" glyph-name="acutecomb" horiz-adv-x="0" d="M-281 558L-338 619L-188 763L-118 688L-281 558Z" />
<glyph unicode="&#x303;" glyph-name="tildecomb" horiz-adv-x="0" d="M-105 666Q-150 577 -226 577Q-249 577 -265 584T-301 604T-328 623T-350 628Q-380 628 -405 583L-466 630Q-421 719 -344 719Q-322 719 -306 712T-270 692T-242 673T-221 668Q-191 668 -166
713L-105 666Z" />
<glyph unicode="&#x305;" glyph-name="uni0305" horiz-adv-x="0" d="M-510 600V692H-61V600H-510Z" />
<glyph unicode="&#x307;" glyph-name="uni0307" horiz-adv-x="0" d="M-209 647Q-209 632 -215 618T-231 594T-255 577T-285 571Q-301 571 -315 577T-339 593T-356 617T-362 647Q-362 663 -356 677T-340 701T-315 718T-285 724Q-270 724 -256 718T-231 702T-215
677T-209 647Z" />
<glyph unicode="&#x312;" glyph-name="uni0312" horiz-adv-x="0" d="M-187 710Q-216 697 -226 684T-237 657Q-237 651 -236 647T-233 637T-230 628T-229 617Q-229 592 -245 577T-288 561Q-301 561 -312 566T-332 580T-344 602T-348 628Q-348 646 -341 664T-317
700T-274 733T-208 756L-187 710Z" />
<glyph unicode="&#x315;" glyph-name="uni0315" horiz-adv-x="283" d="M148 553L65 571L116 776L218 754L148 553Z" />
<glyph unicode="&#x323;" glyph-name="dotbelowcomb" horiz-adv-x="0" d="M-209 -150Q-209 -166 -215 -180T-231 -204T-256 -221T-285 -227Q-301 -227 -315 -221T-339 -205T-356 -180T-362 -150Q-362 -134 -356 -121T-340 -97T-315 -80T-285 -74Q-270 -74 -256
-80T-232 -96T-215 -121T-209 -150Z" />
<glyph unicode="&#x326;" glyph-name="uni0326" horiz-adv-x="0" d="M-383 -196Q-354 -181 -344 -169T-334 -142Q-334 -136 -335 -132T-337 -122T-340 -113T-342 -103Q-342 -80 -327 -64T-283 -47Q-255 -47 -239 -65T-222 -113Q-222 -131 -230 -150T-254 -186T-298
-217T-363 -242L-383 -196Z" />
<glyph unicode="&#x327;" glyph-name="uni0327" horiz-adv-x="0" d="M-253 -40Q-215 -93 -222 -142T-273 -234H-370Q-352 -212 -341 -193T-328 -154T-333 -116T-359 -73L-253 -40Z" />
<glyph unicode="&#x331;" glyph-name="uni0331" horiz-adv-x="0" d="M-425 -103H-146V-195H-425V-103Z" />
<glyph unicode="&#x37e;" glyph-name="uni037E" horiz-adv-x="298" d="M242 390Q242 374 236 359T219 333T192 316T161 309Q144 309 129 315T103 333T86 359T79 390Q79 407 85 422T103 448T129 465T161 472Q177 472 192 466T218 448T236 422T242 390ZM60 -126Q85
-99 99 -77T118 -37T118 -3T101 28Q87 44 85 65T90 105T117 136T160 149Q184 149 202 137T231 102T242 49T229 -18T187 -94T113 -173L60 -126Z" />
<glyph unicode="&#x384;" glyph-name="tonos" horiz-adv-x="263" d="M156 551L65 560L86 746L198 736L156 551Z" />
<glyph unicode="&#x385;" glyph-name="dieresistonos" horiz-adv-x="528" d="M186 646Q186 620 169 603T126 585Q100 585 83 602T65 646Q65 671 82 688T126 705Q151 705 168 688T186 646ZM288 550L212 556L226 737L324 731L288 550ZM462 646Q462 620 445 603T402
585Q376 585 359 602T342 646Q342 671 359 688T402 705Q427 705 444 688T462 646Z" />
<glyph unicode="&#x386;" glyph-name="Alphatonos" horiz-adv-x="653" d="M363 458Q355 484 348 509T336 559H334Q329 535 322 509T308 459L238 247H433L363 458ZM508 0L462 144H208L161 0H30L256 675H425L652 0H508ZM363 551L272 560L293 746L405 736L363 551Z" />
<glyph unicode="&#x387;" glyph-name="anoteleia" horiz-adv-x="289" d="M223 497Q223 481 217 467T201 442T176 425T145 418Q128 418 114 424T89 441T72 466T66 497Q66 513 72 527T88 552T113 569T145 576Q161 576 175 570T200 553T217 528T223 497Z" />
<glyph unicode="&#x388;" glyph-name="Epsilontonos" horiz-adv-x="599" d="M159 0V675H541V566H289V400H520V294H289V112H541V0H159ZM347 551L256 560L277 746L389 736L347 551Z" />
<glyph unicode="&#x389;" glyph-name="Etatonos" horiz-adv-x="775" d="M575 0V293H289V0H159V675H289V405H575V675H706V0H575ZM347 551L256 560L277 746L389 736L347 551Z" />
<glyph unicode="&#x38a;" glyph-name="Iotatonos" horiz-adv-x="359" d="M159 0V675H289V0H159ZM347 551L256 560L277 746L389 736L347 551Z" />
<glyph unicode="&#x38c;" glyph-name="Omicrontonos" horiz-adv-x="761" d="M586 335Q586 445 540 507T404 569Q364 569 331 554T274 510T236 438T223 341Q223 286 234 243T268 169T325 122T404 106Q444 106 477 121T535 165T572 237T586 335ZM725 350Q725 265
699 197T628 83T522 13T394 -11Q319 -11 261 11T163 77T104 183T84 325Q84 410 110 478T181 592T287 662T415 686Q490 686 548 664T646 598T705 492T725 350ZM347 551L256 560L277 746L389 736L347 551Z" />
<glyph unicode="&#x38e;" glyph-name="Upsilontonos" horiz-adv-x="695" d="M479 249V0H349V248L132 675H275L369 485Q383 456 394 430T415 378H417Q427 404 439 431T469 494L559 675H697L479 249ZM347 551L256 560L277 746L389 736L347 551Z" />
<glyph unicode="&#x38f;" glyph-name="Omegatonos" horiz-adv-x="762" d="M461 0V103Q520 148 549 206T578 349Q578 399 568 439T535 509T480 554T403 570Q366 570 335 555T280 512T243 443T230 352Q230 307 236 272T256 208T292 154T348 103V0H85V105H208Q153
143 122 205T91 353Q91 427 114 488T182 594T285 662T415 686Q479 686 534 667T630 609T693 509T716 367Q716 280 684 213T596 105H724V0H461ZM347 551L256 560L277 746L389 736L347 551Z" />
<glyph unicode="&#x390;" glyph-name="iotadieresistonos" horiz-adv-x="305" d="M299 2Q280 -3 252 -6T198 -9Q167 -9 144 -3T104 20T78 65T69 138V497H197V163Q197 125 207 111T245 96Q254 96 266 97T292 102L299 2ZM326 646Q326 620 309 603T266 585Q240 585
223 602T205 646Q205 671 222 688T266 705Q291 705 308 688T326 646ZM428 550L352 556L366 737L464 731L428 550ZM602 646Q602 620 585 603T542 585Q516 585 499 602T482 646Q482 671 499 688T542 705Q567 705 584 688T602 646Z" />
<glyph unicode="&#x391;" glyph-name="Alpha" horiz-adv-x="626" d="M335 458Q327 484 320 509T308 559H306Q301 535 294 509T280 459L210 247H405L335 458ZM480 0L434 144H180L133 0H2L228 675H397L624 0H480Z" />
<glyph unicode="&#x392;" glyph-name="Beta" horiz-adv-x="581" d="M403 201Q403 248 369 272T261 297Q243 297 226 297T200 296V105Q211 104 232 103T273 102Q337 102 370 129T403 201ZM383 488Q383 529 356 552T268 576Q252 576 236 576T200 574V395Q211 394
223 394T258 394Q320 394 351 418T383 488ZM543 207Q543 167 527 130T478 63T392 16T269 -2Q251 -2 184 -1T70 0V674Q97 675 155 677T277 679Q398 679 459 635T520 507Q520 458 494 418T422 360V359Q450 352 472 338T510 305T534 261T543 207Z" />
<glyph unicode="&#x393;" glyph-name="Gamma" horiz-adv-x="429" d="M200 564V0H70V675H419V564H200Z" />
<glyph unicode="&#x394;" glyph-name="Delta" horiz-adv-x="614" d="M27 0V98L225 675H384L588 98V0H27ZM327 450Q319 475 313 499T301 552H299Q294 527 288 501T272 447L161 117H440L327 450Z" />
<glyph unicode="&#x395;" glyph-name="Epsilon" horiz-adv-x="510" d="M70 0V675H452V566H200V400H431V294H200V112H452V0H70Z" />
<glyph unicode="&#x396;" glyph-name="Zeta" horiz-adv-x="537" d="M45 0V100L288 496Q303 519 312 532T332 560Q310 559 282 559T209 558H53V675H489V570L232 165Q219 145 214 137T201 118Q209 119 227 119T270 120T347 120H493V0H45Z" />
<glyph unicode="&#x397;" glyph-name="Eta" horiz-adv-x="686" d="M486 0V293H200V0H70V675H200V405H486V675H617V0H486Z" />
<glyph unicode="&#x398;" glyph-name="Theta" horiz-adv-x="713" d="M246 297V397H464V297H246ZM539 334Q539 445 492 507T355 569Q315 569 281 554T223 510T185 438T171 340Q171 285 182 242T217 168T275 121T355 105Q395 105 429 120T487 164T525 236T539 334ZM677
350Q677 265 651 197T580 83T474 13T346 -11Q270 -11 212 11T115 77T56 183T36 325Q36 410 62 478T133 592T239 662T367 686Q443 686 501 664T598 598T657 492T677 350Z" />
<glyph unicode="&#x399;" glyph-name="Iota" horiz-adv-x="270" d="M70 0V675H200V0H70Z" />
<glyph unicode="&#x39a;" glyph-name="Kappa" horiz-adv-x="597" d="M417 0L200 324V0H70V675H200V369L418 675H576L329 351L588 0H417Z" />
<glyph unicode="&#x39b;" glyph-name="Lambda" horiz-adv-x="628" d="M480 0L351 404Q340 438 329 478T310 554H309Q300 515 289 476T267 402L137 0H3L228 675H397L625 0H480Z" />
<glyph unicode="&#x39c;" glyph-name="Mu" horiz-adv-x="896" d="M732 0L691 332Q684 389 680 447T675 552H673Q664 507 652 460T623 364L501 0H380L263 350Q248 396 232 454T208 552H206Q205 508 202 450T192 329L157 0H31L112 675H293L411 325Q421 295 430 259T446
188H448Q456 229 464 263T481 325L599 675H782L865 0H732Z" />
<glyph unicode="&#x39d;" glyph-name="Nu" horiz-adv-x="690" d="M483 0L271 342Q220 423 188 494H186Q196 317 196 184V0H70V675H223L421 355Q473 275 502 207H504Q494 356 494 511V675H620V0H483Z" />
<glyph unicode="&#x39e;" glyph-name="Xi" horiz-adv-x="544" d="M45 0V119H499V0H45ZM107 292V402H433V292H107ZM52 558V675H492V558H52Z" />
<glyph unicode="&#x39f;" glyph-name="Omicron" horiz-adv-x="713" d="M538 335Q538 445 492 507T356 569Q316 569 283 554T226 510T188 438T175 341Q175 286 186 243T220 169T277 122T356 106Q396 106 429 121T487 165T524 237T538 335ZM677 350Q677 265 651
197T580 83T474 13T346 -11Q271 -11 213 11T115 77T56 183T36 325Q36 410 62 478T133 592T239 662T367 686Q442 686 500 664T598 598T657 492T677 350Z" />
<glyph unicode="&#x3a0;" glyph-name="Pi" horiz-adv-x="665" d="M464 0V564H200V0H70V675H595V0H464Z" />
<glyph unicode="&#x3a1;" glyph-name="Rho" horiz-adv-x="553" d="M530 462Q530 410 512 366T458 287T370 235T253 216Q241 216 230 216T209 217T200 218V0H70V675Q81 675 108 676T179 678T264 679Q394 679 462 621T530 462ZM396 448Q396 505 362 538T256 572Q224
572 200 571V328Q203 327 211 326T233 324T261 323Q325 323 360 357T396 448Z" />
<glyph unicode="&#x3a3;" glyph-name="Sigma" horiz-adv-x="516" d="M45 0V98L251 334L55 564V675H479V561H217L403 343L204 117H487V0H45Z" />
<glyph unicode="&#x3a4;" glyph-name="Tau" horiz-adv-x="510" d="M320 564V0H190V564H15V675H495V564H320Z" />
<glyph unicode="&#x3a5;" glyph-name="Upsilon" horiz-adv-x="561" d="M345 249V0H215V248L-2 675H141L235 485Q249 456 260 430T281 378H283Q293 404 305 431T335 494L425 675H563L345 249Z" />
<glyph unicode="&#x3a6;" glyph-name="Phi" horiz-adv-x="824" d="M349 548Q306 544 272 528T215 484T179 420T167 335Q167 243 213 189T349 126V548ZM657 340Q657 432 611 486T474 548V127Q517 131 551 147T609 190T645 255T657 340ZM791 349Q791 279 769 221T706
120T605 50T474 17V-56H349V17Q268 21 208 43T110 105T52 200T33 326Q33 396 55 454T118 555T218 625T349 658V727H474V658Q555 654 615 632T714 570T772 475T791 349Z" />
<glyph unicode="&#x3a7;" glyph-name="Chi" horiz-adv-x="628" d="M454 0L309 248L164 0H10L225 345L23 675H174L311 441L447 675H595L396 346L618 0H454Z" />
<glyph unicode="&#x3a8;" glyph-name="Psi" horiz-adv-x="797" d="M740 424Q740 294 668 220T463 132V0H333V130Q253 135 199 157T114 215T70 295T57 394V675H187V406Q187 373 194 346T218 297T263 262T333 244V675H463V244Q540 251 576 293T612 419V675H740V424Z" />
<glyph unicode="&#x3a9;" glyph-name="Omega" horiz-adv-x="713" d="M413 0V103Q472 148 501 206T530 349Q530 399 520 439T487 509T432 554T355 570Q318 570 287 555T232 512T195 443T182 352Q182 307 188 272T208 208T244 154T300 103V0H37V105H160Q105 143
74 205T43 353Q43 427 66 488T134 594T237 662T367 686Q431 686 486 667T582 609T645 509T668 367Q668 280 636 213T548 105H676V0H413Z" />
<glyph unicode="&#x3aa;" glyph-name="Iotadieresis" horiz-adv-x="270" d="M70 0V675H200V0H70ZM561 788Q561 758 541 739T492 719Q462 719 443 738T423 788Q423 817 442 837T492 857Q521 857 541 837T561 788ZM359 788Q359 758 340 739T290 719Q261 719 241
738T221 788Q221 817 241 837T290 857Q320 857 339 837T359 788Z" />
<glyph unicode="&#x3ab;" glyph-name="Upsilondieresis" horiz-adv-x="561" d="M345 249V0H215V248L-2 675H141L235 485Q249 456 260 430T281 378H283Q293 404 305 431T335 494L425 675H563L345 249ZM456 788Q456 759 436 739T387 719Q358 719 338 739T318 788Q318
817 338 837T387 857Q416 857 436 837T456 788ZM240 788Q240 759 220 739T171 719Q142 719 122 739T102 788Q102 817 122 837T171 857Q200 857 220 837T240 788Z" />
<glyph unicode="&#x3ac;" glyph-name="alphatonos" horiz-adv-x="592" d="M378 252Q378 318 349 359T275 400Q230 400 200 361T169 247Q169 173 196 136T271 99Q293 99 312 109T347 140T370 187T378 247V252ZM566 -4Q550 -6 537 -7T513 -9Q453 -9 430 13T409 95H407Q400
74 385 55T347 22T296 -1T236 -10Q143 -10 90 53T36 236Q36 296 53 346T101 433T175 488T266 508Q316 508 355 484T414 417Q415 437 418 456T428 497H543Q534 468 527 432T515 356T507 279T504 206Q504 166 506 145T514 114T532 100T566 96V-4ZM324 551L233 560L254
746L366 736L324 551Z" />
<glyph unicode="&#x3ad;" glyph-name="epsilontonos" horiz-adv-x="445" d="M422 15Q379 2 334 -4T248 -11Q189 -11 148 -1T80 28T43 72T31 127Q31 172 56 204T122 250V251Q88 264 70 290T51 351Q51 385 64 413T105 463T174 496T273 508Q308 508 343 504T409 492L387
397Q358 405 328 410T267 416Q219 416 197 400T175 355Q175 329 197 314T261 298H358V211H249Q209 211 188 193T166 147Q166 117 193 100T272 83Q303 83 336 89T402 106L422 15ZM302 551L211 560L232 746L344 736L302 551Z" />
<glyph unicode="&#x3ae;" glyph-name="etatonos" horiz-adv-x="580" d="M169 497Q174 477 178 453T184 407H185Q205 450 246 478T350 507Q392 507 422 494T472 458T501 403T511 333V-35Q511 -87 514 -138T527 -241H402Q391 -193 388 -148T384 -54V304Q384 353
368 376T315 400Q292 400 273 389T239 358T216 312T207 254V0H79V237Q79 313 70 376T45 497H169ZM367 551L276 560L297 746L409 736L367 551Z" />
<glyph unicode="&#x3af;" glyph-name="iotatonos" horiz-adv-x="305" d="M299 2Q280 -3 252 -6T198 -9Q167 -9 144 -3T104 20T78 65T69 138V497H197V163Q197 125 207 111T245 96Q254 96 266 97T292 102L299 2ZM179 551L88 560L109 746L221 736L179 551Z" />
<glyph unicode="&#x3b0;" glyph-name="upsilondieresistonos" horiz-adv-x="567" d="M509 293Q509 215 492 157T442 62T368 8T275 -10Q216 -10 176 5T111 50T76 120T65 215V497H193V235Q193 159 213 127T283 94Q306 94 324 103T355 134T374 191T381 278Q381 332
376 387T361 497H492Q501 450 505 399T509 293ZM206 646Q206 620 189 603T146 585Q120 585 103 602T85 646Q85 671 102 688T146 705Q171 705 188 688T206 646ZM308 550L232 556L246 737L344 731L308 550ZM482 646Q482 620 465 603T422 585Q396 585 379 602T362
646Q362 671 379 688T422 705Q447 705 464 688T482 646Z" />
<glyph unicode="&#x3b1;" glyph-name="alpha" horiz-adv-x="592" d="M378 252Q378 318 349 359T275 400Q230 400 200 361T169 247Q169 173 196 136T271 99Q293 99 312 109T347 140T370 187T378 247V252ZM566 -4Q550 -6 537 -7T513 -9Q453 -9 430 13T409 95H407Q400
74 385 55T347 22T296 -1T236 -10Q143 -10 90 53T36 236Q36 296 53 346T101 433T175 488T266 508Q316 508 355 484T414 417Q415 437 418 456T428 497H543Q534 468 527 432T515 356T507 279T504 206Q504 166 506 145T514 114T532 100T566 96V-4Z" />
<glyph unicode="&#x3b2;" glyph-name="beta" horiz-adv-x="573" d="M197 -35Q197 -96 200 -145T213 -241H88Q78 -196 74 -150T69 -54V500Q69 559 86 604T133 678T205 722T295 737Q345 737 383 724T447 686T485 629T498 557Q498 499 468 455T388 395V394Q423 388
450 373T494 335T521 282T530 216Q530 167 513 126T462 54T382 7T275 -10Q232 -10 197 -1V-35ZM197 121Q215 109 237 103T283 96Q335 96 364 127T394 211Q394 261 366 291T276 322H250V425Q305 428 336 459T368 542Q368 581 348 606T288 631Q243 631 220 600T197
509V121Z" />
<glyph unicode="&#x3b3;" glyph-name="gamma" horiz-adv-x="504" d="M299 -241H172V-104Q172 -74 171 -48T164 8T147 79T118 175T72 310T6 497H146Q183 391 204 326T237 221T251 164T255 135H257Q307 220 326 311T326 497H460Q478 368 434 245T299 -7V-241Z" />
<glyph unicode="&#x3b4;" glyph-name="delta" horiz-adv-x="543" d="M377 234Q377 298 351 335T275 404Q254 402 234 392T199 364T174 317T165 252Q165 179 192 139T273 99Q292 99 311 107T344 132T368 174T377 234ZM291 739Q336 739 377 729T451 698L401 608Q369
627 344 635T290 643Q263 643 252 633T241 610Q241 601 244 593T258 574T291 548T351 507Q396 477 426 448T475 387T501 320T509 244Q509 191 491 145T441 64T362 10T261 -10Q210 -10 168 4T96 48T50 125T33 238Q33 332 72 395T178 481Q140 508 122 536T104 603Q104
627 113 651T144 694T201 726T291 739Z" />
<glyph unicode="&#x3b5;" glyph-name="epsilon" horiz-adv-x="445" d="M422 15Q379 2 334 -4T248 -11Q189 -11 148 -1T80 28T43 72T31 127Q31 172 56 204T122 250V251Q88 264 70 290T51 351Q51 385 64 413T105 463T174 496T273 508Q308 508 343 504T409 492L387
397Q358 405 328 410T267 416Q219 416 197 400T175 355Q175 329 197 314T261 298H358V211H249Q209 211 188 193T166 147Q166 117 193 100T272 83Q303 83 336 89T402 106L422 15Z" />
<glyph unicode="&#x3b6;" glyph-name="zeta" horiz-adv-x="415" d="M412 -11Q412 -72 384 -122T310 -218L225 -164Q253 -128 268 -98T284 -40Q284 -19 270 -9T210 6Q163 12 130 25T75 60T43 115T33 193Q33 260 52 327T102 454T168 558T238 627H47V730H388V636Q337
601 296 550T226 441T181 327T165 226Q165 199 169 181T186 150T219 130T273 118Q350 106 381 74T412 -11Z" />
<glyph unicode="&#x3b7;" glyph-name="eta" horiz-adv-x="580" d="M169 497Q174 477 178 453T184 407H185Q205 450 246 478T350 507Q392 507 422 494T472 458T501 403T511 333V-35Q511 -87 514 -138T527 -241H402Q391 -193 388 -148T384 -54V304Q384 353 368 376T315
400Q292 400 273 389T239 358T216 312T207 254V0H79V237Q79 313 70 376T45 497H169Z" />
<glyph unicode="&#x3b8;" glyph-name="theta" horiz-adv-x="571" d="M175 320Q178 204 206 150T287 95Q339 95 365 152T396 320H175ZM396 418Q394 527 365 581T285 635Q235 635 207 581T175 418H396ZM527 379Q527 280 510 206T459 85T381 14T279 -10Q225 -10 182
9T108 70T61 180T44 346Q44 446 61 520T112 643T190 714T293 738Q406 738 466 649T527 379Z" />
<glyph unicode="&#x3b9;" glyph-name="iota" horiz-adv-x="305" d="M299 2Q280 -3 252 -6T198 -9Q167 -9 144 -3T104 20T78 65T69 138V497H197V163Q197 125 207 111T245 96Q254 96 266 97T292 102L299 2Z" />
<glyph unicode="&#x3ba;" glyph-name="kappa" horiz-adv-x="524" d="M350 0L197 238V0H69V497H197V282L350 497H499L322 271L508 0H350Z" />
<glyph unicode="&#x3bb;" glyph-name="lambda" horiz-adv-x="502" d="M167 566Q154 604 136 619T91 634Q84 634 76 634T59 632L55 732Q69 735 87 736T121 738Q151 738 175 733T219 713T256 674T286 609L495 0H354L248 330H247Q240 300 229 262T204 187L137 0H0L193
490L167 566Z" />
<glyph unicode="&#x3bc;" glyph-name="mu" horiz-adv-x="582" d="M556 -4Q528 -9 505 -9Q473 -9 452 -2T417 18T399 48T392 87H391Q372 43 336 18T249 -7Q206 -7 185 16L200 -241H69V497H197V175Q197 97 258 97Q283 97 304 108T341 142T365 193T374 259V497H501V179Q501
153 503 137T512 113T528 101T556 97V-4Z" />
<glyph unicode="&#x3bd;" glyph-name="nu" horiz-adv-x="505" d="M492 497Q472 368 424 246T299 0H177L7 497H147L220 274Q225 256 235 219T252 152H254Q294 234 319 321T354 497H492Z" />
<glyph unicode="&#x3be;" glyph-name="xi" horiz-adv-x="411" d="M409 -11Q409 -67 383 -117T307 -218L222 -164Q251 -126 266 -96T281 -40Q281 -28 278 -21T267 -8T245 0T207 6Q114 17 70 59T25 184Q25 219 35 249T64 303T106 343T157 366Q111 375 85 409T59
490Q59 538 84 576T155 629Q140 628 128 628T105 627H38V730H377V627H344Q301 627 270 618T220 591T193 554T184 510Q184 474 208 451T281 428H355V326H307Q267 326 238 318T190 294T164 259T156 217Q156 172 179 150T258 121Q340 109 374 78T409 -11Z" />
<glyph unicode="&#x3bf;" glyph-name="omicron" horiz-adv-x="553" d="M388 248Q388 321 359 360T278 399Q252 399 231 390T196 361T173 314T165 249Q165 99 276 99Q327 99 357 136T388 248ZM520 260Q520 202 503 153T454 67T374 10T267 -10Q213 -10 170 5T97
50T50 127T33 237Q33 295 50 344T99 430T179 487T286 507Q399 507 459 444T520 260Z" />
<glyph unicode="&#x3c0;" glyph-name="pi" horiz-adv-x="630" d="M495 392Q495 233 509 162Q515 126 526 112T560 97Q574 97 590 100L599 -1Q570 -9 530 -9Q459 -9 428 22T383 126Q375 169 371 238T366 392H239Q240 286 227 184T183 -13L47 13Q83 115 100 206T116
392H12V497H600V392H495Z" />
<glyph unicode="&#x3c1;" glyph-name="rho" horiz-adv-x="546" d="M378 250Q378 324 353 362T279 401Q232 401 208 367T184 269V108Q201 101 218 97T262 92Q315 92 346 131T378 250ZM511 261Q511 204 495 155T446 68T366 11T255 -10Q232 -10 214 -8T182 -1Q183
-20 183 -42T184 -83V-241H56V260Q56 317 71 362T115 440T189 490T290 507Q396 507 453 444T511 261Z" />
<glyph unicode="&#x3c2;" glyph-name="sigma1" horiz-adv-x="431" d="M409 -11Q409 -67 383 -117T307 -218L222 -164Q251 -126 266 -96T281 -40Q281 -18 267 -9T207 6Q120 18 77 73T34 218Q34 355 99 430T287 506Q315 506 342 502T393 491L373 380Q351 388 328
393T279 398Q226 398 197 355T168 237Q168 185 191 156T270 118Q345 106 377 75T409 -11Z" />
<glyph unicode="&#x3c3;" glyph-name="sigma" horiz-adv-x="580" d="M562 392Q537 392 513 392T470 395Q491 369 503 331T515 246Q515 189 498 142T448 61T369 9T267 -10Q213 -10 170 4T97 49T50 127T33 237Q33 296 51 345T103 431T189 487T307 507Q348 507 419
502T562 497V392ZM387 249Q387 343 339 399Q328 400 319 400T298 400Q267 400 243 391T201 364T175 316T165 249Q165 175 194 137T276 99Q300 99 320 108T355 135T378 182T387 249Z" />
<glyph unicode="&#x3c4;" glyph-name="tau" horiz-adv-x="362" d="M313 -1Q299 -4 278 -7T237 -10Q199 -10 173 -2T130 24T108 72T101 146V392H8V497H342V392H229V174Q229 151 231 137T239 114T253 102T274 98Q281 98 289 98T305 100L313 -1Z" />
<glyph unicode="&#x3c5;" glyph-name="upsilon" horiz-adv-x="567" d="M509 293Q509 215 492 157T442 62T368 8T275 -10Q216 -10 176 5T111 50T76 120T65 215V497H193V235Q193 159 213 127T283 94Q306 94 324 103T355 134T374 191T381 278Q381 332 376 387T361
497H492Q501 450 505 399T509 293Z" />
<glyph unicode="&#x3c6;" glyph-name="phi" horiz-adv-x="725" d="M564 246Q564 310 530 351T426 399V98Q488 105 526 144T564 246ZM299 399Q237 393 199 354T161 251Q161 187 195 146T299 98V399ZM694 256Q694 205 677 160T625 80T540 22T426 -8V-241H299V-10Q167
-4 99 60T31 242Q31 293 48 338T100 418T184 476T299 506V675H426V507Q558 501 626 437T694 256Z" />
<glyph unicode="&#x3c7;" glyph-name="chi" horiz-adv-x="503" d="M498 -242Q485 -245 471 -246T445 -247Q416 -247 394 -242T352 -220T315 -175T280 -99L233 24L121 -250L-8 -219L173 151L101 323Q91 348 83 363T66 387T49 399T30 402Q27 402 23 402T12 401L6
500Q19 502 33 503T59 505Q87 505 110 500T152 479T188 437T221 369L261 260L359 497H501L322 131L400 -52Q412 -82 421 -100T439 -128T456 -141T475 -144Q478 -144 482 -144T492 -143L498 -242Z" />
<glyph unicode="&#x3c8;" glyph-name="psi" horiz-adv-x="784" d="M726 295Q726 154 659 81T457 -8V-241H329V-9Q248 -5 196 16T116 72T76 153T65 259V497H192V278Q192 235 198 204T219 149T262 112T330 95V675H456V95Q533 102 565 146T598 283Q598 334 595 388T584
497H713Q720 447 723 396T726 295Z" />
<glyph unicode="&#x3c9;" glyph-name="omega" horiz-adv-x="792" d="M755 269Q755 203 739 151T692 63T622 8T536 -11Q478 -11 441 17T393 88Q378 44 340 17T244 -11Q199 -11 162 6T96 57T53 137T37 244Q37 326 63 394T136 517Q194 497 252 477Q212 434 190 381T168
264Q168 193 195 152T265 110Q296 110 315 136T335 216V385H457V217Q457 161 475 136T529 110Q568 110 595 149T623 260Q623 293 619 321T604 374T579 424T540 476Q600 497 660 517Q705 465 730 406T755 269Z" />
<glyph unicode="&#x3ca;" glyph-name="iotadieresis" horiz-adv-x="305" d="M299 2Q280 -3 252 -6T198 -9Q167 -9 144 -3T104 20T78 65T69 138V497H197V163Q197 125 207 111T245 96Q254 96 266 97T292 102L299 2ZM555 648Q555 620 535 600T486 579Q457 579 437
599T417 648Q417 677 437 697T486 717Q515 717 535 697T555 648ZM370 648Q370 620 350 600T301 579Q272 579 252 599T232 648Q232 677 252 697T301 717Q330 717 350 697T370 648Z" />
<glyph unicode="&#x3cb;" glyph-name="upsilondieresis" horiz-adv-x="567" d="M509 293Q509 215 492 157T442 62T368 8T275 -10Q216 -10 176 5T111 50T76 120T65 215V497H193V235Q193 159 213 127T283 94Q306 94 324 103T355 134T374 191T381 278Q381 332 376
387T361 497H492Q501 450 505 399T509 293ZM244 648Q244 619 224 599T175 579Q146 579 126 599T106 648Q106 677 126 697T175 717Q204 717 224 697T244 648ZM447 648Q447 619 427 599T378 579Q349 579 329 599T309 648Q309 677 329 697T378 717Q407 717 427 697T447
648Z" />
<glyph unicode="&#x3cc;" glyph-name="omicrontonos" horiz-adv-x="553" d="M388 248Q388 321 359 360T278 399Q252 399 231 390T196 361T173 314T165 249Q165 99 276 99Q327 99 357 136T388 248ZM520 260Q520 202 503 153T454 67T374 10T267 -10Q213 -10 170
5T97 50T50 127T33 237Q33 295 50 344T99 430T179 487T286 507Q399 507 459 444T520 260ZM321 551L230 560L251 746L363 736L321 551Z" />
<glyph unicode="&#x3cd;" glyph-name="upsilontonos" horiz-adv-x="567" d="M509 293Q509 215 492 157T442 62T368 8T275 -10Q216 -10 176 5T111 50T76 120T65 215V497H193V235Q193 159 213 127T283 94Q306 94 324 103T355 134T374 191T381 278Q381 332 376 387T361
497H492Q501 450 505 399T509 293ZM325 551L234 560L255 746L367 736L325 551Z" />
<glyph unicode="&#x3ce;" glyph-name="omegatonos" horiz-adv-x="792" d="M755 269Q755 203 739 151T692 63T622 8T536 -11Q478 -11 441 17T393 88Q378 44 340 17T244 -11Q199 -11 162 6T96 57T53 137T37 244Q37 326 63 394T136 517Q194 497 252 477Q212 434 190
381T168 264Q168 193 195 152T265 110Q296 110 315 136T335 216V385H457V217Q457 161 475 136T529 110Q568 110 595 149T623 260Q623 293 619 321T604 374T579 424T540 476Q600 497 660 517Q705 465 730 406T755 269ZM437 551L346 560L367 746L479 736L437 551Z"
/>
<glyph unicode="&#x3d0;" glyph-name="beta.alt" horiz-adv-x="568" d="M501 581Q501 532 477 496T403 435Q439 427 464 410T504 368T525 312T532 242Q532 192 516 147T469 66T389 10T280 -10Q216 -10 173 8T103 67T65 174T53 338Q53 442 69 518T118 642T199 714T312
738Q402 738 451 698T501 581ZM299 636Q272 636 251 625T215 588T192 526T183 436Q237 449 273 463T331 494T362 528T372 567Q372 583 368 595T356 616T333 631T299 636ZM301 355Q290 355 280 354T255 350T224 342T182 330Q182 265 187 221T205 149T238 108T289
95Q316 95 337 105T371 135T392 178T399 230Q399 296 377 325T301 355Z" />
<glyph unicode="&#x3d1;" glyph-name="theta1" horiz-adv-x="624" d="M616 386Q599 388 581 388T534 389Q534 388 534 379T535 358Q535 271 519 203T471 87T393 15T287 -10Q231 -10 188 10T117 69T74 164T59 293Q59 315 60 339T65 384H191Q190 365 190 348T189
316Q189 264 195 224T215 156T249 114T297 99Q326 99 347 116T382 165T402 245T409 352Q409 365 409 374T407 389H351Q297 389 253 400T178 434T131 490T114 566Q114 601 127 632T166 688T229 726T311 740Q404 740 458 680T530 497H545Q565 497 584 496T616 491V386ZM401
497Q390 565 366 600T303 636Q274 636 258 620T241 576Q241 538 268 518T353 497H401Z" />
<glyph unicode="&#x3d5;" glyph-name="phi1" horiz-adv-x="721" d="M423 97Q452 101 476 112T518 142T546 188T556 255Q556 289 548 316T526 363T495 391T462 401Q452 401 445 398T433 387T426 363T423 321V97ZM296 -220V-10Q164 2 99 65T33 246Q33 334 70 399T183
507L257 429Q211 399 187 357T163 256Q163 222 172 195T199 148T240 116T296 97V309Q296 358 306 395T338 457T391 494T466 507Q520 507 561 488T630 436T673 359T688 263Q688 207 671 161T619 80T536 23T424 -8V-220H296Z" />
<glyph unicode="&#x400;" glyph-name="uni0400" horiz-adv-x="510" d="M70 0V675H452V566H200V400H431V294H200V112H452V0H70ZM314 716L98 769L128 861L335 786L314 716Z" />
<glyph unicode="&#x401;" glyph-name="uni0401" horiz-adv-x="510" d="M70 0V675H452V566H200V400H431V294H200V112H452V0H70ZM426 788Q426 759 406 739T357 719Q328 719 308 739T288 788Q288 817 308 837T357 857Q386 857 406 837T426 788ZM210 788Q210 759 190
739T141 719Q112 719 92 739T72 788Q72 817 92 837T141 857Q170 857 190 837T210 788Z" />
<glyph unicode="&#x402;" glyph-name="uni0402" horiz-adv-x="703" d="M667 222Q667 159 646 112T584 32T489 -18T368 -38V67Q447 72 489 106T531 208Q531 264 500 300T401 337Q375 337 349 332T298 318V0H168V565H15V675H473V565H298V421Q323 429 357 434T426
440Q540 440 603 382T667 222Z" />
<glyph unicode="&#x403;" glyph-name="uni0403" horiz-adv-x="429" d="M200 564V0H70V675H419V564H200ZM175 716L154 786L362 861L391 769L175 716Z" />
<glyph unicode="&#x404;" glyph-name="uni0404" horiz-adv-x="584" d="M535 24Q498 9 452 1T360 -7Q274 -7 212 18T111 89T56 194T38 325Q38 403 59 468T124 581T232 655T381 682Q419 682 458 677T529 661L510 543Q479 554 443 560T372 566Q292 566 245 521T186
398H445V290H186Q193 203 242 157T383 110Q415 110 452 118T515 139L535 24Z" />
<glyph unicode="&#x405;" glyph-name="uni0405" horiz-adv-x="503" d="M467 199Q467 153 450 115T400 48T317 5T206 -11Q123 -11 49 7L63 132Q97 118 136 110T213 102Q238 102 259 107T295 122T319 148T328 186Q328 216 309 235T252 272T177 305T111 343T60 400T40
487Q40 531 57 567T107 630T187 671T295 686Q323 686 356 683T417 673L405 559Q377 568 347 573T287 578Q232 578 204 558T176 500Q176 472 195 453T252 416T327 383T396 344T447 287T467 199Z" />
<glyph unicode="&#x406;" glyph-name="uni0406" horiz-adv-x="270" d="M70 0V675H200V0H70Z" />
<glyph unicode="&#x407;" glyph-name="uni0407" horiz-adv-x="270" d="M70 0V675H200V0H70ZM561 788Q561 758 541 739T492 719Q462 719 443 738T423 788Q423 817 442 837T492 857Q521 857 541 837T561 788ZM359 788Q359 758 340 739T290 719Q261 719 241 738T221
788Q221 817 241 837T290 857Q320 857 339 837T359 788Z" />
<glyph unicode="&#x408;" glyph-name="uni0408" horiz-adv-x="347" d="M279 192Q279 149 269 112T235 49T176 7T88 -9Q42 -9 0 -1V111Q36 101 70 101Q88 101 102 105T127 120T142 149T148 194V675H279V192Z" />
<glyph unicode="&#x409;" glyph-name="uni0409" horiz-adv-x="919" d="M428 564H233Q232 439 226 349T208 197T178 96T137 36T84 5T14 -8L-4 112Q19 115 34 123T61 150T81 206T95 303T103 455T106 675H558V429Q590 431 628 431Q693 431 742 417T825 377T874 312T890
225Q890 171 870 128T812 56T723 12T610 -4Q527 -4 428 0V564ZM558 105Q585 104 618 104Q686 104 719 132T752 217Q752 241 745 261T721 295T680 316T619 324Q587 324 558 322V105Z" />
<glyph unicode="&#x40a;" glyph-name="uni040A" horiz-adv-x="961" d="M794 217Q794 242 787 261T763 295T722 316T661 324Q641 324 624 324T600 322V105Q607 105 623 105T660 104Q728 104 761 132T794 217ZM470 293H200V0H70V675H200V405H470V675H600V429Q640
431 670 431Q735 431 784 417T866 377T915 312T932 225Q932 171 912 128T854 56T765 11T652 -4Q623 -4 592 -4T535 -2T492 -1T470 0V293Z" />
<glyph unicode="&#x40b;" glyph-name="uni040B" horiz-adv-x="716" d="M526 0V210Q526 240 521 262T502 301T465 327T407 336Q377 336 349 330T298 315V0H168V565H15V675H473V565H298V419Q324 428 359 434T433 440Q496 440 539 424T608 380T645 313T657 227V0H526Z" />
<glyph unicode="&#x40c;" glyph-name="uni040C" horiz-adv-x="597" d="M417 0L200 324V0H70V675H200V369L418 675H576L329 351L588 0H417ZM262 716L241 786L449 861L478 769L262 716Z" />
<glyph unicode="&#x40d;" glyph-name="uni040D" horiz-adv-x="682" d="M482 0V350Q482 384 484 420T489 492H488Q474 464 464 445T444 407L208 0H70V675H200V321Q200 290 199 255T194 188H195Q204 208 214 228T237 270L472 675H612V0H482ZM367 716L151 769L181
861L388 786L367 716Z" />
<glyph unicode="&#x40e;" glyph-name="uni040E" horiz-adv-x="562" d="M362 175Q341 121 317 85T267 28T211 -2T148 -11Q131 -11 108 -7T66 3L85 114Q116 102 146 102Q161 102 173 105T196 116T216 138T236 175L14 675H158L257 439Q269 411 279 383T297 329L300
323Q310 351 321 386T343 449L424 675H560L362 175ZM471 858Q471 826 460 801T425 757T366 728T284 718Q192 718 146 754T100 858H214Q214 824 232 807T287 790Q322 790 339 807T356 858H471Z" />
<glyph unicode="&#x40f;" glyph-name="uni040F" horiz-adv-x="660" d="M387 0V-147H273V0H70V675H200V112H460V675H590V0H387Z" />
<glyph unicode="&#x410;" glyph-name="uni0410" horiz-adv-x="626" d="M335 458Q327 484 320 509T308 559H306Q301 535 294 509T280 459L210 247H405L335 458ZM480 0L434 144H180L133 0H2L228 675H397L624 0H480Z" />
<glyph unicode="&#x411;" glyph-name="uni0411" horiz-adv-x="573" d="M396 208Q396 254 365 280T266 306H200V108Q215 106 233 105T271 104Q329 104 362 132T396 208ZM535 214Q535 168 518 129T467 59T379 13T256 -4Q216 -4 164 -3T70 1V675H486V566H200V407H286Q405
407 470 358T535 214Z" />
<glyph unicode="&#x412;" glyph-name="uni0412" horiz-adv-x="581" d="M403 201Q403 248 369 272T261 297Q243 297 226 297T200 296V105Q211 104 232 103T273 102Q337 102 370 129T403 201ZM383 488Q383 529 356 552T268 576Q252 576 236 576T200 574V395Q211
394 223 394T258 394Q320 394 351 418T383 488ZM543 207Q543 167 527 130T478 63T392 16T269 -2Q251 -2 184 -1T70 0V674Q97 675 155 677T277 679Q398 679 459 635T520 507Q520 458 494 418T422 360V359Q450 352 472 338T510 305T534 261T543 207Z" />
<glyph unicode="&#x413;" glyph-name="uni0413" horiz-adv-x="429" d="M200 564V0H70V675H419V564H200Z" />
<glyph unicode="&#x414;" glyph-name="uni0414" horiz-adv-x="689" d="M668 -147H553V0H119V-147H5V112H60Q73 130 82 149T98 195T110 262T119 358T124 493T126 675H596V112H668V-147ZM465 566H253Q253 456 250 380T238 253T219 170T191 112H465V566Z" />
<glyph unicode="&#x415;" glyph-name="uni0415" horiz-adv-x="510" d="M70 0V675H452V566H200V400H431V294H200V112H452V0H70Z" />
<glyph unicode="&#x416;" glyph-name="uni0416" horiz-adv-x="854" d="M361 675H492V369L686 675H837L617 351L851 0H685L492 324V0H361V324L167 0H5L236 345L13 675H168L361 369V675Z" />
<glyph unicode="&#x417;" glyph-name="uni0417" horiz-adv-x="526" d="M486 206Q486 160 468 121T414 53T325 8T204 -8Q156 -8 110 -3T37 10L50 124Q82 113 123 107T212 100Q249 100 275 107T317 128T340 158T347 197Q347 250 304 273T173 296H117V397H175Q206
397 233 402T282 419T316 449T329 492Q329 510 324 525T305 552T267 571T208 578Q171 578 135 572T65 553L54 657Q95 669 141 676T234 684Q293 684 337 672T409 636T451 582T465 514Q465 462 436 422T355 365V364Q386 358 410 344T452 310T477 263T486 206Z" />
<glyph unicode="&#x418;" glyph-name="uni0418" horiz-adv-x="682" d="M482 0V350Q482 384 484 420T489 492H488Q474 464 464 445T444 407L208 0H70V675H200V321Q200 290 199 255T194 188H195Q204 208 214 228T237 270L472 675H612V0H482Z" />
<glyph unicode="&#x419;" glyph-name="uni0419" horiz-adv-x="682" d="M482 0V350Q482 384 484 420T489 492H488Q474 464 464 445T444 407L208 0H70V675H200V321Q200 290 199 255T194 188H195Q204 208 214 228T237 270L472 675H612V0H482ZM533 858Q533 826 522
801T487 757T428 728T346 718Q254 718 208 754T162 858H276Q276 824 294 807T349 790Q384 790 401 807T418 858H533Z" />
<glyph unicode="&#x41a;" glyph-name="uni041A" horiz-adv-x="597" d="M417 0L200 324V0H70V675H200V369L418 675H576L329 351L588 0H417Z" />
<glyph unicode="&#x41b;" glyph-name="uni041B" horiz-adv-x="631" d="M431 0V564H233Q232 439 226 349T208 197T178 96T137 36T84 5T14 -8L-4 112Q19 115 34 123T62 151T83 207T98 305T107 456T110 675H561V0H431Z" />
<glyph unicode="&#x41c;" glyph-name="uni041C" horiz-adv-x="896" d="M732 0L691 332Q684 389 680 447T675 552H673Q664 507 652 460T623 364L501 0H380L263 350Q248 396 232 454T208 552H206Q205 508 202 450T192 329L157 0H31L112 675H293L411 325Q421 295
430 259T446 188H448Q456 229 464 263T481 325L599 675H782L865 0H732Z" />
<glyph unicode="&#x41d;" glyph-name="uni041D" horiz-adv-x="678" d="M478 0V293H200V0H70V675H200V405H478V675H608V0H478Z" />
<glyph unicode="&#x41e;" glyph-name="uni041E" horiz-adv-x="713" d="M538 335Q538 445 492 507T356 569Q316 569 283 554T226 510T188 438T175 341Q175 286 186 243T220 169T277 122T356 106Q396 106 429 121T487 165T524 237T538 335ZM677 350Q677 265 651
197T580 83T474 13T346 -11Q271 -11 213 11T115 77T56 183T36 325Q36 410 62 478T133 592T239 662T367 686Q442 686 500 664T598 598T657 492T677 350Z" />
<glyph unicode="&#x41f;" glyph-name="uni041F" horiz-adv-x="665" d="M464 0V564H200V0H70V675H595V0H464Z" />
<glyph unicode="&#x420;" glyph-name="uni0420" horiz-adv-x="553" d="M530 462Q530 410 512 366T458 287T370 235T253 216Q241 216 230 216T209 217T200 218V0H70V675Q81 675 108 676T179 678T264 679Q394 679 462 621T530 462ZM396 448Q396 505 362 538T256
572Q224 572 200 571V328Q203 327 211 326T233 324T261 323Q325 323 360 357T396 448Z" />
<glyph unicode="&#x421;" glyph-name="uni0421" horiz-adv-x="566" d="M526 27Q486 11 441 2T349 -8Q264 -8 204 18T108 89T55 193T38 319Q38 401 59 468T124 583T229 657T372 683Q409 683 448 677T521 659L500 538Q433 566 365 566Q319 566 284 549T226 501T192
427T180 336Q180 226 228 169T372 111Q403 111 439 120T506 142L526 27Z" />
<glyph unicode="&#x422;" glyph-name="uni0422" horiz-adv-x="510" d="M320 564V0H190V564H15V675H495V564H320Z" />
<glyph unicode="&#x423;" glyph-name="uni0423" horiz-adv-x="562" d="M362 175Q341 121 317 85T267 28T211 -2T148 -11Q131 -11 108 -7T66 3L85 114Q116 102 146 102Q161 102 173 105T196 116T216 138T236 175L14 675H158L257 439Q269 411 279 383T297 329L300
323Q310 351 321 386T343 449L424 675H560L362 175Z" />
<glyph unicode="&#x424;" glyph-name="uni0424" horiz-adv-x="833" d="M354 548Q268 540 217 487T166 342Q166 297 176 260T209 195T267 150T354 127V548ZM667 338Q667 428 623 483T479 548V129Q563 137 615 190T667 338ZM802 344Q802 274 779 217T712 118T610
51T479 18V-56H354V16Q271 20 211 43T110 108T51 205T32 332Q32 401 55 458T122 557T224 624T354 657V729H479V659Q555 656 615 635T716 574T780 477T802 344Z" />
<glyph unicode="&#x425;" glyph-name="uni0425" horiz-adv-x="628" d="M454 0L309 248L164 0H10L225 345L23 675H174L311 441L447 675H595L396 346L618 0H454Z" />
<glyph unicode="&#x426;" glyph-name="uni0426" horiz-adv-x="696" d="M676 -147H562V0H70V675H200V112H462V675H593V112H676V-147Z" />
<glyph unicode="&#x427;" glyph-name="uni0427" horiz-adv-x="624" d="M424 0V261Q353 242 283 242Q212 242 165 258T91 305T54 375T43 466V675H173V486Q173 451 179 426T200 384T240 359T304 350Q365 350 424 369V675H554V0H424Z" />
<glyph unicode="&#x428;" glyph-name="uni0428" horiz-adv-x="960" d="M70 0V675H199V112H416V675H544V112H761V675H890V0H70Z" />
<glyph unicode="&#x429;" glyph-name="uni0429" horiz-adv-x="994" d="M973 -147H859V0H70V675H199V112H416V675H544V112H761V675H890V112H973V-147Z" />
<glyph unicode="&#x42a;" glyph-name="uni042A" horiz-adv-x="662" d="M495 217Q495 268 462 296T361 324Q341 324 324 324T298 322V105Q327 104 360 104Q428 104 461 132T495 217ZM298 429Q307 430 326 430T370 431Q436 431 485 417T568 377T617 312T633 225Q633
171 613 128T554 56T465 11T352 -4Q307 -4 254 -3T168 1V568H15V675H298V429Z" />
<glyph unicode="&#x42b;" glyph-name="uni042B" horiz-adv-x="835" d="M400 217Q400 268 367 296T264 324Q243 324 226 324T200 322V105Q207 105 224 105T263 104Q332 104 366 132T400 217ZM538 225Q538 171 517 128T458 56T367 11T254 -4Q231 -4 205 -4T153 -3T106
-1T70 1V675H200V429Q209 430 228 430T272 431Q338 431 388 417T472 377T521 312T538 225ZM635 0V675H765V0H635Z" />
<glyph unicode="&#x42c;" glyph-name="uni042C" horiz-adv-x="567" d="M400 217Q400 268 367 296T264 324Q243 324 226 324T200 322V105Q207 105 224 105T263 104Q332 104 366 132T400 217ZM538 225Q538 171 517 128T458 56T367 11T254 -4Q231 -4 205 -4T153 -3T106
-1T70 1V675H200V429Q209 430 228 430T272 431Q338 431 388 417T472 377T521 312T538 225Z" />
<glyph unicode="&#x42d;" glyph-name="uni042D" horiz-adv-x="561" d="M111 398H381Q369 481 319 524T185 567Q119 567 58 543L38 656Q118 683 209 683Q290 683 350 659T450 589T509 482T528 348Q528 268 506 202T440 89T335 17T197 -8Q100 -8 31 16L53 136Q117
109 197 109Q237 109 270 122T328 159T366 217T382 290H111V398Z" />
<glyph unicode="&#x42e;" glyph-name="uni042E" horiz-adv-x="951" d="M777 335Q777 448 736 508T611 569Q573 569 543 555T490 512T457 440T445 341Q445 285 455 241T485 167T537 122T611 106Q648 106 678 120T731 163T765 235T777 335ZM915 350Q915 263 891
195T824 81T724 12T602 -11Q531 -11 478 9T389 68T334 163T311 294H200V0H70V675H200V401H315Q323 466 348 518T414 608T507 666T621 686Q695 686 750 664T842 599T897 494T915 350Z" />
<glyph unicode="&#x42f;" glyph-name="uni042F" horiz-adv-x="588" d="M387 0V267H324L174 0H18L199 291Q137 306 101 350T65 463Q65 512 82 552T135 621T223 665T345 680Q387 680 431 678T517 670V0H387ZM387 572Q374 573 359 574T325 575Q263 575 232 548T200
473Q200 422 232 396T328 369H387V572Z" />
<glyph unicode="&#x430;" glyph-name="uni0430" horiz-adv-x="524" d="M325 221Q278 221 246 216T196 200T169 177T161 146Q161 121 177 105T221 88Q243 88 262 98T296 125T317 163T325 206V221ZM335 0Q335 24 336 45T340 84L339 85Q321 42 278 16T180 -10Q114
-10 76 30T38 132Q38 176 58 208T115 262T206 294T325 305V326Q325 370 305 390T236 410Q203 410 163 401T85 377L65 474Q110 489 159 498T251 508Q308 508 347 497T409 463T443 408T453 333V128Q453 95 454 62T457 0H335Z" />
<glyph unicode="&#x431;" glyph-name="uni0431" horiz-adv-x="561" d="M395 252Q395 322 371 359T292 397Q268 397 248 386T212 356T189 312T180 256Q180 99 288 99Q336 99 365 137T395 252ZM527 268Q527 206 509 155T458 67T379 10T275 -10Q163 -10 105 62T47
289V297Q47 425 69 513T136 647Q163 673 192 688T257 711T324 721T384 725T436 730T478 743V633Q446 620 414 618T340 613T268 602T217 572Q209 564 201 552T186 523T173 479T163 412H164Q183 452 225 477T325 502Q369 502 406 488T470 445T512 372T527 268Z" />
<glyph unicode="&#x432;" glyph-name="uni0432" horiz-adv-x="537" d="M364 150Q362 186 334 201T256 217H191V89Q207 84 227 83T263 81Q314 81 339 101T364 150ZM351 355Q351 384 328 400T251 417Q235 417 219 416T191 413V295H255Q302 295 326 311T351 355ZM498
157Q496 114 481 87T437 38T361 3T252 -10Q200 -10 152 -6T70 7V495Q112 500 163 503T261 507Q323 507 365 497T432 468T466 427T476 378Q475 296 395 270V269Q440 262 469 233T498 157Z" />
<glyph unicode="&#x433;" glyph-name="uni0433" horiz-adv-x="376" d="M197 392V0H69V497H357V392H197Z" />
<glyph unicode="&#x434;" glyph-name="uni0434" horiz-adv-x="586" d="M564 -138H453V0H125V-138H14V103H61Q78 129 88 160T105 236T113 342T116 497H502V103H564V-138ZM375 395H232Q232 336 230 293T224 215T211 153T189 103H375V395Z" />
<glyph unicode="&#x435;" glyph-name="uni0435" horiz-adv-x="514" d="M349 307Q350 358 327 385T263 413Q223 413 196 385T165 307H349ZM476 296Q476 272 475 251T472 221H164Q164 89 296 89Q368 89 446 115L459 20Q417 6 371 -2T281 -10Q160 -10 97 52T34 244Q34
300 50 348T97 432T172 487T270 507Q323 507 362 491T427 447T464 380T476 296Z" />
<glyph unicode="&#x436;" glyph-name="uni0436" horiz-adv-x="762" d="M317 497H445V284L592 497H738L566 268L747 0H590L445 240V0H317V240L171 0H14L195 266L24 497H172L317 284V497Z" />
<glyph unicode="&#x437;" glyph-name="uni0437" horiz-adv-x="452" d="M420 157Q420 122 405 92T358 38T281 2T179 -11Q135 -11 100 -6T31 8L50 108Q82 94 117 87T188 80Q235 80 260 99T285 149Q285 181 257 196T172 212H106V298H169Q221 298 246 313T271 358Q271
386 248 402T177 418Q146 418 115 412T56 395L41 483Q76 494 118 501T201 508Q251 508 290 498T354 469T389 428T400 379Q400 298 314 270V269Q360 263 390 234T420 157Z" />
<glyph unicode="&#x438;" glyph-name="uni0438" horiz-adv-x="592" d="M394 0V195Q394 233 396 266T404 341H403Q394 320 382 297T354 249L204 0H70V497H197V301Q197 262 195 234T188 160H189Q200 182 213 205T239 250L388 497H522V0H394Z" />
<glyph unicode="&#x439;" glyph-name="uni0439" horiz-adv-x="592" d="M394 0V195Q394 233 396 266T404 341H403Q394 320 382 297T354 249L204 0H70V497H197V301Q197 262 195 234T188 160H189Q200 182 213 205T239 250L388 497H522V0H394ZM481 716Q481 682 470
655T435 609T376 579T294 568Q202 568 156 606T110 716H223Q223 678 241 660T297 641Q332 641 349 660T367 716H481Z" />
<glyph unicode="&#x43a;" glyph-name="uni043A" horiz-adv-x="524" d="M350 0L197 238V0H69V497H197V282L350 497H499L322 271L508 0H350Z" />
<glyph unicode="&#x43b;" glyph-name="uni043B" horiz-adv-x="536" d="M338 0V395H213Q212 314 206 253T188 148T160 75T122 28T73 2T12 -8L-1 102Q16 104 29 110T52 131T71 173T84 243T92 348T95 497H466V0H338Z" />
<glyph unicode="&#x43c;" glyph-name="uni043C" horiz-adv-x="770" d="M609 0L573 258Q569 288 566 311T560 368H559Q552 338 546 314T533 265L449 0H315L235 248Q226 276 218 306T203 368H202Q199 336 196 308T188 249L153 0H29L113 497H279L365 234Q371 214
377 191T388 141H389Q395 167 400 189T414 237L499 497H658L741 0H609Z" />
<glyph unicode="&#x43d;" glyph-name="uni043D" horiz-adv-x="574" d="M377 0V201H197V0H70V497H197V307H377V497H504V0H377Z" />
<glyph unicode="&#x43e;" glyph-name="uni043E" horiz-adv-x="553" d="M388 248Q388 321 359 360T278 399Q252 399 231 390T196 361T173 314T165 249Q165 99 276 99Q327 99 357 136T388 248ZM520 260Q520 202 503 153T454 67T374 10T267 -10Q213 -10 170 5T97
50T50 127T33 237Q33 295 50 344T99 430T179 487T286 507Q399 507 459 444T520 260Z" />
<glyph unicode="&#x43f;" glyph-name="uni043F" horiz-adv-x="570" d="M372 0V395H197V0H70V497H500V0H372Z" />
<glyph unicode="&#x440;" glyph-name="uni0440" horiz-adv-x="559" d="M389 261Q389 402 304 402Q280 402 260 389T226 353T205 301T197 239V101Q227 92 264 92Q292 92 314 101T354 131T380 183T389 261ZM523 275Q523 210 506 158T456 69T374 13T261 -7Q242 -7
227 -6T197 -3V-241H69V497H188Q188 476 187 454T183 414H185Q206 458 246 482T341 507Q429 507 476 447T523 275Z" />
<glyph unicode="&#x441;" glyph-name="uni0441" horiz-adv-x="429" d="M403 20Q342 -10 257 -10Q204 -10 164 4T94 48T49 124T34 232Q34 291 49 341T94 428T171 486T278 507Q347 507 402 485L369 372Q323 398 274 398Q248 398 228 387T195 357T174 310T167 249Q167
214 173 187T194 141T230 111T283 101Q333 101 375 123L403 20Z" />
<glyph unicode="&#x442;" glyph-name="uni0442" horiz-adv-x="406" d="M267 392V0H139V392H11V497H396V392H267Z" />
<glyph unicode="&#x443;" glyph-name="uni0443" horiz-adv-x="570" d="M100 -116Q133 -128 171 -134T248 -141Q312 -141 344 -112T376 -20V8Q376 25 378 47T385 91H384Q361 47 320 20T217 -7Q175 -7 147 5T101 39T77 88T69 150V497H196V181Q196 142 209 120T258
98Q282 98 303 111T339 146T364 197T373 259V497H501V-7Q501 -71 483 -116T430 -191T347 -235T238 -249Q159 -249 89 -232L100 -116Z" />
<glyph unicode="&#x444;" glyph-name="uni0444" horiz-adv-x="739" d="M306 -241V-10Q167 -4 99 60T31 242Q31 293 48 338T100 418T186 476T306 506V675H433V507Q503 504 554 487T640 437T691 360T708 256Q708 204 691 159T639 79T553 22T433 -8V-241H306ZM433
98Q466 102 493 113T539 143T568 188T578 246Q578 278 570 304T544 350T499 382T433 399V98ZM306 399Q238 392 200 354T161 251Q161 219 169 193T195 147T240 115T306 98V399Z" />
<glyph unicode="&#x445;" glyph-name="uni0445" horiz-adv-x="528" d="M356 0L260 167L164 0H21H11L182 251L21 497H31H174L270 333L367 497H498H509L353 252L517 0H507H356Z" />
<glyph unicode="&#x446;" glyph-name="uni0446" horiz-adv-x="587" d="M567 -138H457V0H70V497H197V103H372V497H499V103H567V-138Z" />
<glyph unicode="&#x447;" glyph-name="uni0447" horiz-adv-x="534" d="M336 0V183Q285 160 216 160Q164 160 130 172T75 207T46 257T37 318V497H165V343Q165 298 182 277T240 256Q263 256 287 261T336 279V497H464V0H336Z" />
<glyph unicode="&#x448;" glyph-name="uni0448" horiz-adv-x="830" d="M70 0V497H197V103H353V497H479V103H633V497H760V0H70Z" />
<glyph unicode="&#x449;" glyph-name="uni0449" horiz-adv-x="848" d="M828 -138H718V0H70V497H197V103H353V497H479V103H633V497H760V103H828V-138Z" />
<glyph unicode="&#x44a;" glyph-name="uni044A" horiz-adv-x="573" d="M556 180Q556 140 541 106T495 46T417 6T309 -9Q288 -9 265 -8T218 -5T172 0T134 7V392H6V497H262V340Q279 342 300 343T346 344Q395 344 434 333T500 301T542 250T556 180ZM423 168Q423 184
418 198T400 222T369 238T322 244Q306 244 291 243T262 240V99Q275 95 293 93T329 91Q374 91 398 112T423 168Z" />
<glyph unicode="&#x44b;" glyph-name="uni044B" horiz-adv-x="759" d="M359 168Q359 202 335 223T258 244Q242 244 227 243T197 240V99Q210 95 228 93T265 91Q310 91 334 112T359 168ZM491 180Q491 140 476 106T430 46T353 6T245 -9Q224 -9 201 -8T153 -5T108
0T70 7V497H197V340Q215 342 236 343T281 344Q381 344 436 301T491 180ZM561 0V497H689V0H561Z" />
<glyph unicode="&#x44c;" glyph-name="uni044C" horiz-adv-x="509" d="M359 168Q359 202 335 223T258 244Q242 244 227 243T197 240V99Q210 95 228 93T265 91Q310 91 334 112T359 168ZM491 180Q491 140 476 106T430 46T353 6T245 -9Q224 -9 201 -8T153 -5T108
0T70 7V497H197V340Q215 342 236 343T281 344Q381 344 436 301T491 180Z" />
<glyph unicode="&#x44d;" glyph-name="uni044D" horiz-adv-x="457" d="M424 249Q424 192 408 145T358 63T278 10T169 -9Q130 -9 94 -5T33 9L53 106Q78 97 106 92T167 87Q220 87 254 117T294 207H102V296H293Q286 353 252 381T162 409Q103 409 58 394L38 487Q103
507 176 507Q296 507 360 442T424 249Z" />
<glyph unicode="&#x44e;" glyph-name="uni044E" horiz-adv-x="770" d="M604 248Q604 321 577 360T502 399Q479 399 460 390T428 361T407 313T399 249Q399 176 426 138T501 99Q549 99 576 137T604 248ZM737 260Q737 203 721 154T673 67T595 10T492 -10Q395 -10
338 44T274 204H197V0H69V497H197V303H277Q285 347 303 384T351 448T421 491T511 507Q617 507 677 445T737 260Z" />
<glyph unicode="&#x44f;" glyph-name="uni044F" horiz-adv-x="524" d="M326 0V185H272L159 0H14L115 159Q125 175 134 189T152 212Q102 225 74 258T45 338Q45 416 105 461T280 506Q321 506 366 503T454 494V0H326ZM326 414Q313 416 297 417T268 418Q222 418 200
399T178 346Q178 313 200 295T269 276H326V414Z" />
<glyph unicode="&#x450;" glyph-name="uni0450" horiz-adv-x="514" d="M349 307Q350 358 327 385T263 413Q223 413 196 385T165 307H349ZM476 296Q476 272 475 251T472 221H164Q164 89 296 89Q368 89 446 115L459 20Q417 6 371 -2T281 -10Q160 -10 97 52T34 244Q34
300 50 348T97 432T172 487T270 507Q323 507 362 491T427 447T464 380T476 296ZM283 558L120 687L190 763L340 619L283 558Z" />
<glyph unicode="&#x451;" glyph-name="uni0451" horiz-adv-x="514" d="M349 307Q350 358 327 385T263 413Q223 413 196 385T165 307H349ZM476 296Q476 272 475 251T472 221H164Q164 89 296 89Q368 89 446 115L459 20Q417 6 371 -2T281 -10Q160 -10 97 52T34 244Q34
300 50 348T97 432T172 487T270 507Q323 507 362 491T427 447T464 380T476 296ZM234 648Q234 619 214 599T165 579Q136 579 116 599T96 648Q96 677 116 697T165 717Q194 717 214 697T234 648ZM437 648Q437 619 417 599T368 579Q339 579 319 599T299 648Q299 677
319 697T368 717Q397 717 417 697T437 648Z" />
<glyph unicode="&#x452;" glyph-name="uni0452" horiz-adv-x="571" d="M512 184Q512 100 508 44T495 -50T473 -111T440 -154Q417 -177 385 -192T309 -219L279 -119Q324 -105 345 -86Q356 -75 363 -62T376 -23T383 44T385 154V172Q385 244 381 288T367 357T344
389T310 397Q289 397 270 386T236 354T212 306T203 249V0H75V562H0V661H75V730H203V661H321V562H203V508Q203 482 201 458T194 414H195Q214 453 256 478T349 504Q394 504 425 489T475 439T503 346T512 203V184V184Z" />
<glyph unicode="&#x453;" glyph-name="uni0453" horiz-adv-x="376" d="M197 392V0H69V497H357V392H197ZM181 558L124 619L274 763L344 688L181 558Z" />
<glyph unicode="&#x454;" glyph-name="uni0454" horiz-adv-x="438" d="M412 14Q352 -9 278 -9Q215 -9 170 7T94 57T49 136T34 243Q34 303 51 351T101 435T183 488T293 506Q357 506 407 489L387 389Q338 410 288 410Q261 410 239 402T202 379T177 342T164 295H346V208H164Q167
181 176 159T202 121T243 96T299 87Q344 87 393 106L412 14Z" />
<glyph unicode="&#x455;" glyph-name="uni0455" horiz-adv-x="417" d="M378 152Q378 117 365 88T324 36T256 2T162 -10Q132 -10 102 -7T48 3L55 109Q78 100 109 95T168 89Q205 89 225 102T245 140Q245 160 232 172T194 195T141 216T91 243T55 286T41 352Q41 385
54 413T93 462T158 496T250 508Q271 508 294 506T342 499L335 398Q313 404 290 408T244 412Q209 412 191 399T172 364Q172 345 185 333T224 310T277 288T328 260T364 217T378 152Z" />
<glyph unicode="&#x456;" glyph-name="uni0456" horiz-adv-x="266" d="M69 0V497H197V0H69ZM213 648Q213 616 190 594T133 571Q100 571 77 593T54 648Q54 680 77 703T133 726Q166 726 189 704T213 648Z" />
<glyph unicode="&#x457;" glyph-name="uni0457" horiz-adv-x="266" d="M69 0V497H197V0H69ZM551 648Q551 620 531 600T482 579Q453 579 433 599T413 648Q413 677 433 697T482 717Q511 717 531 697T551 648ZM366 648Q366 620 346 600T297 579Q268 579 248 599T228
648Q228 677 248 697T297 717Q326 717 346 697T366 648Z" />
<glyph unicode="&#x458;" glyph-name="uni0458" horiz-adv-x="270" d="M201 -37Q201 -88 191 -127T158 -193T100 -234T14 -248Q-10 -248 -32 -245T-63 -240L-54 -131Q-47 -134 -29 -137T12 -141Q46 -141 60 -121T74 -50V497H201V-37ZM217 648Q217 616 194 594T137
571Q104 571 81 593T57 648Q57 680 80 703T137 726Q170 726 193 704T217 648Z" />
<glyph unicode="&#x459;" glyph-name="uni0459" horiz-adv-x="776" d="M337 395H213Q211 275 198 197T161 76T100 13T12 -8L-1 102Q25 105 41 118T69 171T88 288T95 497H465V340Q482 342 503 343T548 344Q598 344 637 333T703 301T744 250T758 180Q758 140 743
106T697 46T620 6T512 -9Q491 -9 468 -8T421 -5T375 0T337 7V395ZM465 99Q478 95 496 93T532 91Q577 91 601 112T626 168Q626 184 621 198T603 222T572 238T525 244Q509 244 494 243T465 240V99Z" />
<glyph unicode="&#x45a;" glyph-name="uni045A" horiz-adv-x="809" d="M659 168Q659 202 635 223T558 244Q542 244 527 243T498 240V99Q511 95 529 93T565 91Q610 91 634 112T659 168ZM498 340Q515 342 536 343T582 344Q681 344 736 301T792 180Q792 140 777 106T731
46T653 6T545 -9Q524 -9 501 -8T454 -5T408 0T370 7V201H197V0H70V497H197V307H370V497H498V340Z" />
<glyph unicode="&#x45b;" glyph-name="uni045B" horiz-adv-x="577" d="M380 0V315Q380 356 366 376T318 397Q294 397 273 385T236 350T212 299T203 236V0H75V562H0V661H75V730H203V661H322V562H203V504Q203 478 201 455T194 413L195 412Q218 455 260 479T359 504Q400
504 428 492T474 459T499 409T507 346V0H380Z" />
<glyph unicode="&#x45c;" glyph-name="uni045C" horiz-adv-x="524" d="M350 0L197 238V0H69V497H197V282L350 497H499L322 271L508 0H350ZM267 558L210 619L360 763L430 688L267 558Z" />
<glyph unicode="&#x45d;" glyph-name="uni045D" horiz-adv-x="592" d="M394 0V195Q394 233 396 266T404 341H403Q394 320 382 297T354 249L204 0H70V497H197V301Q197 262 195 234T188 160H189Q200 182 213 205T239 250L388 497H522V0H394ZM310 558L147 687L217
763L367 619L310 558Z" />
<glyph unicode="&#x45e;" glyph-name="uni045E" horiz-adv-x="570" d="M100 -116Q133 -128 171 -134T248 -141Q312 -141 344 -112T376 -20V8Q376 25 378 47T385 91H384Q361 47 320 20T217 -7Q175 -7 147 5T101 39T77 88T69 150V497H196V181Q196 142 209 120T258
98Q282 98 303 111T339 146T364 197T373 259V497H501V-7Q501 -71 483 -116T430 -191T347 -235T238 -249Q159 -249 89 -232L100 -116ZM470 716Q470 682 459 655T424 609T365 579T283 568Q191 568 145 606T99 716H212Q212 678 230 660T286 641Q321 641 338 660T356
716H470Z" />
<glyph unicode="&#x45f;" glyph-name="uni045F" horiz-adv-x="570" d="M340 0V-138H230V0H70V497H197V103H372V497H500V0H340Z" />
<glyph unicode="&#x462;" glyph-name="uni0462" horiz-adv-x="668" d="M288 411H381Q439 411 485 398T563 359T611 298T628 218Q628 163 609 122T552 52T463 9T347 -5Q247 -5 158 2V504H15V610H158V707H288V610H493V504H288V411ZM288 105Q323 103 362 103Q425
103 458 130T492 206Q492 230 484 248T460 279T419 299T360 306H288V105Z" />
<glyph unicode="&#x463;" glyph-name="uni0463" horiz-adv-x="533" d="M222 402V317Q240 319 262 320T306 321Q356 321 395 311T461 281T502 233T516 167Q516 130 501 98T455 42T377 4T269 -9Q248 -9 225 -8T178 -5T133 -1T95 5V402H8V497H95V650L222 684V497H359V402H222ZM222
91Q235 86 253 85T289 83Q334 83 358 103T383 156Q383 172 378 185T360 208T329 223T282 229Q266 229 251 228T222 226V91Z" />
<glyph unicode="&#x472;" glyph-name="uni0472" horiz-adv-x="713" d="M677 347Q677 261 651 194T580 81T474 12T346 -11Q270 -11 212 12T114 79T56 185T36 328Q36 414 61 481T133 594T239 663T367 686Q442 686 500 664T597 598T657 491T677 347ZM537 396Q525
482 479 527T356 572Q322 572 292 561T237 528T197 473T176 396H537ZM174 295Q177 251 190 216T227 156T282 117T356 103Q391 103 422 114T477 149T518 209T538 295H174Z" />
<glyph unicode="&#x473;" glyph-name="uni0473" horiz-adv-x="553" d="M520 260Q520 202 503 153T454 68T375 11T267 -10Q214 -10 171 4T97 49T50 126T33 237Q33 295 50 344T99 429T178 486T286 507Q339 507 382 493T456 448T503 371T520 260ZM390 294Q388 322
379 343T356 380T322 403T277 412Q226 412 198 380T163 294H390ZM163 210Q167 150 196 118T276 86Q300 86 320 94T355 117T379 156T390 210H163Z" />
<glyph unicode="&#x474;" glyph-name="uni0474" horiz-adv-x="626" d="M238 0L3 675H145L278 277Q287 246 298 212T316 146H318Q323 176 331 206T348 268L403 473Q419 533 434 572T471 634T523 668T599 679Q626 679 648 675V565Q629 566 611 566Q596 566 586 562T566
544T547 505T524 437L394 0H238Z" />
<glyph unicode="&#x475;" glyph-name="uni0475" horiz-adv-x="517" d="M526 395Q520 396 513 396T497 397Q485 397 477 394T462 381T449 357T435 317L338 0H166L5 497H144L218 265Q228 230 237 191T253 114H256Q263 149 270 181T284 241L317 357Q327 396 339 424T369
470T415 497T482 506Q493 506 504 505T526 502V395Z" />
<glyph unicode="&#x490;" glyph-name="uni0490" horiz-adv-x="429" d="M200 564V0H70V675H305V796H419V564H200Z" />
<glyph unicode="&#x491;" glyph-name="uni0491" horiz-adv-x="376" d="M197 392V0H70V497H246V613H357V392H197Z" />
<glyph unicode="&#x492;" glyph-name="uni0492" horiz-adv-x="458" d="M83 675H436V564H213V392H377V284H213V0H83V284H10V392H83V675Z" />
<glyph unicode="&#x493;" glyph-name="uni0493" horiz-adv-x="386" d="M79 497H367V392H207V285H309V184H207V0H79V184H15V285H79V497Z" />
<glyph unicode="&#x496;" glyph-name="uni0496" horiz-adv-x="881" d="M870 -147H756V0H685L492 324V0H361V324L167 0H5L236 345L13 675H168L361 369V675H492V369L686 675H837L617 351L787 112H870V-147Z" />
<glyph unicode="&#x497;" glyph-name="uni0497" horiz-adv-x="767" d="M645 -138V0H590L445 240V0H317V240L171 0H14L195 266L24 497H172L317 284V497H445V284L592 497H738L566 268L684 103H756V-138H645Z" />
<glyph unicode="&#x498;" glyph-name="uni0498" horiz-adv-x="526" d="M50 124Q83 113 124 107T212 100Q249 100 275 107T317 128T340 158T347 197Q347 224 336 242T303 273T249 290T173 296H117V397H175Q206 397 233 402T282 419T316 448T329 492Q329 510 324
525T305 552T268 571T208 578Q171 578 135 571T65 553L54 657Q95 669 141 676T234 684Q293 684 336 672T408 637T451 583T465 514Q465 461 436 422T355 365V364Q386 358 410 344T452 310T477 264T486 206Q486 167 474 133T435 72T370 26T282 -2V-147H168V-7Q130
-6 95 -1T37 10L50 124Z" />
<glyph unicode="&#x499;" glyph-name="uni0499" horiz-adv-x="447" d="M50 108Q82 94 116 87T186 80Q233 80 256 100T280 149Q280 181 252 196T170 212H106V298H169Q216 298 241 313T266 358Q266 371 261 382T246 401T218 413T175 418Q146 418 115 412T56 395L41
483Q76 494 117 501T198 508Q253 508 290 497T351 468T385 427T395 379Q395 338 372 310T310 270V269Q333 265 352 257T386 234T408 201T416 157Q416 129 406 104T376 58T328 22T261 -2V-138H150V-10Q113 -9 85 -4T31 8L50 108Z" />
<glyph unicode="&#x49a;" glyph-name="uni049A" horiz-adv-x="616" d="M604 -147H490V0H417L200 324V0H70V675H200V369L418 675H577L330 350L517 112H604V-147Z" />
<glyph unicode="&#x49b;" glyph-name="uni049B" horiz-adv-x="526" d="M516 -138H405V0H350L197 238V0H69V497H197V282L350 497H499L322 271L444 103H516V-138Z" />
<glyph unicode="&#x4a0;" glyph-name="uni04A0" horiz-adv-x="695" d="M515 0L298 324V0H168V565H15V675H298V369L517 675H674L427 351L686 0H515Z" />
<glyph unicode="&#x4a1;" glyph-name="uni04A1" horiz-adv-x="589" d="M387 271L572 0H414L262 238V0H134V392H6V497H262V282L414 497H564L387 271Z" />
<glyph unicode="&#x4a2;" glyph-name="uni04A2" horiz-adv-x="712" d="M691 112V-147H577V0H478V293H200V0H70V675H200V405H478V675H608V112H691Z" />
<glyph unicode="&#x4a3;" glyph-name="uni04A3" horiz-adv-x="592" d="M572 103V-138H462V0H377V201H197V0H70V497H197V307H377V497H504V103H572Z" />
<glyph unicode="&#x4a4;" glyph-name="uni04A4" horiz-adv-x="777" d="M486 0V293H200V0H70V675H200V405H486V675H762V569H617V0H486Z" />
<glyph unicode="&#x4a5;" glyph-name="uni04A5" horiz-adv-x="638" d="M377 0V201H197V0H70V497H197V307H377V497H633V392H504V0H377Z" />
<glyph unicode="&#x4aa;" glyph-name="uni04AA" horiz-adv-x="566" d="M526 23Q497 11 462 4T387 -6V-147H273V0Q210 10 165 39T92 111T51 205T38 316Q38 397 59 464T122 579T228 654T376 681Q413 681 450 676T520 661L502 541Q472 553 438 559T370 565Q322 565
287 548T228 501T193 429T181 338Q181 227 229 169T378 110Q410 110 445 117T506 138L526 23Z" />
<glyph unicode="&#x4ab;" glyph-name="uni04AB" horiz-adv-x="429" d="M403 20Q383 10 357 3T302 -7V-138H191V-1Q157 6 128 23T78 69T46 137T34 232Q34 291 49 341T94 428T170 486T278 507Q311 507 343 501T402 485L369 372Q346 385 323 392T274 399Q248 399
228 388T195 357T174 310T167 249Q167 216 173 189T194 142T229 112T283 101Q306 101 330 107T375 123L403 20Z" />
<glyph unicode="&#x4ae;" glyph-name="uni04AE" horiz-adv-x="561" d="M345 249V0H215V248L-2 675H141L235 485Q249 456 260 430T281 378H283Q293 404 305 431T335 494L425 675H563L345 249Z" />
<glyph unicode="&#x4af;" glyph-name="uni04AF" horiz-adv-x="507" d="M313 0V-241H186V0L5 497H147L218 291Q228 262 237 230T253 165H255Q259 182 263 200T273 235T282 267T291 294L363 497H501L313 0Z" />
<glyph unicode="&#x4b0;" glyph-name="uni04B0" horiz-adv-x="567" d="M346 250H505V144H346V0H216V144H58V250H216L9 675H151L236 489Q250 460 261 432T283 377H284Q296 406 309 438T338 502L420 675H557L346 250Z" />
<glyph unicode="&#x4b1;" glyph-name="uni04B1" horiz-adv-x="511" d="M455 99V0H315V-241H188V0H48V99H171L5 497H150L220 316Q232 283 241 254T257 197H259Q262 211 267 228T277 261T287 292T298 319L369 497H506L333 99H455Z" />
<glyph unicode="&#x4b2;" glyph-name="uni04B2" horiz-adv-x="645" d="M633 112V-147H519V0H454L309 248L164 0H10L225 345L23 675H174L311 441L447 675H595L396 346L547 112H633Z" />
<glyph unicode="&#x4b3;" glyph-name="uni04B3" horiz-adv-x="547" d="M356 0L260 167L164 0H11L182 251L21 497H174L270 333L367 497H509L353 252L455 103H534V-138H424V0H356Z" />
<glyph unicode="&#x4b6;" glyph-name="uni04B6" horiz-adv-x="656" d="M636 -147H522V0H422V261Q389 252 354 247T282 242Q209 242 162 259T89 306T52 376T41 466V675H172V486Q172 452 177 427T198 384T238 359T303 350Q335 350 364 355T422 369V675H552V112H636V-147Z" />
<glyph unicode="&#x4b7;" glyph-name="uni04B7" horiz-adv-x="551" d="M421 -138V0H336V183Q312 171 281 166T216 160Q165 160 131 172T75 206T46 256T37 318V497H165V343Q165 321 169 304T182 277T205 261T240 256Q263 256 287 261T336 279V497H464V103H532V-138H421Z" />
<glyph unicode="&#x4ba;" glyph-name="uni04BA" horiz-adv-x="640" d="M451 0V199Q451 232 445 257T424 300T384 327T320 336Q287 336 258 331T200 316V0H70V675H200V424Q232 433 268 438T341 444Q414 444 460 427T534 379T571 307T581 219V0H451Z" />
<glyph unicode="&#x4bb;" glyph-name="uni04BB" horiz-adv-x="571" d="M374 0V318Q374 359 360 379T312 400Q288 400 267 388T231 353T206 301T197 239V0H69V730H197V516Q197 490 195 463T188 415H190Q212 458 254 482T353 507Q394 507 422 495T468 462T493 412T501
349V0H374Z" />
<glyph unicode="&#x4c0;" glyph-name="uni04C0" horiz-adv-x="270" d="M70 0V675H200V0H70Z" />
<glyph unicode="&#x4c1;" glyph-name="uni04C1" horiz-adv-x="854" d="M361 675H492V369L686 675H837L617 351L851 0H685L492 324V0H361V324L167 0H5L236 345L13 675H168L361 369V675ZM613 858Q613 826 602 801T567 757T508 728T426 718Q334 718 288 754T242 858H356Q356
824 374 807T429 790Q464 790 481 807T498 858H613Z" />
<glyph unicode="&#x4c2;" glyph-name="uni04C2" horiz-adv-x="762" d="M317 497H445V284L592 497H738L566 268L747 0H590L445 240V0H317V240L171 0H14L195 266L24 497H172L317 284V497ZM569 716Q569 682 558 655T523 609T464 579T382 568Q290 568 244 606T198
716H311Q311 678 329 660T385 641Q420 641 437 660T455 716H569Z" />
<glyph unicode="&#x4cf;" glyph-name="uni04CF" horiz-adv-x="266" d="M69 0V730H197V0H69Z" />
<glyph unicode="&#x4d0;" glyph-name="uni04D0" horiz-adv-x="626" d="M335 458Q327 484 320 509T308 559H306Q301 535 294 509T280 459L210 247H405L335 458ZM480 0L434 144H180L133 0H2L228 675H397L624 0H480ZM498 858Q498 826 487 801T452 757T393 728T311
718Q219 718 173 754T127 858H241Q241 824 259 807T314 790Q349 790 366 807T383 858H498Z" />
<glyph unicode="&#x4d1;" glyph-name="uni04D1" horiz-adv-x="524" d="M325 221Q278 221 246 216T196 200T169 177T161 146Q161 121 177 105T221 88Q243 88 262 98T296 125T317 163T325 206V221ZM335 0Q335 24 336 45T340 84L339 85Q321 42 278 16T180 -10Q114
-10 76 30T38 132Q38 176 58 208T115 262T206 294T325 305V326Q325 370 305 390T236 410Q203 410 163 401T85 377L65 474Q110 489 159 498T251 508Q308 508 347 497T409 463T443 408T453 333V128Q453 95 454 62T457 0H335ZM445 716Q445 682 434 655T399 609T340
579T258 568Q166 568 120 606T74 716H187Q187 678 205 660T261 641Q296 641 313 660T331 716H445Z" />
<glyph unicode="&#x4d2;" glyph-name="uni04D2" horiz-adv-x="626" d="M335 458Q327 484 320 509T308 559H306Q301 535 294 509T280 459L210 247H405L335 458ZM480 0L434 144H180L133 0H2L228 675H397L624 0H480ZM486 788Q486 759 466 739T417 719Q388 719 368
739T348 788Q348 817 368 837T417 857Q446 857 466 837T486 788ZM270 788Q270 759 250 739T201 719Q172 719 152 739T132 788Q132 817 152 837T201 857Q230 857 250 837T270 788Z" />
<glyph unicode="&#x4d3;" glyph-name="uni04D3" horiz-adv-x="524" d="M325 221Q278 221 246 216T196 200T169 177T161 146Q161 121 177 105T221 88Q243 88 262 98T296 125T317 163T325 206V221ZM335 0Q335 24 336 45T340 84L339 85Q321 42 278 16T180 -10Q114
-10 76 30T38 132Q38 176 58 208T115 262T206 294T325 305V326Q325 370 305 390T236 410Q203 410 163 401T85 377L65 474Q110 489 159 498T251 508Q308 508 347 497T409 463T443 408T453 333V128Q453 95 454 62T457 0H335ZM231 648Q231 619 211 599T162 579Q133
579 113 599T93 648Q93 677 113 697T162 717Q191 717 211 697T231 648ZM434 648Q434 619 414 599T365 579Q336 579 316 599T296 648Q296 677 316 697T365 717Q394 717 414 697T434 648Z" />
<glyph unicode="&#x4d4;" glyph-name="uni04D4" horiz-adv-x="799" d="M371 567H362Q348 531 334 498T300 425L211 251H371V567ZM371 0V149H167L95 0H-38L296 675H739V566H498V400H720V294H498V112H742V0H371Z" />
<glyph unicode="&#x4d5;" glyph-name="uni04D5" horiz-adv-x="800" d="M325 221Q280 221 249 216T198 202T170 178T161 146Q161 121 177 105T221 88Q243 88 262 97T295 124T317 162T325 206V221ZM635 307Q636 358 614 385T549 413Q508 413 482 385T451 307H635ZM762
296Q762 277 761 256T758 221H450Q451 154 483 122T582 89Q618 89 655 95T732 115L745 20Q703 6 657 -2T567 -10Q491 -10 441 14T368 87H367Q338 41 293 16T191 -10Q119 -10 79 28T38 132Q38 175 57 207T114 262T205 294T325 305V326Q325 371 304 390T236 410Q204
410 164 401T85 377L65 474Q112 490 160 499T251 508Q306 508 344 493T406 446H407Q431 475 470 491T556 507Q607 507 646 492T711 449T749 382T762 296Z" />
<glyph unicode="&#x4d6;" glyph-name="uni04D6" horiz-adv-x="510" d="M70 0V675H452V566H200V400H431V294H200V112H452V0H70ZM688 858Q688 826 677 801T642 757T583 728T501 718Q409 718 363 754T317 858H431Q431 824 449 807T504 790Q539 790 556 807T573 858H688Z" />
<glyph unicode="&#x4d7;" glyph-name="uni04D7" horiz-adv-x="514" d="M349 307Q350 358 327 385T263 413Q223 413 196 385T165 307H349ZM476 296Q476 272 475 251T472 221H164Q164 89 296 89Q368 89 446 115L459 20Q417 6 371 -2T281 -10Q160 -10 97 52T34 244Q34
300 50 348T97 432T172 487T270 507Q323 507 362 491T427 447T464 380T476 296ZM442 716Q442 682 431 655T396 609T337 579T255 568Q163 568 117 606T71 716H184Q184 678 202 660T258 641Q293 641 310 660T328 716H442Z" />
<glyph unicode="&#x4d8;" glyph-name="uni04D8" horiz-adv-x="605" d="M428 395Q424 437 411 469T376 524T324 557T257 569Q200 569 157 559T78 532L53 641Q99 662 153 673T270 685Q336 685 392 665T487 603T549 497T572 343Q572 260 552 194T494 83T401 13T279
-11Q213 -11 166 10T88 69T42 162T27 283Q27 309 29 340T36 395H428ZM168 287V274Q168 229 177 198T202 146T240 116T290 107Q323 107 348 120T391 157T418 214T429 287H168Z" />
<glyph unicode="&#x4d9;" glyph-name="uni04D9" horiz-adv-x="509" d="M345 295Q342 350 308 380T209 410Q173 410 139 403T72 382L51 475Q92 491 138 499T229 508Q347 508 411 447T476 253Q476 195 461 147T416 63T342 9T242 -10Q187 -10 148 7T84 55T47 130T34
224Q34 258 39 295H345ZM160 210Q160 205 160 203T160 197Q160 139 183 113T248 86Q271 86 289 95T320 121T339 160T346 210H160Z" />
<glyph unicode="&#x4dc;" glyph-name="uni04DC" horiz-adv-x="854" d="M361 675H492V369L686 675H837L617 351L851 0H685L492 324V0H361V324L167 0H5L236 345L13 675H168L361 369V675ZM604 788Q604 759 584 739T535 719Q506 719 486 739T466 788Q466 817 486 837T535
857Q564 857 584 837T604 788ZM388 788Q388 759 368 739T319 719Q290 719 270 739T250 788Q250 817 270 837T319 857Q348 857 368 837T388 788Z" />
<glyph unicode="&#x4dd;" glyph-name="uni04DD" horiz-adv-x="762" d="M317 497H445V284L592 497H738L566 268L747 0H590L445 240V0H317V240L171 0H14L195 266L24 497H172L317 284V497ZM351 648Q351 619 331 599T282 579Q253 579 233 599T213 648Q213 677 233
697T282 717Q311 717 331 697T351 648ZM554 648Q554 619 534 599T485 579Q456 579 436 599T416 648Q416 677 436 697T485 717Q514 717 534 697T554 648Z" />
<glyph unicode="&#x4de;" glyph-name="uni04DE" horiz-adv-x="526" d="M486 206Q486 160 468 121T414 53T325 8T204 -8Q156 -8 110 -3T37 10L50 124Q82 113 123 107T212 100Q249 100 275 107T317 128T340 158T347 197Q347 250 304 273T173 296H117V397H175Q206
397 233 402T282 419T316 449T329 492Q329 510 324 525T305 552T267 571T208 578Q171 578 135 572T65 553L54 657Q95 669 141 676T234 684Q293 684 337 672T409 636T451 582T465 514Q465 462 436 422T355 365V364Q386 358 410 344T452 310T477 263T486 206ZM422
788Q422 759 402 739T353 719Q324 719 304 739T284 788Q284 817 304 837T353 857Q382 857 402 837T422 788ZM206 788Q206 759 186 739T137 719Q108 719 88 739T68 788Q68 817 88 837T137 857Q166 857 186 837T206 788Z" />
<glyph unicode="&#x4df;" glyph-name="uni04DF" horiz-adv-x="447" d="M671 157Q671 122 656 92T609 38T532 2T430 -11Q386 -11 351 -6T282 8L301 108Q333 94 368 87T439 80Q486 80 511 99T536 149Q536 181 508 196T423 212H357V298H420Q472 298 497 313T522 358Q522
386 499 402T428 418Q397 418 366 412T307 395L292 483Q327 494 369 501T452 508Q502 508 541 498T605 469T640 428T651 379Q651 298 565 270V269Q611 263 641 234T671 157ZM430 648Q430 619 410 599T361 579Q332 579 312 599T292 648Q292 677 312 697T361 717Q390
717 410 697T430 648ZM633 648Q633 619 613 599T564 579Q535 579 515 599T495 648Q495 677 515 697T564 717Q593 717 613 697T633 648Z" />
<glyph unicode="&#x4e2;" glyph-name="uni04E2" horiz-adv-x="682" d="M482 0V350Q482 384 484 420T489 492H488Q474 464 464 445T444 407L208 0H70V675H200V321Q200 290 199 255T194 188H195Q204 208 214 228T237 270L472 675H612V0H482ZM194 741V822H487V741H194Z" />
<glyph unicode="&#x4e3;" glyph-name="uni04E3" horiz-adv-x="592" d="M394 0V195Q394 233 396 266T404 341H403Q394 320 382 297T354 249L204 0H70V497H197V301Q197 262 195 234T188 160H189Q200 182 213 205T239 250L388 497H522V0H394ZM158 600V692H428V600H158Z" />
<glyph unicode="&#x4e4;" glyph-name="uni04E4" horiz-adv-x="682" d="M482 0V350Q482 384 484 420T489 492H488Q474 464 464 445T444 407L208 0H70V675H200V321Q200 290 199 255T194 188H195Q204 208 214 228T237 270L472 675H612V0H482ZM515 788Q515 759 495
739T446 719Q417 719 397 739T377 788Q377 817 397 837T446 857Q475 857 495 837T515 788ZM299 788Q299 759 279 739T230 719Q201 719 181 739T161 788Q161 817 181 837T230 857Q259 857 279 837T299 788Z" />
<glyph unicode="&#x4e5;" glyph-name="uni04E5" horiz-adv-x="592" d="M394 0V195Q394 233 396 266T404 341H403Q394 320 382 297T354 249L204 0H70V497H197V301Q197 262 195 234T188 160H189Q200 182 213 205T239 250L388 497H522V0H394ZM260 648Q260 619 240
599T191 579Q162 579 142 599T122 648Q122 677 142 697T191 717Q220 717 240 697T260 648ZM463 648Q463 619 443 599T394 579Q365 579 345 599T325 648Q325 677 345 697T394 717Q423 717 443 697T463 648Z" />
<glyph unicode="&#x4e8;" glyph-name="uni04E8" horiz-adv-x="713" d="M677 347Q677 261 651 194T580 81T474 12T346 -11Q270 -11 212 12T114 79T56 185T36 328Q36 414 61 481T133 594T239 663T367 686Q442 686 500 664T597 598T657 491T677 347ZM537 396Q525
482 479 527T356 572Q322 572 292 561T237 528T197 473T176 396H537ZM174 295Q177 251 190 216T227 156T282 117T356 103Q391 103 422 114T477 149T518 209T538 295H174Z" />
<glyph unicode="&#x4e9;" glyph-name="uni04E9" horiz-adv-x="553" d="M520 260Q520 202 503 153T454 68T375 11T267 -10Q214 -10 171 4T97 49T50 126T33 237Q33 295 50 344T99 429T178 486T286 507Q339 507 382 493T456 448T503 371T520 260ZM390 294Q388 322
379 343T356 380T322 403T277 412Q226 412 198 380T163 294H390ZM163 210Q167 150 196 118T276 86Q300 86 320 94T355 117T379 156T390 210H163Z" />
<glyph unicode="&#x4ee;" glyph-name="uni04EE" horiz-adv-x="562" d="M362 175Q341 121 317 85T267 28T211 -2T148 -11Q131 -11 108 -7T66 3L85 114Q116 102 146 102Q161 102 173 105T196 116T216 138T236 175L14 675H158L257 439Q269 411 279 383T297 329L300
323Q310 351 321 386T343 449L424 675H560L362 175ZM143 741V822H436V741H143Z" />
<glyph unicode="&#x4ef;" glyph-name="uni04EF" horiz-adv-x="570" d="M100 -116Q133 -128 171 -134T248 -141Q312 -141 344 -112T376 -20V8Q376 25 378 47T385 91H384Q361 47 320 20T217 -7Q175 -7 147 5T101 39T77 88T69 150V497H196V181Q196 142 209 120T258
98Q282 98 303 111T339 146T364 197T373 259V497H501V-7Q501 -71 483 -116T430 -191T347 -235T238 -249Q159 -249 89 -232L100 -116ZM150 600V692H420V600H150Z" />
<glyph unicode="&#x4f0;" glyph-name="uni04F0" horiz-adv-x="562" d="M362 175Q341 121 317 85T267 28T211 -2T148 -11Q131 -11 108 -7T66 3L85 114Q116 102 146 102Q161 102 173 105T196 116T216 138T236 175L14 675H158L257 439Q269 411 279 383T297 329L300
323Q310 351 321 386T343 449L424 675H560L362 175ZM467 788Q467 759 447 739T398 719Q369 719 349 739T329 788Q329 817 349 837T398 857Q427 857 447 837T467 788ZM251 788Q251 759 231 739T182 719Q153 719 133 739T113 788Q113 817 133 837T182 857Q211 857
231 837T251 788Z" />
<glyph unicode="&#x4f1;" glyph-name="uni04F1" horiz-adv-x="570" d="M100 -116Q133 -128 171 -134T248 -141Q312 -141 344 -112T376 -20V8Q376 25 378 47T385 91H384Q361 47 320 20T217 -7Q175 -7 147 5T101 39T77 88T69 150V497H196V181Q196 142 209 120T258
98Q282 98 303 111T339 146T364 197T373 259V497H501V-7Q501 -71 483 -116T430 -191T347 -235T238 -249Q159 -249 89 -232L100 -116ZM252 648Q252 619 232 599T183 579Q154 579 134 599T114 648Q114 677 134 697T183 717Q212 717 232 697T252 648ZM455 648Q455
619 435 599T386 579Q357 579 337 599T317 648Q317 677 337 697T386 717Q415 717 435 697T455 648Z" />
<glyph unicode="&#x4f2;" glyph-name="uni04F2" horiz-adv-x="562" d="M362 175Q341 121 317 85T267 28T211 -2T148 -11Q131 -11 108 -7T66 3L85 114Q116 102 146 102Q161 102 173 105T196 116T216 138T236 175L14 675H158L257 439Q269 411 279 383T297 329L300
323Q310 351 321 386T343 449L424 675H560L362 175ZM179 714L120 765L247 914L320 851L179 714ZM371 713L314 766L459 907L527 840L371 713Z" />
<glyph unicode="&#x4f3;" glyph-name="uni04F3" horiz-adv-x="570" d="M100 -116Q133 -128 171 -134T248 -141Q312 -141 344 -112T376 -20V8Q376 25 378 47T385 91H384Q361 47 320 20T217 -7Q175 -7 147 5T101 39T77 88T69 150V497H196V181Q196 142 209 120T258
98Q282 98 303 111T339 146T364 197T373 259V497H501V-7Q501 -71 483 -116T430 -191T347 -235T238 -249Q159 -249 89 -232L100 -116ZM171 560L111 611L240 766L314 704L171 560ZM360 560L304 611L447 758L516 691L360 560Z" />
<glyph unicode="&#x4f4;" glyph-name="uni04F4" horiz-adv-x="624" d="M424 0V261Q353 242 283 242Q212 242 165 258T91 305T54 375T43 466V675H173V486Q173 451 179 426T200 384T240 359T304 350Q365 350 424 369V675H554V0H424ZM478 788Q478 759 458 739T409
719Q380 719 360 739T340 788Q340 817 360 837T409 857Q438 857 458 837T478 788ZM262 788Q262 759 242 739T193 719Q164 719 144 739T124 788Q124 817 144 837T193 857Q222 857 242 837T262 788Z" />
<glyph unicode="&#x4f5;" glyph-name="uni04F5" horiz-adv-x="534" d="M336 0V183Q285 160 216 160Q164 160 130 172T75 207T46 257T37 318V497H165V343Q165 298 182 277T240 256Q263 256 287 261T336 279V497H464V0H336ZM219 648Q219 619 199 599T150 579Q121
579 101 599T81 648Q81 677 101 697T150 717Q179 717 199 697T219 648ZM422 648Q422 619 402 599T353 579Q324 579 304 599T284 648Q284 677 304 697T353 717Q382 717 402 697T422 648Z" />
<glyph unicode="&#x4f8;" glyph-name="uni04F8" horiz-adv-x="846" d="M400 217Q400 268 367 296T264 324Q243 324 226 324T200 322V105Q207 105 224 105T263 104Q332 104 366 132T400 217ZM538 225Q538 171 517 128T458 56T367 11T254 -4Q231 -4 205 -4T153 -3T106
-1T70 1V675H200V429Q209 430 228 430T272 431Q338 431 388 417T472 377T521 312T538 225ZM645 0V675H775V0H645ZM600 788Q600 759 580 739T531 719Q502 719 482 739T462 788Q462 817 482 837T531 857Q560 857 580 837T600 788ZM384 788Q384 759 364 739T315 719Q286
719 266 739T246 788Q246 817 266 837T315 857Q344 857 364 837T384 788Z" />
<glyph unicode="&#x4f9;" glyph-name="uni04F9" horiz-adv-x="762" d="M359 168Q359 202 335 223T258 244Q242 244 227 243T197 240V99Q210 95 228 93T265 91Q310 91 334 112T359 168ZM491 180Q491 140 476 106T430 46T353 6T245 -9Q224 -9 201 -8T153 -5T108
0T70 7V497H197V340Q215 342 236 343T281 344Q381 344 436 301T491 180ZM564 0V497H692V0H564ZM348 648Q348 619 328 599T279 579Q250 579 230 599T210 648Q210 677 230 697T279 717Q308 717 328 697T348 648ZM551 648Q551 619 531 599T482 579Q453 579 433 599T413
648Q413 677 433 697T482 717Q511 717 531 697T551 648Z" />
<glyph unicode="&#xe3f;" glyph-name="uni0E3F" horiz-adv-x="649" d="M271 -113V-2Q115 0 70 0V674Q176 677 271 679V770H353V679Q412 679 456 667T529 633T573 580T588 507Q588 458 562 419T489 360V359Q545 345 578 305T611 207Q611 168 596 132T549 66T468
18T353 -2V-113H271ZM353 102Q383 103 405 110T443 131T465 162T473 201Q473 222 466 238T445 267T407 287T353 296V102ZM198 105Q225 103 271 102V297Q213 297 198 296V105ZM198 395Q209 394 271 394V576Q207 574 198 574V395ZM353 395Q403 400 428 424T453 488Q453
507 448 522T431 548T400 567T353 576V395Z" />
<glyph unicode="&#x1e02;" glyph-name="uni1E02" horiz-adv-x="581" d="M403 201Q403 248 369 272T261 297Q243 297 226 297T200 296V105Q211 104 232 103T273 102Q337 102 370 129T403 201ZM383 488Q383 529 356 552T268 576Q252 576 236 576T200 574V395Q211
394 223 394T258 394Q320 394 351 418T383 488ZM543 207Q543 167 527 130T478 63T392 16T269 -2Q251 -2 184 -1T70 0V674Q97 675 155 677T277 679Q398 679 459 635T520 507Q520 458 494 418T422 360V359Q450 352 472 338T510 305T534 261T543 207ZM351 794Q351
762 329 740T275 717Q243 717 221 739T198 794Q198 825 220 847T275 870Q307 870 329 848T351 794Z" />
<glyph unicode="&#x1e03;" glyph-name="uni1E03" horiz-adv-x="559" d="M389 261Q389 401 304 401Q280 401 260 388T226 353T205 301T197 241V102Q226 92 264 92Q292 92 314 101T354 131T380 183T389 261ZM523 274Q523 211 505 159T452 69T367 11T254 -10Q207
-10 156 -3T69 14V730H197V516Q197 493 195 466T189 419H190Q209 460 249 483T340 507Q429 507 476 446T523 274ZM466 861Q466 829 444 807T390 784Q358 784 336 806T313 861Q313 892 335 914T390 937Q422 937 444 915T466 861Z" />
<glyph unicode="&#x1e0a;" glyph-name="uni1E0A" horiz-adv-x="667" d="M490 339Q490 395 479 437T442 509T377 554T279 570Q256 570 236 569T200 567V112Q214 110 233 109T271 107Q319 107 359 121T428 163T474 236T490 339ZM630 349Q630 264 604 198T528 87T410
19T258 -4Q214 -4 160 -2T70 1V674Q128 676 180 677T288 679Q368 679 431 661T538 602T606 499T630 349ZM371 794Q371 762 349 740T295 717Q263 717 241 739T218 794Q218 825 240 847T295 870Q327 870 349 848T371 794Z" />
<glyph unicode="&#x1e0b;" glyph-name="uni1E0B" horiz-adv-x="559" d="M362 397Q344 401 328 403T295 405Q237 405 204 365T170 236Q170 95 255 95Q279 95 299 108T333 144T354 196T362 258V397ZM370 0Q370 19 371 41T376 83H374Q353 40 312 15T217 -11Q128 -11
82 51T36 222Q36 285 54 337T106 427T189 485T299 506Q316 506 331 505T362 502V730H489V0H370ZM501 861Q501 829 479 807T425 784Q393 784 371 806T348 861Q348 892 370 914T425 937Q457 937 479 915T501 861Z" />
<glyph unicode="&#x1e1e;" glyph-name="uni1E1E" horiz-adv-x="471" d="M200 564V388H423V282H200V0H70V675H440V564H200ZM327 794Q327 762 305 740T251 717Q219 717 197 739T174 794Q174 825 196 847T251 870Q283 870 305 848T327 794Z" />
<glyph unicode="&#x1e1f;" glyph-name="uni1E1F" horiz-adv-x="354" d="M365 625Q357 627 339 630T301 634Q260 634 241 611T222 535V497H338V398H222V0H95V398H8V497H95V526Q95 634 146 686T298 738Q322 738 343 736T374 731L365 625ZM319 861Q319 829 297 807T243
784Q211 784 189 806T166 861Q166 892 188 914T243 937Q275 937 297 915T319 861Z" />
<glyph unicode="&#x1e33;" glyph-name="uni1E33" horiz-adv-x="523" d="M351 0L197 246V0H69V730H197V290L342 497H492L321 275L511 0H351ZM340 -150Q340 -166 334 -180T318 -204T293 -221T264 -227Q248 -227 234 -221T210 -205T193 -180T187 -150Q187 -134 193
-121T209 -97T234 -80T264 -74Q279 -74 293 -80T317 -96T334 -121T340 -150Z" />
<glyph unicode="&#x1e35;" glyph-name="uni1E35" horiz-adv-x="523" d="M351 0L197 246V0H69V730H197V290L342 497H492L321 275L511 0H351ZM126 -103H405V-195H126V-103Z" />
<glyph unicode="&#x1e40;" glyph-name="uni1E40" horiz-adv-x="896" d="M732 0L691 332Q684 389 680 447T675 552H673Q664 507 652 460T623 364L501 0H380L263 350Q248 396 232 454T208 552H206Q205 508 202 450T192 329L157 0H31L112 675H293L411 325Q421 295
430 259T446 188H448Q456 229 464 263T481 325L599 675H782L865 0H732ZM525 794Q525 762 503 740T449 717Q417 717 395 739T372 794Q372 825 394 847T449 870Q481 870 503 848T525 794Z" />
<glyph unicode="&#x1e41;" glyph-name="uni1E41" horiz-adv-x="866" d="M669 0V314Q669 357 656 378T610 400Q589 400 569 389T532 355T506 303T496 238V0H370V315Q370 356 358 378T311 400Q289 400 269 388T232 354T207 302T197 238V0H69V497H190Q190 478 189
453T184 408L185 407Q208 453 251 480T349 507Q381 507 406 499T447 476T472 445T486 408Q495 427 510 444T545 476T592 498T648 507Q723 507 760 467T797 342V0H669ZM509 653Q509 638 503 624T487 600T463 583T433 577Q417 577 403 583T379 599T362 623T356 653Q356
669 362 683T378 707T403 724T433 730Q448 730 462 724T487 708T503 683T509 653Z" />
<glyph unicode="&#x1e56;" glyph-name="uni1E56" horiz-adv-x="553" d="M530 462Q530 410 512 366T458 287T370 235T253 216Q241 216 230 216T209 217T200 218V0H70V675Q81 675 108 676T179 678T264 679Q394 679 462 621T530 462ZM396 448Q396 505 362 538T256
572Q224 572 200 571V328Q203 327 211 326T233 324T261 323Q325 323 360 357T396 448ZM347 794Q347 762 325 740T271 717Q239 717 217 739T194 794Q194 825 216 847T271 870Q303 870 325 848T347 794Z" />
<glyph unicode="&#x1e57;" glyph-name="uni1E57" horiz-adv-x="559" d="M389 261Q389 402 304 402Q280 402 260 389T226 353T205 301T197 239V101Q227 92 264 92Q292 92 314 101T354 131T380 183T389 261ZM523 275Q523 210 506 158T456 69T374 13T261 -7Q242 -7
227 -6T197 -3V-241H69V497H188Q188 476 187 454T183 414H185Q206 458 246 482T341 507Q429 507 476 447T523 275ZM378 653Q378 638 372 624T356 600T332 583T302 577Q286 577 272 583T248 599T231 623T225 653Q225 669 231 683T247 707T272 724T302 730Q317 730
331 724T356 708T372 683T378 653Z" />
<glyph unicode="&#x1e60;" glyph-name="uni1E60" horiz-adv-x="503" d="M467 199Q467 153 450 115T400 48T317 5T206 -11Q123 -11 49 7L63 132Q97 118 136 110T213 102Q238 102 259 107T295 122T319 148T328 186Q328 216 309 235T252 272T177 305T111 343T60 400T40
487Q40 531 57 567T107 630T187 671T295 686Q323 686 356 683T417 673L405 559Q377 568 347 573T287 578Q232 578 204 558T176 500Q176 472 195 453T252 416T327 383T396 344T447 287T467 199ZM328 800Q328 768 306 746T252 723Q220 723 198 745T175 800Q175 831
197 853T252 876Q284 876 306 854T328 800Z" />
<glyph unicode="&#x1e61;" glyph-name="uni1E61" horiz-adv-x="417" d="M378 152Q378 117 365 88T324 36T256 2T162 -10Q132 -10 102 -7T48 3L55 109Q78 100 109 95T168 89Q205 89 225 102T245 140Q245 160 232 172T194 195T141 216T91 243T55 286T41 352Q41 385
54 413T93 462T158 496T250 508Q271 508 294 506T342 499L335 398Q313 404 290 408T244 412Q209 412 191 399T172 364Q172 345 185 333T224 310T277 288T328 260T364 217T378 152ZM284 653Q284 638 278 624T262 600T238 583T208 577Q192 577 178 583T154 599T137
623T131 653Q131 669 137 683T153 707T178 724T208 730Q223 730 237 724T262 708T278 683T284 653Z" />
<glyph unicode="&#x1e6a;" glyph-name="uni1E6A" horiz-adv-x="510" d="M320 564V0H190V564H15V675H495V564H320ZM331 794Q331 762 309 740T255 717Q223 717 201 739T178 794Q178 825 200 847T255 870Q287 870 309 848T331 794Z" />
<glyph unicode="&#x1e6b;" glyph-name="uni1E6B" horiz-adv-x="375" d="M345 4Q320 -2 291 -6T239 -10Q197 -10 169 -2T125 25T101 73T93 149V398H8V497H93V650L221 684V497H340V398H221V173Q221 129 233 113T277 97Q306 97 336 104L345 4ZM233 794Q233 762 211
740T157 717Q125 717 103 739T80 794Q80 825 102 847T157 870Q189 870 211 848T233 794Z" />
<glyph unicode="&#x1e80;" glyph-name="Wgrave" horiz-adv-x="958" d="M765 0H604L501 369Q494 395 489 428T479 492H477Q465 404 456 369L355 0H193L24 675H163L253 306Q262 260 269 219T282 138H284Q290 179 297 220T316 304L418 675H548L653 300Q664 261 673
219T688 138H690Q696 184 702 223T716 298L805 675H933L765 0ZM548 716L332 769L362 861L569 786L548 716Z" />
<glyph unicode="&#x1e81;" glyph-name="wgrave" horiz-adv-x="796" d="M632 0H489L418 226Q410 256 403 285T391 342H390Q384 313 377 283T358 211L296 0H159L10 497H151L207 290Q207 290 221 232T241 148H242Q249 183 257 220T275 291L337 497H464L527 291Q539
248 547 214T562 147H564Q569 179 577 211T597 290L655 497H785L632 0ZM420 558L257 687L327 763L477 619L420 558Z" />
<glyph unicode="&#x1e82;" glyph-name="Wacute" horiz-adv-x="958" d="M765 0H604L501 369Q494 395 489 428T479 492H477Q465 404 456 369L355 0H193L24 675H163L253 306Q262 260 269 219T282 138H284Q290 179 297 220T316 304L418 675H548L653 300Q664 261 673
219T688 138H690Q696 184 702 223T716 298L805 675H933L765 0ZM418 716L397 786L605 861L634 769L418 716Z" />
<glyph unicode="&#x1e83;" glyph-name="wacute" horiz-adv-x="796" d="M632 0H489L418 226Q410 256 403 285T391 342H390Q384 313 377 283T358 211L296 0H159L10 497H151L207 290Q207 290 221 232T241 148H242Q249 183 257 220T275 291L337 497H464L527 291Q539
248 547 214T562 147H564Q569 179 577 211T597 290L655 497H785L632 0ZM379 558L322 619L472 763L542 688L379 558Z" />
<glyph unicode="&#x1e84;" glyph-name="Wdieresis" horiz-adv-x="958" d="M765 0H604L501 369Q494 395 489 428T479 492H477Q465 404 456 369L355 0H193L24 675H163L253 306Q262 260 269 219T282 138H284Q290 179 297 220T316 304L418 675H548L653 300Q664 261
673 219T688 138H690Q696 184 702 223T716 298L805 675H933L765 0ZM662 788Q662 759 642 739T593 719Q564 719 544 739T524 788Q524 817 544 837T593 857Q622 857 642 837T662 788ZM446 788Q446 759 426 739T377 719Q348 719 328 739T308 788Q308 817 328 837T377
857Q406 857 426 837T446 788Z" />
<glyph unicode="&#x1e85;" glyph-name="wdieresis" horiz-adv-x="796" d="M632 0H489L418 226Q410 256 403 285T391 342H390Q384 313 377 283T358 211L296 0H159L10 497H151L207 290Q207 290 221 232T241 148H242Q249 183 257 220T275 291L337 497H464L527 291Q539
248 547 214T562 147H564Q569 179 577 211T597 290L655 497H785L632 0ZM367 648Q367 619 347 599T298 579Q269 579 249 599T229 648Q229 677 249 697T298 717Q327 717 347 697T367 648ZM570 648Q570 619 550 599T501 579Q472 579 452 599T432 648Q432 677 452 697T501
717Q530 717 550 697T570 648Z" />
<glyph unicode="&#x1e9e;" glyph-name="uni1E9E" horiz-adv-x="693" d="M465 393Q557 384 606 335T656 205Q656 162 640 123T592 54T513 7T405 -11Q378 -11 346 -8T283 3L292 120Q318 111 347 106T407 100Q458 100 487 125T517 192Q517 236 483 263T369 290H316V379L463
568Q438 572 410 574T354 576Q273 576 237 539T200 426V0H70V422Q70 687 362 687Q419 687 484 681T609 664V574L465 393Z" />
<glyph unicode="&#x1ef2;" glyph-name="Ygrave" horiz-adv-x="561" d="M345 249V0H215V248L-2 675H141L235 485Q249 456 260 430T281 378H283Q293 404 305 431T335 494L425 675H563L345 249ZM534 716L318 769L348 861L555 786L534 716Z" />
<glyph unicode="&#x1ef3;" glyph-name="ygrave" horiz-adv-x="570" d="M100 -116Q133 -128 171 -134T248 -141Q312 -141 344 -112T376 -20V8Q376 25 378 47T385 91H384Q361 47 320 20T217 -7Q175 -7 147 5T101 39T77 88T69 150V497H196V181Q196 142 209 120T258
98Q282 98 303 111T339 146T364 197T373 259V497H501V-7Q501 -71 483 -116T430 -191T347 -235T238 -249Q159 -249 89 -232L100 -116ZM295 558L132 687L202 763L352 619L295 558Z" />
<glyph unicode="&#x2000;" glyph-name="uni2000" horiz-adv-x="500" />
<glyph unicode="&#x2001;" glyph-name="uni2001" horiz-adv-x="1000" />
<glyph unicode="&#x2002;" glyph-name="uni2002" horiz-adv-x="500" />
<glyph unicode="&#x2003;" glyph-name="uni2003" horiz-adv-x="1000" />
<glyph unicode="&#x2004;" glyph-name="uni2004" horiz-adv-x="333" />
<glyph unicode="&#x2005;" glyph-name="uni2005" horiz-adv-x="250" />
</font>
</defs>
</svg>
